<svg xmlns="http://www.w3.org/2000/svg" enable-background="new 0 0 3000 2000" viewBox="0 0 3000 2000"><switch><g><path d="M1649.658,1916.509c-52.129,0-101.208-11.836-138.198-33.325l-948.441-551.179
								c-38.25-22.227-59.288-52.273-59.242-84.604c0.049-32.537,21.409-62.771,60.143-85.132l943.771-544.885
								c37.188-21.469,86.365-33.292,138.472-33.292s101.165,11.826,138.135,33.302l649.341,377.358
								c40.408,23.481,62.634,55.19,62.585,89.287c-0.046,34.302-22.612,66.211-63.538,89.846l-95.105,54.907
								c-35.598,20.554-55.225,47.383-55.269,75.54c-0.039,27.529,19.758,54.834,54.312,74.919l7.527,4.368
								c40.405,23.484,62.634,55.198,62.585,89.294c-0.054,34.302-22.605,66.199-63.501,89.81l-555.122,320.498
								C1750.938,1904.688,1701.768,1916.509,1649.658,1916.509z" opacity=".1"/><path fill="#9eb346" d="M2333.442,1159.297l95.107-54.91c12.398-7.158,22.857-15.015,31.373-23.35
										c3.407-3.333,6.506-6.743,9.289-10.218c8.36-10.42,13.923-21.403,16.688-32.571c1.383-5.584,2.067-11.21,2.049-16.84
										l0.121,42.338c0.084,30.015-19.726,60.076-59.398,82.979l-95.107,54.91c-39.676,22.91-59.491,52.974-59.406,82.989
										l-0.12-42.338C2273.951,1212.271,2293.766,1182.203,2333.442,1159.297z"/><path fill="#b5cf43" d="M568.054,1107.109c-74.324,42.913-74.718,112.5-0.876,155.413l948.448,551.179
											c73.888,42.938,194.025,42.938,268.35,0.025l555.125-320.498c78.792-45.49,79.206-119.265,0.883-164.783l-7.513-4.364
											c-78.277-45.49-77.863-119.268,0.971-164.783l95.107-54.91c78.837-45.515,79.252-119.29,0.928-164.808l-649.341-377.355
											c-73.842-42.913-193.983-42.913-268.307,0L568.054,1107.109z"/><path fill="#9eb346" d="M567.179,1262.522l948.448,551.179c73.888,42.938,194.025,42.938,268.35,0.025
										l555.125-320.498c27.253-15.738,45.132-34.858,53.616-55.02c3.854-9.165,5.772-18.546,5.743-27.923l0.121,42.338
										c0.085,30.008-19.719,60.054-59.36,82.943l-555.125,320.498c-74.324,42.913-194.465,42.913-268.35-0.025l-948.447-551.175
										c-36.684-21.322-55.045-49.223-55.126-77.168l-0.121-42.338C512.134,1213.303,530.495,1241.204,567.179,1262.522z"/><path fill="#e6e6e6" d="M2174.916,1250.868c61.38,35.438,61.636,92.888,0.654,128.326
									c-60.982,35.439-160.095,35.439-221.476,0.001c-61.38-35.438-61.772-92.887-0.79-128.326
									C2014.286,1215.431,2113.535,1215.43,2174.916,1250.868z"/><path fill="#bf7600" d="M1974.9,1327.509c-10.344-6.37-21.679-14.107-34.472-27.476
									c-9.409-9.833-17.506-21.17-24.066-33.698c-9.39-17.933-12.409-33.701-13.86-41.279c-0.721-3.763-1.453-8.842-1.594-12.671
									c-0.286-7.75-0.215-18.104,0.175-25.849c2.135-22.978,18.632-45.542,49.37-62.791
									c-4.962,72.899,53.136,155.942,113.742,199.686v0l0,0v0l0,0c-60.605-43.744-118.704-126.787-113.742-199.686
									c64.839-36.383,168.492-35.336,231.515,2.339c28.842,17.242,44.177,39.166,46.112,61.364
									c0.173,3.953,0.747,9.223,0.575,13.176c-0.334,7.699-0.62,18.059-2.258,25.589c-3.275,15.049-3.275,15.049-7.383,26.305
									c-2.224,6.094-6.227,13.812-9.337,19.505c-3.389,6.203-8.997,13.847-13.361,19.407c-3.459,4.408-8.638,9.832-12.653,13.74
									c-13.708,13.344-29.021,22.263-33.387,24.679c-5.358,2.964-12.698,6.585-18.36,8.918
									c-11.371,4.685-19.999,6.901-20.085,6.923c-9.721,2.474-14.158,3.602-25.146,5.04c-11.576,1.514-23.358,1.376-23.854,1.369
									c-23.537-0.314-38.748-4.568-48.814-7.384C2004.159,1341.96,1987.713,1335.399,1974.9,1327.509z"/><path fill="#ffb030" d="M2234.897,1182.304c-2.016-23.121-17.989-45.958-48.03-63.917
									c-65.646-39.243-173.611-40.333-241.147-2.437c-32.017,17.966-49.2,41.469-51.424,65.403
									c-2.467,26.551,13.477,53.632,48.001,74.271c65.646,39.243,173.611,40.334,241.146,2.437
									C2220.073,1237.506,2237.286,1209.705,2234.897,1182.304z M2203.174,1241.07c-6.362,5.712-17.459,14.171-34.193,22.029
									c-21.599,10.142-42.112,14.413-44.38,14.866c-12.411,2.483-17.548,3.51-24.423,4.21c-18.79,1.913-18.79,1.913-37.957,2.142
									c-0.103,0.001-11.422,0.01-25.389-1.384c-10.568-1.054-16.546-2.134-24.819-3.627c-0.109-0.02-11.082-2.018-23.738-5.853
									c-10.896-3.301-17.937-6.273-22.144-8.049c-15.48-6.534-28.987-15.502-34.289-19.935
									c-7.718-6.454-9.108-7.617-13.876-13.001c-6.082-6.87-9.306-12.908-9.653-13.574c-1.217-2.331-4.449-8.523-5.635-13.834
									c-0.608-2.722-1.378-6.377-1.617-9.156c-0.241-2.8-0.111-6.56,0.023-9.366c2.135-22.978,18.631-45.542,49.37-62.791
									c64.839-36.383,168.492-35.336,231.516,2.339c28.842,17.242,44.177,39.167,46.112,61.364
									C2230.031,1211.535,2215.613,1229.903,2203.174,1241.07z"/><path fill="#ff9f00" d="M1961.305,1348.007c-3.051-1.883-7.161-4.346-10.05-6.47
									c-5.229-3.845-12.295-8.915-16.983-13.404c-5.285-5.06-12.128-12.042-16.873-17.612c-3.604-4.23-7.843-10.336-10.894-14.98
									c-5.728-8.72-11.418-20.302-14.85-30.226c-4.283-12.385-6.89-24.204-7.749-35.129c-0.528-6.713-1.51-19.207,1.528-36.723
									c1.162-6.698,3.625-15.459,5.697-21.934c0.519-1.62,1.842-5.216,4.873-11.09c6.052-11.725,15.408-21.102,18.131-23.697
									c6.223-5.929,14.03-12.589,28.893-21.105c0.689-0.387,1.566-0.358,2.691,0.315c-67.536,37.897-69.068,100.431-3.423,139.673
									s173.611,40.334,241.147,2.437c67.536-37.897,69.068-100.431,3.423-139.673c-65.646-39.243-173.61-40.334-241.146-2.437
									c-1.125-0.672-2.002-0.702-2.691-0.315c12.964-6.753,13.74-7.157,22.047-10.515c12.385-5.008,23.789-8.034,23.896-8.061
									c9.513-2.429,17.729-4.527,25.278-5.655c7.794-1.165,18.224-2.466,26.064-3.265c4.005-0.408,9.372-0.695,13.397-0.759
									c4-0.064,9.333-0.201,13.334-0.16c3.994,0.04,9.314,0.3,13.306,0.429c3.979,0.128,9.261,0.71,13.23,1.017
									c0.11,0.008,12.374,1.118,26.035,3.805c30.509,6.001,48.077,14.386,58.573,19.395c0.101,0.048,10.788,5.307,19.632,11.498
									c9.237,6.466,12.477,9.463,18.365,15.101c3.036,2.907,13.447,13.58,19.943,28.878c4.894,11.524,8.71,28.885,9.281,42.219
									c0.326,7.631,1.09,25.501-5.432,47.797c-10.849,37.087-32.901,58.953-41.202,67.184c-3.668,3.637-8.891,8.165-13.021,11.268
									c-5.673,4.263-13.512,9.596-19.599,13.242c-0.664,0.398-16.468,9.806-34.435,15.651
									c-11.942,3.885-43.665,14.203-88.421,9.819c-20.934-2.051-36.506-6.848-39.415-7.788c-7.762-2.51-13.369-4.323-20.769-7.578
									C1971.772,1354.166,1964.582,1350.029,1961.305,1348.007z"/><path fill="#ba7300" d="M2204.928,1305.702c-3.836,3.804-9.298,8.539-13.617,11.784
										c-5.933,4.458-14.131,10.036-20.498,13.849c-0.694,0.416-17.222,10.255-36.012,16.368
										c-12.49,4.062-45.665,14.854-92.471,10.268c-21.893-2.145-38.179-7.162-41.221-8.145
										c-8.117-2.625-13.982-4.521-21.72-7.925c-11.863-5.217-19.382-9.544-22.809-11.659c-3.191-1.969-7.489-4.546-10.51-6.767
										c-5.469-4.021-12.858-9.323-17.761-14.018c-5.528-5.292-12.683-12.594-17.646-18.419
										c-3.769-4.424-8.202-10.81-11.393-15.667c-3.76-5.724-7.434-12.628-10.589-19.541c0.882,3.121,1.867,6.282,2.975,9.484
										c3.432,9.924,9.122,21.506,14.85,30.226c3.051,4.644,7.29,10.75,10.894,14.98c4.745,5.57,11.587,12.552,16.873,17.612
										c4.688,4.489,11.754,9.559,16.983,13.404c2.889,2.124,6.999,4.587,10.05,6.47c3.276,2.022,10.466,6.16,21.81,11.149
										c7.399,3.254,13.007,5.068,20.769,7.578c2.909,0.941,18.482,5.737,39.415,7.789c44.757,4.385,76.479-5.934,88.421-9.818
										c17.968-5.845,33.771-15.253,34.435-15.651c6.087-3.646,13.926-8.979,19.599-13.242c4.13-3.103,9.353-7.63,13.021-11.268
										c8.302-8.231,30.353-30.097,41.202-67.184c0.116-0.395,0.189-0.762,0.301-1.154
										C2228.26,1282.542,2211.926,1298.762,2204.928,1305.702z"/><path fill="#574b4b" d="M2176.447,1134.865c60.71,35.051,61.03,91.866,0.751,126.896s-158.365,35.031-219.075-0.02
									c-60.673-35.03-60.993-91.844-0.714-126.875S2115.774,1099.835,2176.447,1134.865z"/><path fill="#b36d0d" d="M2119.832,556.369l-0.243,8.38c-2.161,74.86-5.12,177.386-11.994,237.194
								c-1.724,15.006-12.855,26.19-22.995,31.572v-327.52h-32.016v255.879c-7.089-6.107-13.179-14.919-14.417-25.694
								c-6.866-59.766-9.828-162.224-11.988-237.034l-0.248-8.538l-15.999,0.463l0.245,8.538
								c2.172,75.097,5.145,177.95,12.087,238.399c2.319,20.169,16.021,35.412,30.32,43.302v412.98
								c3.63,11.526,26.377,12.067,32.016,0V850.922c16.934-5.794,36.115-22.937,38.898-47.15
								c6.95-60.491,9.921-163.412,12.09-238.56l0.242-8.38L2119.832,556.369z"/><path fill="#ccc" d="M2134.869,589.903c-2.24-12.946-8.03-19.676-15.336-23.208
									c-1.128,39.079-2.484,85.38-4.491,129.202c5.179,4.782,10.416,8.996,15.429,12.567
									C2132.401,669.247,2133.76,627.39,2134.869,589.903z"/><path fill="#ccc" d="M2035.052,702.944c-2.51-32.013-4.356-70.057-5.801-108.122
									c-2.784,0.014-5.612,0.051-8.52,0.055c-2.474,1.477-4.932,2.982-7.319,4.554c1.174,30.301,2.601,60.512,4.429,87.617
									C2023.349,693.029,2029.264,698.349,2035.052,702.944z"/><path fill="#ccc" d="M2052.585,714.968c3.451,1.982,6.574,3.553,9.083,4.557
									c6.41-12.679,17.193-40.701,16.65-68.642c1.987,3.554,4.11,6.908,6.282,10.142v-95.586
									c-11.844,6.83-25.074,15.559-22.951,38.407c-2.818-2.666-5.852-4.535-9.065-5.87V714.968z"/><path fill="#7cb83d" d="M1815.608,438.747c21.931-28.837,41.855-20.998,61.055-12.207
									c13.077,18.927,26.476,33.261,4.545,62.098c-21.931,28.837-65.698,39.846-83.964,42.331
									C1793.487,514.375,1793.677,467.584,1815.608,438.747z"/><path fill="#bad3a2" d="M1876.663,426.539c13.077,18.927,26.476,33.261,4.545,62.098
									c-21.931,28.837-65.698,39.846-83.964,42.331C1800.369,516.44,1862.347,429.387,1876.663,426.539z"/><path fill="#88c942" d="M2125.396,295.808c-8.462-34.151,11.461-42.912,25.654-51.195
									c19.275-0.01,43.877-2.27,46.589,33.295c2.676,35.082-23.232,63.591-15.945,90.378
									C2161.744,373.23,2133.858,329.96,2125.396,295.808z"/><path fill="#bad3a2" d="M2151.049,244.614c19.275-0.01,43.877-2.27,46.589,33.295
									c2.676,35.082-23.232,63.591-15.945,90.378C2161.744,373.23,2164.257,269.067,2151.049,244.614z"/><path fill="#88c942" d="M2246.739,554.316c-25.652-24.082-13.68-42.258-6.26-56.92
									c16.18-10.476,35.611-25.733,57.202,2.658c21.298,28.006,15.025,66.014,35.691,84.55
									C2319.305,599.588,2272.391,578.398,2246.739,554.316z"/><path fill="#bad3a2" d="M2240.479,497.396c16.18-10.476,35.611-25.733,57.202,2.658
									c21.298,28.006,15.025,66.014,35.691,84.55C2319.305,599.588,2264.849,510.758,2240.479,497.396z"/><path fill="#7cb83d" d="M2189.432,336.502c-25.294-24.456-13.057-42.454-5.421-57.005
									c16.333-10.237,35.986-25.206,57.157,3.499c20.884,28.316,14.052,66.228,34.443,85.065
									C2261.324,382.836,2214.727,360.959,2189.432,336.502z"/><path fill="#bad3a2" d="M2184.01,279.497c16.333-10.237,35.986-25.206,57.157,3.499
									c20.884,28.316,14.052,66.228,34.443,85.065C2261.324,382.836,2208.181,293.216,2184.01,279.497z"/><path fill="#7cb83d" d="M2245.35,482.28c-24.992-24.765-12.534-42.611-4.721-57.068
									c16.457-10.036,36.292-24.763,57.11,4.201c20.534,28.57,13.238,66.395,33.396,85.482
									C2316.667,529.494,2270.342,507.045,2245.35,482.28z"/><path fill="#cae6ae" d="M2240.629,425.212c16.457-10.036,36.292-24.763,57.11,4.201
									c20.534,28.57,13.238,66.395,33.396,85.482C2316.667,529.494,2264.629,439.227,2240.629,425.212z"/><path fill="#7cb83d" d="M2248.427,390.242c-23.79-25.924-10.499-43.156-2.008-57.224
									c16.915-9.241,37.428-23.007,56.848,6.911c19.157,29.513,10.073,66.946,29.304,86.968
									C2317.427,440.79,2272.218,416.166,2248.427,390.242z"/><path fill="#cae6ae" d="M2246.419,333.017c16.915-9.241,37.428-23.007,56.848,6.911
									c19.157,29.513,10.073,66.946,29.304,86.968C2317.427,440.79,2269.728,348.156,2246.419,333.017z"/><path fill="#83c442" d="M2137.374,636.351c-8.462-34.151,11.461-42.913,25.654-51.195
									c19.275-0.01,43.877-2.27,46.589,33.295c2.676,35.082-23.232,63.591-15.945,90.378
									C2173.723,713.772,2145.836,670.502,2137.374,636.351z"/><path fill="#bad3a2" d="M2163.028,585.156c19.275-0.01,43.877-2.27,46.589,33.295
									c2.676,35.082-23.232,63.591-15.945,90.378C2173.723,713.772,2176.236,609.61,2163.028,585.156z"/><path fill="#7cb83d" d="M1914.401,618.442c18.532-29.908,38.717-21.767,54.557-17.393
									c13.469,13.788,32.268,29.818,8.708,56.598c-23.24,26.416-61.738,27.784-75.82,51.708
									C1884.376,698.529,1895.869,648.35,1914.401,618.442z"/><path fill="#cae6ae" d="M1968.958,601.049c13.469,13.788,32.268,29.818,8.708,56.598
									c-23.24,26.416-61.738,27.784-75.82,51.708C1884.376,698.529,1960.68,627.58,1968.958,601.049z"/><path fill="#7cb83d" d="M2017.585,559.344c-8.462-34.151,11.461-42.912,25.654-51.195
									c19.275-0.01,43.877-2.27,46.589,33.295c2.676,35.082-23.232,63.591-15.945,90.378
									C2053.935,636.765,2026.048,593.495,2017.585,559.344z"/><path fill="#bad3a2" d="M2043.239,508.149c19.275-0.01,43.877-2.27,46.589,33.295
									c2.676,35.082-23.232,63.591-15.945,90.378C2053.935,636.765,2056.447,532.603,2043.239,508.149z"/><path fill="#83c442" d="M2199.936,393.702c-21.428-27.906-6.68-43.912,3.01-57.184
									c17.659-7.728,39.298-19.648,56.023,11.855c16.498,31.076,4.173,67.574,21.575,89.202
									C2264.243,450.092,2221.364,421.608,2199.936,393.702z"/><path fill="#bad3a2" d="M2202.946,336.517c17.659-7.728,39.298-19.648,56.023,11.855
									c16.498,31.076,4.173,67.574,21.575,89.202C2264.243,450.092,2224.84,353.637,2202.946,336.517z"/><path fill="#7cb83d" d="M1870.825,429.564c14.874-31.886,35.878-26.185,52.123-23.71
									c15.002,12.102,35.561,25.801,15.327,55.174c-19.96,28.974-58.028,34.876-69.188,60.295
									C1850.461,512.634,1855.952,461.45,1870.825,429.564z"/><path fill="#bad3a2" d="M1922.948,405.853c15.002,12.102,35.561,25.801,15.327,55.174
									c-19.96,28.974-58.028,34.876-69.188,60.295C1850.461,512.634,1917.859,433.176,1922.948,405.853z"/><path fill="#83c442" d="M1973.092,434.421c-8.462-34.151,11.461-42.913,25.654-51.195
									c19.275-0.01,43.877-2.27,46.589,33.295c2.676,35.082-23.232,63.591-15.945,90.378
									C2009.441,511.842,1981.555,468.572,1973.092,434.421z"/><path fill="#bad3a2" d="M1998.746,383.226c19.275-0.01,43.877-2.27,46.589,33.295
									c2.676,35.082-23.232,63.591-15.945,90.378C2009.441,511.842,2011.954,407.68,1998.746,383.226z"/><path fill="#88c942" d="M2096.785,348.496c11.55-33.235,33.025-29.702,49.438-28.894
									c16.156,10.512,38.003,22.047,20.864,53.327c-16.906,30.856-54.176,40.603-62.69,67.026
									C2084.984,433.208,2085.235,381.73,2096.785,348.496z"/><path fill="#bad3a2" d="M2146.224,319.602c16.156,10.512,38.003,22.047,20.864,53.327
									c-16.906,30.856-54.176,40.603-62.69,67.026C2084.984,433.208,2143.943,347.3,2146.224,319.602z"/><path fill="#7cb83d" d="M2144.682,586.218c-14.789-31.925,3.109-44.308,15.473-55.133
									c18.923-3.668,42.649-10.555,52.061,23.849c9.284,33.937-10.743,66.844,1.495,91.762
									C2195.062,655.335,2159.471,618.143,2144.682,586.218z"/><path fill="#cae6ae" d="M2160.155,531.085c18.923-3.668,42.649-10.555,52.061,23.849
									c9.284,33.937-10.743,66.844,1.495,91.762C2195.062,655.335,2177.763,552.588,2160.155,531.085z"/><path fill="#83c442" d="M2201.154,471.563c-14.789-31.925,3.109-44.308,15.473-55.133
									c18.923-3.668,42.649-10.555,52.061,23.849c9.284,33.937-10.743,66.845,1.495,91.762
									C2251.534,540.68,2215.943,503.488,2201.154,471.563z"/><path fill="#bad3a2" d="M2216.627,416.43c18.923-3.668,42.649-10.555,52.061,23.849
									c9.284,33.937-10.743,66.845,1.495,91.762C2251.534,540.68,2234.235,437.933,2216.627,416.43z"/><path fill="#88c942" d="M1906.199,377.569c14.079-32.245,35.218-27.065,51.52-24.995
									c15.298,11.727,36.19,24.912,16.689,54.777c-19.236,29.46-57.146,36.304-67.673,61.991
									C1887.9,461.118,1892.121,409.814,1906.199,377.569z"/><path fill="#bad3a2" d="M1957.719,352.574c15.298,11.727,36.19,24.912,16.689,54.777
									c-19.236,29.46-57.146,36.304-67.673,61.991C1887.9,461.118,1953.309,380.014,1957.719,352.574z"/><path fill="#88c942" d="M2063.393,590.968c-8.462-34.151,11.461-42.913,25.654-51.195
									c19.275-0.01,43.877-2.27,46.589,33.295c2.676,35.082-23.232,63.591-15.945,90.378
									C2099.742,668.389,2071.855,625.119,2063.393,590.968z"/><path fill="#bad3a2" d="M2089.047,539.773c19.275-0.01,43.877-2.27,46.589,33.295
									c2.676,35.082-23.232,63.591-15.945,90.378C2099.742,668.389,2102.254,564.227,2089.047,539.773z"/><path fill="#88c942" d="M2087.748,521.696c-8.462-34.151,11.461-42.913,25.654-51.195
									c19.275-0.01,43.877-2.27,46.589,33.295c2.676,35.082-23.232,63.591-15.945,90.378
									C2124.096,599.117,2096.21,555.847,2087.748,521.696z"/><path fill="#bad3a2" d="M2113.401,470.501c19.275-0.01,43.877-2.27,46.589,33.295
									c2.676,35.082-23.232,63.591-15.945,90.378C2124.096,599.117,2126.609,494.955,2113.401,470.501z"/><path fill="#7cb83d" d="M2130.6,272.159c9.502-33.877-10.144-43.243-24.078-51.955
									c-19.266-0.6-43.787-3.611-47.584,31.855c-3.746,34.984,21.279,64.272,13.177,90.824
									C2091.903,348.433,2121.099,306.035,2130.6,272.159z"/><path fill="#cae6ae" d="M2106.522,220.203c-19.266-0.6-43.787-3.611-47.584,31.855
									c-3.746,34.984,21.279,64.272,13.177,90.824C2091.903,348.433,2092.574,244.242,2106.522,220.203z"/><path fill="#83c442" d="M2061.248,277.476c9.501-33.877-10.144-43.243-24.078-51.956
									c-19.266-0.6-43.787-3.611-47.584,31.855c-3.746,34.984,21.278,64.272,13.176,90.824
									C2022.551,353.75,2051.746,311.353,2061.248,277.476z"/><path fill="#bad3a2" d="M2037.17,225.521c-19.266-0.6-43.787-3.611-47.584,31.855
									c-3.746,34.984,21.278,64.272,13.176,90.824C2022.551,353.75,2023.222,249.559,2037.17,225.521z"/><path fill="#81bf3f" d="M1910.663,427.543c25.049-24.707,12.633-42.582,4.853-57.057
									c-16.433-10.074-36.234-24.848-57.118,4.067c-20.6,28.522-13.392,66.364-33.594,85.404
									C1839.237,474.59,1885.613,452.25,1910.663,427.543z"/><path fill="#bad3a2" d="M1915.516,370.487c-16.433-10.074-36.234-24.848-57.118,4.067
									c-20.6,28.522-13.392,66.364-33.594,85.404C1839.237,474.59,1891.484,384.445,1915.516,370.487z"/><path fill="#7cb83d" d="M2255.644,508.947c-17.182-30.703-37.709-23.47-53.729-19.806
									c-14.07,13.174-33.564,28.35-11.221,56.153c22.041,27.425,60.44,30.507,73.443,55.034
									C2282.073,590.29,2272.826,539.65,2255.644,508.947z"/><path fill="#bad3a2" d="M2201.915,489.14c-14.07,13.174-33.564,28.35-11.221,56.153
									c22.041,27.425,60.44,30.507,73.443,55.034C2282.073,590.29,2209.003,516.013,2201.915,489.14z"/><path fill="#77b33b" d="M2119.939,296.768c-7.167-34.447-28.919-33.714-45.299-35.03
									c-17.377,8.34-40.53,16.96-27.568,50.189c12.786,32.779,48.486,47.253,53.522,74.553
									C2120.715,382.294,2127.105,331.215,2119.939,296.768z"/><path fill="#bad3a2" d="M2074.639,261.738c-17.377,8.34-40.53,16.96-27.568,50.189
									c12.786,32.779,48.486,47.253,53.522,74.553C2120.715,382.294,2073.329,289.499,2074.639,261.738z"/><path fill="#7cb83d" d="M1995.196,318.983c23.531-26.158,10.071-43.261,1.441-57.246
									c-17.005-9.076-37.652-22.642-56.773,7.468c-18.862,29.701-9.409,67.047-28.439,87.259
									C1926.704,370.209,1971.665,345.141,1995.196,318.983z"/><path fill="#bad3a2" d="M1996.637,261.737c-17.005-9.076-37.652-22.642-56.773,7.468
									c-18.862,29.701-9.409,67.047-28.439,87.259C1926.704,370.209,1973.48,277.105,1996.637,261.737z"/><path fill="#7cb83d" d="M2123.755,503.18c9.501-33.877-10.144-43.243-24.078-51.956
									c-19.266-0.6-43.787-3.611-47.584,31.855c-3.746,34.984,21.279,64.272,13.176,90.824
									C2085.058,579.454,2114.254,537.057,2123.755,503.18z"/><path fill="#bad3a2" d="M2099.677,451.224c-19.266-0.6-43.787-3.611-47.584,31.855
									c-3.746,34.984,21.279,64.272,13.176,90.824C2085.058,579.454,2085.729,475.263,2099.677,451.224z"/><path fill="#7cb83d" d="M2208.773,449.338c-5.125-34.809-26.882-35.358-43.156-37.638
									c-17.839,7.302-41.459,14.543-30.478,48.478c10.832,33.475,45.618,50.027,49.036,77.576
									C2204.509,534.761,2213.898,484.147,2208.773,449.338z"/><path fill="#bad3a2" d="M2165.616,411.701c-17.839,7.302-41.459,14.543-30.478,48.478
									c10.832,33.475,45.618,50.027,49.036,77.576C2204.509,534.761,2162.672,439.336,2165.616,411.701z"/><path fill="#7cb83d" d="M2060.438,520.293c9.501-33.877-10.145-43.243-24.078-51.956
									c-19.266-0.6-43.787-3.611-47.584,31.855c-3.746,34.984,21.278,64.272,13.176,90.824
									C2021.741,596.567,2050.937,554.169,2060.438,520.293z"/><path fill="#bad3a2" d="M2036.36,468.337c-19.266-0.6-43.787-3.611-47.584,31.855
									c-3.746,34.984,21.278,64.272,13.176,90.824C2021.741,596.567,2022.412,492.376,2036.36,468.337z"/><path fill="#83c442" d="M1945.483,596.555c23.747-25.961,10.43-43.175,1.917-57.231
									c-16.929-9.217-37.462-22.953-56.833,6.996c-19.108,29.543-9.966,66.965-29.163,87.017
									C1876.568,647.209,1921.736,622.516,1945.483,596.555z"/><path fill="#bad3a2" d="M1947.4,539.324c-16.929-9.217-37.462-22.953-56.833,6.996
									c-19.108,29.543-9.966,66.965-29.163,87.017C1876.568,647.209,1924.116,554.499,1947.4,539.324z"/><path fill="#7cb83d" d="M2207.458,635.552c-22.016-28.772-9.19-45.916,4.363-62.11
									c21.709-7.61,39.075-16.745,61.092,12.027c22.016,28.772,21.066,73.892,18.635,92.166
									C2274.552,676.873,2229.474,664.324,2207.458,635.552z"/><path fill="#bad3a2" d="M2211.821,573.442c21.709-7.61,39.075-16.745,61.092,12.027
									c22.016,28.772,21.066,73.892,18.635,92.166C2278.361,670.781,2210.784,588.002,2211.821,573.442z"/><path fill="#7cb83d" d="M2092.803,464.425c-22.016-28.772-9.19-45.916,4.363-62.11
									c21.709-7.61,39.075-16.745,61.092,12.027c22.016,28.772,21.066,73.892,18.635,92.166
									C2159.896,505.746,2114.819,493.197,2092.803,464.425z"/><path fill="#bad3a2" d="M2097.166,402.315c21.709-7.61,39.075-16.745,61.092,12.027
									c22.016,28.772,21.066,73.892,18.635,92.166C2163.706,499.654,2096.129,416.875,2097.166,402.315z"/><path fill="#81bf3f" d="M2105.492,339.641c-17.49-31.739-2.257-46.784,13.553-60.781
									c22.598-4.292,41.129-10.739,58.618,21c17.489,31.739,9.838,76.224,4.716,93.935
									C2165.687,390.509,2122.981,371.379,2105.492,339.641z"/><path fill="#bad3a2" d="M2119.045,278.86c22.598-4.292,41.129-10.739,58.618,21
									c17.489,31.739,9.838,76.224,4.716,93.935C2170.361,385.052,2115.854,293.106,2119.045,278.86z"/><g><path fill="#7cb83d" d="M1890.833,299.064c35.529-7.09,45.269,11.977,53.837,31.278
									c-2.732,22.842-2.182,42.456-37.711,49.546c-35.529,7.09-75.617-13.64-90.951-23.872
									C1824.179,341.093,1855.303,306.154,1890.833,299.064z"/><path fill="#cae6ae" d="M1944.67,330.343c-2.732,22.842-2.182,42.456-37.711,49.546
									c-35.529,7.09-75.617-13.64-90.951-23.872C1827.969,347.197,1932.055,322.998,1944.67,330.343z"/></g><g><path fill="#81bf3f" d="M1859.884,471.627c25.88-25.354,44.457-14.709,62.18-3.228
									c10.195,20.622,21.375,36.747-4.504,62.101c-25.88,25.354-70.78,29.902-89.214,29.713
									C1827.033,543.25,1834.005,496.981,1859.884,471.627z"/><path fill="#cae6ae" d="M1922.064,468.399c10.195,20.622,21.375,36.747-4.504,62.101
									c-25.88,25.354-70.78,29.902-89.214,29.713C1833.544,546.291,1907.486,469.141,1922.064,468.399z"/></g><g><path fill="#83c442" d="M1996.144,628.973c-11.305-34.421,6.455-46.38,24.587-57.204
									c23.005-0.031,42.411-2.932,53.716,31.488c11.305,34.421-4.461,76.708-12.778,93.16
									C2045.872,690.097,2007.448,663.394,1996.144,628.973z"/><path fill="#bad3a2" d="M2020.731,571.77c23.005-0.031,42.411-2.932,53.716,31.488
									c11.305,34.421-4.461,76.708-12.778,93.16C2051.477,685.601,2014.953,585.175,2020.731,571.77z"/></g><g><path fill="#80be3f" d="M2133.045,385.973c-11.305-34.421,6.454-46.38,24.587-57.203
									c23.005-0.031,42.411-2.932,53.716,31.488c11.305,34.421-4.461,76.707-12.778,93.16
									C2182.774,447.097,2144.35,420.394,2133.045,385.973z"/><path fill="#cae6ae" d="M2157.632,328.77c23.005-0.031,42.411-2.932,53.716,31.488
									c11.305,34.421-4.461,76.707-12.778,93.16C2188.379,442.601,2151.855,342.175,2157.632,328.77z"/></g><g><path fill="#7cb83d" d="M2084.948,629.565c-11.305-34.42,6.454-46.38,24.587-57.203
									c23.005-0.031,42.411-2.932,53.716,31.488c11.305,34.421-4.461,76.708-12.778,93.16
									C2134.676,690.69,2096.252,663.986,2084.948,629.565z"/><path fill="#cae6ae" d="M2109.534,572.362c23.005-0.031,42.411-2.932,53.716,31.488
									c11.305,34.421-4.461,76.708-12.778,93.16C2140.281,686.193,2103.757,585.767,2109.534,572.362z"/></g><g><path fill="#88c942" d="M1989.119,315.774c11.295-34.424,32.687-33.531,53.706-31.503
									c18.547,13.609,35.898,22.774,24.603,57.198c-11.294,34.424-49.055,59.14-65.504,67.463
									C1992.947,394.479,1977.824,350.198,1989.119,315.774z"/><path fill="#bad3a2" d="M2042.825,284.271c18.547,13.609,35.898,22.774,24.603,57.198
									c-11.294,34.424-49.055,59.14-65.504,67.463C2000.126,394.179,2030.227,291.644,2042.825,284.271z"/></g><g><path fill="#7cb83d" d="M1955.354,571.987c13.608-33.576,34.89-31.232,55.723-27.779
									c17.579,14.839,34.267,25.161,20.659,58.737c-13.608,33.576-52.961,55.669-69.938,62.853
									C1953.823,650.77,1941.746,605.564,1955.354,571.987z"/><path fill="#bad3a2" d="M2011.077,544.208c17.579,14.839,34.267,25.161,20.659,58.737
									c-13.608,33.576-52.961,55.669-69.938,62.853C1961.006,650.959,1998.007,550.708,2011.077,544.208z"/></g><g><path fill="#7cb83d" d="M1914.58,488.34c8.118-35.308,29.502-36.364,50.619-36.255
									c19.708,11.867,37.82,19.415,29.702,54.724c-8.117,35.308-43.474,63.355-59.099,73.138
									C1925.548,566.371,1906.462,523.648,1914.58,488.34z"/><path fill="#cae6ae" d="M1965.199,452.085c19.708,11.867,37.82,19.415,29.702,54.724
									c-8.117,35.308-43.474,63.355-59.099,73.138C1932.671,565.42,1953.324,460.573,1965.199,452.085z"/></g><g><path fill="#7cb83d" d="M2020.101,425.332c-11.305-34.421,6.455-46.38,24.587-57.203
									c23.005-0.031,42.411-2.932,53.716,31.488c11.305,34.421-4.461,76.708-12.778,93.16
									C2069.83,486.457,2031.406,459.753,2020.101,425.332z"/><path fill="#cae6ae" d="M2044.688,368.129c23.005-0.031,42.411-2.932,53.716,31.488
									c11.305,34.421-4.461,76.708-12.778,93.16C2075.435,481.96,2038.911,381.534,2044.688,368.129z"/></g><g><path fill="#88c942" d="M2019.056,422.194c12.739-33.916-4.503-46.61-22.165-58.185
									c-22.983-0.996-42.25-4.71-54.989,29.206c-12.739,33.916,1.239,76.828,8.858,93.614
									C1966.807,481.177,2006.317,456.109,2019.056,422.194z"/><path fill="#cae6ae" d="M1996.891,364.008c-22.983-0.996-42.25-4.71-54.989,29.206
									c-12.739,33.916,1.239,76.828,8.858,93.614C1961.396,476.449,2002.1,377.644,1996.891,364.008z"/></g><g><path fill="#caba37" d="M1590.533,209.932c3.353,14.404,9.069,28.97,16.542,42.659l-15.758,9.157
								c-7.473-13.688-13.187-28.253-16.542-42.658L1590.533,209.932z"/><path fill="#ffe945" d="M1574.775,219.089l-23.475,24.051l40.017,18.606
									C1583.844,248.059,1578.13,233.494,1574.775,219.089z"/><polygon fill="#ecd940" points="1573.273 172.948 1589.031 163.791 1552.397 161.759 1536.64 170.917"/><path fill="#ffe945" d="M1573.273,172.948l-36.633-2.031l36.525,40.211c-1.173-6.836-1.787-13.588-1.769-20.145
									C1571.415,184.428,1572.065,178.404,1573.273,172.948z"/><path fill="#b7a831" d="M1573.273,172.948l15.757-9.157c-1.208,5.455-1.858,11.478-1.876,18.034
								c-0.02,6.558,0.594,13.309,1.769,20.145l-15.758,9.158c-1.173-6.836-1.787-13.588-1.769-20.145
								C1571.415,184.428,1572.065,178.404,1573.273,172.948z"/><path fill="#b7a831" d="M1577.095,161.236c0.536-1.19,1.107-2.339,1.711-3.446c2.72-4.982,6.125-9.12,10.108-12.354
								c0.886-0.718,1.799-1.391,2.739-2.02l15.758-9.157c-4.704,3.142-8.725,7.418-11.915,12.744
								c-1.915,3.196-3.53,6.77-4.815,10.703l-15.757,9.159C1575.565,164.898,1576.291,163.021,1577.095,161.236z"/><polygon fill="#f0dc41" points="1591.653 143.417 1607.411 134.26 1567.418 106.672 1551.661 115.83"/><path fill="#ffe945" d="M1551.661,115.83l23.263,51.037c3.424-10.492,9.203-18.422,16.729-23.45L1551.661,115.83z"/><path fill="#d4c439" d="M1611.514,260.28c8.124,13.322,17.89,25.58,28.712,35.721l-15.758,9.158
								c-10.82-10.144-20.587-22.4-28.711-35.724L1611.514,260.28z"/><path fill="#ffe945" d="M1595.757,269.435l-4.032,43.717l32.743-7.993
									C1613.647,295.014,1603.881,282.759,1595.757,269.435z"/><polygon fill="#f0dd41" points="1647.068 362.188 1662.825 353.03 1646.334 301.407 1630.576 310.563"/><path fill="#ffe945" d="M1630.576,310.563l16.492,51.625l16.734-32.442c-5.355-1.721-10.912-4.195-16.622-7.492
									C1641.477,318.96,1635.919,315.02,1630.576,310.563z"/><polygon fill="#ebd740" points="1647.068 362.188 1662.825 353.03 1679.559 320.591 1663.802 329.746"/><path fill="#d7c33a" d="M1646.334,301.407c5.342,4.454,10.898,8.395,16.604,11.688
								c5.71,3.297,11.267,5.774,16.621,7.495l-15.757,9.155c-5.355-1.721-10.912-4.195-16.622-7.492
								c-5.703-3.294-11.261-7.234-16.604-11.691L1646.334,301.407z"/><polygon fill="#e0cc3c" points="1647.068 362.188 1662.825 353.03 1679.559 320.591 1663.802 329.746"/><path fill="#deca3c" d="M1685.675,322.242c10.844,2.365,20.649,1.408,28.82-2.508l-15.758,9.157
								c-8.169,3.916-17.976,4.873-28.82,2.508L1685.675,322.242z"/><polygon fill="#e2ce3d" points="1702.513 377.114 1718.27 367.959 1714.495 319.735 1698.737 328.892"/><path fill="#ffe945" d="M1698.737,328.892c-8.169,3.916-17.976,4.873-28.82,2.508l32.597,45.714L1698.737,328.892z"/><path fill="#e0cf3c" d="M1629.164,167.182c8.734-5.077,20.83-4.362,34.178,3.345
								c26.531,15.317,47.966,52.444,47.88,82.93c-0.043,15.145-5.39,25.799-14.013,30.812l-15.755,9.158
								c8.62-5.012,13.967-15.668,14.01-30.813c0.087-30.485-21.348-67.611-47.878-82.928c-13.348-7.706-25.444-8.423-34.18-3.346
								L1629.164,167.182z"/><path fill="#fff02b" d="M1647.585,179.685c-26.526-15.315-48.106-3.022-48.192,27.462
									c-0.087,30.486,21.352,67.614,47.88,82.929c26.531,15.32,48.105,3.023,48.191-27.462
									C1695.551,232.129,1674.116,195.003,1647.585,179.685z"/><polygon fill="#ecd940" points="1624.941 138.362 1640.698 129.204 1608.105 83.491 1592.35 92.649"/><path fill="#ffe945" d="M1592.35,92.649l3.771,48.221c8.174-3.913,17.977-4.868,28.821-2.508L1592.35,92.649z"/><polygon fill="#e2d03d" points="1664.286 159.202 1680.043 150.044 1663.546 98.419 1647.789 107.576"/><path fill="#ffe945" d="M1647.789,107.576l-16.73,32.441c5.35,1.719,10.911,4.202,16.617,7.496
									c5.711,3.296,11.261,7.229,16.609,11.688L1647.789,107.576z"/><g><path fill="#ffe945" d="M1703.138,156.614l-32.748,7.99c10.82,10.148,20.591,22.401,28.71,35.723L1703.138,156.614z"/><polygon fill="#e9d63f" points="1703.138 156.614 1718.896 147.456 1686.149 155.445 1670.391 164.603"/><polygon fill="#ebd840" points="1699.1 200.326 1714.858 191.169 1718.896 147.456 1703.138 156.614"/><polygon fill="#decc3c" points="1699.1 200.326 1714.858 191.169 1718.896 147.456 1703.138 156.614"/></g><g><polygon fill="#e5d33e" points="1743.197 353.932 1758.954 344.774 1735.691 293.74 1719.934 302.898"/><path fill="#ffe945" d="M1719.934,302.898c-3.419,10.491-9.203,18.419-16.729,23.446l39.991,27.588L1719.934,302.898
									z"/></g><g><polygon fill="#ebd73f" points="1758.223 298.849 1773.981 289.691 1737.451 249.481 1721.694 258.638"/><path fill="#ffe945" d="M1721.694,258.638c1.173,6.832,1.791,13.589,1.772,20.144
									c-0.02,6.556-0.673,12.576-1.881,18.038l36.637,2.029L1721.694,258.638z"/></g><g><path fill="#ffe945" d="M1743.558,226.622l-40.018-18.608c7.473,13.689,13.193,28.258,16.542,42.657
									L1743.558,226.622z"/><polygon fill="#efdc41" points="1743.558 226.622 1759.315 217.464 1719.298 198.856 1703.54 208.014"/><polygon fill="#ebd740" points="1720.082 250.671 1735.84 241.515 1759.315 217.464 1743.558 226.622"/><polygon fill="#c5b435" points="1720.082 250.671 1735.84 241.515 1759.315 217.464 1743.558 226.622"/></g></g><g><polygon fill="#e6e6e6" points="919.269 1283.338 1286.583 1061.134 2077.876 1536.697 1710.562 1758.898"/><polygon fill="#89768a" points="2063.734 1531.849 2063.734 1521.974 1286.598 1064.793 933.441 1268.627 933.413 1278.447 1710.55 1745.503"/><polygon fill="#a28ca3" points="2063.734 1522.113 1286.598 1055.056 933.413 1268.711 1710.55 1735.767"/><path fill="#e6e6e6" d="M1665.434,1360.708c77.566,73.737,56.112,151.935-47.915,174.65
												c-104.027,22.715-251.254-18.651-328.82-92.388c-77.566-73.737-56.101-151.924,47.926-174.639
												C1440.654,1245.616,1587.869,1286.971,1665.434,1360.708z"/><path fill="#314e6e" d="M1611.336,1262.031c-77.843,80.714-217.131,62.562-283.297,62.848
															c-37.903,0.164-117.314,25.079-100.813-8.933c34.222-70.538,153.133-126.335,349.654-99.537
															C1576.881,1216.41,1645.92,1226.171,1611.336,1262.031z"/><path fill="#36577a" d="M1624.097,1252.141c-76.567-15.313,5.815,53.117-62.529,61.253
															c-53.597,6.381-10.209-15.313-111.022-93.156C1398.599,1180.128,1672.949,1261.912,1624.097,1252.141z"/><path fill="#36577a" d="M1547.53,1249.589c-23.23,69.61,12.627,150.428,33.012,213.376
															c11.677,36.06,34.361,61.71,66.525,41.846c36.043-22.26,26.913,31.927,40.92-95.696
															c8.622-78.564-11.569-121.243-34.288-199.584C1653.698,1209.531,1563.301,1202.331,1547.53,1249.589z"/><path fill="#406a94" d="M1548.168,1377.838c-133.548-26.68-286.121,33.006-323.494-47.854
														c-20.054-43.39,48.727-52.232,98.26-48.492c81.262,6.135,34.712,21.419,227.672,38.928
														C1574.491,1330.277,1585.848,1351.568,1548.168,1377.838z"/><g><path fill="#785943" d="M1340.043,938.759c0.371-42.476,25.197-97.503,73.026-120.429
												C1346.927,870.668,1343.668,913.143,1340.043,938.759z"/><path fill="#5e4634" d="M1570.328,706.345c-21.533-7.109-47.064-11.607-59.303-1.124
														c-52.841,45.259-64.565,97.304-106.034,134.714c-48.33,46.534-43.512,97.075-29.629,108.955l4.513-12.488l8.149,27.412
														l10.743-15.188l12.95,14.117l158.609-95.826V706.345z"/><path fill="#ffb584" d="M1304.028,1217.003c0,0,86.461-116.777,92.602-122.142
															c23.614-20.63,45.413,20.451,44.983,36.369c-0.636,23.506-109.458,104.395-109.458,104.395
															C1325.948,1223.792,1322.243,1213.455,1304.028,1217.003z"/><path fill="#d95757" d="M1390.25,1100.603c4.942-10.899,51.004-196.591,60.514-211.972
																	c34.486-55.779,72.417-13.349,102.546-6.928c-33.859,35.265-105.941,247.679-114.119,254.465
																	C1428.626,1144.935,1383.76,1114.914,1390.25,1100.603z"/><path fill="#ffb584" d="M1253.311,1242.043c6.651-1.198,10.399-5.559,12.196-3.784
																c5.918,2.655,5.369,0.695,4.329,4.045c-1.134,3.65-7.322,6.964-11.665,9.446
																c-12.946,7.396-13.255-2.711-24.355,1.518c-9.714,11.296-1.862,20.924,6.096,25.801
																c12.607,7.727,37.097,3.401,47.599-0.811c12.001-4.813,23.563-13.335,25.896-21.473
																c3.354-11.701,23.812-24.556,27.09-27.368c13.055-11.196-15.58-28.506-23.942-23.216
																c-7.701,4.791-17.049,17.131-23.972,14.134c-7.752-3.357-26.933,0.247-30.358,1.805
																c-7.502,3.413-13.229,8.996-18.783,10.59c-1.462,0.42-2.377,1.939-1.934,3.394
																C1242.874,1240.612,1244.9,1243.558,1253.311,1242.043z"/><path fill="#f66" d="M1490.105,861.652c0,0,20.055-33.718,142.658,17.44c0,0,25.764,17.807,26.033,91.138
														c0.149,40.519-30.754,75.264-36.308,183.468c0,0,11.711,28.878,26.99,93.341
														c15.366,64.831-71.544,41.633-130.022,19.141c-22.625-8.702-76.386-31.655-78.05-55.838
														c-1.044-15.181,35.855-48.022,29.637-84.008c-10.831-62.692-14.592-98.512-21.742-137.2
														C1443.874,959.764,1459.479,896.107,1490.105,861.652z"/><path fill="#ffb584" d="M1359.254,1314.049c72.68,23.809,78.946-15.037,105.46,5.286
															c11.308,8.667,8.82,36.155,3.045,36.171c-18.758,0.053-15.665,39.842-28.306,31.224
															c-5.244-3.131-65.444-43.17-82.119-42.776c-11.93,0.282-34.118-5.476-40.686-9.854
															C1294.093,1319.062,1333.547,1305.628,1359.254,1314.049z"/><path fill="#44709e" d="M1424.29,1379.669c115.196,71.687,134.489,148.223,239.366,131.523
															c22.184-3.532,20.389-48.129-7.224-71.783c-79.861-68.41-57.639-11.753-179.891-95.458
															C1452.472,1334.823,1429.053,1343.958,1424.29,1379.669z"/><path fill="#ffb584" d="M1637.294,1404.256c-52.53-49.339-23.24-72.073-52.026-84.814
															c-12.277-5.434-40.326,5.323-37.73,10.106c8.432,15.534-19.42,34.679-6.581,41.236
															c4.959,2.922,65.269,34.606,72.478,48.572c5.158,9.992,19.945,25.737,26.533,29.189
															C1662.595,1460.401,1655.874,1421.707,1637.294,1404.256z"/><path fill="#d95757" d="M1624.752,1142.424c5.554-108.204,34.194-131.675,34.045-172.194
														c-0.269-73.331-26.033-91.138-26.033-91.138c-56.443-23.552-96.803-28.524-123.963-27.052
														c23.84,2.977,53.583,10.408,90.088,25.64c0,0,45.845,40.738,22.656,110.306
														c-10.209,30.627-91.238,56.458-28.089,144.498c18.413,25.67,10.28,36.122,18.219,102.275
														c4.174,34.785-65.799,24.064-102.428,26.315c31.488,13.495,145.273,55.202,139.096,3.828
														C1639.718,1193.168,1624.752,1142.424,1624.752,1142.424z"/><path fill="#e6a377" d="M1590.236,883.052c3.257,32.683-2.367,90.193-35.049,93.45
														c-32.683,3.257-65.471-27.595-59.977-59.977c6.002-35.381,19.717-62.244,37.987-87.359
														C1552.518,802.606,1586.979,850.369,1590.236,883.052z"/><path fill="#d95757" d="M1459.634,1063.865c1.68,9.86-0.712,11.661,1.12,22.382
														c36.764-27.792,104.735,24.134,133.099,47.861c9.145,7.65,16.646-3.347,27.838,4.743
														c0.671-11.114,7.997-42.855,9.05-52.37C1570.054,1041.625,1520.851,1046.711,1459.634,1063.865z"/><path fill="#ffb584" d="M1682.448,1176.833c1.373,4.865-12.137,183.709-12.137,183.709
														c-9.99-15.639-25.088-17.647-33.958-5.244c0,0-14.903-177.08-12.256-180.999
														C1633.01,1161.103,1675.786,1153.229,1682.448,1176.833z"/><path fill="#f66" d="M1682.798,1173.023c-1.129-10.704,28.075-230.976-5.688-259.469
																	c-41.221-34.787-63.151,29.574-59.462,70.15c2.552,28.074,16.312,38.244,15.382,54.051
																	c-3.828,65.082-23.839,146.675-5.974,145.399C1640.748,1182.176,1683.971,1184.144,1682.798,1173.023z"/><path fill="#6e513d" d="M1624.709,989.095c2.647,0.85,7.967,1.771,12.985,2.522
														c6.023,0.902,8.252-8.615,8.252-8.615s13.705,10.645,19.043,10.483c0.93-4.337,6.154-9.869,6.154-9.869
														s13.213,8.911,25.272,4.498c13.446-4.921,21.958-14.264,18.286-29.478c-3.872-16.041-91.762-119.548-91.762-169.39
														l-45.688,15.229C1577.251,804.476,1576.595,973.642,1624.709,989.095z"/><path fill="#ffb584" d="M1617.535,801.592c0,0,9.234,1.878,8.286,9.498c-0.948,7.62-14.31,31.949-19.274,31.24
														c-4.964-0.709-3.629-2.842-3.629-2.842s-4.905,16.732-12.965,26.813s-50.648,45.45-66.611,42.204
														c-11.858-2.411-13.868-6.021-25.188-32.624c-12.894-30.301-17.481-41.416-18.407-56.162
														c-1.074-17.09,0.564-53.128,7.696-68.06c7.132-14.932,28.928-61.695,100.488-41c0,0,50.512,18.463,29.818,90.023
														L1617.535,801.592z"/><path fill="#785943" d="M1618.24,813.091c23.723-40.767,10.16-108.053-66.881-124.99
														c0,0-56.42-2.52-73.357,74.521c-0.229,1.699-4.969,23.514,0.317,25.527c3.261,1.242,56.697,37.458,97.383,8.547
														C1609.164,826.681,1614.214,820.009,1618.24,813.091z"/><path fill="#785943" d="M1471.065,787.995c34.64-10.188,82.371-94.79,66.256-94.79
													c-42.112,0-112.385,104.977-152.873,145.26C1452.076,832.113,1471.065,787.995,1471.065,787.995z"/><path fill="#785943" d="M1707.705,890.061c-39.892-14.593-83.409-56.434-88.969-109.182
													C1645.865,860.742,1684.788,878.055,1707.705,890.061z"/><path fill="#785943" d="M1666.321,840.24c-23.626-13.381-46.683-44.323-44.664-78.166
													C1630.398,815.275,1653.128,830.269,1666.321,840.24z"/><path fill="#d95757" d="M1622.565,1129.977c19.142-54.873,19.398-46.282,20.918-96.579
										c2.216-73.298-10.603-40.189-14.282,17.757C1626.649,1091.352,1616.729,1146.705,1622.565,1129.977z"/><path fill="#f66" d="M1622.342,996.521c-11.285-31.973-61.403-25.574-66.289-7.895
										c-2.734,9.891-8.1,21.83-12.516,34.76l-49.726-5.104c-12.545-31.547-40.999-61.018-45.617-44.308
										c-6.507,23.543-24.604,47.854-15.053,81.415c4.204,14.773,17.937,27.841,33.765,31.517l7.731,0.904l81.906,11.119
										c29.351,8.933,40.797,9.183,59.818,2.871C1651.693,1090.075,1629.999,1018.214,1622.342,996.521z"/></g><g><path fill="#f2ac7d" d="M1690.304,1371.302c-5.676,9.686-36.18,19.851-45.866,14.175
									c-5.562-3.26-11.69-25.548-6.329-35.068c5.509-9.782,29.18-16.975,38.866-11.299
									C1682.537,1342.369,1693.563,1365.739,1690.304,1371.302z"/><path fill="#f2ac7d" d="M1702.526,1366.053c-3.491-0.986-10.791-6.639-14.727-9.693
									c-1.865-1.447-27.166-17.686-24.807-18.855c16.576-8.22,45.342,18.967,45.111,25.118
									C1708.003,1365.253,1705.059,1366.768,1702.526,1366.053z"/><path fill="#ffb584" d="M1695.664,1383.544c-6.432,9.202-42.838,9.434-51.176,1.917
									c-3.283-2.96,0.281-13.227,1.892-15.334c6.817-8.92,34.977-13.162,44.179-6.73
									C1695.843,1367.09,1699.358,1378.26,1695.664,1383.544z"/></g><g><path fill="#e0e0e0" d="M1129.838,1261.091c15.541,8.998,15.623,23.585,0.183,32.586
										c-15.44,9-40.557,9.011-56.097,0.008c-15.541-9-15.623-23.601-0.183-32.604
										C1089.181,1252.081,1114.297,1252.091,1129.838,1261.091z"/><path fill="#347bad" d="M1158.494,1185.55l-0.66-0.389c0.489,0.291,0.845,0.647,1.19,1.188
											c0.427,0.67,0.709,1.544,0.809,1.953c0.218,0.895,0.357,1.552,0.444,3.123c0.059,1.045-0.017,2.446-0.074,3.492
											c0,0.015-0.104,1.694-0.561,4.376c-0.27,1.579-0.721,3.669-1.08,5.234c-0.169,0.731-0.425,1.707-0.649,2.426
											c-0.863,2.778-0.863,2.778-1.472,4.397c-0.23,0.607-0.55,1.415-0.824,2.003c-1.098,2.368-1.098,2.368-1.81,3.679
											c-0.844,1.544-2.137,3.564-3.074,4.793c-1.307,1.719-1.307,1.719-2.253,2.824c-0.94,1.104-1.81,2.011-2.385,2.611
											c-1.786,1.864-4.033,3.92-6.411,6.094c-3.078,2.817-6.566,6.005-9.42,9.479c-0.711,0.866-2.073,2.576-3.191,4.307
											c-0.427,0.663-1.728,2.673-2.802,4.964c-0.518,1.104-1.134,2.606-1.579,3.74c-0.238,0.599-0.507,1.421-0.697,2.041
											c-1.302,4.236-1.649,6.976-1.65,6.999c-0.075,0.874-0.015,1.613,0.519,2.592c0.583,1.074,1.594,1.702,1.927,1.908
											l0.66,0.385c-0.795-0.464-1.183-1.596-0.927-3.106c2.857-16.821,11.93-25.1,19.93-32.404
											c8.728-7.96,16.259-14.833,19.34-32.992C1163.43,1191.624,1161.716,1187.426,1158.494,1185.55z"/><path fill="#2f93d1" d="M1162.717,1176.85L1162.717,1176.85c-0.607-0.337-1.234-0.687-2.194-1.061
											c-1.338-0.52-2.391-0.762-2.588-0.805c-2.034-0.44-3.353-0.649-7.447-0.789c-1.82-0.063-2.601-0.137-3.19-0.195
											c-0.205-0.021-0.615-0.069-1.051-0.148c-0.343-0.063-0.545-0.132-0.63-0.158c-0.007-0.002,0.252-0.006,0.244-0.008
											c-0.002,0,0.258,0,0.258,0l0,0l0.392,0.383c1.157,0.676,3.097,0.892,6.402,1.011c3.315,0.116,7.281,0.262,10.53,2.154
											L1162.717,1176.85z"/><path fill="#2f93d1" d="M1143.645,1166.705c-0.892-0.516-1.648-0.657-2.021-0.697
											c-1.039-0.114-1.689,0.077-2.053,0.256c0.014-0.006,0.026-0.01,0.039-0.019c-0.219,0.095-0.447,0.166-0.654,0.283
											c-1.266,0.739-2.057,2.05-2.373,3.035c-0.139,0.427-0.201,0.776-0.226,0.942c-0.112,0.76-0.23,1.773-0.288,2.539
											c-0.05,0.649,0.009,1.523,0.081,2.172c0.091,0.797,0.394,2.359,1.407,3.864c0.561,0.837,1.11,1.362,1.216,1.458
											c0.762,0.704,1.066,0.918,1.939,1.459l0.659,0.383c-2.462-1.433-3.908-4.294-2.822-10.109
											c0.376-2.022,1.776-4.051,3.314-4.943c0.272-0.158,0.548-0.277,0.823-0.358c0.635-0.187,1.188-0.133,1.618,0.119
											L1143.645,1166.705z"/><path fill="#5fc4ff" d="M1144.505,1170.743c0.14-0.079,0.406-0.048,0.429-0.185
												c0.97-0.285,1.565,0.496,1.331,1.739c-1.001,5.559,1.374,6.229,8.391,6.421c7.611,0.278,18.566,0.684,14.887,22.428
												c-3.757,22.048-14.243,31.619-22.984,39.604c-7.912,7.208-14.09,12.82-16.287,25.792
												c-0.184,1.076-0.925,2.166-1.745,2.641c-0.128,0.074-0.369,0.053-0.394,0.177c-0.968,0.32-1.587-0.44-1.378-1.678
												c2.645-15.575,11.02-23.237,18.794-30.34c9.02-8.219,17.209-15.694,20.477-35.053
												c3.135-18.378-5.018-18.658-13.052-18.935c-5.655-0.214-12.013-0.531-10.204-10.014
												C1142.967,1172.277,1143.704,1171.207,1144.505,1170.743z"/><path fill="#56b2e8" d="M1170.713,1191.037c-0.113-1.694-0.188-2.813-0.68-4.775
											c-0.419-1.668-0.997-2.869-1.454-3.729c-0.56-1.054-1.349-2.101-2.343-3.112c-0.022-0.027-0.575-0.586-1.342-1.172
											c-0.515-0.393-0.629-0.465-1.518-1.017c-3.249-1.892-7.282-2.037-10.598-2.154c-3.027-0.108-5.011-0.304-6.215-0.853
											c-0.063-0.308-0.109-0.982,0.139-2.341c0.229-1.246-0.109-2.177-0.332-2.621c-0.569-1.14-1.33-1.717-2.067-2.177
											c-0.43-0.251-0.983-0.306-1.618-0.119c-0.275,0.082-0.551,0.2-0.823,0.358c-1.538,0.892-2.938,2.922-3.314,4.943
											c-0.048,0.256-0.086,0.501-0.123,0.745l4.252,0.88c0.029-0.183,0.056-0.365,0.093-0.555
											c0.198-1.063,0.935-2.133,1.735-2.597c0.14-0.079,0.406-0.048,0.429-0.185c0.97-0.285,1.565,0.496,1.331,1.739
											c-1.001,5.559,1.374,6.229,8.391,6.421c7.611,0.278,18.566,0.684,14.887,22.428
											c-3.757,22.048-14.243,31.619-22.984,39.604c-7.912,7.208-14.09,12.82-16.287,25.792
											c-0.184,1.076-0.925,2.166-1.745,2.641c-0.128,0.074-0.369,0.053-0.394,0.177c-0.71,0.235-1.23-0.113-1.375-0.804
											l-2,1.765c0.246,0.069,0.516,0.127,0.805,0.156c0.522,0.05,0.867,0.01,0.99-0.008c0.681-0.1,0.861-0.194,1.053-0.295
											c-0.015,0.008-0.028,0.014-0.042,0.021c0.191-0.087,0.394-0.15,0.579-0.253c0.074-0.045,0.34-0.203,0.609-0.428
											c0.557-0.462,0.868-0.908,1.074-1.198c0.159-0.227,0.693-1.059,0.893-2.235c0.847-4.978,2.15-7.871,2.85-9.425
											c0.387-0.861,1.866-3.92,4.617-7.146c0.418-0.488,1.526-1.789,2.853-3.106c1.197-1.184,1.295-1.282,2.082-2.024
											c0.563-0.53,2.995-2.761,3.369-3.104c3.617-3.309,4.645-4.294,6.875-6.575c1.823-1.869,3.318-3.7,4.119-4.684
											c0.632-0.774,1.769-2.286,2.636-3.568c0.791-1.167,1.773-2.777,2.482-3.996c0.992-1.708,2.504-4.822,3.329-6.965
											c0.749-1.945,1.201-3.115,1.882-5.401c1.024-3.423,1.527-5.976,1.547-6.084c0.852-4.349,0.874-4.561,1.243-8.094
											C1170.752,1194.455,1170.81,1192.496,1170.713,1191.037z"/><path fill="#3195d9" d="M1152.973,1183.354c-5.541-0.206-11.752-0.525-10.297-9.459l-4.252-0.88
											c-0.829,5.313,0.592,7.995,2.945,9.365c3.101,1.795,6.666,1.924,9.811,2.041c1.838,0.065,3.29,0.119,4.754,0.346
											c1.546,0.237,2.231,0.607,2.56,0.784c3.222,1.875,4.936,6.073,3.3,15.717c-3.082,18.159-10.613,25.031-19.34,32.992
											c-8,7.304-17.073,15.583-19.93,32.404c-0.255,1.51,0.132,2.642,0.927,3.106c0.192,0.108,0.669,0.372,1.306,0.552l2-1.765
											c-0.052-0.251-0.059-0.545-0.003-0.874c2.645-15.575,11.02-23.237,18.794-30.34c9.02-8.219,17.209-15.694,20.477-35.053
											C1169.16,1183.911,1161.007,1183.631,1152.973,1183.354z"/><path fill="#825430" d="M1132.603,1215.207c-17.441,9.818-45.324,9.535-62.276-0.632
													c-16.954-10.166-16.557-26.365,0.884-36.183c17.44-9.818,45.323-9.536,62.276,0.631
													C1150.44,1189.19,1150.044,1205.391,1132.603,1215.207z"/><path fill="#573820" d="M1102.055,1220.263c-11.682,0-22.564-2.668-30.642-7.511
													c-7.451-4.469-11.509-10.225-11.426-16.209c0.083-6.107,4.437-11.893,12.261-16.297
													c7.916-4.458,18.396-6.911,29.511-6.911c11.681,0,22.563,2.669,30.641,7.512c7.452,4.469,11.51,10.226,11.427,16.208
													c-0.082,6.108-4.437,11.896-12.26,16.299C1123.65,1217.808,1113.169,1220.263,1102.055,1220.263z"/><path fill="#332b25" d="M1101.681,1175.013c-0.919,0-1.703,0.376-2.026,0.909
														c-0.317-0.127-0.684-0.204-1.082-0.204c-0.623,0-1.177,0.183-1.563,0.464c-1.596,0.004-2.89,0.861-2.89,1.916
														c0,1.061,1.298,1.92,2.898,1.92c1.553,0,2.809-0.811,2.884-1.827c0.257-0.137,0.467-0.312,0.603-0.515
														c0.34,0.143,0.742,0.23,1.175,0.23c1.207,0,2.185-0.647,2.185-1.447
														C1103.866,1175.66,1102.888,1175.013,1101.681,1175.013z"/><path fill="#332b25" d="M1077.246,1184.117c-1.601,0-2.898,0.857-2.898,1.919c0,1.059,1.297,1.916,2.898,1.916
														c1.6,0,2.897-0.857,2.897-1.916C1080.143,1184.974,1078.846,1184.117,1077.246,1184.117z"/><path fill="#332b25" d="M1091.05,1177.022c-0.901,0-1.63,0.483-1.63,1.076c0,0.597,0.729,1.08,1.63,1.08
														c0.901,0,1.629-0.483,1.629-1.08C1092.68,1177.505,1091.951,1177.022,1091.05,1177.022z"/><path fill="#332b25" d="M1087.958,1179.313c0.118-0.198,0.188-0.412,0.188-0.639
														c0-0.972-1.191-1.758-2.659-1.758c-1.467,0-2.657,0.786-2.657,1.758c0,0.612,0.473,1.148,1.188,1.465
														c-0.021,0.085-0.038,0.169-0.038,0.258c0,0.851,1.041,1.539,2.326,1.539c1.284,0,2.327-0.689,2.327-1.539
														C1088.634,1179.975,1088.375,1179.592,1087.958,1179.313z"/><path fill="#332b25" d="M1072.651,1186.951c-1.378,0-2.493,0.739-2.493,1.65c0,0.907,1.116,1.65,2.493,1.65
														c1.376,0,2.491-0.742,2.491-1.65C1075.142,1187.69,1074.027,1186.951,1072.651,1186.951z"/><path fill="#332b25" d="M1069.603,1197.707c0-0.562-0.687-1.013-1.531-1.013c-0.847,0-1.533,0.451-1.533,1.013
														c0,0.56,0.686,1.011,1.533,1.011C1068.916,1198.718,1069.603,1198.267,1069.603,1197.707z"/><path fill="#332b25" d="M1070.432,1203.239c-0.845,0-1.532,0.454-1.532,1.011c0,0.562,0.687,1.016,1.532,1.016
														c0.846,0,1.532-0.454,1.532-1.016C1071.964,1203.693,1071.278,1203.239,1070.432,1203.239z"/><path fill="#332b25" d="M1068.059,1191.644c0.846,0,1.533-0.454,1.533-1.013c0-0.56-0.687-1.013-1.533-1.013
														c-0.846,0-1.532,0.454-1.532,1.013C1066.527,1191.191,1067.214,1191.644,1068.059,1191.644z"/><path fill="#332b25" d="M1070.432,1186.355c0.846,0,1.532-0.455,1.532-1.015c0-0.56-0.686-1.013-1.532-1.013
														c-0.845,0-1.532,0.454-1.532,1.013C1068.9,1185.901,1069.587,1186.355,1070.432,1186.355z"/><path fill="#332b25" d="M1080.847,1181.816c-0.302,0-0.581,0.057-0.818,0.158
														c0.021-0.085,0.039-0.175,0.039-0.268c0-0.884-1.087-1.607-2.43-1.607c-1.342,0-2.432,0.723-2.432,1.607
														c0,0.89,1.089,1.614,2.432,1.614c0.654,0,1.244-0.175,1.682-0.451c0.031,0.541,0.7,0.974,1.527,0.974
														c0.845,0,1.532-0.454,1.532-1.013C1082.38,1182.269,1081.693,1181.816,1080.847,1181.816z"/><ellipse cx="1080.715" cy="1177.803" fill="#332b25" rx="1.532" ry="1.013"/><path fill="#332b25" d="M1091.393,1174.937c-0.846,0-1.532,0.454-1.532,1.013c0,0.562,0.686,1.016,1.532,1.016
														c0.846,0,1.532-0.454,1.532-1.016C1092.925,1175.391,1092.239,1174.937,1091.393,1174.937z"/><path fill="#332b25" d="M1100.094,1173.792c0.845,0,1.532-0.454,1.532-1.013s-0.687-1.013-1.532-1.013
														c-0.846,0-1.533,0.454-1.533,1.013S1099.247,1173.792,1100.094,1173.792z"/><path fill="#332b25" d="M1104.576,1174.718c0.847,0,1.531-0.454,1.531-1.013c0-0.56-0.685-1.013-1.531-1.013
														c-0.847,0-1.532,0.454-1.532,1.013C1103.044,1174.264,1103.729,1174.718,1104.576,1174.718z"/><path fill="#332b25" d="M1118.418,1177.759c0.846,0,1.532-0.455,1.532-1.013c0-0.559-0.686-1.014-1.532-1.014
														c-0.36,0-0.686,0.085-0.947,0.222c-0.178-0.52-0.883-0.911-1.725-0.911c-0.566,0-1.065,0.177-1.39,0.452
														c-0.237-0.1-0.515-0.158-0.816-0.158c-0.148,0-0.289,0.016-0.424,0.042c-0.376-0.387-1.034-0.649-1.787-0.649
														c-1.16,0-2.099,0.615-2.118,1.381c-0.152-0.576-0.784-1.034-1.613-1.204c-0.198-0.063-0.417-0.098-0.65-0.098
														c-0.163,0-0.317,0.021-0.465,0.051c-1.085,0.134-1.909,0.762-1.909,1.52c0,0.853,1.049,1.547,2.339,1.547
														c1.28,0,2.318-0.684,2.336-1.526c0.138,0.47,0.629,0.855,1.284,1.032c-0.216,0.275-0.349,0.584-0.349,0.917
														c0,1.055,1.245,1.913,2.817,1.987c-0.042,0.092-0.072,0.19-0.072,0.29c0,0.56,0.687,1.015,1.533,1.015
														c0.846,0,1.533-0.455,1.533-1.015c0-0.354-0.272-0.662-0.682-0.841c0.568-0.364,0.924-0.871,0.924-1.436
														c0-0.354-0.151-0.682-0.393-0.969c0.435-0.016,0.827-0.131,1.122-0.316
														C1117.168,1177.466,1117.737,1177.759,1118.418,1177.759z"/><path fill="#332b25" d="M1127.99,1179.39c0-0.557-0.685-1.013-1.533-1.013c-0.844,0-1.532,0.456-1.532,1.013
														c0,0.562,0.688,1.013,1.532,1.013C1127.305,1180.403,1127.99,1179.952,1127.99,1179.39z"/><path fill="#332b25" d="M1122.982,1180.757c0-0.054-0.012-0.106-0.024-0.156
														c0.599-0.172,1.018-0.565,1.018-1.026c0-0.615-0.756-1.117-1.689-1.117c-0.661,0-1.23,0.256-1.506,0.622
														c-0.339-0.216-0.799-0.35-1.309-0.35c-1.039,0-1.882,0.556-1.882,1.242c0,0.689,0.844,1.246,1.882,1.246
														c0.199,0,0.387-0.024,0.568-0.064c0.233,0.362,0.776,0.615,1.409,0.615
														C1122.296,1181.77,1122.982,1181.317,1122.982,1180.757z"/><path fill="#332b25" d="M1130.743,1183.597c0-0.76-0.93-1.375-2.077-1.375c-1.146,0-2.077,0.615-2.077,1.375
														c0,0.757,0.931,1.375,2.077,1.375C1129.814,1184.972,1130.743,1184.354,1130.743,1183.597z"/><path fill="#332b25" d="M1135.113,1186.878c0-1.011-1.238-1.833-2.767-1.833c-1.529,0-2.768,0.821-2.768,1.833
														c0,1.011,1.238,1.831,2.768,1.831C1133.875,1188.709,1135.113,1187.889,1135.113,1186.878z"/><path fill="#332b25" d="M1136.973,1192.28c0.28,0.112,0.604,0.18,0.955,0.18c1.038,0,1.881-0.557,1.881-1.246
														c0-0.687-0.842-1.246-1.881-1.246c-0.681,0-1.271,0.243-1.601,0.599c-0.281-0.108-0.604-0.177-0.956-0.177
														c-1.038,0-1.88,0.557-1.88,1.246c0,0.686,0.842,1.244,1.88,1.244C1136.052,1192.88,1136.643,1192.639,1136.973,1192.28
														z"/><path fill="#332b25" d="M1124.085,1182.034c-1.038,0-1.882,0.56-1.882,1.246c0,0.689,0.844,1.245,1.882,1.245
														c1.04,0,1.882-0.556,1.882-1.245C1125.967,1182.594,1125.125,1182.034,1124.085,1182.034z"/><path fill="#332b25" d="M1137.796,1195.525c-1.04,0-1.881,0.556-1.881,1.245c0,0.687,0.842,1.244,1.881,1.244
														c1.038,0,1.881-0.557,1.881-1.244C1139.677,1196.081,1138.834,1195.525,1137.796,1195.525z"/><path fill="#e6e6e6" d="M1145.97,1188.582c-0.001,0.208-0.001,0.457-0.002,0.734
												c-0.001,0.275-0.001,0.578-0.002,0.903c-0.002,0.327-0.002,0.67-0.003,1.024c-0.001,0.327-0.004,0.76-0.004,1.088
												c-0.001,0.364-0.002,0.728-0.002,1.087c-0.002,0.312-0.002,0.724-0.003,1.036c-0.001,0.329-0.002,0.637-0.002,0.926
												c0,0.283-0.002,0.535-0.003,0.755c0,0.219-0.001,0.401-0.001,0.535c-0.001,0.135-0.001,0.222-0.001,0.254
												c0.017-6.443-4.124-12.901-12.46-17.901c-16.953-10.166-44.836-10.449-62.276-0.631
												c-8.864,4.989-13.326,11.626-13.344,18.283c0.003-1.167,0.006-2.336,0.009-3.505c0.001-0.356,0.002-0.72,0.003-1.088
												c0.001-0.364,0.002-0.728,0.004-1.084c0.001-0.354,0.002-0.699,0.002-1.024c0.002-0.325,0.002-0.628,0.003-0.905
												c0.001-0.278,0.001-0.524,0.001-0.734c0.02-6.654,4.481-13.292,13.345-18.283c17.442-9.818,45.323-9.533,62.277,0.632
												C1141.847,1175.684,1145.989,1182.139,1145.97,1188.582z"/><path fill="#fff" d="M1134.895,1168.33c-17.694-10.609-46.795-10.906-64.999-0.66
												c-9.252,5.208-13.908,12.136-13.928,19.085c-0.019,6.722,4.304,13.463,13.006,18.685
												c17.695,10.607,46.796,10.903,65,0.657c9.252-5.208,13.908-12.139,13.928-19.086
												C1147.92,1180.289,1143.598,1173.548,1134.895,1168.33z M1145.86,1190.282c-0.036,0.333-0.12,0.768-0.184,1.093
												c-0.194,0.998-0.529,1.893-0.707,2.376c-0.267,0.71-0.719,1.629-1.099,2.286c-0.414,0.715-1.046,1.623-1.539,2.288
												c-0.468,0.631-1.161,1.419-1.719,1.971c-0.831,0.821-2.002,1.85-2.903,2.592c-0.725,0.599-1.769,1.294-2.553,1.816
												c-0.622,0.408-1.491,0.897-2.13,1.282c-0.865,0.48-2.024,1.115-2.931,1.51c-0.856,0.377-1.991,0.892-2.86,1.24
												c-0.85,0.339-1.991,0.778-2.865,1.048c-3.704,1.148-3.849,1.196-6.231,1.727c-3.591,0.802-6.565,1.137-6.593,1.143
												c-3.933,0.414-4.255,0.449-6.809,0.535c-0.862,0.033-3.485,0.122-6.881-0.069c-1.639-0.092-3.891-0.25-6.817-0.681
												c-0.994-0.148-2.314-0.372-3.299-0.565c-0.999-0.194-2.324-0.5-3.316-0.733c-2.069-0.486-2.795-0.734-6.283-1.918
												c-1.013-0.343-2.34-0.882-3.306-1.342c-1.488-0.71-3.472-1.665-4.878-2.526c-0.923-0.568-2.123-1.372-3.005-1.998
												c-0.534-0.38-1.215-0.926-1.712-1.354c-1.958-1.681-2.722-2.621-3.689-3.809c-0.3-0.369-0.671-0.887-0.926-1.288
												c-0.364-0.575-0.81-1.361-1.132-1.96c-0.258-0.48-0.868-1.906-1.114-2.923c-0.111-0.454-0.263-1.055-0.324-1.517
												c-0.085-0.647-0.142-1.517-0.167-2.172c0.02-6.654,4.481-13.292,13.345-18.283c17.442-9.818,45.325-9.533,62.277,0.632
												c8.337,5.002,12.479,11.456,12.46,17.899C1145.958,1189.094,1145.914,1189.776,1145.86,1190.282z"/><path fill="#2e86ab" d="M1151.061,1206.646c-0.037,3.807-0.131,6.72-0.279,8.655
												c-0.189,2.474-0.489,5.765-0.752,8.227c-0.136,1.273-0.386,2.96-0.577,4.223c-0.19,1.252-0.454,2.914-0.702,4.155
												c-0.458,2.297-1.12,5.349-1.653,7.63c-0.008,0.033-0.917,3.767-2.205,7.729c-0.675,2.074-1.689,4.806-2.466,6.843
												c-0.409,1.072-1.039,2.465-1.487,3.522c-0.308,0.725-1.846,4.038-3.166,6.423c-0.54,0.972-1.254,2.276-1.848,3.218
												c-1.008,1.596-2.394,3.697-3.484,5.239c-0.622,0.878-1.511,2.004-2.193,2.832c-0.71,0.861-1.693,1.98-2.449,2.798
												c-1.397,1.496-3.204,2.898-5.419,4.144c8.303-9.555,13.707-29.34,13.78-55.219c0.017-6.279-0.279-12.573-0.856-18.787
												c-0.077-0.836-0.652-1.773-1.329-2.179c18.204-10.246,18.617-27.157,0.922-37.768
												c-17.694-10.609-46.795-10.906-64.999-0.66c-18.204,10.249-18.618,27.157-0.923,37.77
												c17.695,10.607,46.796,10.903,65,0.657c0.678,0.406,1.252,1.343,1.329,2.179c0.578,6.214,0.874,12.508,0.856,18.787
												c-0.073,25.88-5.476,45.664-13.78,55.219c-11.75,6.614-30.534,6.423-41.954-0.426c-1.972-1.182-3.596-2.486-4.872-3.868
												l0,0c-1.155-1.318-2.659-3.099-3.738-4.479c-0.733-0.938-1.637-2.239-2.297-3.229c-0.632-0.947-1.465-2.22-2.03-3.207
												c-0.486-0.849-1.151-1.974-1.617-2.838c-0.545-1.005-1.262-2.357-1.752-3.394c-1.377-2.93-1.842-3.917-2.95-6.699
												c-0.806-2.022-1.746-4.773-2.442-6.839c-0.387-1.145-0.852-2.692-1.162-3.861c-0.313-1.182-0.745-2.753-1.037-3.941
												c-0.278-1.124-0.608-2.636-0.864-3.768c-0.274-1.22-0.58-2.861-0.802-4.096c-0.212-1.177-0.451-2.753-0.644-3.936
												c-0.207-1.267-0.413-2.963-0.562-4.236c-0.289-2.459-0.539-5.751-0.717-8.224c-0.094-1.322-0.158-3.085-0.187-4.413
												c-0.087-3.721-0.113-7.979,0.276-13.896c0.214-3.281,0.553-6.198,0.664-7.155c0.005-0.042,0.496-4.228,0.789-5.358
												c0.432-1.66,0.432-1.66,1.111-3.37c0.263-0.668,0.712-1.515,1.071-2.13c0.522-0.892,1.299-2.033,1.935-2.848
												c0.617-0.792,1.543-1.766,2.231-2.497c0.891-0.953,2.265-2.035,3.281-2.853c0.638-0.513,1.553-1.111,2.227-1.577
												c1.2-0.826,3.65-2.208,5.241-2.963c0.995-0.47,2.337-1.069,3.355-1.489c0.897-0.364,2.104-0.834,3.029-1.124
												c1.037-0.325,2.407-0.805,3.461-1.072c2-0.507,4.679-1.146,6.709-1.512c3.088-0.557,6.548-0.876,7.252-0.919
												c1.08-0.06,2.519-0.19,3.599-0.202c1.086-0.012,2.532-0.054,3.617-0.043c1.082,0.01,2.526,0.058,3.607,0.116
												c1.766,0.095,5.792,0.362,10.651,1.312c2.007,0.393,4.648,1.09,6.62,1.628c0.988,0.272,2.283,0.707,3.239,1.069
												c0.895,0.341,2.09,0.789,2.97,1.165c0.923,0.393,2.127,0.974,3.036,1.401c0.978,0.46,2.234,1.175,3.159,1.735
												c1.258,0.764,2.891,1.86,4.054,2.766c1.067,0.826,2.429,2.014,3.365,2.988c0.743,0.774,1.678,1.858,2.329,2.711
												c0.537,0.705,1.169,1.708,1.619,2.468c0.68,1.148,1.609,3.241,1.994,4.86c0.335,1.409,0.335,1.409,0.671,3.991
												c0.276,2.112,0.527,4.635,0.643,6.086c0.108,1.341,0.271,3.358,0.383,6.208
												C1151.086,1203.901,1151.061,1206.618,1151.061,1206.646z"/><path fill="#4d4d4d" d="M1102.585,1287.115c-8.025,0.124-16.121-1.636-22.159-5.258
												c-0.066-0.039-0.132-0.079-0.197-0.119c-8.537-9.771-14.015-29.698-13.943-55.578c0.019-6.278,0.361-12.565,0.994-18.76
												c0.085-0.836,0.685-1.76,1.39-2.148c0.101,0.063,0.202,0.123,0.304,0.187c9.355,5.605,21.897,8.335,34.333,8.142
												c0.028,0.565,0.052,1.642,0.053,2.495c0.009,6.354,0.005,12.722-0.013,18.999
												C1103.275,1260.954,1102.981,1279.494,1102.585,1287.115L1102.585,1287.115z"/><g><path fill="#ccc" d="M1089.828,1101.579c-1.902,3.009-3.618,6.101-4.675,9.376
									c-1.073,3.267-1.452,6.679-1.161,10.017c0.077,3.291,1.557,6.005,3.509,8.834c1.946,2.783,4.265,5.474,6.457,8.441
									c2.193,2.953,4.364,6.192,5.764,10.079c1.412,3.866,1.548,8.433,0.202,12.412c-1.341,3.996-3.719,7.232-6.164,9.916
									c-1.205,1.365-2.469,2.602-3.575,3.877c-1.129,1.27-2.127,2.539-2.604,4.224l-0.005,0.02c-0.054,0.19-0.25,0.3-0.44,0.246
									c-0.119-0.034-0.207-0.126-0.243-0.235c-0.61-1.919-0.073-4.043,0.549-5.833c0.677-1.81,1.501-3.465,2.296-5.044
									c1.574-3.165,2.98-6.101,3.532-9.008c0.579-2.89,0.561-5.713-0.068-8.669c-0.588-2.977-2.055-5.975-3.809-8.925
									c-1.765-2.955-3.84-5.885-5.682-9.138c-0.916-1.628-1.761-3.366-2.382-5.246c-0.62-1.842-0.886-4.073-0.772-5.886
									c0.136-3.783,1.045-7.516,2.625-10.861c1.544-3.373,3.755-6.304,6.089-9.004c0.124-0.145,0.341-0.163,0.487-0.039
									C1089.892,1101.244,1089.917,1101.437,1089.828,1101.579z"/><path fill="#ccc" d="M1106.069,1090.273c-2.418,3.897-4.63,7.83-5.845,12.034
									c-1.222,4.197-1.575,8.553-1.243,12.875c0.123,8.436,6.277,14.481,12.186,21.771c2.935,3.665,6.143,7.67,8.162,12.833
									c2.045,5.146,2.19,11.239,0.359,16.473c-1.794,5.28-5.054,9.425-8.296,12.779c-1.596,1.712-3.269,3.24-4.719,4.81
									c-1.49,1.565-2.791,3.104-3.469,5.264l-0.011,0.034c-0.09,0.287-0.396,0.447-0.684,0.357
									c-0.162-0.051-0.285-0.173-0.344-0.319c-0.976-2.461-0.39-5.325,0.349-7.696c0.815-2.403,1.835-4.578,2.823-6.631
									c1.956-4.121,3.634-7.849,4.308-11.419c0.663-3.563,0.661-6.987-0.103-10.545c-0.743-3.59-2.643-7.343-5.079-11.03
									c-2.416-3.716-5.252-7.495-7.54-11.928c-1.12-2.218-2.08-4.617-2.643-7.162c-0.596-2.485-0.711-5.31-0.492-7.618
									c0.328-4.808,1.44-9.622,3.44-13.983c1.965-4.403,4.953-8.117,8-11.516c0.189-0.218,0.519-0.241,0.737-0.052
									C1106.162,1089.771,1106.197,1090.06,1106.069,1090.273z"/></g></g></g><g><path fill="#d9d9d9" d="M948.468,1226.966c-2.576,0-5.139-0.693-7.412-2.005c-4.728-2.73-8.515-11.555-7.856-19.602
							c-5.409,6.068-17.802,11.904-24.392,11.905c-3.172,0-5.748-0.559-7.657-1.661c-2.174-1.255-3.389-3.211-3.42-5.507
							c-0.052-3.858,9.4-12.948,15.549-17.532c-10.686,3.562-24.06,2.471-28.415-0.044c-4.22-2.436-4.237-5.163-3.872-6.572
							c1.264-4.874,10.794-8.147,25.89-9.041c-6.221-4.6-9.452-8.989-9.411-12.852c0.024-2.279,1.222-4.223,3.374-5.474
							c1.899-1.104,4.472-1.663,7.645-1.663c6.584,0,14.806,2.361,23.395,6.691c1.604-11.239,9.232-16.395,16.158-16.395
							c2.576,0,5.139,0.693,7.411,2.005c4.729,2.73,7.886,7.886,8.905,14.4c8.549-4.336,16.753-6.702,23.342-6.702
							c3.172,0,5.748,0.559,7.657,1.661c2.174,1.256,3.39,3.212,3.421,5.508c0.052,3.858-7.138,8.954-13.734,11.461
							c10.047,0.592,22.243,3.599,26.6,6.114c4.221,2.436,4.238,5.163,3.873,6.572c-1.264,4.874-18.996,7.234-31.792,4.728
							c6.596,3.694,15.35,13.304,15.309,17.167c-0.024,2.279-1.222,4.222-3.372,5.472c-1.9,1.104-4.473,1.664-7.647,1.664h0
							c-6.583,0-21.176-6.494-24.869-12.562C964.73,1218.814,955.394,1226.966,948.468,1226.966z"/><path fill="#fff" d="M1010.656,1180.543c-4.372-2.523-13.481-4.495-27.311-4.715
							c13.838-8.498,15.99-15.501,11.024-18.368c-4.966-2.867-17.049-1.597-31.674,6.446l0,0c-0.425-8.012-3.859-13.281-8.23-15.804
							c-8.39-4.844-20.234,0.426-20.877,15.805c0.599,0.328,1.204,0.668,1.812,1.018c-0.608-0.35-1.212-0.69-1.812-1.018
							c-14.716-8.043-26.814-9.312-31.747-6.445c-4.935,2.868-2.706,9.87,11.23,18.367c0.587,0.358,0.587,0.358,0,0
							c-26.552,0.423-35.609,7.3-27.216,12.145c4.371,2.523,13.482,4.495,27.311,4.715l0,0
							c-13.838,8.498-15.99,15.501-11.024,18.368c4.966,2.867,17.049,1.597,31.674-6.446c0.425,8.012,3.859,13.281,8.23,15.804
							c8.39,4.844,20.234-0.425,20.877-15.805l-0.001-0.001l0.001,0.001c14.714,8.043,26.81,9.311,31.744,6.444
							c4.933-2.867,2.704-9.868-11.23-18.366C1009.99,1192.266,1019.051,1185.388,1010.656,1180.543z"/><path fill="#ffe100" d="M966.256,1173.798c3.673,2.12,6.004,4.724,6.994,7.456c0.717,1.98,0.728,4.029,0.034,6.009
							c-0.958,2.732-3.261,5.335-6.909,7.456c-3.649,2.12-8.136,3.463-12.85,4.027c-3.416,0.409-6.952,0.409-10.373,0
							c-4.72-0.564-9.223-1.906-12.895-4.026c-3.673-2.12-6.004-4.724-6.994-7.456c-0.717-1.98-0.728-4.028-0.034-6.008
							c0.958-2.732,3.261-5.336,6.91-7.456s8.136-3.463,12.85-4.027c3.416-0.409,6.952-0.409,10.373,0
							C958.081,1170.336,962.583,1171.678,966.256,1173.798z"/><path fill="#fff200" d="M948.347,1195.907c-1.683,0-3.214-2.212-4.853-2.406c-4.601-0.551-9.194-0.043-12.435-1.913
							c-2.734-1.578-3.606-4.239-4.283-6.103c-0.364-1.017-1.81-2.004-1.457-3.018c0.646-1.843,2.743-4.292,5.439-5.86
							c3.217-1.87,7.674-3.525,12.262-4.073c1.642-0.197,3.466,0.82,5.146,0.82c1.68,0,3.36,0.185,5.003,0.382
							c4.601,0.547,8.971,1.438,12.215,3.312c2.731,1.578,5.271,3.538,5.948,5.402c0.367,1.017-1.714,1.906-2.071,2.916
							c-0.646,1.846-1.701,3.446-4.397,5.014c-3.214,1.867-6.977,3.468-11.564,4.019
							C951.665,1194.595,950.027,1195.907,948.347,1195.907z"/></g><g><path fill="#d9d9d9" d="M1191.543,915.958c-2.576,0-5.139-0.693-7.411-2.005c-4.729-2.73-8.515-11.555-7.856-19.602
							c-5.409,6.068-17.802,11.904-24.392,11.904c-3.172,0-5.748-0.559-7.656-1.661c-2.175-1.255-3.389-3.211-3.421-5.507
							c-0.052-3.858,9.4-12.948,15.549-17.532c-10.686,3.562-24.06,2.471-28.415-0.044c-4.22-2.436-4.237-5.164-3.872-6.572
							c1.264-4.873,10.794-8.147,25.89-9.041c-6.222-4.6-9.453-8.989-9.411-12.852c0.024-2.279,1.222-4.223,3.374-5.474
							c1.9-1.104,4.472-1.663,7.645-1.663c6.584,0,14.806,2.362,23.395,6.691c1.604-11.239,9.232-16.395,16.158-16.395
							c2.576,0,5.139,0.693,7.411,2.005c4.729,2.73,7.886,7.886,8.905,14.399c8.549-4.336,16.753-6.702,23.342-6.702
							c3.172,0,5.748,0.559,7.657,1.661c2.175,1.256,3.39,3.212,3.421,5.508c0.052,3.858-7.138,8.954-13.734,11.461
							c10.047,0.592,22.243,3.599,26.6,6.114c4.221,2.436,4.238,5.163,3.873,6.572c-1.264,4.874-18.996,7.234-31.792,4.728
							c6.596,3.694,15.35,13.304,15.309,17.167c-0.024,2.279-1.222,4.222-3.372,5.472c-1.9,1.104-4.473,1.664-7.647,1.664h0
							c-6.583,0-21.176-6.494-24.869-12.562C1207.805,907.806,1198.469,915.958,1191.543,915.958z"/><path fill="#fff" d="M1253.732,869.536c-4.372-2.523-13.481-4.495-27.311-4.715
							c13.838-8.498,15.99-15.501,11.024-18.368c-4.966-2.867-17.049-1.597-31.674,6.446l0,0c-0.425-8.012-3.859-13.281-8.23-15.804
							c-8.39-4.844-20.234,0.425-20.877,15.805c0.599,0.328,1.204,0.668,1.812,1.018c-0.608-0.35-1.212-0.69-1.812-1.018
							c-14.716-8.043-26.814-9.312-31.747-6.445c-4.935,2.868-2.707,9.87,11.23,18.367c0.586,0.358,0.587,0.358,0,0
							c-26.552,0.423-35.609,7.3-27.215,12.145c4.371,2.523,13.481,4.495,27.311,4.715h0c-13.838,8.498-15.99,15.501-11.024,18.368
							c4.966,2.867,17.049,1.597,31.674-6.446c0.425,8.012,3.859,13.281,8.23,15.804c8.39,4.844,20.234-0.425,20.877-15.805
							l-0.001-0.001l0.001,0.001c14.714,8.043,26.81,9.311,31.744,6.443c4.933-2.867,2.704-9.868-11.23-18.366
							C1253.065,881.258,1262.127,874.38,1253.732,869.536z"/><path fill="#ffe100" d="M1209.332,862.791c3.673,2.12,6.004,4.724,6.994,7.456c0.717,1.98,0.728,4.029,0.034,6.009
							c-0.958,2.732-3.261,5.336-6.909,7.456c-3.649,2.12-8.136,3.463-12.85,4.027c-3.416,0.409-6.952,0.409-10.373,0
							c-4.72-0.564-9.223-1.906-12.895-4.026s-6.005-4.724-6.994-7.456c-0.717-1.98-0.728-4.028-0.034-6.008
							c0.958-2.732,3.261-5.336,6.91-7.456c3.649-2.12,8.136-3.463,12.85-4.027c3.417-0.409,6.952-0.409,10.373,0
							C1201.156,859.328,1205.659,860.67,1209.332,862.791z"/><path fill="#fff200" d="M1191.423,884.9c-1.683,0-3.214-2.212-4.853-2.406c-4.601-0.551-9.194-0.043-12.435-1.913
							c-2.734-1.578-3.606-4.239-4.283-6.103c-0.364-1.017-1.81-2.004-1.457-3.018c0.646-1.843,2.743-4.292,5.439-5.86
							c3.217-1.87,7.674-3.525,12.262-4.073c1.643-0.197,3.466,0.82,5.146,0.82c1.68,0,3.36,0.185,5.002,0.382
							c4.601,0.547,8.971,1.438,12.215,3.312c2.731,1.578,5.271,3.538,5.948,5.402c0.367,1.017-1.714,1.906-2.071,2.916
							c-0.646,1.846-1.701,3.446-4.397,5.014c-3.214,1.867-6.976,3.468-11.564,4.019C1194.74,883.588,1193.103,884.9,1191.423,884.9
							z"/></g><g><path fill="#d9d9d9" d="M2266.543,1045.958c-2.576,0-5.139-0.693-7.411-2.005c-4.728-2.73-8.515-11.555-7.856-19.602
							c-5.409,6.068-17.802,11.904-24.391,11.905c-3.172,0-5.748-0.559-7.657-1.661c-2.174-1.255-3.389-3.211-3.42-5.507
							c-0.052-3.858,9.4-12.948,15.549-17.533c-10.686,3.562-24.06,2.471-28.415-0.044c-4.22-2.436-4.237-5.164-3.872-6.572
							c1.264-4.873,10.794-8.147,25.89-9.041c-6.221-4.6-9.452-8.989-9.411-12.852c0.024-2.279,1.222-4.223,3.374-5.474
							c1.9-1.104,4.472-1.663,7.645-1.663c6.584,0,14.806,2.362,23.395,6.691c1.604-11.239,9.232-16.395,16.158-16.395
							c2.576,0,5.139,0.693,7.412,2.005c4.729,2.73,7.886,7.886,8.905,14.399c8.549-4.336,16.753-6.702,23.342-6.702
							c3.172,0,5.748,0.559,7.656,1.661c2.175,1.256,3.39,3.212,3.421,5.508c0.052,3.858-7.138,8.954-13.734,11.461
							c10.047,0.592,22.243,3.599,26.6,6.114c4.221,2.436,4.238,5.163,3.873,6.572c-1.264,4.874-18.996,7.234-31.792,4.728
							c6.596,3.694,15.35,13.304,15.309,17.167c-0.024,2.278-1.222,4.222-3.372,5.472c-1.9,1.104-4.473,1.664-7.647,1.664h0
							c-6.583,0-21.176-6.494-24.869-12.562C2282.805,1037.806,2273.469,1045.958,2266.543,1045.958z"/><path fill="#fff" d="M2328.732,999.536c-4.372-2.523-13.481-4.495-27.311-4.715
							c13.838-8.498,15.99-15.501,11.024-18.368c-4.966-2.867-17.049-1.597-31.674,6.446l0,0c-0.425-8.012-3.859-13.281-8.23-15.804
							c-8.39-4.844-20.234,0.425-20.877,15.805c0.599,0.328,1.204,0.668,1.812,1.018c-0.608-0.35-1.212-0.69-1.812-1.018
							c-14.716-8.043-26.814-9.312-31.747-6.445c-4.935,2.868-2.707,9.87,11.23,18.367c0.587,0.358,0.587,0.358,0,0
							c-26.552,0.423-35.608,7.3-27.215,12.145c4.371,2.523,13.481,4.495,27.311,4.715l0,0
							c-13.838,8.498-15.99,15.501-11.024,18.368c4.966,2.867,17.049,1.597,31.674-6.446c0.425,8.012,3.859,13.281,8.23,15.804
							c8.39,4.844,20.234-0.425,20.877-15.805l-0.001-0.001l0.001,0.001c14.714,8.043,26.81,9.311,31.744,6.443
							c4.933-2.867,2.705-9.868-11.23-18.366C2328.065,1011.258,2337.127,1004.38,2328.732,999.536z"/><path fill="#ffe100" d="M2284.332,992.791c3.673,2.12,6.004,4.724,6.994,7.456c0.717,1.98,0.728,4.029,0.033,6.009
							c-0.958,2.732-3.261,5.336-6.909,7.456s-8.136,3.463-12.85,4.027c-3.416,0.409-6.952,0.409-10.373,0
							c-4.72-0.564-9.222-1.906-12.895-4.026s-6.005-4.724-6.994-7.456c-0.717-1.98-0.728-4.028-0.034-6.008
							c0.958-2.732,3.261-5.336,6.909-7.456c3.649-2.12,8.136-3.463,12.85-4.027c3.416-0.409,6.952-0.409,10.373,0
							C2276.156,989.328,2280.659,990.67,2284.332,992.791z"/><path fill="#fff200" d="M2266.423,1014.9c-1.683,0-3.214-2.212-4.853-2.406c-4.601-0.551-9.194-0.043-12.435-1.913
							c-2.734-1.578-3.606-4.239-4.283-6.103c-0.364-1.017-1.81-2.004-1.457-3.018c0.646-1.843,2.743-4.292,5.439-5.86
							c3.217-1.87,7.674-3.525,12.262-4.073c1.642-0.197,3.466,0.82,5.146,0.82s3.36,0.185,5.002,0.382
							c4.601,0.547,8.971,1.438,12.215,3.312c2.73,1.578,5.271,3.538,5.948,5.402c0.367,1.017-1.714,1.906-2.071,2.916
							c-0.646,1.846-1.701,3.446-4.397,5.014c-3.213,1.867-6.977,3.468-11.564,4.019
							C2269.74,1013.588,2268.103,1014.9,2266.423,1014.9z"/></g><g><path fill="#d9d9d9" d="M2141.543,1555.958c-2.576,0-5.139-0.693-7.411-2.005c-4.728-2.73-8.515-11.555-7.856-19.602
							c-5.409,6.068-17.802,11.904-24.391,11.905c-3.172,0-5.748-0.559-7.657-1.661c-2.174-1.255-3.389-3.211-3.42-5.507
							c-0.052-3.858,9.4-12.948,15.549-17.533c-10.686,3.562-24.06,2.471-28.415-0.043c-4.22-2.436-4.237-5.163-3.872-6.572
							c1.264-4.874,10.794-8.147,25.89-9.041c-6.221-4.6-9.452-8.989-9.411-12.852c0.024-2.279,1.222-4.223,3.374-5.474
							c1.9-1.104,4.472-1.663,7.645-1.663c6.584,0,14.806,2.362,23.395,6.691c1.604-11.239,9.232-16.395,16.158-16.395
							c2.576,0,5.139,0.693,7.412,2.005c4.729,2.73,7.886,7.886,8.905,14.4c8.549-4.336,16.753-6.702,23.342-6.702
							c3.172,0,5.748,0.559,7.656,1.661c2.175,1.256,3.39,3.212,3.421,5.508c0.052,3.858-7.138,8.954-13.734,11.461
							c10.047,0.592,22.243,3.599,26.6,6.114c4.221,2.436,4.238,5.163,3.873,6.572c-1.264,4.874-18.996,7.234-31.792,4.728
							c6.596,3.694,15.35,13.304,15.309,17.167c-0.024,2.278-1.222,4.222-3.372,5.472c-1.9,1.104-4.473,1.664-7.647,1.664h0
							c-6.583,0-21.176-6.494-24.869-12.562C2157.805,1547.806,2148.469,1555.958,2141.543,1555.958z"/><path fill="#fff" d="M2203.732,1509.536c-4.372-2.523-13.481-4.495-27.311-4.715
							c13.838-8.498,15.99-15.501,11.024-18.368c-4.966-2.867-17.049-1.597-31.674,6.446l0,0c-0.425-8.012-3.859-13.281-8.23-15.804
							c-8.39-4.844-20.234,0.425-20.877,15.805c0.599,0.328,1.204,0.668,1.812,1.018c-0.608-0.35-1.212-0.69-1.812-1.018
							c-14.716-8.043-26.814-9.312-31.747-6.445c-4.935,2.868-2.707,9.87,11.23,18.368c0.587,0.358,0.587,0.358,0,0
							c-26.552,0.423-35.608,7.3-27.215,12.145c4.371,2.523,13.481,4.495,27.311,4.715l0,0
							c-13.838,8.498-15.99,15.501-11.024,18.368c4.966,2.867,17.049,1.597,31.674-6.446c0.425,8.012,3.859,13.281,8.23,15.804
							c8.39,4.844,20.234-0.425,20.877-15.805l-0.001-0.001l0.001,0.001c14.714,8.043,26.81,9.311,31.744,6.443
							c4.933-2.867,2.705-9.868-11.23-18.366C2203.065,1521.258,2212.127,1514.38,2203.732,1509.536z"/><path fill="#ffe100" d="M2159.332,1502.791c3.673,2.12,6.004,4.724,6.994,7.456c0.717,1.98,0.728,4.029,0.033,6.009
							c-0.958,2.732-3.261,5.335-6.909,7.456s-8.136,3.463-12.85,4.027c-3.416,0.409-6.952,0.409-10.373,0
							c-4.72-0.564-9.222-1.906-12.895-4.026s-6.005-4.724-6.994-7.456c-0.717-1.98-0.728-4.028-0.034-6.009
							c0.958-2.732,3.261-5.336,6.909-7.456c3.649-2.121,8.136-3.463,12.85-4.027c3.416-0.409,6.952-0.409,10.373,0
							C2151.156,1499.328,2155.659,1500.67,2159.332,1502.791z"/><path fill="#fff200" d="M2141.423,1524.9c-1.683,0-3.214-2.212-4.853-2.406c-4.601-0.551-9.194-0.043-12.435-1.913
							c-2.734-1.578-3.606-4.239-4.283-6.102c-0.364-1.017-1.81-2.004-1.457-3.018c0.646-1.843,2.743-4.292,5.439-5.86
							c3.217-1.87,7.674-3.525,12.262-4.073c1.642-0.197,3.466,0.82,5.146,0.82s3.36,0.185,5.002,0.382
							c4.601,0.547,8.971,1.438,12.215,3.312c2.73,1.578,5.271,3.538,5.948,5.402c0.367,1.017-1.714,1.906-2.071,2.916
							c-0.646,1.847-1.701,3.446-4.397,5.014c-3.213,1.867-6.977,3.468-11.564,4.019
							C2144.74,1523.588,2143.103,1524.9,2141.423,1524.9z"/></g><g><path fill="#d9d9d9" d="M1856.543,1065.958c-2.576,0-5.139-0.693-7.411-2.005c-4.729-2.73-8.515-11.555-7.856-19.602
							c-5.409,6.068-17.802,11.904-24.392,11.905c-3.172,0-5.748-0.559-7.656-1.661c-2.175-1.255-3.389-3.211-3.421-5.507
							c-0.052-3.858,9.4-12.948,15.549-17.533c-10.686,3.562-24.06,2.471-28.415-0.043c-4.22-2.436-4.237-5.163-3.872-6.572
							c1.264-4.874,10.794-8.147,25.89-9.041c-6.222-4.6-9.453-8.989-9.411-12.852c0.024-2.279,1.222-4.223,3.374-5.474
							c1.9-1.104,4.472-1.663,7.645-1.663c6.584,0,14.806,2.362,23.395,6.691c1.604-11.239,9.232-16.395,16.158-16.395
							c2.576,0,5.139,0.693,7.411,2.005c4.729,2.73,7.886,7.886,8.905,14.399c8.549-4.336,16.753-6.702,23.342-6.702
							c3.172,0,5.748,0.559,7.657,1.661c2.175,1.256,3.39,3.212,3.421,5.508c0.052,3.858-7.138,8.954-13.734,11.461
							c10.047,0.592,22.243,3.599,26.6,6.114c4.221,2.436,4.238,5.163,3.873,6.572c-1.264,4.874-18.996,7.234-31.792,4.728
							c6.596,3.694,15.35,13.304,15.309,17.167c-0.024,2.278-1.222,4.222-3.372,5.472c-1.9,1.104-4.473,1.664-7.647,1.664h0
							c-6.583,0-21.176-6.494-24.869-12.562C1872.805,1057.806,1863.469,1065.958,1856.543,1065.958z"/><path fill="#fff" d="M1918.732,1019.536c-4.372-2.523-13.481-4.495-27.311-4.715
							c13.838-8.498,15.99-15.501,11.024-18.368c-4.966-2.867-17.049-1.597-31.674,6.446l0,0c-0.425-8.012-3.859-13.281-8.23-15.804
							c-8.39-4.844-20.234,0.425-20.877,15.805c0.599,0.328,1.204,0.668,1.812,1.018c-0.608-0.35-1.212-0.69-1.812-1.018
							c-14.716-8.043-26.814-9.312-31.747-6.445c-4.935,2.868-2.707,9.87,11.23,18.367c0.586,0.358,0.587,0.358,0,0
							c-26.552,0.423-35.609,7.3-27.215,12.145c4.371,2.523,13.481,4.495,27.311,4.715h0c-13.838,8.498-15.99,15.501-11.024,18.368
							c4.966,2.867,17.049,1.597,31.674-6.446c0.425,8.012,3.859,13.281,8.23,15.804c8.39,4.844,20.234-0.425,20.877-15.805
							l-0.001-0.001l0.001,0.001c14.714,8.043,26.81,9.311,31.744,6.443c4.933-2.867,2.704-9.868-11.23-18.366
							C1918.065,1031.258,1927.127,1024.38,1918.732,1019.536z"/><path fill="#ffe100" d="M1874.332,1012.791c3.673,2.12,6.004,4.724,6.994,7.456c0.717,1.98,0.728,4.029,0.034,6.009
							c-0.958,2.732-3.261,5.335-6.909,7.456c-3.649,2.12-8.136,3.463-12.85,4.027c-3.416,0.409-6.952,0.409-10.373,0
							c-4.72-0.564-9.223-1.906-12.895-4.026s-6.005-4.724-6.994-7.456c-0.717-1.98-0.728-4.028-0.034-6.008
							c0.958-2.732,3.261-5.336,6.91-7.456c3.649-2.12,8.136-3.463,12.85-4.027c3.417-0.409,6.952-0.409,10.373,0
							C1866.156,1009.328,1870.659,1010.67,1874.332,1012.791z"/><path fill="#fff200" d="M1856.423,1034.9c-1.683,0-3.214-2.212-4.853-2.406c-4.601-0.551-9.194-0.043-12.435-1.913
							c-2.734-1.578-3.606-4.239-4.283-6.102c-0.364-1.017-1.81-2.004-1.457-3.018c0.646-1.843,2.743-4.292,5.439-5.86
							c3.217-1.87,7.674-3.525,12.262-4.073c1.643-0.197,3.466,0.82,5.146,0.82c1.68,0,3.36,0.185,5.002,0.382
							c4.601,0.547,8.971,1.438,12.215,3.312c2.731,1.578,5.271,3.538,5.948,5.402c0.367,1.017-1.714,1.906-2.071,2.916
							c-0.646,1.847-1.701,3.446-4.397,5.014c-3.214,1.867-6.976,3.468-11.564,4.019
							C1859.74,1033.588,1858.103,1034.9,1856.423,1034.9z"/></g><g><path fill="#b1dff5" d="M1424.435,349.806c27.559,15.913,34.182,39.365,19.864,58.857
								c3.795,1.676,7.449,3.503,10.924,5.504c42.018,24.264,42.24,63.606,0.491,87.865c-41.745,24.264-109.67,24.264-151.691,0.005
								c-8.286-4.787-14.915-10.159-19.946-15.871c-42.776,2.71-87.289-5.405-120.221-24.42
								c-10.231-5.905-18.619-12.472-25.227-19.449c-28.76,0.604-57.895-5.434-79.916-18.146
								c-42.02-24.26-42.241-63.606-0.495-87.866c16.45-9.559,36.967-15.332,58.352-17.358c4.47-6.368,11.128-12.33,20.005-17.49
								c35.92-20.875,94.323-20.865,130.464,0c8.087,4.669,14.361,9.979,18.838,15.654c25.313,1.879,49.955,7.582,71.174,17.098
								C1381.338,333.878,1405.84,339.071,1424.435,349.806z"/><path fill="#c4eeff" d="M1382.389,488.81c-26.148,0-50.544-5.773-68.697-16.253
								c-6.693-3.861-12.182-8.2-16.314-12.892l-4.701-5.339l-7.099,0.449c-5.021,0.321-10.133,0.482-15.191,0.482
								c-36.788,0-71.187-8.162-96.862-22.985c-8.752-5.056-16.138-10.73-21.95-16.862l-4.415-4.664l-6.419,0.137
								c-1.207,0.024-2.417,0.038-3.625,0.038c-26.177,0-50.586-5.769-68.734-16.248c-15.497-8.946-24.394-20.445-24.409-31.548
								c-0.016-10.985,8.714-22.366,23.95-31.218c14.116-8.204,32.245-13.548,52.431-15.46l6.661-0.628l3.844-5.476
								c3.398-4.843,8.586-9.309,15.421-13.284c14.971-8.7,36.059-13.69,57.856-13.69c21.814,0,42.98,4.999,58.071,13.714
								c6.308,3.64,11.254,7.699,14.702,12.075l3.95,5.009l6.362,0.472c24.252,1.799,47.183,7.289,66.314,15.866l2.92,1.308
								l3.201-0.038c0.628-0.01,1.255-0.014,1.882-0.014c21.832,0,42.995,4.99,58.063,13.69
								c11.004,6.354,17.962,14.119,19.586,21.861c1.104,5.259-0.298,10.588-4.159,15.852l-10.688,14.554l16.518,7.293
								c3.432,1.515,6.637,3.13,9.531,4.801c15.493,8.946,24.391,20.445,24.406,31.548c0.019,10.985-8.714,22.366-23.948,31.218
								C1432.833,483.046,1408.522,488.81,1382.389,488.81z"/><path fill="#edfaff" d="M1382.389,474.308c-24.896,0-48.004-5.429-65.072-15.281
								c-6.009-3.47-10.887-7.307-14.498-11.41l-7.052-8.001l-10.646,0.67c-4.861,0.312-9.817,0.467-14.734,0.467
								c-35.542,0-68.648-7.818-93.236-22.017c-8.148-4.702-14.981-9.942-20.312-15.569l-6.622-6.991l-9.629,0.203
								c-1.153,0.024-2.313,0.038-3.472,0.038c-24.924,0-48.047-5.424-65.108-15.276c-13.003-7.506-20.772-16.957-20.784-25.279
								c-0.012-8.205,7.593-17.528,20.342-24.939c13.217-7.68,30.323-12.699,49.47-14.507l9.991-0.944l5.766-8.219
								c2.79-3.975,7.207-7.737,13.129-11.178c13.898-8.072,33.657-12.708,54.213-12.708c20.58,0,40.424,4.645,54.446,12.741
								c5.508,3.182,9.759,6.637,12.635,10.286l5.926,7.51l9.543,0.713c23.419,1.737,45.51,7.01,63.885,15.248l4.38,1.968
								l4.801-0.061l1.789-0.014c20.597,0,40.441,4.636,54.437,12.717c9.064,5.231,14.936,11.457,16.116,17.075
								c0.67,3.196-0.279,6.491-2.908,10.064l-16.036,21.838l24.783,10.942c3.196,1.411,6.17,2.903,8.832,4.442
								c13.001,7.506,20.771,16.957,20.78,25.279c0.014,8.209-7.591,17.533-20.341,24.939
								C1430.284,468.889,1407.261,474.308,1382.389,474.308z"/></g></g></switch></svg>