<svg xmlns="http://www.w3.org/2000/svg" xmlns:xlink="http://www.w3.org/1999/xlink" viewBox="0 0 1393.88 681.177"><defs><linearGradient id="b" x1="821.429" x2="839.943" y1="171.951" y2="249.275" gradientUnits="userSpaceOnUse"><stop class="stopColorf3994f svgShape" offset="0" stop-color="#fe9526"/><stop class="stopColorf3994f svgShape" offset=".24" stop-color="#fe9526"/><stop class="stopColorfcc772 svgShape" offset="1" stop-color="#fcb972"/></linearGradient><linearGradient id="a" x1="786.266" x2="840.603" y1="97.465" y2="15.3" gradientUnits="userSpaceOnUse"><stop class="stopColor512425 svgShape" offset="0" stop-color="#242551"/><stop class="stopColor512425 svgShape" offset=".22" stop-color="#242551"/><stop class="stopColor8c4d17 svgShape" offset=".77" stop-color="#8c5317"/><stop class="stopColor8c4d17 svgShape" offset="1" stop-color="#8c5317"/></linearGradient><linearGradient id="c" x1="799.149" x2="806.388" y1="250.132" y2="103.039" gradientUnits="userSpaceOnUse"><stop class="stopColorf8b576 svgShape" offset="0" stop-color="#f8b976"/><stop class="stopColorfcc97a svgShape" offset="1" stop-color="#fcbd7a"/></linearGradient><linearGradient id="d" x1="824.203" x2="800.065" y1="71.866" y2="73.691" xlink:href="#a"/><linearGradient id="e" x1="756.049" x2="774.776" y1="80.681" y2="74.293" xlink:href="#a"/></defs><g fill="#167ffc" class="color000000 svgShape" data-name="7"><path fill="#f5f5f5" fill-rule="evenodd" d="M1297.855 272.044c70.607 117.185 41.473 262.883-61.095 392.974H79.827c.526-174.848 157.885-370.621 411.61-485.58C817.09 31.89 1178.136 73.352 1297.855 272.045Z" class="colorf5f5f5 svgShape"/><path fill="#e9eae9" fill-rule="evenodd" d="M1169.293 475.754a2.784 2.784 0 0 1-1.905-4.813 248.666 248.666 0 0 0 21.228-22.49c14.488-17.498 24.208-34.752 28.886-51.284 1.412-4.996 2.586-9.793 1.83-14.67a5.142 5.142 0 0 0-2.545-1.651c-14.409-5.25-22.408-16.549-19.02-26.867a2.782 2.782 0 0 1 .952-1.339 6.71 6.71 0 0 1 5.809-1.21c7.098 1.703 13.576 13.836 16.031 18.975q.377.785.776 1.579c.562 1.135 1.16 2.337 1.713 3.645 3.014-12.973 5.393-25.987 5.45-33.962.054-7.9-1.778-13.643-5.421-18.52-4.897-2.511-10.646-2.74-16.221-2.961-7.522-.299-15.302-.609-20.459-6.75a2.868 2.868 0 0 1-.324-.483c-1.587-2.984-4.89-9.19.086-12.723 4.795-3.403 15.519.386 16.728.83a50.821 50.821 0 0 1 22.515 15.79 125.366 125.366 0 0 0-13.824-32.214 53.8 53.8 0 0 0-7.292-5.803 2.956 2.956 0 0 1-.282.294c-6.019 5.44-14.965 4.885-21.335 2.548-2.945-1.08-6.53-2.929-6.887-5.609a6.247 6.247 0 0 1 1.84-5.351c2.924-2.921 8.648-3.63 13.018-3.045a38.227 38.227 0 0 1 12.63 4.111q-4.33-6.18-9.451-12.623c-9.896-7.59-19.283-16.838-21.39-32.732-1.163-8.76.21-19.31 5.976-21.773 3.762-1.613 7.94.404 12.407 5.978 10.467 13.057 11.775 32.536 7.691 44.234a2.773 2.773 0 0 1-.395.744 243.536 243.536 0 0 1 15.41 21.515c-1.545-14.494 1.008-26.316 7.439-33.424 4.178-4.62 11.838-9.237 19.644-7.027a5.73 5.73 0 0 1 4.317 4.403c1.731 8.17-13.821 23.483-13.982 23.617-4.167 3.46-8.428 10.05-10.363 15.807-1.256 3.737-.273 7.41.608 10.037a118.198 118.198 0 0 1 10.93 30.61c.06-.205.124-.411.186-.618.02-.075.042-.15.067-.225 3.823-12.517 10.011-26.135 16.117-34.428 6.342-8.613 13.078-17.144 19.58-18.588a6.313 6.313 0 0 1 5.345 1c2.982 2.233 3.281 6.673 3.409 8.57.473 6.628-1.535 14.35-3.74 18.11a28.883 28.883 0 0 1-7.41 8.178 96.374 96.374 0 0 1-15.97 9.983c-5.712 3.028-10.243 5.429-12.082 9.071a74.28 74.28 0 0 0-3.579 20.96c-.387 11.293-4.244 28.717-7.383 41.258 1.727-3.8 3.19-7.46 4.636-11.071 2.757-6.89 5.362-13.4 9.522-20.451 6.142-10.404 17.001-21.762 23.837-21.969a4.88 4.88 0 0 1 4.453 2.163c4.248 6.291-3.692 26.576-10.38 33.906-8.897 9.754-17.622 14.405-26.516 18.659a120.738 120.738 0 0 1-11.828 20.97 2.773 2.773 0 0 1-.209.265 124.051 124.051 0 0 1-5.554 12.627c3.233-2.532 6.567-4.924 9.816-7.43 6.73-5.184 23.15-16.842 30.277-13.104a4.716 4.716 0 0 1 2.47 3.75c.551 4.54-3.966 11.544-8.654 15.694a29.758 29.758 0 0 1-15.111 7.105 53.74 53.74 0 0 1-6.196.443c-2.228.086-11.08.95-13.403 1.4a75.589 75.589 0 0 0-12.39 13.628q-3.951 5.485-8.518 10.999A253.812 253.812 0 0 1 1171.198 475a2.77 2.77 0 0 1-1.905.754Zm81.878-72.025c-3.722 0-13.916 5.505-23.345 12.768-1.816 1.4-3.664 2.762-5.5 4.137 1.613-.104 3.204-.166 4.672-.223a52.85 52.85 0 0 0 5.462-.366 24.04 24.04 0 0 0 12.372-5.788c4.417-3.91 6.698-8.761 6.828-10.49a2.947 2.947 0 0 0-.49-.038Zm13.459-67.242c-2.61.21-11.952 7.256-19.026 19.239-3.945 6.685-6.47 13.002-9.147 19.689l-.95 2.37a67.053 67.053 0 0 0 19.102-14.541c6.233-6.834 11.382-23.306 10.02-26.757Zm-61.86 20.306c-1.374 6.583 4.144 13.767 13.712 17.938-.045-.09-.088-.18-.134-.27-.276-.557-.55-1.107-.812-1.655-4.824-10.096-9.761-15.35-12.307-15.96a1.575 1.575 0 0 0-.46-.053Zm-11.927-46.727c3.591 4.054 9.459 4.288 16.234 4.556a82.933 82.933 0 0 1 9.248.722 47.503 47.503 0 0 0-15.358-9.057c-5.092-1.868-10.406-2.348-11.585-1.516-.923.654.675 3.806 1.461 5.295Zm76.328-36.466c-4.794 2.794-10.78 10.925-14.206 15.578-4.032 5.476-8.177 13.634-11.546 22.156 1.763-1.055 3.675-2.067 5.668-3.125a91.784 91.784 0 0 0 15.102-9.413 23.39 23.39 0 0 0 6.083-6.644c1.387-2.365 3.088-8.056 3.057-13.274-.008-1.546-.174-4.224-.827-5.406-.516-.935-1.38-1.01-3.33.128Zm-85.792 1.272a20.368 20.368 0 0 0 9.372 2.892 13.704 13.704 0 0 0 8.321-1.844 31.945 31.945 0 0 0-9.174-2.732c-3.745-.507-7.24.368-8.337 1.465a1.22 1.22 0 0 0-.182.219Zm53.75-33.1a17.415 17.415 0 0 0-10.044 5.664c-2.466 2.725-6.97 9.705-6.45 23.939a40.71 40.71 0 0 1 8.746-10.966c3.433-2.85 13.318-15.62 12.072-18.244a9.764 9.764 0 0 0-4.323-.392Zm-54.198-32.059a.871.871 0 0 0-.339.06c-1.836.784-3.778 7.376-2.643 15.92 1.591 12.012 8.143 19.84 15.67 26.174 2.68-9.148 2.22-26.061-7.152-37.754-2.792-3.485-4.653-4.4-5.536-4.4ZM544.341 399.14a79.403 79.403 0 0 1-19.877-2.306 3.05 3.05 0 0 1-1.767.266c-15.033 3.525-34.211-.136-53.01-10.186-23.18-12.392-44.415-44.97-41.312-63.379.278-1.654 1.506-3.983 5.78-5.68 6.134-2.44 17.622-3.134 26.366.731q-.259-1.862-.454-3.719c-1.42-13.538 1.173-28.009 6.031-33.66a3.031 3.031 0 0 1 1.274-.876c9.59-3.457 23.554 3.609 30.41 9.818 8.944-21.352 23.785-32.875 33.038-34.445a2.99 2.99 0 0 1 .734-.033c5.718.429 11.713 4.176 16.446 10.279 3.613 4.659 8.332 13.022 10.316 26.419 12.271-14.692 23.879-17.049 27.42-17.421a3.1 3.1 0 0 1 1.373.173c9.65 3.585 13.866 18.163 11.284 38.998a101.506 101.506 0 0 1-1.804 10.227c9.538-4.732 22.012-5.958 31.188-4.847 4.484.542 10.318 1.885 12.647 5.207a3.032 3.032 0 0 1 .54 1.984c-1.652 20.633-23.624 49.164-47.02 61.057-14.447 7.343-32.99 11.394-49.602 11.394Zm-5.288-6.241c16.85.953 37.152-2.944 52.141-10.564 21.234-10.794 41.183-35.99 43.57-54.695-1.071-.65-3.422-1.596-7.715-2.115-10.442-1.259-24.992.93-32.872 7.537-9.097 27.97-29.806 50.527-55.124 59.837Zm-104.717-68.207c-2.322 14.718 15.706 44.836 38.213 56.87 12.13 6.485 24.661 10.16 35.709 10.679-24.308-10.877-40.558-38.137-46.38-65.88a3.069 3.069 0 0 1-.51-.313c-5.474-4.138-14.844-4.754-21.237-3.579-3.608.667-5.405 1.744-5.795 2.223Zm124.823-23.436A124.108 124.108 0 0 1 557.1 328.6c-4.104 23.006-13.056 44.414-24.991 60.166 30.654-8.988 55.856-39.869 60.26-75.393 2.078-16.762-.565-29.273-6.745-32.292-6.806 1.037-17.097 6.814-26.465 20.175Zm-37.97 29.72a3.035 3.035 0 0 1 2.926 3.852c-2.299 8.226-.584 38.399 1.142 52.824 12.228-15.069 21.762-37.104 25.866-60.118 6.238-34.968-3.46-52.115-7.919-57.864-3.571-4.604-7.826-7.467-11.736-7.911-11.066 2.286-36.147 25.39-35.149 71.134.449 20.576 11.098 41.252 22.594 52.64-1.673-15.562-3.213-43.144-.644-52.34a3.037 3.037 0 0 1 2.92-2.218Zm-50.98-45.171c-3.046 4.405-5.405 16.028-4.104 28.429 3.158 30.102 19.704 62.34 46.146 73.126-11.617-12.762-21.544-33.356-22-54.335a107.834 107.834 0 0 1 5.18-36.61c-4.561-5.545-17.84-12.455-25.222-10.61Zm83.902 42.262ZM1086.813 295.472a9.037 9.037 0 0 1-1.596-.14l-51.118-9.013a2.784 2.784 0 1 1 .966-5.483l51.118 9.014c2.884.515 5.901-2.49 6.616-6.538l18.39-104.297a9.166 9.166 0 0 0-.804-5.825 4.641 4.641 0 0 0-3.177-2.577l-4.235-.748a2.764 2.764 0 0 1-1.608-.905l-16.897 95.815c-1.242 7.032-7.022 11.915-12.873 10.88l-49.723-8.767a2.633 2.633 0 0 1-.035.286c-1.603 9.08-9.656 15.281-17.945 13.82-8.296-1.464-13.741-10.045-12.14-19.127a2.387 2.387 0 0 1 .065-.279l-47.292-8.338a14.756 14.756 0 0 1-8.2-5.123c-2.641-3.12-3.77-6.683-3.18-10.033l16.894-95.818a2.726 2.726 0 0 1-1.823.302l-4.237-.748a4.63 4.63 0 0 0-3.867 1.337 9.16 9.16 0 0 0-2.748 5.197l-18.39 104.297c-.713 4.05 1.109 7.9 3.98 8.406l54.053 9.532a2.784 2.784 0 0 1-.966 5.483l-54.053-9.531c-5.944-1.048-9.756-7.713-8.497-14.857L931.88 147.4a14.624 14.624 0 0 1 4.52-8.385 10.214 10.214 0 0 1 8.544-2.667l4.237.748a2.767 2.767 0 0 1 1.61.907l.343-1.94c.59-3.35 2.87-6.313 6.42-8.343a14.76 14.76 0 0 1 9.458-2.011l54.152 9.55a10.062 10.062 0 0 1 7.127 5.583c.069-.063.138-.127.207-.188a10.1 10.1 0 0 1 8.428-2.617l57.154 10.08c5.857 1.031 9.618 7.593 8.38 14.626l-.341 1.94a2.77 2.77 0 0 1 1.82-.3l4.234.747a10.207 10.207 0 0 1 7.116 5.428 14.619 14.619 0 0 1 1.382 9.424l-18.39 104.298c-1.148 6.502-6.108 11.193-11.47 11.193ZM997.27 262.55a2.7 2.7 0 0 1-.036.285c-1.068 6.06 2.35 11.745 7.623 12.676 5.278.923 10.427-3.245 11.495-9.305a2.518 2.518 0 0 1 .065-.28l-19.147-3.376Zm12.984-3.363 62.306 10.986c2.823.504 5.727-2.427 6.423-6.365l17.994-102.031c.691-3.942-1.076-7.687-3.863-8.178l-57.155-10.08a4.486 4.486 0 0 0-3.751 1.286 8.95 8.95 0 0 0-2.673 5.08l-.002.012-19.279 109.29Zm-45.05-128.064a10.503 10.503 0 0 0-4.888 1.43 6.98 6.98 0 0 0-3.699 4.475l-17.99 102.031a6.974 6.974 0 0 0 1.946 5.47 9.527 9.527 0 0 0 4.916 3.237l59.282 10.453 19.248-109.109.006.002c.006-.064.017-.129.027-.193.695-3.943-1.07-7.688-3.854-8.179l-54.152-9.549a4.86 4.86 0 0 0-.842-.068Zm103.985 118.756a2.784 2.784 0 0 0 .479-5.526l-42.879-7.559a2.784 2.784 0 1 0-.966 5.483l42.878 7.56a2.765 2.765 0 0 0 .488.042Zm-72.92-12.856a2.784 2.784 0 0 0 .478-5.526l-5.1-.9a2.784 2.784 0 1 0-.966 5.484l5.1.899a2.787 2.787 0 0 0 .487.043Zm-18.025-3.179a2.784 2.784 0 0 0 .48-5.526l-24.85-4.382a2.784 2.784 0 0 0-.967 5.483l24.85 4.382a2.77 2.77 0 0 0 .487.043Zm72.491-12.776a2.784 2.784 0 0 0 .48-5.526l-19.526-3.443a2.784 2.784 0 0 0-.966 5.483l19.526 3.443a2.756 2.756 0 0 0 .486.043Zm-55.573-9.8a2.784 2.784 0 0 0 .48-5.526l-36.869-6.5a2.784 2.784 0 0 0-.966 5.483l36.868 6.5a2.789 2.789 0 0 0 .487.044Zm75.869-11.79a2.784 2.784 0 0 0 .48-5.525l-35.966-6.342a2.784 2.784 0 0 0-.966 5.483l35.964 6.342a2.767 2.767 0 0 0 .488.042Zm-84.03-14.817a2.784 2.784 0 0 0 .478-5.526l-24.85-4.382a2.784 2.784 0 0 0-.966 5.483l24.85 4.382a2.715 2.715 0 0 0 .487.043Zm95.429-9.39a2.784 2.784 0 0 0 .479-5.527l-42.88-7.56a2.784 2.784 0 0 0-.966 5.482l42.88 7.561a2.77 2.77 0 0 0 .487.044Zm-72.92-12.86a2.784 2.784 0 0 0 .479-5.525l-4.933-.87a2.784 2.784 0 1 0-.967 5.483l4.934.87a2.71 2.71 0 0 0 .487.043Zm-16.226-2.861a2.784 2.784 0 0 0 .48-5.526l-26.65-4.698a2.784 2.784 0 1 0-.965 5.483l26.647 4.698a2.798 2.798 0 0 0 .488.043ZM458.432 429.482h-43.045a2.783 2.783 0 1 1 0-5.566h43.045a2.783 2.783 0 1 1 0 5.566Zm-19.577-10.831h-5.278a2.784 2.784 0 0 1 0-5.567h5.278a2.784 2.784 0 1 1 0 5.567Zm-15.724 0h-31.514a2.784 2.784 0 1 1 0-5.567h31.514a2.784 2.784 0 1 1 0 5.567Z" class="colore9eae9 svgShape"/><path fill="#e9eae9" fill-rule="evenodd" d="M497.937 294.303a2.773 2.773 0 0 1-1.938-.785c-4.718-4.573-9.12-12.785-12.327-21.114-.866-2.247-1.766-4.353-2.62-6.63a204.406 204.406 0 0 0-4.088-10.019 17.371 17.371 0 0 0-4.277-5.061c-2.662-2.228-5.93-3.828-9.994-5.819-3.155-1.545-6.73-3.296-10.76-5.71-6.054-3.627-9.553-11.072-10.71-16.347-.986-4.49-.587-8.34 1.12-10.841a2.847 2.847 0 0 1 .45-.51 7.09 7.09 0 0 1 5.494-1.658c4.62.423 10.458 4.498 15.24 10.636 4.465 5.732 9.13 13.68 13.316 21.994a151.507 151.507 0 0 1-.523-29.628 123.714 123.714 0 0 0-.173-15.048 3.063 3.063 0 0 1-.324-.154c-4.743-2.643-11.797-9.28-14.244-13.4-4.091-6.89-2.142-15.786 2.168-19.46a2.782 2.782 0 0 1 1.122-.58 7.383 7.383 0 0 1 5.837.96c5.68 3.534 8.392 14.45 9.089 17.71.424 1.994.826 4.394 1.168 7.073a166.248 166.248 0 0 1 8.066-20.723 2.766 2.766 0 0 1 .127-1.204 36.358 36.358 0 0 0 1.667-10.67 2.78 2.78 0 0 1-.187-.57c-.963-4.5-3.296-6.16-6.524-8.461a42.31 42.31 0 0 1-4.37-3.432c-1.333-1.236-5.727-5.769-6.375-12.246-.517-5.146 3.934-11.895 7.76-13.373.989-.386 2.986-.708 5.215 1.423 4.55 4.347 9.92 20.05 10.067 34.737q3.51-5.808 7.5-11.176a76.07 76.07 0 0 0 4.234-6.26 90.775 90.775 0 0 0 4.64-8.743c1.27-5.321.576-13.606-2.018-23.703l-.367-1.425c-2.248-8.701-3.178-12.303.987-19.36 1.514-2.566 5.314-5.866 8.56-6.69a5.367 5.367 0 0 1 4.2.467c11.183 6.717 1.517 33.507 1.419 33.778l-.448 1.22c-1.224 3.353-2.804 7.677-4.724 12.27a140.428 140.428 0 0 1 18.806-14.75 32.36 32.36 0 0 0 6.081-4.886 73.42 73.42 0 0 0 6.887-8.089c4.509-8.944 4.506-21.052 4.506-30.071 0-2.798-.001-5.215.123-7.292a2.785 2.785 0 0 1 2.553-2.609 10.5 10.5 0 0 1 7.959 2.824 11.952 11.952 0 0 1 3.67 9.04c-.094 8.007-6.472 20.674-13.973 30.88q-.29.56-.6 1.108c11.914-4.916 25.12-7.772 40.001-8.637a21.791 21.791 0 0 0 7.806-2.457 11.843 11.843 0 0 0 6.164-6.005c2.916-5.694 1.875-12.297.862-18.723-.86-5.458-1.672-10.614-.008-15.01a2.778 2.778 0 0 1 1.172-1.4c3.9-2.343 8.302-1.63 12.07 1.96 3.781 3.598 5.563 8.504 5.292 14.58-.196 4.316-2.212 17.293-18.555 26.835q9.473.238 19.815 1.391a2.77 2.77 0 0 1 .91-1.228c12.677-9.74 26.818-11.585 32.155-9.168a4.153 4.153 0 0 1 2.752 3.529c.27 4.05-.817 7.272-3.229 9.576-5.685 5.432-17.753 4.559-32.938 2.855q-9.177-1.03-17.617-1.33a26.28 26.28 0 0 1 9.505 10.03 15.311 15.311 0 0 1 1.228 11.724 9.33 9.33 0 0 1-4.777 5.534 3.96 3.96 0 0 1-4.248-.671c-3.879-2.922-8.303-13.095-6.695-23.028-2.743-2.23-7.828-3.494-9.291-3.537a125.481 125.481 0 0 0-31.516 5.198 35.299 35.299 0 0 1 22.756 12.628c3.779 4.765 5.208 9.785 4.248 14.92-.953 5.112-4.1 8.267-8.637 8.655a2.823 2.823 0 0 1-1.77-.45c-3.993-2.636-6.366-7.708-8.878-13.078-3.632-7.764-7.39-15.793-16.054-17.369-.05-.008-.097-.019-.145-.03a46.725 46.725 0 0 0-7.587 1.244 96.612 96.612 0 0 0-8.941 5.211 134.214 134.214 0 0 0-20.635 16.641c1.486-.338 2.917-.556 4.29-.734a21.026 21.026 0 0 1 17.337 5.274c3.357 3.202 5.18 7.349 4.878 11.093-.068.852-.55 2.928-3.517 3.813-5.443 1.62-16.914-1.317-24.449-9.576a9.9 9.9 0 0 1-1.975-2.874 27.53 27.53 0 0 0-7.94 5.793c-11.346 14.557-19.863 31.743-25.453 51.423a90.464 90.464 0 0 0-2.903 16.43c-.098 1.901-.295 3.776-.377 5.678a156.082 156.082 0 0 0 2.598 34.824c.377 2.03.734 3.677 1.209 5.654a91.146 91.146 0 0 0 3.647 11.469c2.258-25.024 16.193-48.244 31.755-61.212 2.065-2.844 3.004-6.617 3.8-9.692a86.27 86.27 0 0 0 1.804-10.17c.642-4.738 1.248-9.213 3.122-13.08 1.713-3.534 5.833-9.667 10.412-10.23a4.994 4.994 0 0 1 4.585 1.826c3.364 4.024 3.186 14.016-.351 19.797a178.496 178.496 0 0 1-8.066 12.042 160.37 160.37 0 0 1 27.83-10.488c5.168-1.735 6.493-2.3 8.485-7.175a52.048 52.048 0 0 0 1.855-5.885c1.123-4.106 2.396-8.759 5.593-13.642 1.106-1.74 4.523-7.114 8.73-5.516 4.08 1.555 4.132 8.283 3.59 11.624-.705 4.356-5.043 11.15-11.495 16.898a168.972 168.972 0 0 1 21.741-2.179c5.593-.203 8.526-.184 12.76-5.408a54.783 54.783 0 0 0 5.259-8.648 73.925 73.925 0 0 1 4.206-7.272c2.69-3.901 5.563-6.037 8.538-6.347a6.048 6.048 0 0 1 4.765 1.463c1.871 1.776 5.527 6.818-.899 15.281-3.363 4.429-9.611 8.378-16.14 11.394a138.822 138.822 0 0 1 31.112 6.168l.885.284c18.95 6.09 27.412 10.874 28.292 15.997.214 1.241.157 3.64-2.62 5.756a2.772 2.772 0 0 1-1.303.543c-9.15 1.275-21.906-4.348-27.565-17.264a2.68 2.68 0 0 1-.092-.241 128.644 128.644 0 0 0-15.427-3.854c5.818 3.703 8.065 7.747 8.92 10.542a11.486 11.486 0 0 1-2.921 11.89 4.084 4.084 0 0 1-3.625 1.04c-3.674-.552-8.602-5.09-11.463-10.553a32.586 32.586 0 0 1-2.102-5.954 41.139 41.139 0 0 0-2.384-6.812A72.657 72.657 0 0 0 614.39 190a51.886 51.886 0 0 0-12.172-.938c-5.107.178-10.234.612-15.344 1.291 13.145 4.095 17.891 12.889 19.237 16.164 2.133 5.187 2.116 10.005-.05 14.322-2.176 4.338-5.831 6.352-10.003 5.525a2.786 2.786 0 0 1-1.577-.922c-2.82-3.301-3.718-7.997-4.669-12.968-1.36-7.125-2.769-14.493-9.933-18.042-1.304-.652-4.533-.764-7.105-.654a44.55 44.55 0 0 0-7.994 1.108 157.573 157.573 0 0 0-16.284 5.523 50.986 50.986 0 0 1 7.645.784c4.908.86 11.482 2.965 14.927 8.113a13.902 13.902 0 0 1 1.768 11.135c-1.059 4.78-3.913 5.932-5.52 6.194-4.138.665-8.71-3.01-11.103-6.992-4.172-6.949-10.791-10.58-21.437-11.743a36.701 36.701 0 0 0-6.776 2.896 67.793 67.793 0 0 0-9.047 7.869q-2.518 2.61-4.916 5.593a25.917 25.917 0 0 1 7.445-.8c7.683.185 14.787 3.204 18.1 7.69a11.214 11.214 0 0 1 1.755 10.031c-.203.761-1.017 2.659-3.97 2.987-5.561.612-16.449-4.578-21.6-14.437a2.968 2.968 0 0 1-.075-.154 19.328 19.328 0 0 0-8.867 5.076c-7.554 12.643-12.713 27.957-12.61 43.415a14.135 14.135 0 0 0 .467 4.505 33.827 33.827 0 0 0 5.193 6.95 2.783 2.783 0 0 1-1.937 4.782Zm-51.191-78.838c-.504 1.062-.75 3.13-.085 6.16 1.173 5.35 4.517 10.598 8.132 12.763 3.83 2.294 7.292 3.99 10.349 5.486 2.003.982 3.872 1.897 5.612 2.86a127.202 127.202 0 0 0-11.618-18.868c-4.308-5.53-8.907-8.289-11.357-8.513a2.089 2.089 0 0 0-1.033.112Zm75.07 13.575c4.44 6.71 11.71 9.512 14.37 9.627a5.524 5.524 0 0 0-1.083-4.21c-2.234-3.025-7.533-5.174-13.288-5.417Zm27.373-23.035a27.022 27.022 0 0 1 11.797 10.772c1.725 2.87 4.386 4.503 5.434 4.362.34-.055.743-.837.98-1.902a8.447 8.447 0 0 0-.96-6.834c-1.835-2.742-5.833-4.775-11.26-5.727a46.503 46.503 0 0 0-5.99-.671Zm42.18-7.685c2.211 4.211 3.115 8.938 3.912 13.109.712 3.728 1.39 7.273 2.818 9.552.836-.068 1.95-.576 2.984-2.638 1.432-2.852 1.391-6.029-.122-9.71a21.831 21.831 0 0 0-9.591-10.313Zm36.125-4.222c.288.921.546 1.823.794 2.688a29.182 29.182 0 0 0 1.681 4.903c2.273 4.341 5.423 6.82 6.85 7.466a6.028 6.028 0 0 0 .901-5.632c-.487-1.597-2.47-5.768-10.226-9.425Zm29.895 3.722c4.818 6.604 12.338 9.912 18.228 9.466a.393.393 0 0 0 .045-.071c-.084-.241-1.178-3.357-18.273-9.395Zm-117.082-26.038c-1.157.422-3.923 3.097-5.852 7.076-1.486 3.067-2.01 6.928-2.615 11.398-.324 2.383-.665 4.899-1.182 7.509a172.531 172.531 0 0 0 8.684-12.849c2.572-4.203 2.213-11.197.965-13.134Zm-73.464-2.27c-1.907 2.292-2.992 7.621-.477 11.856 1.483 2.496 5.534 6.548 9.083 9.286-.322-2.52-.7-4.777-1.1-6.651-1.19-5.582-3.759-12.389-6.583-14.146a2.145 2.145 0 0 0-.923-.344Zm119.66-6.503a16.144 16.144 0 0 0-2.037 2.684c-2.737 4.18-3.837 8.203-4.9 12.093-.156.565-.312 1.134-.473 1.703 4.318-4.374 7.09-8.955 7.52-11.598a12.965 12.965 0 0 0-.11-4.882Zm47.38-1.705c-.557 0-2.291.508-4.72 4.03a68.984 68.984 0 0 0-3.87 6.716c-.841 1.59-1.693 3.197-2.6 4.747 4.175-2.28 7.805-4.893 9.857-7.594 2.722-3.586 3.228-6.236 1.499-7.875a.42.42 0 0 0-.166-.024Zm-110.341-23.71q.359.435.738.852c6.323 6.95 15.418 8.597 18.279 8.108a9.786 9.786 0 0 0-3.155-5.669c-1.874-1.786-6.02-4.652-12.783-3.78a44.514 44.514 0 0 0-3.08.49Zm-40.935-12.859c-1.601 1.207-3.93 5.045-3.701 7.316a14.701 14.701 0 0 0 4.621 8.718 37.157 37.157 0 0 0 3.816 2.98c.869.62 1.745 1.244 2.595 1.928-1.635-10.09-5.13-18.967-7.331-20.942Zm89.293-14.118c3.63 4.035 6.018 9.142 8.124 13.643 1.947 4.161 3.797 8.116 6.094 10.163.947-.31 2.162-1.2 2.676-3.952.66-3.53-.368-6.944-3.139-10.44a28.782 28.782 0 0 0-13.755-9.414Zm41.407-4.804c-.239 6.65 2.542 12.55 4.22 14.502a4.425 4.425 0 0 0 .997-1.676 9.909 9.909 0 0 0-.929-7.398 18.576 18.576 0 0 0-4.288-5.428Zm-91.848-22.42c-1.18.128-4.23 2.385-5.278 4.161-2.993 5.071-2.544 6.806-.392 15.14l.37 1.433a99.107 99.107 0 0 1 2.283 11.389c.527-1.412 1.01-2.731 1.445-3.925l.449-1.227c3.352-9.143 5.626-23.85 1.123-26.97ZM638.72 95.257c9.697.866 17.893.898 21.043-2.113a5.39 5.39 0 0 0 1.548-4.204c-2.819-.85-12.304-.29-22.59 6.317Zm-76.467-31.154c-.015 1.188-.015 2.48-.015 3.87 0 4.22.002 9.074-.433 14.047 2.197-4.728 3.567-9.056 3.604-12.15a6.463 6.463 0 0 0-1.901-4.901 5.152 5.152 0 0 0-1.255-.866Zm53.884-10.053c-.697 2.958-.066 6.968.6 11.186.766 4.867 1.642 10.42.677 15.87 5.747-6.332 6.67-12.566 6.785-15.12.2-4.456-.969-7.826-3.569-10.3-2.034-1.937-3.545-1.943-4.493-1.636ZM1083.72 350.25h-43.048a2.783 2.783 0 1 1 0-5.565h43.047a2.783 2.783 0 1 1 0 5.566Zm-19.579-10.831h-5.278a2.783 2.783 0 0 1 0-5.567h5.278a2.783 2.783 0 1 1 0 5.567Zm-15.723 0h-31.515a2.783 2.783 0 0 1 0-5.567h31.515a2.783 2.783 0 0 1 0 5.567Z" class="colore9eae9 svgShape"/><path fill="#dcdcdc" fill-rule="evenodd" d="M1259.164 639.426h-93.428v-3.568c0-3.786 2.527-6.882 5.611-6.882h82.205c3.083 0 5.612 3.1 5.612 6.882Z" class="colordcdcdc svgShape"/><path fill="#dcdcdc" fill-rule="evenodd" d="m1201.961 634.944 71.913-251.71 4.454 1.268-71.913 251.71-4.454-1.268z" class="colordcdcdc svgShape"/><path fill="#dcdcdc" fill-rule="evenodd" d="m1215.849 634.048 69.12-242.017-174.148-102.991 4.752-8.042 172.152 101.81 4.966-16.665 8.955 2.668-5.617 18.856 16.571 9.497-4.643 8.114-14.65-8.396-68.466 239.725-8.992-2.559z" class="colordcdcdc svgShape"/><path fill="#b2b2d2" fill-rule="evenodd" d="m1129.221 347.37 33.59-63.106c17.93-33.686-33.93-62.878-61.07-34.606l-48.858 50.892Z" class="colorb2b9d2 svgShape"/><path fill="#b3b5b3" fill-rule="evenodd" d="M1289.782 397.19a7.553 7.553 0 1 1 8.298-6.73 7.565 7.565 0 0 1-8.298 6.73Z" class="colorb3b4b5 svgShape"/><path fill="#e6e7e6" fill-rule="evenodd" d="M1143.257 255.918c-15.152-11.252-30.147-.341-43.067 13.265-2.92 3.075-6.327 6.603-8.906 9.636 2.92.92 5.821 1.161 11.033-2.667 12.415-9.121 23.759-16.375 40.94-20.234Z" class="colore6e7e7 svgShape"/><path fill="#6c6c71" fill-rule="evenodd" d="M174.643 499.102h321.368v-5.287a10.376 10.376 0 0 0-10.685-10.194h-303.59c-3.897 0-7.093 4.592-7.093 10.194Z" class="color6c7071 svgShape"/><path fill="#6c6c71" fill-rule="evenodd" d="m149.001 346.648 193.28-35.752 4.196 2.254a15.36 15.36 0 0 1 7.569 11.049l26.928 171.362-197.988-.617-7.294-5.133Z" class="color6c7071 svgShape"/><path fill="#959595" fill-rule="evenodd" d="m150.98 341.433 191.334-30.515 27.17 178.613-193.981-.308-31.19-137.05c-1.231-5.41 1.21-9.776 6.668-10.74Z" class="color959595 svgShape"/><path fill="#a1a1a1" fill-rule="evenodd" d="m150.98 341.433 191.334-30.514 21.334 140.168c-82.737 3.11-163.05-19.29-213.032-71.217l-6.303-27.698c-1.231-5.41 1.21-9.775 6.668-10.739Z" class="colora1a1a1 svgShape"/><path fill="#babcba" fill-rule="evenodd" d="M384.265 493.601h13.731v-1.25c0-1.326-.77-2.411-1.71-2.411h-10.312c-.939 0-1.71 1.086-1.71 2.41v1.251Zm18.585 0h13.732v-1.25c0-1.326-.77-2.411-1.71-2.411H404.56c-.94 0-1.71 1.086-1.71 2.41Z" class="colorbabcbc svgShape"/><path fill="#6c6c71" fill-rule="evenodd" d="M242.854 403.868c6.747 0 12.25-4.177 12.25-9.297s-5.503-9.297-12.25-9.297c-6.746 0-12.249 4.176-12.249 9.297s5.503 9.297 12.25 9.297Z" class="color6c7071 svgShape"/><path fill="#babcba" fill-rule="evenodd" d="M240.499 402.233c6.357 0 11.542-3.935 11.542-8.76s-5.185-8.76-11.542-8.76c-6.358 0-11.543 3.935-11.543 8.76s5.185 8.76 11.543 8.76Z" class="colorbabcbc svgShape"/><path fill="#e4ebe5" fill-rule="evenodd" d="M1393.88 672.136h-37.915v9.041H38.017v-9.041H0v-10.171h79.347v-9.041h1236.116v9.041h78.417v10.171z" class="colore4e6eb svgShape"/><path fill="#e6e7e6" fill-rule="evenodd" d="M1186.937 629.09V483.525a22.3 22.3 0 0 1-25.059.006v145.802l2.285 2.485h19.855Z" class="colore6e7e7 svgShape"/><path fill="#708373" fill-rule="evenodd" d="M1189.114 646.719a5.878 5.878 0 0 1-1.702 4.174 5.206 5.206 0 0 1-3.67 1.551h-18.664a5.206 5.206 0 0 1-3.67-1.55 5.867 5.867 0 0 1-1.703-4.175c0-79.09-.038-89.743-.038-168.836h4.424v138.506a2.282 2.282 0 0 0 .678 1.62 2.34 2.34 0 0 0 1.656.675h15.973a2.351 2.351 0 0 0 1.653-.674 2.283 2.283 0 0 0 .678-1.621V477.883h4.421c0 79.093-.036 89.745-.036 168.836Z" class="color768370 svgShape"/><path fill="#e6e7e6" fill-rule="evenodd" d="M1157.177 625.656V501.864a24.641 24.641 0 0 1-27.697.01v124.05l2.525 2.748h21.946Z" class="colore6e7e7 svgShape"/><path fill="#aabcad" fill-rule="evenodd" d="M1159.586 646.114a6.487 6.487 0 0 1-1.887 4.615 5.74 5.74 0 0 1-4.056 1.715h-20.628a5.75 5.75 0 0 1-4.056-1.715 6.482 6.482 0 0 1-1.88-4.615c0-87.417-.042-63.063-.042-150.484h4.888v121.765a2.527 2.527 0 0 0 .751 1.791 2.584 2.584 0 0 0 1.827.746h17.656a2.587 2.587 0 0 0 1.827-.746 2.518 2.518 0 0 0 .75-1.79V495.63h4.888c0 87.42-.038 63.067-.038 150.484Z" class="colorbcb5aa svgShape"/><path fill="#53d86a" fill-rule="evenodd" d="M1223.809 645.737a6.883 6.883 0 0 1-1.999 4.89 6.096 6.096 0 0 1-4.296 1.818h-21.87a6.103 6.103 0 0 1-4.297-1.818 6.889 6.889 0 0 1-1.997-4.89V477.218a6.875 6.875 0 0 1 1.997-4.89 6.09 6.09 0 0 1 4.298-1.82h21.87a6.084 6.084 0 0 1 4.295 1.82 6.87 6.87 0 0 1 1.999 4.89Z" class="colora2c984 svgShape"/><path fill="#738b77" fill-rule="evenodd" d="M1275.964 646.495a6.112 6.112 0 0 0 1.768 4.335 5.402 5.402 0 0 0 3.815 1.614h11.03a5.408 5.408 0 0 0 3.815-1.614 6.113 6.113 0 0 0 1.768-4.335V519.613a6.11 6.11 0 0 0-1.768-4.334 5.407 5.407 0 0 0-3.815-1.614h-11.03a5.402 5.402 0 0 0-3.815 1.614 6.109 6.109 0 0 0-1.768 4.334Z" class="color7f8b73 svgShape"/><path fill="#b2b2d2" fill-rule="evenodd" d="M1256.093 646.496a6.107 6.107 0 0 0 1.771 4.337 5.411 5.411 0 0 0 3.812 1.61h8.457a5.413 5.413 0 0 0 3.815-1.61 6.117 6.117 0 0 0 1.768-4.337V500.194a6.106 6.106 0 0 0-1.768-4.334 5.403 5.403 0 0 0-3.815-1.614h-8.457a5.4 5.4 0 0 0-3.812 1.614 6.096 6.096 0 0 0-1.771 4.334Z" class="colorb2b9d2 svgShape"/><path fill="#676778" fill-rule="evenodd" d="M1127.241 646.72a5.876 5.876 0 0 1-1.705 4.174 5.207 5.207 0 0 1-3.668 1.55h-5.595a5.209 5.209 0 0 1-3.671-1.55 5.886 5.886 0 0 1-1.702-4.174V483.81a5.883 5.883 0 0 1 1.702-4.173 5.205 5.205 0 0 1 3.671-1.552h5.595a5.203 5.203 0 0 1 3.668 1.552 5.873 5.873 0 0 1 1.705 4.173Z" class="color677278 svgShape"/><path fill="#aabcad" fill-rule="evenodd" d="M1040.119 648.245a5.883 5.883 0 0 1-2.799 3.533 5.199 5.199 0 0 1-3.958.467l-10.194-2.96a5.204 5.204 0 0 1-3.092-2.515 5.882 5.882 0 0 1-.47-4.482L1055.67 518.1a5.88 5.88 0 0 1 2.797-3.53 5.205 5.205 0 0 1 3.959-.468l10.194 2.96a5.2 5.2 0 0 1 3.092 2.515 5.88 5.88 0 0 1 .471 4.48l-36.065 124.188Z" class="colorbcb5aa svgShape"/><path fill="#676778" d="M1229.985 607.796h20.098a3.44 3.44 0 0 1 3.44 3.44v34.827a3.437 3.437 0 0 1-3.437 3.437h-20.099a3.44 3.44 0 0 1-3.44-3.44v-34.827a3.437 3.437 0 0 1 3.438-3.437Z" class="color677278 svgShape"/><path fill="#676778" d="M1250.085 652.225h-20.1a6.17 6.17 0 0 1-6.161-6.165v-34.825a6.17 6.17 0 0 1 6.16-6.164h20.101a6.17 6.17 0 0 1 6.161 6.164v34.825a6.17 6.17 0 0 1-6.16 6.165Zm-20.1-41.705a.724.724 0 0 0-.714.715v34.825a.725.725 0 0 0 .714.716h20.1a.725.725 0 0 0 .714-.716v-34.825a.724.724 0 0 0-.714-.716Z" class="color677278 svgShape"/><path fill="#e6e7e6" fill-rule="evenodd" d="M1253.521 617.11V484.06a24.001 24.001 0 0 1-26.977.01V617.37l2.46 2.676h21.375Z" class="colore6e7e7 svgShape"/><path fill="#676778" fill-rule="evenodd" d="M1228.927 477.99v137.25a2.453 2.453 0 0 0 .73 1.743 2.52 2.52 0 0 0 1.78.728h17.197a2.52 2.52 0 0 0 1.78-.728 2.453 2.453 0 0 0 .73-1.744V477.99h4.76v137.25a7.186 7.186 0 0 1-2.143 5.109 7.272 7.272 0 0 1-5.127 2.123h-17.196a7.271 7.271 0 0 1-5.128-2.123 7.183 7.183 0 0 1-2.144-5.11V477.99ZM1214.313 500.293a7.734 7.734 0 1 1-7.733-7.734 7.733 7.733 0 0 1 7.733 7.734Z" class="color677278 svgShape"/><path fill="#d8e2da" d="M1198.887 560.563h15.384v59.124h-15.384z" class="colord8dbe2 svgShape"/><path fill="#676778" d="M1198.887 614.066h15.384v5.621h-15.384z" class="color677278 svgShape"/><path fill="#b2b2d2" fill-rule="evenodd" d="M1110.85 645.737a6.883 6.883 0 0 1-1.999 4.89 6.096 6.096 0 0 1-4.296 1.818h-21.87a6.103 6.103 0 0 1-4.297-1.818 6.888 6.888 0 0 1-1.997-4.89V491.94a6.875 6.875 0 0 1 1.997-4.89 6.09 6.09 0 0 1 4.298-1.821h21.87a6.084 6.084 0 0 1 4.295 1.82 6.87 6.87 0 0 1 1.999 4.89Z" class="colorb2b9d2 svgShape"/><path fill="#676778" fill-rule="evenodd" d="M1101.354 508.59a7.734 7.734 0 1 1-7.734-7.733 7.733 7.733 0 0 1 7.734 7.733Z" class="color677278 svgShape"/><path fill="#d8e2da" d="M1085.928 560.563h15.384v59.124h-15.384z" class="colord8dbe2 svgShape"/><path fill="#676778" d="M1085.928 614.066h15.384v5.621h-15.384z" class="color677278 svgShape"/><path fill="#bfcbc1" d="M118.408 483.641h14.152v125.065h-14.152z" class="colorcbc6bf svgShape" transform="rotate(-5.743 125.484 546.174)"/><path fill="#99a69b" d="M87.609 570.635h97.893v9.565H87.609z" class="colora6a199 svgShape" transform="rotate(-88.92 136.556 575.418)"/><path fill="#676778" d="M132.512 518.718h10.12v5.571h-10.12z" class="color677278 svgShape" transform="rotate(-88.921 137.572 521.503)"/><path fill="#53d86a" d="M95.093 571.151h97.893v9.565H95.093z" class="colora2c984 svgShape" transform="rotate(-81.408 144.04 575.933)"/><path fill="#676778" d="M147.035 519.828h10.12v5.571h-10.12z" class="color677278 svgShape" transform="rotate(-81.409 152.095 522.614)"/><path fill="#bfcbc1" d="M101.03 584.481h97.44v8.886h-97.44z" class="colorcbc6bf svgShape" transform="rotate(-76.577 149.75 588.924)"/><path fill="#f7b875" fill-rule="evenodd" d="m156.729 540.501 9.496-20.072-.832 22.14-8.664-2.068z" class="colorf7cf75 svgShape"/><path fill="#b2b2d2" fill-rule="evenodd" d="M114.497 583.773h49.146l5.195 69.039h-60.59l6.249-69.039z" class="colorb2b9d2 svgShape"/><path fill="#d6d6ec" fill-rule="evenodd" d="M121.624 640.72h9.948l-2.349-37.245a12.259 12.259 0 0 0-5.217-9.674Z" class="colord6dcec svgShape"/><path fill="#b2b2d2" fill-rule="evenodd" d="M157.813 583.773h5.83l5.195 69.039h-9.443l-1.582-69.039z" class="colorb2b9d2 svgShape"/><path fill="#abdeb4" fill-rule="evenodd" d="M1161.378 475.937c4.428-27.342-4.534-45.904-10.701-65.99-2.736-8.906-5.837-23.942-.515-28.404 4.235-3.55 15.19 8.825 20.06 25.612 5.86 20.204 2.176 53.717-8.844 68.782Zm-.22-.331c.532-22.062-10.276-49.588-22.424-67.857-15.582-23.432-41.881-42.996-62.825-35.135-24.144 9.063 19.482 36.35 29.578 43.898 23.171 17.32 48.285 31.763 55.671 59.094Z" class="colorc1deab svgShape"/><path fill="#faba77" fill-rule="evenodd" d="M683.794 447.662c-3.844-3.938-12.964-8.017-15.64-8.01-7.857.011-14.662 1.778-22.573 2.632-37.072 4.004-56.938 8.04-92.89 8.6-1.804 11.65-5.421 21.055-4.03 26.35 18.131 3.445 37.2 5.88 55.351 8.477 26.271 3.76 52.87 6.393 72.068 4.28 13.514-1.486 23.896-25.76 7.714-42.33Z" class="colorfabb77 svgShape"/><path fill="#faba77" fill-rule="evenodd" d="M527.007 413.023c-.117 3.812 3.265 7.195 6.7 10.47.738 1.538 3.049 10.524 3.555 12.214-4.63 2.004-11.725 2.047-18.827.445-8.076-1.83-16.212-5.593-21.29-7.536-1.906 3.344-2.728 4.623-2.85 7.9a53.995 53.995 0 0 0 5.487 9.585 50.874 50.874 0 0 0 3.304 17.05c13.563 10.782 36.894 13.133 53.92 15.784 14.16-1.697 14.977-6.051 15.59-9.355l-4.708-14.134c-4.224-6.674-7.857-15.824-13.815-23.567-1.34-2.358-6.903-9.257-12.79-14.517-5.553-4.953-8.59-9.94-11.25-9.257-1.593.408-2.953 2.49-3.026 4.918Z" class="colorfabb77 svgShape"/><path fill="#faba77" fill-rule="evenodd" d="M497.569 441.047c-1.005-.187-7.45-9.761-7.634-10.343-2.094-6.579-2.33-15.445-2.331-20.48.877-1.676 2.598-2.563 4.074-1.902 1.284.576 2.432 1.777 3.472 3.954.876 1.836 2.029 9.651 2.907 11.49 2.476 3.023 4.956 6.094 7.432 9.116-3.225 2.52-3.932 5.756-7.92 8.165Z" class="colorfabb77 svgShape"/><path fill="#faba77" fill-rule="evenodd" d="M501.526 430.197c1.13-2.615 4.868-9.59 7.783-12.054 4.557-3.196 11.761-6.836 15.138-8.673 2.06.036 3.883 1.887 3.698 3.635-.617 5.868-8.812 10.285-11.038 12.316-1.644 3.68-3.182 6.786-4.251 9.736-2.725 1.553-12.57-2.093-11.33-4.96ZM499.947 454.68c-1.021.06-9.57-7.695-9.888-8.215-3.608-5.886-5.96-14.438-7.166-19.326.45-1.838 1.91-3.11 3.5-2.822 1.385.251 2.787 1.142 4.317 3.007 1.29 1.573 4.28 8.885 5.573 10.46 3.128 2.342 6.272 4.73 9.4 7.072-2.53 3.219-2.441 6.53-5.736 9.823Z" class="colorfabb77 svgShape"/><path fill="#faba77" fill-rule="evenodd" d="M517.632 470.546c-3.985-.696-15.909-5.022-16.42-5.35-5.806-3.731-11.643-10.411-14.856-14.288-.393-1.85.367-3.63 1.925-4.063 1.356-.376 3.006-.183 5.195.83 1.847.856 7.719 6.14 9.567 6.997 3.834.749 10.43 3.342 14.262 4.091.419 4.818 1.078 7.395.327 11.783Z" class="colorfabb77 svgShape"/><path fill="#b3b3c6" fill-rule="evenodd" d="m866.725 204.064-7.324-1.06.337 21.055 7.806-5.878-.819-14.117z" class="colorb3bfc6 svgShape"/><path fill="#bfd2c2" fill-rule="evenodd" d="M691.636 301.026c-7.591 26.305-12.689 62.827-20.646 98.593-1.5 6.742-5.39 16.18-6.604 19.832-3.476 7.867-5.795 10.683-8.916 15.996 2.492 5.344 38.133-2.399 28.314 47.07 18.226-4.333 25.374-18.48 33.385-33.67 15.102-28.638 35.643-80.768 40.794-116.076-.237-45.438-6.828-75.578-12.347-98.502-12.775 5.536-24.9 12.776-34.089 22.827-11.819 12.93-15.255 27.87-19.89 43.93Z" class="colorbfcbd2 svgShape"/><path fill="#35353f" fill-rule="evenodd" d="m737.894 548.812 12.48-49.656c20.523 6.412 85.404 11.1 142.782 3.334l9.072 33.717c-77.69 31.376-123.867 35.912-164.334 12.605Z" class="color3f353d svgShape"/><path fill="#bfd2c2" fill-rule="evenodd" d="M884.402 521.487c-24.42 4.392-47.788 7.08-73.55 6.763-9.031-.11-37.169-2.305-55.986-7.973-10.03-3.021-17.638-7.36-18.76-13.575-.715-4.935 4.137-7.559 4.46-13.822.396-82.31-19.225-160.876-23.183-241.41 11.554-10.712 45.14-29.64 80.903-35.847 33.723-5.853 72.652-.207 107.564 13.858 21.672 8.731 27.281 12.194 40.29 23.36-3.238 26.293-7.169 47.542-11.007 71.796-8.29 52.38-17.125 102.618-22.78 161.948-.744 7.819.002 15.867-2.715 21.949-3.07 6.87-18.545 11.75-25.236 12.953Z" class="colorbfcbd2 svgShape"/><path fill="#35353f" fill-rule="evenodd" d="M889.506 624.57c-28.136 6.232-42.053 1.296-64.999.194l-4.799-29.536c29.77-27.627 71.377-35.966 126.667-72.341 18.52-12.183 45-29.276 53.88-30.821 11.405-1.984 28.549 16.304 27.934 32.01-1.065 27.22-96.138 86.682-138.683 100.493ZM570.963 548.13c34.75 26.84 84.987 48.165 133.453 71.57 28.818 0 58.267-.92 87.327-2.564l5.847-67.078-36.938-21.646c-19.85 9.573-30.263 11.75-67.932-3.56-23.166-9.414-45.118-20.264-67.63-28.837-20.718-7.89-44.1-15.768-53.106-15.356-11.563.528-31.72 8.777-36.585 23.725-7.163 22.013 21.108 32.58 35.564 43.745Z" class="color3f353d svgShape"/><path fill="#bfd2c2" fill-rule="evenodd" d="M969.354 284.585c6.837 18.099 12.632 47.826 19.372 80.544 5.858 28.433 11.493 65.537 16.225 93.024-17.094 15.884-46.824 19.285-52.57 17.66-4.31-5.182-10.532-9.718-15.336-24.988-9.506-30.214-18.26-65.01-23.09-93.807-1.216-45.437 4.496-103.102 9.88-119.087 19.323 8.85 37.226 24.706 45.519 46.654Z" class="colorbfcbd2 svgShape"/><path fill="#b3b3c6" fill-rule="evenodd" d="M971.606 291.066c5.89 18.289 11.131 44.995 17.12 74.064 4.866 23.62 9.58 53.227 13.748 78.33-16.704-9.904-28.774-8.498-37.89-4.878-13.918 5.525-20.443 18.776-22.04 24.95a59.705 59.705 0 0 1-5.499-12.707c-5.014-15.939-9.82-33.152-13.95-50.088-4.084 27.23-7.833 55.336-10.741 85.848-.745 7.818.002 15.866-2.716 21.949-3.07 6.871-18.545 11.75-25.236 12.953-24.419 4.392-47.788 7.08-73.55 6.763-9.031-.11-37.169-2.305-55.986-7.973-10.03-3.022-17.638-7.36-18.76-13.575-.715-4.935 4.137-7.559 4.46-13.822.136-28.341-2.103-56.238-5.256-83.925a437.58 437.58 0 0 1-18.141 39.892c-8.011 15.19-15.16 29.337-33.385 33.67 16.37-30.197-8.863-50.976-28.314-47.07 3.12-5.313 5.44-8.13 8.916-15.996.367-1.105 6.967-.979 9.02-1.007 11.647-.163 21.797.496 30.17 4.14 18.07 3.249 22.972-41.42 25.87-64.235.631-4.968 4.651-28.73 5.076-30.773 2.636-12.685 4.878-7.704 5.051 8.03.02 1.825-.588 21.546-.679 23.687.031 8.842.139 16.766.349 23.84 3.317 25.471 5.313 46.498 9.312 69.284 1.48 8.438 9.79 14.036 12.183 23.275-.256 6.81-12.655 22.725-10.406 24.668 2.175 1.878 8.302 1.106 10.997 1.155 9.654.175 18.824-.443 31.786.388 13.655.875 45.158 3.757 64.949 2.09 12.324-1.039 18.406-5.053 19.077-8.258 1.012-4.838-7.978-18.53-5.397-22.741 12.464-20.334 15.69-36.556 23.126-59.356 6.448-19.77 9.821-33.644 11.642-47.784.931-7.238 2.45-19.76 3.008-30.47.275-5.269.723-10.367 1.323-14.27.145-.948.482-3.855 1.547-5.345.636-.888 2.15-1.73 2.33-.09 5.804 53.235 14.72 84.441 32.28 106.9 5.277 1.08 11.902.32 18.95-.626 7.095-.954 16.81-3.26 16.988-5.337 2.234-25.91-5.804-89.739-11.332-125.55Z" class="colorb3bfc6 svgShape"/><path fill="#35353f" fill-rule="evenodd" d="M1004.32 548.13c-34.75 26.84-84.988 48.165-133.455 71.57-28.818 0-58.266-.92-87.326-2.564l-.903-61.744c15.66.125 50.165-1.298 65.287-5.366 27.911-9.613 122.811-56.76 140.343-57.226 17.6-.467 44.874 33.069 16.053 55.33Z" class="color3f353d svgShape"/><path fill="#636366" fill-rule="evenodd" d="M823.482 604.842c6.02 7.65 8.04 15.814 9.762 24.853-21.09 6.387-41.067 12.12-61.864 16.603a258.185 258.185 0 0 1-34.635 4.734c-19.23 1.546-49.77 4.456-66.25-6.927-5.433-3.75-9.744-8.932-13.893-15.832-5.192-8.642-7.32-17.454-2.7-19.365 5.489-2.269 39.342 3.905 42.765 4.215 19.974 1.81 51.324 3.915 70.337 1.845 12.475-1.36 46.184-5.168 56.478-10.126Z" class="color666365 svgShape"/><path fill="#40404d" fill-rule="evenodd" d="M851.386 556.685c-30.497 18.223-55.526 29.77-78.602 39.715 2.116 27.23 9.683 45.172 13.573 49.703 45.159-6.468 87.614-20.42 132.716-44.433 35.485-18.893 77.486-44.407 106.15-68.08 5.545-7.265 6.949-26.315-2.029-38.866-21.892-30.606-44.457-20.218-61.907-9.647-32.99 19.986-84.11 56.197-109.901 71.608Z" class="color4d404a svgShape"/><path fill="#636366" fill-rule="evenodd" d="M748.749 594.956a153.775 153.775 0 0 0-11.629 32.44c12.561 3.896 25.596 7.868 53.77 15.022 13.13 3.334 27.81 7.386 42.26 9.55a297.493 297.493 0 0 0 47.721 3.14c15.216-.217 33.49-3.73 44.187-10.725 6.398-4.181 13.58-17.072 15.924-24.671 1.18-3.825.654-6.242-1.223-8.312-3.889-4.287-11.057-3.374-19.219-2.587-28.4 2.736-56.933 9.643-85.92 7.978-20.994-1.206-65.632-13.952-85.871-21.835Z" class="color666365 svgShape"/><path fill="#40404d" fill-rule="evenodd" d="M825.916 610.886c-9.21 19.639-23.487 39.386-30.91 43.826-23.784-1.155-84.615-19.222-132.285-39.01-43.148-17.91-82.898-38.346-100.33-50.033-9.692-6.498-28.925-21.9-31.525-30.935-2.216-7.704-2.25-24.156 4.384-34.499 7.146-11.142 21.417-19.261 35.455-20.878 19.876 1.914 51.605 16.356 68.065 25.227 26.244 14.144 54.343 33.76 84.268 51.78 35.641 21.466 71.688 42.315 102.878 54.522Z" class="color4d404a svgShape"/><path fill="#e5f6e8" fill-rule="evenodd" d="M1005.943 451.405a319.07 319.07 0 0 1-36.762 27.135c-2.071.318-11.116 3.5-14.277 2.236-8.223-3.286-16.453-10.986-19.411-15.437-2.982-32.176 24.902-42.151 50.407-37.308 9.861 1.873 16.15 7.762 17.87 10.344a53.96 53.96 0 0 1 2.173 13.03Z" class="colore5f2f6 svgShape"/><path fill="#f2b06a" fill-rule="evenodd" d="M978.076 439.737c-18.323 3.062-24.553 17.568-22.51 29.315.928 5.343 7.17 9.816 15.541 12.76 8.094 2.845 55.798 17.46 57.786 12.372 3.051-7.806 3.25-25.124.348-28.003-1.385-1.377-21.623-14.834-25.228-17.482-9.238-6.778-18.17-10.259-25.937-8.962ZM1036.664 439.211c2.885-1.213 6.51 2.116 9.426 4.407 2.141 1.681 8.108 8.626 9.365 10.529l6.55 15.49-8.477 6.095-4.914-6.65c-1.891-2.918-5.338-8.301-8.252-13.405-4.017-7.032-8.881-14.177-3.698-16.466Z" class="colorf2b06a svgShape"/><path fill="#faba77" fill-rule="evenodd" d="m1009.234 471.155 1.363 18.135 4.532 8.35c3.186 2.087 8.413 2.302 11.65-.757 6.415.686 11.139.58 18.628-3.348 2.42-1.783 3.937-4.032 5.455-9.2a12.504 12.504 0 0 0 8.188-1.001c4.279-2.832 7.448-7.407 7.932-16.188-.219-7.886-3.898-16.581-7.224-21.996-1.869-3.382-4.307-3.334-5.724-2.855-1.363.463-3.225 3-2.374 6.086 1.107 5.734 2.532 8.482 2.474 14.975-.459 2.392-.557 4.539-1.14 5.53-.76-3.056-2.531-4.796-4.112-9.178a114.423 114.423 0 0 0-12.725-22.504c-2.282-2.623-5.562-2.888-7.437-.08-1.874 2.807-1.184 5.612-.258 8.906-4.324-1.868-8.743-.622-8.52 5.14 2.454 8.868 3.883 14.258 6.338 23.126a41.147 41.147 0 0 1-4.037 5.7c-2.463-5.761-3.226-8.035-6.166-14.186-4.013-3.598-5.82-.346-6.843 5.345Z" class="colorfabb77 svgShape"/><path fill="#e5f6e8" fill-rule="evenodd" d="M649.265 441.78c2.366-.23 4.683-.688 7.509-1.076 2.9.184 8.1 1.017 11.523 3.308 5.22 3.494 9.398 9.643 11.449 16.405 1.418 4.677 2.015 11.485 1.042 16.08-1.277 6.025-7.03 13.233-13.785 14.25 5.673 3.628 10.22 3.271 16.85 1.9a33.182 33.182 0 0 0 14.164-7.224c9.777-20.616 1.413-40.467-14.398-50.89a43.085 43.085 0 0 0-15.49-6.435 32.387 32.387 0 0 0-11.464-.193c-4.88 2.284-7.77 9.06-7.4 13.875Z" class="colore5f2f6 svgShape"/><path fill="#b3b3c6" fill-rule="evenodd" d="M966.228 277.536a89.998 89.998 0 0 0-16.074-21.75 92.412 92.412 0 0 0-15.146-11.826c-7.21-5.087-14.52-8.582-29.158-14.479-34.913-14.065-73.841-19.71-107.564-13.858-25.456 4.418-49.805 15.28-65.894 25.037 50.164-15.66 104.586-20.066 155.626-6.693 22.118 5.795 57.654 18.079 78.21 43.569Z" class="colorb3bfc6 svgShape"/><path fill="#316c3b" fill-rule="evenodd" d="m750.739 53.608-.387 31.591 8.095 24.877 7.902 16.189 2.313-65.91-17.923-6.747z" class="color6c3e31 svgShape"/><path fill="url(#b)" fill-rule="evenodd" d="m858.851 129.994-64.459 28.182-4.95 64.953c.113 2.788-.428 14.96 1.412 18.693 5.952 12.076 20.23 19.305 25.206 20.358 17.948.442 43.284-22.13 47.11-44.183Z"/><path fill="#636366" fill-rule="evenodd" d="m831.217 276.76-15.1-14.508-15.86 13.323c1.962 4.342 3.636 7.528 5.596 11.87 4.118 2.104 12.041 2.238 18.346.6l7.018-11.284Zm-9.46 14.54a27.873 27.873 0 0 1-13.869-.25l-11.01 167.098 12.815 20.832 15.074-22.34c-1.004-55.242-2.006-110.098-3.01-165.34Z" class="color666365 svgShape"/><path fill="url(#a)" fill-rule="evenodd" d="M859.482 147.472c4.526-5.38 14.215-16.219 18.17-22.045 6.12-14.422 8.537-33.646 14.082-52.619-5.499-19.557-13.376-49.142-32.79-56.11-1.722-4.324-3.78-7.54-4.947-8.568-18.724-9.997-97.367-11.86-118.917.585 2.21 6.643 8.087 16.081 10.904 20.134-2.586 2.05-5.219 3.846-7.285 6.246 2.775 8.716 10.752 23.453 17.413 33.655 24.552 4.965 66.771 11.894 102.638 33.694 3.79 17.106-4.618 32.029-2.325 39.282Z"/><path fill="url(#c)" fill-rule="evenodd" d="M855.658 162.987c-10.444 13.543-33.431 29.298-49.25 33.93-14.378 2.964-26.1.95-33.228-.014-8.036-19.249-20.885-47.342-26.003-67.42 1.432-8.795 5.18-19.1 7.715-28.615-.611-9.584-1.288-13.993-1.59-23.538 1.933-8.482 5.443-30.79 7.865-39.244 19.584-2.525 53.357-.476 70.71 7.546 5.542 13.917 6.296 16.938 9.909 27.884 3.67 4.332 19.441 25.039 22.114 30.771.307 18.234-3.171 46.582-8.242 58.7Z"/><path fill="#ffc07d" fill-rule="evenodd" d="M854.356 102.792c-1.827 6.14-1.721 15.023 3.677 16.777 5.401 1.762 12.516-4.613 14.343-10.753 1.827-6.137.876-13.04-4.523-14.801-5.402-1.76-11.67 2.636-13.497 8.777Z" class="colorffca7d svgShape"/><path fill="url(#d)" fill-rule="evenodd" d="m825.94 71.739.97 6.518c-4.387.295-23.186.977-27.913 1.56-2.455-3.703-1.479-11.14-.352-12.614Z"/><path fill="url(#e)" fill-rule="evenodd" d="m755.625 75.37-.045 5.788s12.642-.345 18.983-.396c.62-2.07.82-8.885-1.824-12.171Z"/><path fill="#454546" fill-rule="evenodd" d="M756.368 102.067a7.168 7.168 0 0 0 3.604 5.753c6.193 3.823 17.093-.683 19.39-7.354-6.967 3.679-14.97 5.904-22.994 1.6Zm73.61-4.087c-3.305 6.784-14.68 11.446-22.344 9.068-3.873-1.2-6.579-3.712-6.922-6.948 9.053 4.45 18.99 1.991 29.266-2.12Z" class="color454646 svgShape"/><path fill="#e1aa70" fill-rule="evenodd" d="M783.323 93.405c4.158 19.654-3.407 23.004-8.961 25.463-1.626.719-3.044 1.347-3.57 2.246a6.581 6.581 0 0 0-.464.955 5.17 5.17 0 0 0 .276 4.392 9.199 9.199 0 0 0 3.522 3.506 11.034 11.034 0 0 0 1.588.77A22.895 22.895 0 0 0 780.61 132a17.354 17.354 0 0 0 4.551.125l.356 2.809a20.08 20.08 0 0 1-5.307-.125 25.79 25.79 0 0 1-5.519-1.428 13.754 13.754 0 0 1-2-.97 12.043 12.043 0 0 1-4.597-4.64 7.91 7.91 0 0 1-.41-6.723 9.387 9.387 0 0 1 .664-1.366c.994-1.698 2.798-2.496 4.868-3.412 4.663-2.064 11.012-4.877 7.33-22.287ZM766.721 145.236a40.548 40.548 0 0 0 23.468 2.918c9.188-1.465 18.116-5.59 25.985-10.93l2.037 3.006c-8.274 5.614-17.7 9.958-27.452 11.513a44.112 44.112 0 0 1-25.533-3.19l1.495-3.317Zm12.375 11.742a34.572 34.572 0 0 0 10.66.42 29.93 29.93 0 0 0 9.674-2.726l1.58 3.271a33.562 33.562 0 0 1-10.856 3.068 38.242 38.242 0 0 1-11.797-.476Z" class="colore19770 svgShape"/><path fill="#e5f6e8" fill-rule="evenodd" d="m866.692 204.073 13.484 14.776c.922 33.138-24.431 59.405-39.484 66.254l-24.675-23.128c14.36-5.832 26.48-11.705 35.732-23.64a82.227 82.227 0 0 0 14.942-34.262Zm-74.824 79.329 24.154-21.44c-11.237-4.566-21.644-14.684-25.646-22.585-1.169-9.086-.506-18.173-.037-28.416-2.57 2.056-7.213 5.725-7.796 6.838-5.28 19.653-6.987 44.722 9.325 65.603Z" class="colore5f2f6 svgShape"/><path fill="#e6e7e6" fill-rule="evenodd" d="M243.188 538.348H439.78a21.406 21.406 0 0 0-.009 24.061H242.955l-2.387-2.194v-19.064Z" class="colore6e7e7 svgShape"/><path fill="#708373" fill-rule="evenodd" d="M217.367 536.257a5.637 5.637 0 0 0-4.008 1.635 4.995 4.995 0 0 0-1.49 3.524v17.921a4.996 4.996 0 0 0 1.49 3.524 5.639 5.639 0 0 0 4.008 1.635q113.913 0 227.828.035v-4.247H291.843a2.187 2.187 0 0 1-1.556-.651 2.249 2.249 0 0 1-.649-1.588v-15.338a2.252 2.252 0 0 1 .649-1.587 2.183 2.183 0 0 1 1.556-.653h153.352v-4.245q-113.916 0-227.828.035Z" class="color768370 svgShape"/><path fill="#e6e7e6" fill-rule="evenodd" d="M245.464 619.99h217.293c-5.327 8.19-5.433 21.742-.01 30.076h-217.54l-2.638-2.426V623.09Z" class="colore6e7e7 svgShape"/><path fill="#676778" fill-rule="evenodd" d="M194.174 617.678a6.225 6.225 0 0 0-4.43 1.81 5.512 5.512 0 0 0-1.648 3.894v23.288a5.513 5.513 0 0 0 1.648 3.893 6.223 6.223 0 0 0 4.43 1.808c83.937 0 190.627.038 274.568.038v-4.693H318.498a2.42 2.42 0 0 1-1.72-.72 2.48 2.48 0 0 1-.717-1.756v-20.432a2.478 2.478 0 0 1 .717-1.752 2.411 2.411 0 0 1 1.72-.723h150.244v-4.692c-83.94 0-190.632.037-274.568.037Z" class="color677278 svgShape"/><path fill="#b2b2d2" fill-rule="evenodd" d="M217.501 564.718a5.638 5.638 0 0 0-4.007 1.635 4.995 4.995 0 0 0-1.49 3.524v5.371a4.995 4.995 0 0 0 1.49 3.524 5.639 5.639 0 0 0 4.007 1.635h246.272a5.639 5.639 0 0 0 4.008-1.635 4.995 4.995 0 0 0 1.49-3.524v-5.371a4.995 4.995 0 0 0-1.49-3.524 5.638 5.638 0 0 0-4.008-1.635Z" class="colorb2b9d2 svgShape"/><path fill="#e6e7e6" fill-rule="evenodd" d="M233.018 582.851H450.31c-2.619 4.026-4.095 10.816-4.095 15.575 0 4.761 1.463 12.879 4.085 16.908h-217.54l-2.638-2.425v-26.96Z" class="colore6e7e7 svgShape"/><path fill="#99a69b" fill-rule="evenodd" d="M204.48 580.538a6.227 6.227 0 0 0-4.43 1.81 5.512 5.512 0 0 0-1.648 3.894v25.696a5.514 5.514 0 0 0 1.647 3.894 6.225 6.225 0 0 0 4.43 1.808q125.907 0 251.817.038v-4.694H277.41a2.42 2.42 0 0 1-1.72-.72 2.484 2.484 0 0 1-.716-1.755v-22.842a2.479 2.479 0 0 1 .717-1.751 2.413 2.413 0 0 1 1.72-.723h178.885v-4.692q-125.911 0-251.816.037Z" class="colora6a199 svgShape"/><path fill="#6c6c71" fill-rule="evenodd" d="M249.18 606.823c2.582 0 4.687-3.474 4.687-7.734s-2.105-7.733-4.686-7.733-4.687 3.474-4.687 7.733 2.105 7.734 4.687 7.734Z" class="color6c7071 svgShape"/><path fill="#e6e7e6" d="M210.66 592.693h20.723v12.793H210.66z" class="colore6e7e7 svgShape"/><path fill="#6c6c71" d="M208.64 592.693h2.803v12.793h-2.803z" class="color6c7071 svgShape"/><path fill="#99a69b" fill-rule="evenodd" d="M456.296 617.67v-4.686H277.41a2.42 2.42 0 0 1-1.72-.72 2.482 2.482 0 0 1-.717-1.755v-22.841a2.478 2.478 0 0 1 .717-1.753 2.412 2.412 0 0 1 1.72-.722h178.885v-4.685l-180.615.03a6.224 6.224 0 0 0-4.43 1.81 5.51 5.51 0 0 0-1.648 3.894v25.696a5.514 5.514 0 0 0 1.648 3.894 6.224 6.224 0 0 0 4.43 1.808q90.306 0 180.615.03Z" class="colora6a199 svgShape"/><path fill="#e6e7e6" fill-rule="evenodd" d="M376.68 501h78.286c-5.427 8.344-5.443 24.47-.01 32.818h-78.534l-2.638-2.425v-27.296Z" class="colore6e7e7 svgShape"/><path fill="#53d86a" fill-rule="evenodd" d="M193.602 498.687a6.225 6.225 0 0 0-4.43 1.81 5.512 5.512 0 0 0-1.648 3.894v26.032a5.514 5.514 0 0 0 1.648 3.894 6.224 6.224 0 0 0 4.43 1.807c83.938 0 168.152.039 252.093.039v-4.694h-39.88a2.42 2.42 0 0 1-1.72-.72 2.483 2.483 0 0 1-.717-1.755v-23.177a2.48 2.48 0 0 1 .717-1.752 2.413 2.413 0 0 1 1.72-.723h39.88v-4.692c-83.94 0-168.155.037-252.093.037Z" class="colora2c984 svgShape"/><path fill="#53d86a" fill-rule="evenodd" d="M461.822 531.234H405.96a2.54 2.54 0 0 1-1.805-.756 2.61 2.61 0 0 1-.754-1.844v-22.47a2.608 2.608 0 0 1 .754-1.843 2.538 2.538 0 0 1 1.805-.756h55.862v-4.928H405.96a7.44 7.44 0 0 0-5.29 2.218 7.53 7.53 0 0 0-2.198 5.309v22.47a7.53 7.53 0 0 0 2.198 5.31 7.437 7.437 0 0 0 5.29 2.218h55.862Z" class="colora2c984 svgShape"/><path fill="#595bd4" fill-rule="evenodd" d="M367.14 525.687a7.734 7.734 0 1 0-7.734-7.733 7.749 7.749 0 0 0 7.734 7.733Z" class="color717e8f svgShape"/><path fill="#d8e2da" d="M246.674 510.96h59.123v12.793h-59.123z" class="colord8dbe2 svgShape"/><path fill="#595bd4" d="M240.909 510.96h5.765v12.793h-5.765z" class="color717e8f svgShape"/><path fill="#959595" fill-rule="evenodd" d="M289.623 642.76c3.077 0 5.587-3.475 5.587-7.734s-2.51-7.734-5.587-7.734-5.586 3.474-5.586 7.734 2.51 7.733 5.586 7.733Z" class="color959595 svgShape"/><path fill="#d8e2da" d="M218.507 628.629h35.334v12.793h-35.334z" class="colord8dbe2 svgShape"/><path fill="#959595" d="M215.062 628.629h3.445v12.793h-3.445z" class="color959595 svgShape"/><path fill="#abdeb4" fill-rule="evenodd" d="M296.002 270.162a214.2 214.2 0 0 0-30.477 31.834 179.333 179.333 0 0 0-21.637 35.458q-1.394 3.08-2.5 5.853-1.11 2.782-2.13 5.75a148.234 148.234 0 0 0-7.548 59.163c1.452 17.174 6.425 34.381 16.615 49.295l-3.752 2.56c-10.68-15.629-15.885-33.591-17.397-51.482a152.873 152.873 0 0 1 7.778-61.012q.953-2.773 2.22-5.946a146.254 146.254 0 0 1 2.57-6.048 183.913 183.913 0 0 1 22.188-36.365 218.798 218.798 0 0 1 31.136-32.51Z" class="colorc1deab svgShape"/><path fill="#abdeb4" fill-rule="evenodd" d="M257.891 491.42c-8.98-11.833-14.985-32.097-13.871-47.988 1.427-20.384 10.52-42.635 30.911-48.916 20.105-6.192.972 29.35-2.934 38.37-8.967 20.708-19.766 39.982-14.106 58.534Zm.03-.25c-15.259-14.634-14.869-25.452-23.254-38.649-3.44-5.413-8.633-14.647-13.932-13.839-4.215.643-4.694 12.735-.575 24.01 5.953 16.288 24.315 28.342 37.761 28.479Zm4.774-178.271c8.102-9.964 22.878-21.985 36.273-27.919a175.54 175.54 0 0 1 52.248-14.572c5.963-.704 12.313-.639 14.039 1.875 3.423 4.986-4.96 16.319-12.972 22.211-7.34 5.398-19.902 8.522-24.462 9.34-23.318 4.187-46.022 2.798-65.126 9.065Zm22.019-35.043c6.963-1.844 18.622-10.428 35.135-17.958 17.632-8.04 49.277-15.17 60.403-21.751 10.133-5.993 2.824-15.127-3.83-17.036-9.981-2.865-27.937-2.729-39.427.482-32.4 9.051-38.522 33.723-52.281 56.263ZM262.7 292.634c5.74-21.514 11.236-26.046 22.676-42.51 3.125-4.498 6.083-13.589 4.05-16.193-1.308-1.676-5.966-.957-11.684 3.617-5.455 4.365-11.028 11.996-13.2 19.253-3.061 10.224-4.61 26.92-1.842 35.833Zm-25.686 53.626c-.58-28.869 10.25-38.932 14.912-59.77 1.913-8.548 5.827-22.477-.068-26.818-4.689-3.453-16.838 7.752-23.759 22.614-9.997 21.468-3.93 50.846 8.915 63.974Zm3.849 9.504c6.07-15.32 20.098-26.248 33.328-30.425 21.32-6.73 49.822 2.457 27.432 13.332a90.967 90.967 0 0 1-17.306 5.911c-15.336 3.753-33.117 4.657-43.454 11.182Zm-7.523 35.815c6.683 2.517 15.357 1.974 20.953-3.896 5.362-5.625 5.632-15.335 1.833-17.544-4.95-2.88-10.379 2.813-14.845 9.172-3.436 4.896-6.303 10.188-7.94 12.268Zm-6.889 1.747c-10.076-3.73-20.767-14.442-24.197-29.856-3.288-14.772 2.464-30.037 8.683-29.116 8.102 1.2 11.431 16.152 13.117 31.032 1.297 11.457 1.62 22.873 2.397 27.94Z" class="colorc1deab svgShape"/><path fill="#c9cae8" fill-rule="evenodd" d="M526.445 643.539c4.46-23.755 12.112-58.89-.842-84.61-21.09 44.876-83.688 20.614-115.04-3.827 2.96 22.062-9.126 64.016-21.025 76.512 24.182 14.082 48.18 20.964 74.12 21.147 20.562.145 42.582-3.491 62.787-9.222Z" class="colorc9dbe8 svgShape"/><path fill="#f2fff4" fill-rule="evenodd" d="M353.19 641.728c9.396-19.95 25.774-66.727 26.349-87.542 46.933 43.345 90.802 30.73 127.013 6.203-4.881 26.397 6.297 55.925 15.795 70.615a166.017 166.017 0 0 1-82.938 22.17c-30.865.14-61.39-3.596-86.218-11.446Z" class="colorf2fbff svgShape"/><path fill="#babbdb" fill-rule="evenodd" d="m408.89 587.684-11.026 42.599-1.128-.327 11.027-42.598 1.128.326Zm-5.207-.689-1.115-.375-3.05 10.187 1.114.376 3.051-10.188Zm-5.527 18.057-1.118-.375-10.499 35.203 1.118.375 10.5-35.203Zm.337-20.893-1.11-.395-10.48 33.162 1.11.394 10.48-33.161Zm-5.504-2.412-7.082 21.504-1.104-.41 7.082-21.503 1.104.409Zm-9.003 27.053-5.59 16.37-1.1-.425 5.59-16.37 1.1.425Zm2.356 12.721-1.105-.409-5.733 17.427 1.105.409 5.733-17.427Zm78.04-32.315 2.273 25.549-1.165.117-2.273-25.55 1.165-.116Zm-5.509 1.648 2.307 50.568-1.17.058-2.306-50.568 1.169-.058Zm-5.494.117.195 13.394-1.169.015-.195-13.394 1.169-.015Zm-5.85.506-.552 22.896-1.169-.03.551-22.895 1.17.03Zm-.595 28.81-.755 22.791-1.17-.043.756-22.792 1.17.044Zm6.332-10.972.408 33.76-1.17.015-.407-33.76 1.17-.015Zm14.26 12.45 1.016 18.703-1.169.068-1.016-18.704 1.169-.068Zm2.374-33.871 1.18 8.197-1.16.186-1.18-8.198 1.16-.185Zm1.92 14.71 4.663 35.714-1.16.17-4.663-35.713 1.16-.171Zm-46.69-11.75-6.595 53.027-1.159-.161 6.594-53.027 1.16.161Zm-12.916 8.973-1.146-.254-8.3 41.812 1.146.253 8.3-41.811Zm7.327-10.084-1.156-.21-3.96 24.27 1.155.21 3.96-24.27Zm-5.037 31.202-3.508 21.74-1.156-.21 3.508-21.74 1.156.21Zm17.117-29.275-.75 11.164-1.169-.087.75-11.165 1.17.088Zm-1.435 18.124-2.851 34.085-1.164-.107 2.85-34.085 1.165.107Zm8.005-18.041-2.78 44.381-1.169-.082 2.78-44.382 1.17.083Zm48.881-8.31 10.05 44.823-1.14.287-10.051-44.822 1.141-.287Zm-11.917 3.315-1.155.215 5.738 34.804 1.156-.215-5.739-34.804Zm5.729-1.058-1.146.254 6.095 30.876 1.146-.254-6.095-30.876Zm11.89-4.907-1.132.312 8.186 33.505 1.133-.311Z" class="colorbacddb svgShape"/></g></svg>