<svg xmlns="http://www.w3.org/2000/svg" xmlns:xlink="http://www.w3.org/1999/xlink" enable-background="new 0 0 850 850" viewBox="0 0 850 850"><defs><rect id="a" width="582.07" height="666.74" x="147.41" y="-778.37"/></defs><clipPath id="b"><use fill="#167ffc" class="color000000 svgShape" overflow="visible" xlink:href="#a"/></clipPath><g fill="#167ffc" class="color000000 svgShape" clip-path="url(#b)"><path fill="#f8d1a8" d="M317.46,370.03h66.61l5.26-33.47l-79.17-20.53C312.46,334.53,314.9,352.6,317.46,370.03z" class="colorf8bba8 svgShape"/><path fill="#f2bd84" d="M302.07-63.98c-15.33,112.16-7.24,256.09,8.1,380.01l79.17,20.53l40.83-259.73L302.07-63.98z" class="colorf29084 svgShape"/><path fill="#f8d1a8" d="M473.13,370.03h66.61c1.61-11,3.18-22.25,4.7-33.68l-80.11-22.29L473.13,370.03z" class="colorf8bba8 svgShape"/><path fill="#f2bd84" d="M555.42-61.86L427.04,76.84l37.29,237.23l80.11,22.29C561.46,208.39,571.6,56.48,555.42-61.86z" class="colorf29084 svgShape"/><path fill="#f8d1a8" d="M293.73,694.1c-9.45,4.91-17.85,12.01-17.85,21.73H365v-30.74h-31.8
					C319.53,685.08,305.85,687.79,293.73,694.1z" class="colorf8bba8 svgShape"/><path fill="#f8d1a8" d="M384.08,370.03h-66.61l10.25,319.14h36.66C364.37,689.17,402.95,538.43,384.08,370.03z" class="colorf8bba8 svgShape"/><path fill="#f8d1a8" d="M563.47,694.1c9.45,4.91,17.85,12.01,17.85,21.73H492.2v-30.74H524
					C537.67,685.08,551.35,687.79,563.47,694.1z" class="colorf8bba8 svgShape"/><path fill="#f8d1a8" d="M473.13,370.03h66.61l-10.25,319.14h-36.66C492.83,689.17,454.25,538.43,473.13,370.03z" class="colorf8bba8 svgShape"/><path fill="#f8d1a8" d="M174.15,38.99c4.3,3.79,25.38-19.7,25.38-19.7S180.36,80.87,186,84.17c5.65,3.3,18.39-38.99,18.39-38.99
						s-16.72,41.77-12.73,43.11c6,2.02,17.74-22.7,25.49-38.69c-0.12-0.2-20.58,37.81-15.22,39.65
						c5.36,1.84,28.28-35.66,28.28-35.66s-20.3,29.05-15.47,30.88c6.02,2.29,29.43-42.71,36.73-70.57
						c3-11.45-3.45-23.23-14.71-26.88h0c-7.56-2.45-15.81-0.71-21.73,4.58C198.89,6.03,168.74,34.22,174.15,38.99z" class="colorf8bba8 svgShape"/><path fill="#f8d1a8" d="M222.7-1.58c12.76-97.34,33.63-224.01,78.77-210.48c45.14,13.53-7.12,130.8-49.95,219.12L222.7-1.58z" class="colorf8bba8 svgShape"/><polygon fill="none" points="428.5 158.28 428.54 158.29 428.52 158.03"/><polygon fill="#a6a7da" points="289.06 316.03 417.92 316.03 428.5 158.28 287.86 138.24" class="colora6b1da svgShape"/><polygon fill="#a6a7da" points="439.95 316.03 568.97 316.03 569.25 178.34 428.54 158.29" class="colora6b1da svgShape"/><polygon fill="#a6a7da" points="287.65 107.06 287.86 138.24 428.5 158.28 428.52 158.03 428.54 158.29 569.25 178.34 569.39 107.06" class="colora6b1da svgShape"/><g class="color000000 svgShape"><path fill="#eba861" d="M466.06-420.16l56.28,20c0,0,20.23,64.26,20.23,112.84l36.98,423.49c-109.64,0-144.55,0-152.21,0
					c0,0-0.55,0-1.81,0c-7.67,0-42.58,0-152.21,0l36.98-423.49c0-48.58,22.79-116.37,22.79-116.37l58.02-14.17
					c0,0,0,48.59,37.48,48.59C472.29-369.26,466.06-420.16,466.06-420.16z" class="coloreb616e svgShape"/></g></g><rect width="315.69" height="9.9" x="526.89" y="452.61" fill="#eec69b" class="coloree9bc2 svgShape"/><polygon fill="#eec69b" points="541.58 736.7 568.22 485.7 584.55 485.7 549.75 736.7" class="coloree9bc2 svgShape"/><polygon fill="#eec69b" points="827.89 736.7 801.25 485.7 784.92 485.7 819.72 736.7" class="coloree9bc2 svgShape"/><rect width="291.87" height="32.31" x="538.8" y="462.51" fill="#f8e4ce" class="colorf8cee2 svgShape"/><polygon fill="#cfcfee" points="695.31 412.71 669 443.13 667.75 453.83 682.57 453.83 694.3 428.78" class="colorcfd7ee svgShape"/><polygon fill="#53d86a" points="744.26 453.83 682.78 453.83 674.85 407.65 736.32 407.65" class="colore5ebf7 svgShape"/><polygon fill="#cfcfee" points="747.17 453.83 685.7 453.83 677.76 407.65 739.23 407.65" class="colorcfd7ee svgShape"/><polygon fill="#fff" points="738.25 446.71 692.16 446.71 686.67 414.77 732.76 414.77" class="colorffffff svgShape"/><path fill="#eec69b" d="M768.15,407.95c-1.52-1.55-3.04-3.09-4.56-4.64c5.28,0.7,9.72,4.17,13.86,7.52
						c-1.43-5.29-4.13-10.13-6.81-14.9c-2.66-4.74-5.34-9.47-8.03-14.2c9.03,6.52,16.09,15.48,21.53,25.2
						c0.66,1.18,1.37,2.45,2.57,3.07c-0.01-1.78-0.47-3.52-0.92-5.23c-1.9-7.16-3.8-14.32-5.69-21.48c3.54,4.5,6.57,9.4,9.02,14.58
						c1.22,2.59,2.32,5.28,4.11,7.51c0.1-1.67,0.02-3.35-0.06-5.03c-0.49-10.16-0.98-20.31-1.47-30.47
						c4.92,12.04,5.04,25.43,5.09,38.43c1.12-1.84,1.63-3.98,2.22-6.05c2.03-7.11,5.13-13.91,9.16-20.1
						c-3.39,9.49-6.15,19.19-8.27,29.04c2.54-8.1,8.43-15.09,15.99-18.96c-7.07,6.64-10.38,16.24-15.51,24.47
						c1.83-4.01,5.69-7.03,10.03-7.84c-2.37,1.31-3.71,3.87-5.07,6.22c-1.12,1.93-2.33,3.79-3.64,5.59
						c-0.55,0.76-1.15,1.53-1.98,1.99c-0.91,0.5-1.98,0.55-3.01,0.58c-4.73,0.15-9.46,0.13-14.19,0.1
						c-3.82-0.02-4.59-3.91-6.54-6.59C773.68,413.58,770.91,410.76,768.15,407.95z" class="coloree9bc2 svgShape"/><polygon fill="#cfcfee" points="808.81 423.38 774.1 423.38 777.98 452.61 804.92 452.61" class="colorcfd7ee svgShape"/><rect width="40.27" height="9.34" x="771.32" y="417.29" fill="#53d86a" class="colore5ebf7 svgShape"/><rect width="86.16" height="106.33" x="398.98" y="113.3" fill="#cfcfee" class="colorcfd7ee svgShape"/><rect width="58.98" height="80.15" x="412.56" y="126.39" fill="#fff" class="colorffffff svgShape"/><rect width="34.19" height="46.46" x="424.96" y="143.23" fill="#53d86a" class="colore5ebf7 svgShape"/><rect width="86.16" height="106.33" x="510.49" y="168.35" fill="#cfcfee" class="colorcfd7ee svgShape"/><rect width="58.98" height="80.15" x="524.08" y="181.45" fill="#fff" class="colorffffff svgShape"/><rect width="34.19" height="46.46" x="536.48" y="198.29" fill="#53d86a" class="colore5ebf7 svgShape"/><rect width="86.16" height="106.33" x="622.01" y="223.41" fill="#cfcfee" class="colorcfd7ee svgShape"/><rect width="58.98" height="80.15" x="635.59" y="236.5" fill="#fff" class="colorffffff svgShape"/><rect width="34.19" height="46.46" x="647.99" y="253.34" fill="#53d86a" class="colore5ebf7 svgShape"/><g fill="#167ffc" class="color000000 svgShape"><path fill="#eec69b" d="M417.78,250c-1.67-2.95-2.95-14.63-2.95-14.63s-1.58,11.1-3.44,14.63s-9.3,4.7-9.3,4.7s6.96,0.27,8.99,3.5
				c2.03,3.22,3.73,16.78,3.73,16.78s1.03-13.42,3.01-16.68c1.98-3.26,9.62-4.02,9.62-4.02S419.45,252.95,417.78,250z" class="coloree9bc2 svgShape"/><path fill="#fe9526" d="M432.56,277.74c-1.03-1.82-1.82-9.02-1.82-9.02s-0.98,6.85-2.12,9.02c-1.15,2.17-5.73,2.9-5.73,2.9
				s4.29,0.17,5.55,2.16c1.25,1.99,2.3,10.35,2.3,10.35s0.64-8.28,1.85-10.29c1.22-2.01,5.93-2.48,5.93-2.48
				S433.59,279.56,432.56,277.74z" class="colorffcf00 svgShape"/><path fill="#eec69b" d="M437.28,242.36c-0.62-1.09-1.09-5.4-1.09-5.4s-0.59,4.1-1.27,5.4c-0.69,1.3-3.43,1.73-3.43,1.73
				s2.57,0.1,3.32,1.29c0.75,1.19,1.38,6.2,1.38,6.2s0.38-4.95,1.11-6.16c0.73-1.2,3.55-1.49,3.55-1.49S437.89,243.45,437.28,242.36
				z" class="coloree9bc2 svgShape"/></g><g fill="#167ffc" class="color000000 svgShape"><path fill="#eec69b" d="M569.6,248.33c-0.79-1.39-1.4-6.91-1.4-6.91s-0.75,5.25-1.63,6.91c-0.88,1.67-4.39,2.22-4.39,2.22
				s3.29,0.13,4.25,1.65c0.96,1.52,1.76,7.93,1.76,7.93s0.49-6.34,1.42-7.88s4.54-1.9,4.54-1.9S570.39,249.72,569.6,248.33z" class="coloree9bc2 svgShape"/><path fill="#eec69b" d="M556.05,224.57c-1.63-2.88-2.89-14.29-2.89-14.29s-1.55,10.85-3.36,14.29c-1.82,3.44-9.08,4.59-9.08,4.59
				s6.8,0.26,8.78,3.42c1.98,3.15,3.64,16.39,3.64,16.39s1.01-13.11,2.94-16.29c1.93-3.18,9.4-3.93,9.4-3.93
				S557.69,227.45,556.05,224.57z" class="coloree9bc2 svgShape"/></g><g fill="#167ffc" class="color000000 svgShape"><path d="M360.62,250.18c-6.41,8.49,22.65,21.02,24.73,32.63c2.08,11.61,9.24,16.93,18.6,33.05c9.36,16.12-32.93,2.61-20.62,17.52
				c12.31,14.91,43.85,4.33,50.44,6.24c6.59,1.91,14.21,1.91,20.63-5.2c6.41-7.11-23.7,21.27-13.82,17.46
				c-23.05-20.45-33.16-105.17-38.01-108.12C397.72,240.81,369.46,240.47,360.62,250.18z" class="color000000 svgShape"/><path fill="#eaa55d" d="M380.25,332.32c-11.35-9.32-22.71-18.63-34.06-27.95c-6.28-5.16-12.57-10.31-18.85-15.47
				c-0.55-0.45-2.83-1.76-2.97-2.5c-0.65-3.5-1.31-7-1.96-10.49c-0.28-5.96-9.04-6.13-13.17-5.47c-4.28,0.68-15.17,3.39-14.3,9.64
				c0.59,5.06,1.19,10.12,1.78,15.19c0.54,4.61,2.66,7.86,5.99,10.9c7.5,6.86,15.01,13.72,22.51,20.58
				c9.24,8.45,18.47,16.89,27.71,25.34c1.88,1.72,3.77,3.44,5.65,5.17c6.57,6.01,17.04,5.69,23.18-0.79
				C388.26,349.59,387.56,338.32,380.25,332.32z" class="colorea5d8f svgShape"/><path fill="#f7c998" d="M319.75,275.16c-0.93-5.6-8.26-52.12-8.26-60.76s6.95-19.9,3.94-21.77c-3-1.88-6.01,6.95-6.01,6.95
				c-0.94-15.58-0.06-20.59-3.07-20.96c-3-0.38-2.56,3.88-2.56,3.88c-0.47-4.94-1.88-6.16-3.75-5.23c-1.13,0.56-1.5,4.32-1.5,4.32
				c-0.94-4.32-6.85-3.57-1.94,19.43c0-20.09-3.01-16.94-3.94-14.74c-1.78,4.22,1.88,22.53,1.88,22.53
				c-0.19,9.57,0.34,48.76,3.44,71.43C299.54,286.16,320.67,280.76,319.75,275.16z" class="colorf7b798 svgShape"/><path fill="#d9a46b" d="M304.98,198.01c-0.37,0-0.69-0.27-0.74-0.65c-0.06-0.49-1.57-11.96-1.19-16.31
					c0.04-0.41,0.41-0.72,0.81-0.68c0.41,0.04,0.72,0.4,0.68,0.81c-0.36,4.19,1.17,15.86,1.19,15.98c0.05,0.41-0.24,0.79-0.65,0.84
					C305.05,198.01,305.01,198.01,304.98,198.01z" class="colord98c6b svgShape"/><path fill="#d9a46b" d="M302.1,207.64c-0.07,0-0.14-0.01-0.21-0.03c-0.4-0.11-0.63-0.53-0.51-0.93c0.55-1.93,2.57-5.38,6.22-5.28
					l1.31-3.6c0.14-0.39,0.57-0.59,0.96-0.45c0.39,0.14,0.59,0.57,0.45,0.96l-1.71,4.69l-0.6-0.07c-3.81-0.46-5.18,4.11-5.19,4.15
					C302.73,207.43,302.43,207.64,302.1,207.64z" class="colord98c6b svgShape"/><path fill="#d9a46b" d="M295.91,202.01c-0.22,0-0.44-0.1-0.59-0.29c-0.26-0.33-0.2-0.8,0.13-1.05c2.84-2.23,8.91-4.1,12.44-4.29
					c0.42-0.01,0.77,0.3,0.79,0.71c0.02,0.41-0.3,0.77-0.71,0.79c-3.6,0.19-9.23,2.12-11.59,3.97
					C296.23,201.96,296.07,202.01,295.91,202.01z" class="colord98c6b svgShape"/><path fill="#d9a46b" d="M300.35,198.88c-0.33,0-0.63-0.22-0.72-0.55c-0.92-3.39-1.37-10.81-1.6-14.8
					c-0.06-0.97-0.1-1.73-0.14-2.17c-0.04-0.41,0.27-0.78,0.68-0.81c0.4-0.05,0.78,0.27,0.81,0.69c0.04,0.45,0.08,1.22,0.14,2.2
					c0.23,3.93,0.67,11.26,1.55,14.5c0.11,0.4-0.13,0.81-0.53,0.92C300.48,198.88,300.41,198.88,300.35,198.88z" class="colord98c6b svgShape"/><path fill="#eaa55d" d="M349.12,306.92c15.18,8.67,24.87,11.62,31.43,11.18c7.8-0.53-16.25,31.03-16.25,31.03
				S353.66,325.07,349.12,306.92z" class="colorea5d8f svgShape"/><path fill="#f7c998" d="M368.93,652.84c0.39,15.9,2.25,36.04,1.13,48.24c0,5.26-24.65,8.13-24.15,12.14
				c0.5,4.01,45.8,4.51,47.05,1c0.15-10.15-1.64-32.93,0.56-60.26L368.93,652.84z" class="colorf7b798 svgShape"/><path fill="#f7c998" d="M542,637.51c-11.79-9.64-29.42-21.66-46.18-37.23c-6.93,7.89-12.32,11.69-20.09,18.77
				c11.55,8.63,28.39,19.9,45.74,28.85c6.01,6.01-2.88,26.78-1.63,28.78C521.98,677.68,545.92,644.92,542,637.51z" class="colorf7b798 svgShape"/><path fill="#eaa55d" d="M357.73,332.6c0.43-5.3,27.37-21.5,51.72-18.1c35.07,4.9,32.95,12.41,38.08,34.63
				c3.12,13.48,3.36,29.88,5.31,39.22c3.03,14.56,19.91,35.4-4.32,37.79c-20.27,2-72.07,10.31-87.1-2.75
				c-11.51-10.01,4.51-16.77-4.51-68.83C354.29,340.41,357.73,332.6,357.73,332.6z" class="colorea5d8f svgShape"/><path fill="#f7c998" d="M492.76,425.14c0.44,4.29,3.35,34.26-0.69,43.56c-4.04,9.29-7.17,19.69-6.03,26.03
				c1.14,6.34,3.47,4.42,4.28,3.47c1.18,5.58,4.13,3.19,4.49,1.05c2.4,1.89,4.32-1,4.23-3.77c3.56,3.46,4.53-0.24,4.55-5
				c0.02-4.76,0.37-7.84,4.25-17.46c4.75-11.76,1.36-42.64,0.94-48.43C508.36,418.79,492.32,420.85,492.76,425.14z" class="colorf7b798 svgShape"/><path fill="#d9a46b" d="M499.43,496.93c-0.21,0-0.41-0.09-0.56-0.25c-2.26-2.54-0.62-10.09,1.43-18.28l0.23-0.91
					c0.1-0.4,0.5-0.65,0.91-0.55c0.4,0.1,0.65,0.51,0.55,0.91l-0.23,0.91c-1.29,5.16-3.68,14.77-1.76,16.92
					c0.28,0.31,0.25,0.78-0.06,1.06C499.79,496.87,499.61,496.93,499.43,496.93z" class="colord98c6b svgShape"/><path fill="#d9a46b" d="M494.8,499.99c-0.23,0-0.45-0.1-0.6-0.3c-2.88-3.83,0.51-20.12,1.9-23.32c0.16-0.38,0.62-0.55,0.99-0.39
					c0.38,0.16,0.55,0.61,0.39,0.99c-1.65,3.79-4.28,18.89-2.08,21.82c0.25,0.33,0.18,0.8-0.15,1.05
					C495.12,499.94,494.96,499.99,494.8,499.99z" class="colord98c6b svgShape"/><path fill="#d9a46b" d="M490.41,499.03c-0.29,0-0.57-0.17-0.69-0.46c-2.22-5.23,0.36-15.9,1.75-21.63l0.25-1.05
					c0.1-0.4,0.5-0.66,0.9-0.56c0.4,0.1,0.65,0.5,0.56,0.9l-0.25,1.05c-1.25,5.17-3.85,15.92-1.82,20.69
					c0.16,0.38-0.02,0.82-0.4,0.98C490.61,499.01,490.51,499.03,490.41,499.03z" class="colord98c6b svgShape"/><path fill="#eaa55d" d="M515.01,421.23c-1.22-12.9-0.19-28.2-9.96-37.84c-17.83-17.58-37.39-33.63-56.28-50.04
				c-5.05-4.39-10.85-11.28-17.43-13.48c-9.34-3.13-19.65,2.89-21.49,12.58c-1.47,7.74,2.69,13.43,8.38,17.95
				c8.48,6.74,16.96,13.49,25.41,20.27c9.61,7.7,19.2,15.42,28.71,23.24c3.96,3.25,7.93,6.5,11.78,9.89
				c1.05,5.14,1.86,10.33,2.56,15.53c1.62,12,2.78,12.14,11.94,11.44C511.03,429.83,515.53,427.58,515.01,421.23z" class="colorea5d8f svgShape"/><path fill="#f5e1cc" d="M390.26,311.48c-3.39,0.94-10.98,4.06-11.67,6.36c-1.39,4.62-0.45,17.86,1.04,19.41
				c1.99,2.08,8.21-2.63,11.33-6.93c3,12.36,6.07,9.27,10.88,6.98c7.63-3.63,17.54-16.34,16.73-20.15
				c-0.92-4.35-10.02-6.64-10.02-6.64L390.26,311.48z" class="colorf5e1cc svgShape"/><polyline fill="#f7c998" points="402.77 290.29 410.71 314.14 384.71 320.76 381.38 297.58" class="colorf7b798 svgShape"/><path fill="#f7c998" d="M364.4,285.47c2,12.2,13.51,20.47,25.7,18.48l0,0c12.2-2,20.47-13.51,18.47-25.7l-3.82-23.36
				c-1.99-12.2-13.51-20.47-25.7-18.47l0,0c-12.2,2-20.47,13.5-18.48,25.7L364.4,285.47z" class="colorf7b798 svgShape"/><path fill="#d9a46b" d="M383.11,309.62l-0.83-5.81c1.71,0.07,3.98,0.03,5.27-0.11c6.09-0.69,11.34-3.76,14.91-8.18
				C400.64,300.23,394.53,308.06,383.11,309.62z" class="colord98c6b svgShape"/><path d="M435.9,327.44c-8.95-2.03,8.92-131.29-65.14-92.97c-4.86,2.52-8.56,6.9-10.04,12.18c-1.07,3.82-0.31,5.65-0.38,8.62
				c1.27-5.2,3.93-6.73,3.93-6.73c9.36-6.01,25.94-0.72,32.41,13.49c6.47,14.21,15.01,63.31,21.94,73.36
				c6.93,10.05-2.83,23.78,12.08,22.22c7.11-6.07,21.84-5.55,25.65-14.73C444.22,340.78,445.08,329.52,435.9,327.44z" class="color000000 svgShape"/><path fill="#f7c998" d="M384.54,320.03c1.21,7.97,6.73,8.33,11.5,7.77c8.78-1.04,16.23-7.6,14.67-13.66
				C409.15,308.07,384.54,320.03,384.54,320.03z" class="colorf7b798 svgShape"/><path fill="#d9a46b" d="M296.56,201.1c-0.37,0-0.7-0.28-0.74-0.66c-0.06-0.5-1.57-12.35-1.66-14.61
					c-0.02-0.41,0.3-0.76,0.72-0.78c0.41-0.04,0.76,0.3,0.78,0.72c0.09,2.2,1.64,14.36,1.65,14.48c0.05,0.41-0.24,0.79-0.65,0.84
					C296.63,201.1,296.6,201.1,296.56,201.1z" class="colord98c6b svgShape"/><path fill="#a6a7da" d="M466.04,551.54c-9.01-39.54-3.5-57.57-9.01-93.11c-3.08-19.87-6.45-28.78-8.51-34.41
				c-30.41,11.64-74.83-9.13-75.08-4.76c-0.31,10.14,3.5,31.16,3.5,31.16s-14.01,118.97-10.77,211.41
				c0.13,1.71,29.54,0.33,30.15-1.09c5.09-64.5,14.53-160.84,18.16-178.29c8.76,64.2,9.54,102.36,63.91,141.37
				c3.54,1.66,24.07-18.99,23.4-20.73C485.47,588.84,470.65,571.76,466.04,551.54z" class="colora6b1da svgShape"/><path fill="#d78937" d="M358.17,368.33c-0.41,0-0.74-0.33-0.75-0.73c-0.25-11.69,0.28-20.73,0.5-24.59
					c0.02-0.41,0.37-0.74,0.79-0.71c0.41,0.02,0.73,0.38,0.71,0.79c-0.22,3.84-0.75,12.84-0.5,24.47c0.01,0.41-0.32,0.76-0.73,0.77
					C358.18,368.33,358.17,368.33,358.17,368.33z" class="colord73766 svgShape"/><path fill="#d78937" d="M460.03,383.85c-0.17,0-0.34-0.06-0.49-0.18c-3.43-2.9-9.93-7.17-15.67-10.94
					c-5.13-3.37-9.56-6.28-10.9-7.62c-0.29-0.29-0.29-0.77,0-1.06c0.29-0.29,0.77-0.29,1.06,0c1.23,1.23,5.81,4.24,10.67,7.43
					c5.77,3.79,12.31,8.09,15.82,11.05c0.32,0.27,0.36,0.74,0.09,1.06C460.46,383.76,460.25,383.85,460.03,383.85z" class="colord73766 svgShape"/><path fill="#d78937" d="M315.87,297c-0.25,0-0.49-0.12-0.63-0.34c-0.22-0.35-0.12-0.81,0.22-1.04c0.07-0.04,6.72-4.4,7.42-10.96
					c0.04-0.41,0.42-0.71,0.83-0.67c0.41,0.04,0.71,0.41,0.67,0.83c-0.78,7.28-7.8,11.87-8.1,12.07
					C316.15,296.96,316.01,297,315.87,297z" class="colord73766 svgShape"/><path fill="#d78937" d="M484.14,404.55c-0.27,0-0.52-0.14-0.66-0.39c-0.2-0.36-0.06-0.82,0.3-1.02
					c4.93-2.68,11.53-4.89,11.81-4.99c0.4-0.13,0.82,0.08,0.95,0.47c0.13,0.39-0.08,0.82-0.48,0.95c-0.07,0.02-6.75,2.26-11.57,4.88
					C484.38,404.52,484.26,404.55,484.14,404.55z" class="colord73766 svgShape"/><path fill="#d78937" d="M486.81,404.87c-0.38,0-0.7-0.28-0.74-0.66c-0.05-0.41,0.24-0.79,0.66-0.83l8.51-1
					c0.4-0.05,0.79,0.25,0.83,0.66c0.05,0.41-0.24,0.79-0.66,0.83l-8.51,1C486.87,404.87,486.84,404.87,486.81,404.87z" class="colord73766 svgShape"/><path fill="#595bd4" d="M362.51,706.09c-7.21,2.52-16.93,4.6-16.61,7.13c0.5,4.01,45.8,4.51,47.05,1
				c0.03-2.09-0.02-4.75-0.11-7.85c-5.7,2.37-15.62,4.71-26.67,5.73C369.66,708,366.47,706.4,362.51,706.09z" class="color5f4595 svgShape"/><path fill="#595bd4" d="M522.11,659.99c-1.44,7.49-4.52,16.95-2.18,17.95c3.71,1.58,26.89-37.35,24.49-40.19
				c-1.79-1.08-4.12-2.37-6.84-3.85c-0.09,3.93-3.77,15.88-8.44,25.95C527.35,654.77,524.36,656.73,522.11,659.99z" class="color5f4595 svgShape"/><path fill="#d9a46b" d="M532.43,642.7c-0.39,0-0.72-0.31-0.75-0.7c-0.15-2.48-0.62-6-1.99-8.72c-0.18-0.37-0.04-0.82,0.34-1.01
					c0.37-0.18,0.82-0.04,1.01,0.34c1.48,2.95,1.98,6.69,2.14,9.3c0.03,0.41-0.29,0.77-0.7,0.8
					C532.46,642.7,532.44,642.7,532.43,642.7z" class="colord98c6b svgShape"/><path fill="#d9a46b" d="M382.63,707.28c-0.25,0-0.49-0.12-0.63-0.35c-0.22-0.35-0.12-0.81,0.23-1.04
					c2.03-1.29,4.02-3.92,5.2-5.94c0.21-0.36,0.67-0.48,1.03-0.27c0.36,0.21,0.48,0.67,0.27,1.03c-1.27,2.17-3.43,5.01-5.69,6.45
					C382.91,707.24,382.77,707.28,382.63,707.28z" class="colord98c6b svgShape"/></g><g fill="#167ffc" class="color000000 svgShape"><path fill="#b3b4e4" d="M35.62,648.79c-10.45,0-17.83-2.65-22.56-8.1c-4.94-5.68-6.64-14.25-5.07-25.49l32.03-240.52
			c1.52-11.3,15-19.83,31.34-19.85c0.92,0,1.78,0.02,2.63,0.07l90.15,5.06c7.66,0.43,14.74,2.87,19.93,6.87
			c5.78,4.45,8.67,10.49,7.94,16.58l-28.99,240.54c-1.36,11.27-14.25,20.79-29.98,22.14c-0.86,0.07-1.74,0.12-2.6,0.15
			c-0.69,0.02-70.45,2.1-93.6,2.53C36.43,648.78,36.03,648.79,35.62,648.79z M71.43,360.85c-13.2,0.01-24.36,6.44-25.46,14.64
			L13.94,616.02c-1.33,9.46-0.1,16.42,3.65,20.73c3.53,4.06,9.43,6.03,18.03,6.03c0.37,0,0.74,0,1.11-0.01
			c23.11-0.43,92.84-2.51,93.55-2.53c0.76-0.02,1.51-0.06,2.26-0.13c12.74-1.09,23.52-8.51,24.53-16.88l28.99-240.54
			c0.47-3.93-1.58-7.98-5.64-11.1c-4.24-3.27-10.13-5.26-16.6-5.63l-90.15-5.06C72.92,360.87,72.17,360.85,71.43,360.85z" class="colorb3c1e4 svgShape"/></g><g fill="#167ffc" class="color000000 svgShape"><path fill="#b3b4e4" d="M110.83,684.21c-16.7,0-31.21-12.97-33.76-30.16l-63.61-428.7c-1.36-9.14,1.01-18.38,6.5-25.35
			c5.24-6.65,12.76-10.73,21.19-11.48l104.43-9.32c0.92-0.08,1.86-0.12,2.79-0.12c16.7,0,31.21,12.97,33.76,30.16l63.61,428.7
			c1.36,9.14-1.01,18.38-6.5,25.34c-5.24,6.65-12.76,10.73-21.19,11.48l-104.43,9.32C112.69,684.17,111.75,684.21,110.83,684.21z" class="colorb3c1e4 svgShape"/></g><g fill="#167ffc" class="color000000 svgShape"><path fill="#cfcfee" d="M115.33,683.71c-16.7,0-31.21-12.97-33.76-30.16l-63.61-428.7c-1.36-9.14,1.01-18.38,6.5-25.35
			c5.24-6.65,12.76-10.73,21.19-11.48l104.43-9.32c0.92-0.08,1.86-0.12,2.79-0.12c16.7,0,31.21,12.97,33.76,30.16l63.61,428.7
			c1.36,9.14-1.01,18.38-6.5,25.34c-5.24,6.65-12.76,10.73-21.19,11.48l-104.43,9.32C117.2,683.67,116.26,683.71,115.33,683.71z" class="colorcfd7ee svgShape"/></g><g fill="#167ffc" class="color000000 svgShape"><path fill="#53d86a" d="M221.75,665.3l-21.04,1.88l-23.12,2.06l-60.27,5.38c-12.79,1.14-24.84-8.9-26.84-22.38l-4.07-27.4
			l-0.58-3.91l-1.63-10.93l-2.87-19.33l-14.2-95.72l-0.47-3.14l-1.81-12.22l-4.89-32.96l-2.94-19.76l-1.48-10.02L26.88,223.52
			c-2.01-13.48,6.77-25.38,19.57-26.52l104.43-9.32c12.8-1.14,24.84,8.9,26.84,22.39l2.61,17.64l1.36,9.12l0.75,5.08l1.23,8.28
			l4,26.97l3.81,25.64l2.24,15.11l0.24,1.61l1.25,8.45l1.14,7.61l3.84,25.9l9.11,61.41l32.04,215.88
			C243.33,652.25,234.55,664.15,221.75,665.3z" class="colore5ebf7 svgShape"/></g><g fill="#167ffc" class="color000000 svgShape"><path d="M209.61,250.12c6.41,8.49-22.65,21.02-24.73,32.63c-2.08,11.61-9.24,16.93-18.6,33.05
				c-9.36,16.12,32.93,2.61,20.62,17.52c-12.31,14.91-43.85,4.33-50.44,6.24c-6.59,1.91-14.21,1.91-20.63-5.2
				c-6.41-7.11,23.7,21.27,13.82,17.46c23.05-20.45,33.16-105.17,38.01-108.12C172.51,240.76,200.77,240.41,209.61,250.12z" class="color000000 svgShape"/><path fill="#eaa55d" d="M189.98,332.26c11.35-9.32,22.71-18.63,34.06-27.95c6.28-5.16,12.57-10.31,18.85-15.47
				c0.55-0.45,2.83-1.76,2.97-2.5c0.65-3.5,1.31-7,1.96-10.49c0.28-5.96,9.04-6.13,13.17-5.47c4.28,0.68,15.17,3.39,14.3,9.64
				c-0.59,5.06-1.19,10.12-1.78,15.19c-0.54,4.61-2.66,7.86-5.99,10.9c-7.5,6.86-15.01,13.72-22.51,20.58
				c-9.24,8.45-18.47,16.89-27.71,25.34c-1.88,1.72-3.77,3.44-5.65,5.17c-6.57,6.01-17.04,5.69-23.18-0.79
				C181.97,349.53,182.67,338.26,189.98,332.26z" class="colorea5d8f svgShape"/><path fill="#f7c998" d="M250.48,275.1c0.93-5.6,8.26-52.12,8.26-60.76s-6.95-19.9-3.94-21.77c3-1.88,6.01,6.95,6.01,6.95
				c0.94-15.58,0.06-20.59,3.07-20.96s2.56,3.88,2.56,3.88c0.47-4.94,1.88-6.16,3.75-5.23c1.13,0.56,1.5,4.32,1.5,4.32
				c0.94-4.32,6.85-3.57,1.94,19.43c0-20.09,3.01-16.94,3.94-14.74c1.78,4.22-1.88,22.53-1.88,22.53
				c0.19,9.57-0.34,48.76-3.44,71.43C270.69,286.1,249.56,280.7,250.48,275.1z" class="colorf7b798 svgShape"/><path fill="#d9a46b" d="M265.25,197.95c0.37,0,0.69-0.27,0.74-0.65c0.06-0.49,1.57-11.96,1.19-16.31
					c-0.04-0.41-0.41-0.72-0.81-0.68c-0.41,0.04-0.72,0.4-0.68,0.81c0.36,4.19-1.17,15.86-1.19,15.98
					c-0.05,0.41,0.24,0.79,0.65,0.84C265.18,197.95,265.22,197.95,265.25,197.95z" class="colord98c6b svgShape"/><path fill="#d9a46b" d="M268.13,207.59c0.07,0,0.14-0.01,0.21-0.03c0.4-0.11,0.63-0.53,0.51-0.93c-0.55-1.93-2.57-5.38-6.22-5.28
					l-1.31-3.6c-0.14-0.39-0.57-0.59-0.96-0.45c-0.39,0.14-0.59,0.57-0.45,0.96l1.71,4.69l0.6-0.07c3.81-0.46,5.18,4.11,5.19,4.15
					C267.5,207.37,267.8,207.59,268.13,207.59z" class="colord98c6b svgShape"/><path fill="#d9a46b" d="M274.32,201.95c0.22,0,0.44-0.1,0.59-0.29c0.26-0.33,0.2-0.8-0.13-1.05c-2.84-2.23-8.91-4.1-12.44-4.29
					c-0.42-0.01-0.77,0.3-0.79,0.71c-0.02,0.41,0.3,0.77,0.71,0.79c3.6,0.19,9.23,2.12,11.59,3.97
					C274,201.9,274.16,201.95,274.32,201.95z" class="colord98c6b svgShape"/><path fill="#d9a46b" d="M269.88,198.83c0.33,0,0.63-0.22,0.72-0.55c0.92-3.39,1.37-10.81,1.6-14.8c0.06-0.97,0.1-1.73,0.14-2.17
					c0.04-0.41-0.27-0.78-0.68-0.81c-0.4-0.05-0.78,0.27-0.81,0.69c-0.04,0.45-0.08,1.22-0.14,2.2c-0.23,3.93-0.67,11.26-1.55,14.5
					c-0.11,0.4,0.13,0.81,0.53,0.92C269.75,198.82,269.82,198.83,269.88,198.83z" class="colord98c6b svgShape"/><path fill="#eaa55d" d="M221.11,306.86c-15.18,8.67-24.87,11.62-31.43,11.18c-7.8-0.53,16.25,31.03,16.25,31.03
				S216.57,325.01,221.11,306.86z" class="colorea5d8f svgShape"/><path fill="#f7c998" d="M201.3,652.78c-0.39,15.9-2.25,36.04-1.13,48.24c0,5.26,24.65,8.13,24.15,12.14s-45.8,4.51-47.05,1
				c-0.15-10.15,1.64-32.93-0.56-60.26L201.3,652.78z" class="colorf7b798 svgShape"/><path fill="#f7c998" d="M94.5,618.99c-1.72,1.29-3.57,2.63-5.52,4.03c-0.84,0.6-1.68,1.2-2.56,1.81l-0.58-3.91l-1.63-10.93
				C87.38,612.77,90.65,615.47,94.5,618.99z" class="colorf7b798 svgShape"/><path fill="#eaa55d" d="M212.5,332.54c-0.43-5.3-27.37-21.5-51.72-18.1c-35.07,4.9-32.95,12.41-38.08,34.63
				c-3.12,13.48-3.36,29.88-5.31,39.22c-3.03,14.56-19.91,35.4,4.32,37.79c20.27,2,72.07,10.31,87.1-2.75
				c11.51-10.01-4.51-16.77,4.51-68.83C215.94,340.35,212.5,332.54,212.5,332.54z" class="colorea5d8f svgShape"/><path fill="#f7c998" d="M77.47,425.08c-0.44,4.29-3.35,34.26,0.69,43.56c4.04,9.29,7.17,19.69,6.03,26.03
				c-1.14,6.34-3.47,4.42-4.28,3.47c-1.18,5.58-4.13,3.19-4.49,1.05c-2.4,1.89-4.32-1-4.23-3.77c-3.56,3.46-4.53-0.24-4.55-5
				c-0.02-4.76-0.37-7.84-4.25-17.46c-4.75-11.76-1.36-42.64-0.94-48.43C61.87,418.73,77.91,420.79,77.47,425.08z" class="colorf7b798 svgShape"/><path fill="#d9a46b" d="M70.8,496.87c0.21,0,0.41-0.09,0.56-0.25c2.26-2.54,0.62-10.09-1.43-18.28l-0.23-0.91
					c-0.1-0.4-0.5-0.65-0.91-0.55c-0.4,0.1-0.65,0.51-0.55,0.91l0.23,0.91c1.29,5.16,3.68,14.77,1.76,16.92
					c-0.28,0.31-0.25,0.78,0.06,1.06C70.44,496.81,70.62,496.87,70.8,496.87z" class="colord98c6b svgShape"/><path fill="#d9a46b" d="M75.43,499.93c0.23,0,0.45-0.1,0.6-0.3c2.88-3.83-0.51-20.12-1.9-23.32c-0.16-0.38-0.62-0.55-0.99-0.39
					c-0.38,0.16-0.55,0.61-0.39,0.99c1.65,3.79,4.28,18.89,2.08,21.82c-0.25,0.33-0.18,0.8,0.15,1.05
					C75.11,499.88,75.27,499.93,75.43,499.93z" class="colord98c6b svgShape"/><path fill="#d9a46b" d="M79.82,498.97c0.29,0,0.57-0.17,0.69-0.46c2.22-5.23-0.36-15.9-1.75-21.63l-0.25-1.05
					c-0.1-0.4-0.5-0.66-0.9-0.56c-0.4,0.1-0.65,0.5-0.56,0.9l0.25,1.05c1.25,5.17,3.85,15.92,1.82,20.69
					c-0.16,0.38,0.02,0.82,0.4,0.98C79.62,498.95,79.72,498.97,79.82,498.97z" class="colord98c6b svgShape"/><path fill="#eaa55d" d="M160.38,332.4c-0.11-0.58-0.25-1.14-0.42-1.69c-0.74-2.46-2.05-4.62-3.73-6.41
				c-0.95-1.01-2.02-1.89-3.18-2.62c-1.73-1.13-3.67-1.92-5.69-2.34c-2.74-0.58-5.64-0.47-8.46,0.47c-0.73,0.24-1.45,0.55-2.16,0.9
				c-1.69,0.83-3.33,1.94-4.91,3.18c-0.01,0-0.02,0.01-0.02,0.01c-3.74,2.94-7.18,6.65-10.34,9.39c-1.07,0.93-2.14,1.86-3.22,2.78
				c-0.11,0.1-0.22,0.2-0.33,0.29c-17.78,15.35-36.02,30.48-52.72,46.97c-8.71,8.58-8.84,21.64-9.62,33.51
				c-0.1,1.46-0.21,2.91-0.34,4.33c-0.2,2.46,0.35,4.3,1.82,5.69c0.94,0.89,2.27,1.61,4.03,2.17c2.55,0.83,6.01,1.34,10.51,1.68
				c2.2,0.17,3.95,0.29,5.35,0.2c4.4-0.26,5.37-2.54,6.6-11.65c0.66-4.96,1.44-9.9,2.41-14.8c0.06-0.24,0.1-0.48,0.15-0.73
				c0.19-0.17,0.37-0.33,0.57-0.49c3.68-3.21,7.44-6.31,11.21-9.4c4.1-3.38,8.23-6.73,12.36-10.07c2.9-2.36,5.82-4.71,8.74-7.05
				c2.33-1.87,4.65-3.73,6.98-5.6c0.21-0.17,0.43-0.34,0.64-0.51c5.42-4.35,10.85-8.68,16.28-13.01c1.78-1.41,3.55-2.83,5.33-4.24
				c1.27-1.01,2.52-2.01,3.79-3.01c3.24-2.58,5.98-5.54,7.48-9.04C160.59,338.67,161.01,335.72,160.38,332.4z" class="colorea5d8f svgShape"/><path fill="#f5e1cc" d="M179.97,311.42c3.39,0.94,10.98,4.06,11.67,6.36c1.39,4.62,0.45,17.86-1.04,19.41
				c-1.99,2.08-8.21-2.63-11.33-6.93c-3,12.36-6.07,9.27-10.88,6.98c-7.63-3.63-17.54-16.34-16.73-20.15
				c0.92-4.35,10.02-6.64,10.02-6.64L179.97,311.42z" class="colorf5e1cc svgShape"/><polygon fill="#f7c998" points="167.46 290.24 159.51 314.08 185.52 320.7 188.85 297.52" class="colorf7b798 svgShape"/><path fill="#f7c998" d="M205.83,285.41c-2,12.2-13.51,20.47-25.7,18.48l0,0c-12.2-2-20.47-13.51-18.47-25.7l3.82-23.36
				c1.99-12.2,13.51-20.47,25.7-18.47l0,0c12.2,2,20.47,13.5,18.48,25.7L205.83,285.41z" class="colorf7b798 svgShape"/><path fill="#d9a46b" d="M187.12,309.56l0.83-5.81c-1.71,0.07-3.98,0.03-5.27-0.11c-6.09-0.69-11.34-3.76-14.91-8.18
				C169.59,300.17,175.7,308.01,187.12,309.56z" class="colord98c6b svgShape"/><path d="M134.33,327.38c8.95-2.03-8.92-131.29,65.14-92.97c4.86,2.52,8.56,6.9,10.04,12.18c1.07,3.82,0.31,5.65,0.38,8.62
				c-1.27-5.2-3.93-6.73-3.93-6.73c-9.36-6.01-25.94-0.72-32.41,13.49c-6.47,14.21-15.01,63.31-21.94,73.36
				c-6.93,10.05,2.83,23.78-12.08,22.22c-7.11-6.07-21.84-5.55-25.65-14.73C126.01,340.72,125.15,329.46,134.33,327.38z" class="color000000 svgShape"/><path fill="#f7c998" d="M185.69,319.97c-1.21,7.97-6.73,8.33-11.5,7.77c-8.78-1.04-16.23-7.6-14.67-13.66
				C161.07,308.01,185.69,319.97,185.69,319.97z" class="colorf7b798 svgShape"/><path fill="#d9a46b" d="M273.67,201.05c0.37,0,0.7-0.28,0.74-0.66c0.06-0.5,1.57-12.35,1.66-14.61c0.02-0.41-0.3-0.76-0.72-0.78
					c-0.41-0.04-0.76,0.3-0.78,0.72c-0.09,2.2-1.64,14.36-1.65,14.48c-0.05,0.41,0.24,0.79,0.65,0.84
					C273.6,201.04,273.63,201.05,273.67,201.05z" class="colord98c6b svgShape"/><path fill="#a6a7da" d="M204.06,661.77c-0.03,0.34-1.22,0.56-3.12,0.68c-5.72,0.36-17.84-0.18-23.71-0.95
				c-1.94-0.26-3.2-0.54-3.32-0.82c-5.09-64.5-14.53-160.84-18.16-178.28c-8.76,64.2-9.54,102.36-63.92,141.38
				c-0.57,0.27-1.57-0.05-2.86-0.76c-0.92-0.5-1.98-1.22-3.14-2.09l-1.63-10.93l-2.87-19.33c10.78-11.49,19.49-24.51,22.84-39.18
				c9.01-39.55,3.5-57.57,9.01-93.11c2.74-17.62,5.69-26.63,7.77-32.37c0.26-0.74,0.51-1.41,0.74-2.05
				c30.41,11.64,74.83-9.13,75.08-4.75c0.08,2.63-0.11,6-0.46,9.54c-0.96,10.11-3.05,21.62-3.05,21.62S207.3,569.34,204.06,661.77z" class="colora6b1da svgShape"/><path fill="#d78937" d="M212.06,368.27c0.41,0,0.74-0.33,0.75-0.73c0.25-11.69-0.28-20.73-0.5-24.59
					c-0.02-0.41-0.37-0.74-0.79-0.71c-0.41,0.02-0.73,0.38-0.71,0.79c0.22,3.84,0.75,12.84,0.5,24.47
					c-0.01,0.41,0.32,0.76,0.73,0.77C212.05,368.27,212.06,368.27,212.06,368.27z" class="colord73766 svgShape"/><path fill="#d78937" d="M110.2,383.79c0.17,0,0.34-0.06,0.49-0.18c3.43-2.9,9.93-7.17,15.67-10.94c5.13-3.37,9.56-6.28,10.9-7.62
					c0.29-0.29,0.29-0.77,0-1.06c-0.29-0.29-0.77-0.29-1.06,0c-1.23,1.23-5.81,4.24-10.67,7.43c-5.77,3.79-12.31,8.09-15.82,11.05
					c-0.32,0.27-0.36,0.74-0.09,1.06C109.77,383.7,109.98,383.79,110.2,383.79z" class="colord73766 svgShape"/><path fill="#d78937" d="M254.36,296.94c0.25,0,0.49-0.12,0.63-0.34c0.22-0.35,0.12-0.81-0.22-1.04
					c-0.07-0.04-6.72-4.4-7.42-10.96c-0.04-0.41-0.42-0.71-0.83-0.67c-0.41,0.04-0.71,0.41-0.67,0.83c0.78,7.28,7.8,11.87,8.1,12.07
					C254.08,296.9,254.22,296.94,254.36,296.94z" class="colord73766 svgShape"/><path fill="#d78937" d="M86.09,404.49c0.27,0,0.52-0.14,0.66-0.39c0.2-0.36,0.06-0.82-0.3-1.02c-4.93-2.68-11.53-4.89-11.81-4.99
					c-0.4-0.13-0.82,0.08-0.95,0.47c-0.13,0.39,0.08,0.82,0.48,0.95c0.07,0.02,6.75,2.26,11.57,4.88
					C85.85,404.46,85.97,404.49,86.09,404.49z" class="colord73766 svgShape"/><path fill="#d78937" d="M83.42,404.81c0.38,0,0.7-0.28,0.74-0.66c0.05-0.41-0.24-0.79-0.66-0.83l-8.51-1
					c-0.4-0.05-0.79,0.25-0.83,0.66c-0.05,0.41,0.24,0.79,0.66,0.83l8.51,1C83.36,404.81,83.39,404.81,83.42,404.81z" class="colord73766 svgShape"/><path fill="#595bd4" d="M207.71,706.04c7.21,2.52,16.93,4.6,16.61,7.13c-0.5,4.01-45.8,4.51-47.05,1
				c-0.03-2.09,0.02-4.75,0.11-7.85c5.7,2.37,15.62,4.71,26.67,5.73C200.57,707.94,203.76,706.34,207.71,706.04z" class="color5f4595 svgShape"/><path fill="#d9a46b" d="M187.6,707.22c0.25,0,0.49-0.12,0.63-0.35c0.22-0.35,0.12-0.81-0.23-1.04c-2.03-1.29-4.02-3.92-5.2-5.94
					c-0.21-0.36-0.67-0.48-1.03-0.27c-0.36,0.21-0.48,0.67-0.27,1.03c1.27,2.17,3.43,5.01,5.69,6.45
					C187.32,707.18,187.46,707.22,187.6,707.22z" class="colord98c6b svgShape"/></g></svg>