<svg xmlns="http://www.w3.org/2000/svg" data-name="Layer 1" viewBox="0 0 800 700"><path fill="#167ffc" d="M99.71 611.58h600.18v3.03H99.71z" class="color1e1917 svgShape"/><path fill="#fe9526" d="M525.77 350.47c0 6.88-1.36 12.45-3 12.45s-3-5.57-3-12.45 1.36-12.46 3-12.46 3 5.58 3 12.46ZM548.13 415.79c0 5.73-1.22 10.38-2.72 10.38s-2.71-4.65-2.71-10.38 1.21-10.38 2.71-10.38 2.72 4.65 2.72 10.38Z" class="colorf89636 svgShape"/><ellipse cx="568.41" cy="379.88" fill="#fe9526" class="colorf89636 svgShape" rx="3.67" ry="12.43"/><path fill="#f1d7bb" d="M507.88 357.43h30.02v140.61h-30.02zM555.16 387.52h28.75v110.53h-28.75z" class="colorf1e5bb svgShape"/><path fill="#ddbd9b" d="M529.6 423.16h30.98v74.88H529.6z" class="colorddcd9b svgShape"/><path fill="#facb99" d="M339.12 297.1c5 4.29 10.91 8.2 17.51 8.34 8 .18 15.29-5.45 19.18-12.46s5-15.19 5.56-23.18c.63-8.69.67-17.78-3.1-25.64-6.69-14-25.39-20.17-39.65-14.1-13.2 5.63-20.65 19.81-21.34 33.71-.66 13.23 12.63 25.48 21.84 33.33Z" class="colorfab499 svgShape"/><path fill="#f4b97a" d="M374.62 259.65a10.14 10.14 0 0 0-2.21 12.2 17.09 17.09 0 0 0 5.73 5.58c5.14 3.46 10.91 6.18 17.07 6.86s12.72-.85 17.3-5a10.63 10.63 0 0 0 3.34-5 9.93 9.93 0 0 0-1.81-8.09c-2.69-3.78-7.19-5.95-11.74-6.8-4.91-.91-9.87.11-14.75-.72-4.55-.84-8.88-2.51-12.93.97Z" class="colorf49a7a svgShape"/><path fill="#3abd51" d="M663.39 611.58H56.19l122.32-132.23h362.56l122.32 132.23z" class="colora4bd3a svgShape"/><path fill="#facb99" d="M204.48 325.11c-9.75-2-22 4.76-31.74 6.66 1.63-11.28 7.21-31 12.27-41.23a1.19 1.19 0 0 1 1.57-.83 116 116 0 0 1 22.86 6.23c1.49.57 4 1.1 5.18 2.22 1.38 1.32.38 2.31-.44 3.79a114 114 0 0 0-5.18 10.59 116.07 116.07 0 0 0-4.52 12.57ZM299.48 224.46a14.44 14.44 0 0 1-3.74 5.57 41.34 41.34 0 0 1-27.88 12.19c-9.68.29-22.08-3.14-28.72-10.69-7.48-8.51 6.13-17.86 9.64-25.21.35-.73.67-1.48.95-2.24 2-5.25 2.48-11.16.53-16.39l18.28-5.12a2.7 2.7 0 0 1 1.51-.11 2.54 2.54 0 0 1 1.09.89c6.05 7.19 11.29 15.07 17.84 21.79l.91.93c2.6 2.58 5.42 5 7.46 8s3.24 6.93 2.13 10.39Z" class="colorfab499 svgShape"/><path fill="#facb99" d="M242.67 144.17c-6.78 7.29-8.85 18.12-7.13 27.93s6.83 18.72 12.86 26.65c4.32 5.67 9.56 11.21 16.46 13 8.83 2.31 18.47-2.41 23.82-9.81s7-16.92 6.67-26a55.13 55.13 0 0 0-6.56-25c-3.85-6.84-11.39-15.9-19.72-16.8-9.02-1.05-20.32 3.49-26.4 10.03Z" class="colorfab499 svgShape"/><path fill="#f4b97a" d="M289 205.14c-.08.15-.2.29-.3.44-5.35 7.4-15 12.11-23.82 9.81-6.2-1.62-11.07-6.25-15.13-11.31 2-5.25 2.48-11.16.53-16.39l18.28-5.12a2.7 2.7 0 0 1 1.51-.11 2.54 2.54 0 0 1 1.09.89c6.03 7.19 11.27 15.07 17.84 21.79Z" class="colorf49a7a svgShape"/><path fill="#facb99" d="M242.67 144.17c-6.78 7.29-8.85 18.12-7.13 27.93s6.83 18.72 12.86 26.65c4.32 5.67 9.56 11.21 16.46 13 8.83 2.31 18.47-2.41 23.82-9.81s7-16.92 6.67-26a55.13 55.13 0 0 0-6.56-25c-3.85-6.84-11.39-15.9-19.72-16.8-9.02-1.05-20.32 3.49-26.4 10.03Z" class="colorfab499 svgShape"/><path fill="#f4b97a" d="M217.75 482.09c0-3.78 1-8-1.19-11.06-1.8-2.56-5.38-3.44-8.42-2.69a15.27 15.27 0 0 0-7.62 5.21c-2 2.37-3.69 5.05-5.63 7.5a37.44 37.44 0 0 1-8.26 7.63c-3.52 2.38-7.43 4.14-10.83 6.69-2.17 1.63-4.23 3.83-4.38 6.53-.16 3.05 2.27 5.76 5.09 6.9s6 1.09 9 1l12.14-.31c3-.08 6.24-.05 8.47 1.9a32 32 0 0 1 2.45 2.87 4.33 4.33 0 0 0 3.24 1.7 4.94 4.94 0 0 0 2.46-1.07 43.42 43.42 0 0 0 7.45-7.33 15.29 15.29 0 0 0 3.49-5.41c1.3-4.38-1.43-5.68-3.69-8.76a19.51 19.51 0 0 1-3.77-11.3Z" class="colorf49a7a svgShape"/><path fill="#2a2a37" d="M223.58 167.85c4.51 8.31 11.37 15.1 18.55 21.26a32.43 32.43 0 0 1 2.47-30.35c2.63-4 6.34-7.53 10.91-9s10.06-.7 13.43 2.73a15.82 15.82 0 0 1 5-6.47c3.79-2.58 8.06-1.28 11.13 1.73a25.24 25.24 0 0 1 3.21 4.2c1 1.48 2.09 2.87 3.08 4.34.2-9.74-5.29-19.12-12.17-26a42.09 42.09 0 0 0-26-12 9.16 9.16 0 0 0 1.82-4.78c0-1.73-1.47-3.55-3.18-3.28-1.93.29-3 2.9-4.94 2.91-1.77 0-2.69-2-3.63-3.49a9.86 9.86 0 0 0-6.2-4.33c1.12 1.38.16 3.61-1.42 4.43s-3.47.62-5.23.41l-5.43-.65c-2.2-.27-5.14 0-5.63 2.11-.53 2.3 2.36 3.74 4.65 4.3-1.83 2.44-7 2-7.06 5 0 .71.33 1.39.33 2.1a4.5 4.5 0 0 1-1.63 2.91l-7 7.2a10 10 0 0 0 4.61 1.36 10.72 10.72 0 0 0-2.63 5.27c5.78-.26 7.47 3.05 8 8.33.63 7.12 1.47 13.35 4.96 19.76Z" class="color2a2b37 svgShape"/><path fill="#595bd4" d="M221.17 145h-.16a.56.56 0 0 1-.38-.7 27.84 27.84 0 0 0 .71-3.66 17.12 17.12 0 0 1 1.81-6.28 15.27 15.27 0 0 1 3-3.42c7.7-7.07 14.82-10.38 21.75-10.19a.57.57 0 0 1 .55.59.54.54 0 0 1-.59.55c-6.64-.22-13.47 3-21 9.88a14.85 14.85 0 0 0-2.8 3.17 16 16 0 0 0-1.66 5.87 28.18 28.18 0 0 1-.75 3.81.57.57 0 0 1-.48.38ZM215.7 134.69a.51.51 0 0 1-.26-.07.55.55 0 0 1-.24-.76 7.48 7.48 0 0 1 8-3.8.57.57 0 0 1 .44.67.56.56 0 0 1-.67.44 6.32 6.32 0 0 0-6.72 3.21.58.58 0 0 1-.55.31ZM228.66 124.86a.57.57 0 0 1-.47-.24 2.69 2.69 0 0 0-1.86-.85 15.19 15.19 0 0 0-6.83.48.57.57 0 1 1-.33-1.09 16.42 16.42 0 0 1 7.34-.51 3.75 3.75 0 0 1 2.62 1.32.56.56 0 0 1-.15.79.55.55 0 0 1-.32.1ZM234.78 121.29a.57.57 0 0 1-.54-.37 6.79 6.79 0 0 0-1.75-2.66c-1.58-1.46-3.82-2.11-5.79-2.7a.56.56 0 1 1 .32-1.08c2.09.61 4.47 1.31 6.24 3a7.8 7.8 0 0 1 2.05 3.1.58.58 0 0 1-.34.73.63.63 0 0 1-.19-.02ZM240 118.71a.56.56 0 0 1-.56-.5l-.67-6.15A1.46 1.46 0 0 1 239 111a.76.76 0 0 1 .65-.27.57.57 0 0 1 .19 1.09v.14l.66 6.15a.57.57 0 0 1-.5.62Zm-.34-6.87Z" class="color3b4862 svgShape"/><path fill="#facb99" d="M184.66 489.73c0-3.78 1-8-1.2-11.06-1.79-2.56-5.37-3.44-8.41-2.69a15.21 15.21 0 0 0-7.62 5.2c-2.05 2.37-3.69 5.06-5.64 7.51a37.39 37.39 0 0 1-8.25 7.63c-3.52 2.37-7.43 4.14-10.83 6.69-2.17 1.62-4.24 3.82-4.38 6.53-.16 3.05 2.27 5.75 5.09 6.9s6 1.09 9 1l12.14-.31c3-.08 6.24-.06 8.47 1.9a30.64 30.64 0 0 1 2.45 2.87 4.29 4.29 0 0 0 3.24 1.69 4.92 4.92 0 0 0 2.46-1.06 43.84 43.84 0 0 0 7.45-7.34 15.25 15.25 0 0 0 3.49-5.41c1.3-4.37-1.43-5.68-3.69-8.75a19.49 19.49 0 0 1-3.77-11.3Z" class="colorfab499 svgShape"/><path fill="#595bd4" d="M245.31 119a.56.56 0 0 1-.25-1.07 31.46 31.46 0 0 0 5.46-3.42.55.55 0 0 1 .79.09.57.57 0 0 1-.09.8 32.21 32.21 0 0 1-5.66 3.55.7.7 0 0 1-.25.05ZM227.08 424.76c-7.33 12.74-11.05 27.29-12.67 41.89s-1.26 29.34-.88 44a64 64 0 0 0-28-10.62 5.88 5.88 0 0 0-2.29 0c-2.11.58-2.95 3.05-3.61 5.13a44.89 44.89 0 0 1-11.5 18.45c13.19 15.58 33.57 23.13 53.78 26 9.58 1.36 19.4 2.16 28.87.19s18.64-7.05 23.73-15.27a53.66 53.66 0 0 0 4-8.51 704.94 704.94 0 0 0 32.29-104.34 4.17 4.17 0 0 0 .07-2.37c-.63-1.7-3-1.82-4.76-1.64-26.43 2.65-52.63 4.47-79.03 7.09Z" class="color3b4862 svgShape"/><path fill="#f1d7bb" d="M290.57 227.61a11.56 11.56 0 0 0 3.53-2.48c4.14-4.68.28-11.9-3.57-16.82l31.63 1.88a5 5 0 0 1 3.21 1 5 5 0 0 1 1.16 2.45 552.56 552.56 0 0 1 13.73 205.07 5.87 5.87 0 0 1-1.35 3.69 5.69 5.69 0 0 1-2.9 1.16c-13.28 2.56-26.95 1.68-40.45 2.55-27.07 1.75-54.12 10.51-80.85 5.9a394.25 394.25 0 0 0 5.83-126.12l-18.4-8.47c-7-3.23-16.06-6.2-21.72-1q7.71-28.43 15.43-56.87c.87-3.21 1.8-6.52 3.93-9.07s5-3.93 7.89-5.27a174.39 174.39 0 0 1 25.62-9.43c3.29-.93 6.84-2.58 10-.78 2.67 1.52 4.67 5.29 7.1 7.31 10.94 9.03 27.33 11.75 40.18 5.3Z" class="colorf1e5bb svgShape"/><path fill="#935f28" d="M460.32 469.76c10.66-3.8 21.66-7.56 33-7.12 4.59.17 9.39 1.16 12.82 4.2a19.55 19.55 0 0 1 4.29 6 40.08 40.08 0 0 1 4.25 16.8c.15 5.31-.75 10.57-1.66 15.8-2.12 12.29-4.25 24.63-8 36.52a11.1 11.1 0 0 1-2.38 4.67c-1.47 1.45-3.58 2-5.61 2.4-9.21 1.83-18.68 1.72-28.07 1.6l-59.05-.72a244.81 244.81 0 0 1-26.81-1.31c-4.61-.56-9.77-1.79-12.06-5.83a15.18 15.18 0 0 1-1.52-5.73 135.38 135.38 0 0 1-1-26.39c.56-7.47 6.21-8.16 12.54-10.72q25.17-10.17 50.62-19.67 14.32-5.38 28.64-10.5Z" class="color935728 svgShape"/><path fill="#facb99" d="M438.85 535.28c-8.07-1.56-16.89-.75-23.74 3.79-7.36 4.89-11.49 13.25-15.28 21.23a222.76 222.76 0 0 0 37.83-4.4c5-1 32.9-5.53 19.52-13.71a56.88 56.88 0 0 0-18.33-6.91Z" class="colorfab499 svgShape"/><path fill="#f4b97a" d="M392.32 526.19c4.73 3.06 8.6 7.49 13.79 9.69a31.87 31.87 0 0 0 6.3 1.77 139.78 139.78 0 0 0 44.89 1.66 44.74 44.74 0 0 0 22-9.53c-.7.57-7.75-.69-8.82-1l-9.6-3q-9.35-2.93-18.7-5.82c-5.94-1.83-12.13-4.49-18.25-5.55-4.55-.79-10 1.4-14.2 2.89a73.29 73.29 0 0 0-17.41 8.89Z" class="colorf49a7a svgShape"/><path fill="#facb99" d="M392.73 524.37c4.73 3.07 8.6 7.5 13.79 9.7a32.76 32.76 0 0 0 6.3 1.77 139.78 139.78 0 0 0 44.89 1.66c7.84-1 15.92-2.78 22-7.78-.7.56-7.75-2.44-8.82-2.78l-9.6-3q-9.35-2.93-18.7-5.82c-5.93-1.83-12.13-4.49-18.25-5.55-4.55-.79-10 1.4-14.2 2.89a73.07 73.07 0 0 0-17.41 8.91ZM496.4 451c4.43.62 8.6 2.43 12.7 4.23 5.35 2.33 10.74 4.69 15.54 8s9.06 7.68 11.29 13.06 2.35 11.63 1.33 17.45c-.52 2.91-1.36 5.91-3.39 8.07a2.24 2.24 0 0 1-1.32.8 1.73 1.73 0 0 1-1.7-1.46 5.16 5.16 0 0 1 .27-2.42 9.73 9.73 0 0 1-4.91 4.34 2.07 2.07 0 0 1-1.31.19c-1.4-.38-1-2.45-.33-3.73 2.39-4.71 3.89-10.11 2.79-15.27s-5.36-9.86-10.62-10.21a2.38 2.38 0 0 0-1.58.3c-1.18.81-.49 2.65.34 3.81a59.86 59.86 0 0 0 4.87 6c1.29 1.4 2.69 2.82 3.24 4.64s-.13 4.18-1.94 4.77-3.64-.77-4.93-2.16c-3.7-4-6.34-9-10.75-12.18-2.43-1.75-5.35-2.88-7.36-5.1a46.84 46.84 0 0 1-3.15-4.57 16.21 16.21 0 0 0-9-6.09c-1.93-.52-8.31.27-8.59-1.21-.45-2.36 4.83-7.76 6.46-8.9 3.47-2.36 7.96-2.92 12.05-2.36ZM382.75 346.18c-5.33 9.34-17.19 13-27.94 12.71-21-.55-39.7-12.54-57.2-24.11 1.23.81 11.93-12.46 13-13.84a95.19 95.19 0 0 0 15.05-29 80.3 80.3 0 0 0 1.54-5.36c1.05-4.13.81-15.27 3.7-17.83 8.56 5 16.29 12.89 24.05 19.14a8.13 8.13 0 0 1 2.7 3c.68 1.64.25 3.51-.17 5.24a59.53 59.53 0 0 0-1.9 13.58c-.07 5.89 1.19 11.55 4.89 16 3.26 4 8 6.37 12.32 9.13s8.56 6.39 9.96 11.34Z" class="colorfab499 svgShape"/><path fill="#b77128" d="M248.78 534.05a35.49 35.49 0 0 0-.78 10.05c.37 3.36 1.85 6.74 4.64 8.65a17.35 17.35 0 0 0 5.09 2.09 363.4 363.4 0 0 0 149.57 10.81q3.78-8 7-16.22c1.56-4 3-8.49 1.51-12.53-1.3-3.52-4.57-5.88-7.65-8l-15.84-11a43.27 43.27 0 0 1-8.28-6.83c-1.77-2.05-3.15-4.42-4.93-6.46-7-8-18.8-9.61-29.44-9.24a120.55 120.55 0 0 0-33.82 6.08 4.61 4.61 0 0 1-3.41.22 5.37 5.37 0 0 1-1.88-2.26c-3.46-5.63-10.53-7.54-16.41-10.53s-21.77-17.83-28.49-13c-3.88 2.78-6.09 12.94-7.55 17.31A185.86 185.86 0 0 0 253 512c-1.62 7.29-2.92 14.67-4.22 22.05Z" class="colorb76428 svgShape"/><path fill="#f4b97a" d="M532 493.62a.59.59 0 0 1-.22-.05.57.57 0 0 1-.3-.74 9.93 9.93 0 0 0-3.84-12 .57.57 0 0 1 .58-1 11 11 0 0 1 4.3 13.4.57.57 0 0 1-.52.39Z" class="colorf49a7a svgShape"/><path fill="#fe9526" d="M386.9 342.92c-2.47.73-4.36 2.71-5.89 4.79a34.41 34.41 0 0 0-6.11 14.06 62.72 62.72 0 0 0-.78 11.62c0 15.47 1.14 31 4.9 46s10.25 29.49 20.23 41.31c3.13 3.7 6.66 7.17 11 9.4a31 31 0 0 0 8.46 2.8 83.38 83.38 0 0 0 16.11 1q24.69-.11 49.34-2.06a39.64 39.64 0 0 1 5.8-22.44 236.61 236.61 0 0 1-52.94-8.4c-4.13-1.15-8.44-2.54-11.31-5.72-2.47-2.72-3.54-6.4-4.47-10-5.41-20.53-8.71-41.59-14.52-62-2.17-7.38-9.03-23.56-19.82-20.36Z" class="colorf89636 svgShape"/><path fill="#fb982f" d="M319.41 339.55c10.23 5.65 21.71 9.57 33.39 9.16s23.52-5.62 30.15-15.24c6.84 5 9.81 13.67 11.41 22 3.81 19.8 2 40.29-1.7 60.11s-9.3 39.24-13.15 59c-1 5.26-1.9 10.82-.11 15.87 1.1 3.1 3.21 6.2 2.42 9.4-1.14 4.57-7 5.68-11.73 5.81a395.74 395.74 0 0 1-47.46-1.54 110.35 110.35 0 0 1-21.31-3.58 120.55 120.55 0 0 1-18.49-7.76q-8.43-4.14-16.79-8.42c-1.8-.93-3.71-2-4.62-3.79-1.23-2.48-.14-5.44.92-8a247.46 247.46 0 0 0 12.38-39.17 65.74 65.74 0 0 0 2-14.47c0-16.78-10.94-33.29-6.33-49.43 1.66-5.81 5.21-10.87 8.88-15.67q5.82-7.62 12.2-14.77c3.07-3.44 8.7-9.73 14-8.71 4.53.87 9.78 6.89 13.94 9.2Z" class="colorfbae2f svgShape"/><path fill="#595bd4" d="M352.36 341.4c-1.15 2.7-2.14 6.49.37 8 1 .63 2.4.6 3.37 1.33 2.32 1.72.5 5.29-1 7.79a21.8 21.8 0 0 0 1.62 23.91 33.84 33.84 0 0 1 4.34-22.62c-.82 2.66.88 5.45 2.88 7.38s4.44 3.55 5.71 6c1.89 3.67.72 8.11 1.07 12.24.71 8.13 8.49 15 16.64 14.68-1.35-5.65-6-9.78-9.64-14.31s-6.44-10.94-3.56-16c1.53 5.41 6 9.39 9.48 13.8a45.07 45.07 0 0 1 9.66 28.63c-2.1-8.18-.95-16.8-1.56-25.22s-3.7-17.59-11.19-21.5a7.32 7.32 0 0 1 6.8 1.82 43.78 43.78 0 0 0-2.6-10.12 10.78 10.78 0 0 1 7.9 11.23q.45-10.32.88-20.62a19.89 19.89 0 0 0-.42-6.49c-1.6-5.57-7.39-8.59-11.56-12.62-5.54-5.36-8.42-13-9.4-20.64s.43-15.19.36-22.85c-9.27 5-13.94 9.2-13.69 19.69a87.08 87.08 0 0 1-6.46 36.49Z" class="color3b4862 svgShape"/><path fill="#f4b97a" d="M357.45 296.16a59.53 59.53 0 0 0-1.9 13.58 15.55 15.55 0 0 1-2.16.1c-6.59-.15-12.49-4.06-17.51-8.34a131.91 131.91 0 0 1-10.25-9.5 80.3 80.3 0 0 0 1.54-5.36c1.05-4.13.81-15.27 3.7-17.83 8.56 5 16.29 12.89 24.05 19.14a8.13 8.13 0 0 1 2.7 3c.68 1.61.25 3.48-.17 5.21Z" class="colorf49a7a svgShape"/><path fill="#facb99" d="M339.12 297.1c5 4.29 10.91 8.2 17.51 8.34 8 .18 15.29-5.45 19.18-12.46s5-15.19 5.56-23.18c.63-8.69.67-17.78-3.1-25.64-6.69-14-25.39-20.17-39.65-14.1-13.2 5.63-20.65 19.81-21.34 33.71-.66 13.23 12.63 25.48 21.84 33.33Z" class="colorfab499 svgShape"/><path fill="#595bd4" d="M364.38 238.08c-3.59-2.11-7.63-3.74-11.8-3.6a21.34 21.34 0 0 0-9 2.7 37.86 37.86 0 0 0-18.27 21.91c-2.78 8.87-2.16 18.4-3.07 27.66a83.26 83.26 0 0 1-7.24 26.57 37.71 37.71 0 0 0-9.08-15.46c-5.31 3.68-1.72 13.37-6.61 17.58-5.17-3.26-8.58-8.77-10.58-14.55S286 289 285 283c-.39-2.32-.81-4.77 0-7s3.5-3.88 5.6-2.81c-2.27-4-6.18-6.85-8.77-10.66a19.92 19.92 0 0 1 2-24.17c1.39-1.45 3.25-2.76 5.24-2.51.74.09 1.45.39 2.2.43 3.36.16 4.4-4.36 6.16-7.24 1.6-2.62 4.44-4.21 7.2-5.57 8.7-4.31 18-7.66 27.63-8.78s19.71.07 28.4 4.41c16.09 8 26.76 28.71 22.06 46.47-2.83-11.32-7.96-21.39-18.34-27.49Z" class="color3b4862 svgShape"/><path fill="#2a2a37" d="M313.16 289.72a.56.56 0 0 1-.5-.31c-5.47-10.43-5.83-24.24-1-38.85 2.72-8.28 6.28-14.68 10.88-19.59 5.57-5.95 12.83-9.51 19.92-9.79a.54.54 0 0 1 .59.55.56.56 0 0 1-.54.58c-6.8.27-13.77 3.7-19.15 9.44-4.48 4.78-8 11-10.63 19.16-4.72 14.32-4.38 27.81.94 38a.55.55 0 0 1-.24.76.48.48 0 0 1-.27.05Z" class="color2a2b37 svgShape"/><path fill="#2a2a37" d="M305.35 293.08a.56.56 0 0 1-.46-.23c-5.56-7.68-8.25-17.69-7.57-28.21.59-9.19 3.65-18.6 9.09-28A48.9 48.9 0 0 1 317 223.48a.57.57 0 0 1 .73.87 48.16 48.16 0 0 0-10.31 12.89c-5.35 9.22-8.36 18.46-8.94 27.47-.66 10.26 1.95 20 7.36 27.47a.56.56 0 0 1-.46.9ZM297.07 303.46a.59.59 0 0 1-.52-.33l-4.81-10.23a17.24 17.24 0 0 1-1.92-5.84 6.15 6.15 0 0 1 2.52-5.73.56.56 0 0 1 .78.18.57.57 0 0 1-.18.78 5 5 0 0 0-2 4.69 16 16 0 0 0 1.81 5.44l4.82 10.23a.57.57 0 0 1-.27.75.53.53 0 0 1-.23.06ZM289.12 263.79a.56.56 0 0 1-.53-.37 19.62 19.62 0 0 1 5-20.46.57.57 0 0 1 .77.83 18.48 18.48 0 0 0-4.7 19.25.55.55 0 0 1-.34.72.58.58 0 0 1-.2.03Z" class="color2a2b37 svgShape"/><path fill="#facb99" d="M323.78 488.42c-1.63 2.29-3 5.28-1.8 7.82 1 2.13 3.55 3.16 5.91 3.13 1.2 0 2.49-.23 3.55.34 2.05 1.11 1.73 4.08 2.47 6.29.9 2.66 3.5 4.32 5.15 6.6 2.13 2.94 2.55 6.74 3.6 10.23a28.21 28.21 0 0 0 5.44 10 6.11 6.11 0 0 0 2.57 2 2.39 2.39 0 0 0 2.86-1c1.3 3.47 3.13 7.42 6.75 8.23a2.84 2.84 0 0 0 2.32-.33c1.62-1.23.37-3.83.88-5.79a7.9 7.9 0 0 0 2.92 5.49 3.52 3.52 0 0 0 1.82.85c1.83.19 3.16-1.85 3.26-3.69s-.56-3.64-.52-5.47c.59 1.49 1.74 3.29 3.29 2.89 1.12-.3 1.6-1.61 1.83-2.76a25.07 25.07 0 0 0-.25-10.63c.66 1.29 2.05 2.8 3.26 2a2.66 2.66 0 0 0 .83-2.06c.43-4.88.82-10-1.18-14.48a24.67 24.67 0 0 0-3.61-5.41 75.08 75.08 0 0 0-27.31-20.62c-4.38-1.93-10-3.72-14.81-2.18-3.75 1.27-7.01 5.48-9.23 8.55Z" class="colorfab499 svgShape"/><path fill="#f4b97a" d="M352.2 531.44a.58.58 0 0 1-.55-.4 148.18 148.18 0 0 0-7.56-20 .57.57 0 0 1 1-.48 150.94 150.94 0 0 1 7.62 20.14.57.57 0 0 1-.38.71ZM362.23 532.58a.57.57 0 0 1-.55-.41c-2.23-7.94-6.41-15.23-10.46-22.28a.57.57 0 0 1 1-.56c4.07 7.11 8.29 14.46 10.57 22.53a.57.57 0 0 1-.4.7.39.39 0 0 1-.16.02ZM370 529.94a.55.55 0 0 1-.56-.48 49 49 0 0 0-8.73-21.72.57.57 0 1 1 .91-.67 50.2 50.2 0 0 1 8.94 22.23.58.58 0 0 1-.48.64ZM373.9 517.27a.57.57 0 0 1-.56-.47 45.67 45.67 0 0 0-5.28-14.74.56.56 0 0 1 .22-.77.57.57 0 0 1 .77.21 47.06 47.06 0 0 1 5.41 15.11.57.57 0 0 1-.47.65Z" class="colorf49a7a svgShape"/><path fill="#fe9526" d="M294.76 352.53c-5.8-.25-10.38 4.85-13.23 9.92-10.06 17.89-9.76 39.67-7.86 60.11a473 473 0 0 0 6.83 47.26 35.23 35.23 0 0 0 2.51 8.65c3.22 6.64 10 10.65 16.44 14.26 7.92 4.47 15.95 9 24.72 11.37.61-5.23 4-9.65 7.3-13.78 2.21-2.78 4.49-5.62 7.5-7.5s7-2.65 10.15-1.05c-2.43-3.81-7.21-5.21-11.5-6.67a88.28 88.28 0 0 1-21.13-10.49 13.74 13.74 0 0 1-3.92-3.55 14 14 0 0 1-1.77-6.25 129.66 129.66 0 0 1-.81-13.93c0-5.39.29-10.78.6-16.16.88-15.26 3.49-31.49 2.52-46.74-.31-4.85-2.83-8.71-5-13-2.74-5.33-6.43-12.16-13.35-12.45Z" class="colorf89636 svgShape"/><path fill="#f4b97a" d="M361.87 215.93c-3.5-2.36-7.77-4.21-12-3.65a4.57 4.57 0 0 0-2.62 2c-1 1.62.89 3.47 2.53 4.44l5.78 3.44a48.89 48.89 0 0 0-13.3 5.68 9.87 9.87 0 0 0-3.74 3.45 3.88 3.88 0 0 0 .54 4.72c-1.16 1-2.38 2.08-2.69 3.57s.93 3.33 2.41 3c-.25 1.64-.39 3.59.87 4.67s3.05.66 4.59.23l8.25-2.3c.05 2.16 2.92 2.85 5.08 2.9l20.36.41c2.58 5 2.88 10.64 4.1 16.13s11.63-26.6 7.2-30.4c-8.11-6.96-18.47-12.28-27.36-18.29Z" class="colorf49a7a svgShape"/><path fill="#facb99" d="M362.65 215a17.7 17.7 0 0 0-12.07-2.84 3.31 3.31 0 0 0-2.51 1.22c-1 1.62.88 3.46 2.53 4.44l5.78 3.44a48.45 48.45 0 0 0-13.3 5.68 9.87 9.87 0 0 0-3.74 3.45 3.88 3.88 0 0 0 .54 4.72c-1.16 1-2.39 2.08-2.69 3.57s.92 3.32 2.41 3c-.25 1.63-.39 3.59.87 4.67s3 .66 4.59.23l8.25-2.3c.05 2.16 2.91 2.85 5.08 2.9l20.35.41c2.59 5 2.89 10.64 4.11 16.12s3.3 11.17 7.79 14.54a18.94 18.94 0 0 0 6.46 3 19.91 19.91 0 0 0 10.77.14 12.69 12.69 0 0 0 8.08-6.79c1.46-3.39 1.06-7.32-.12-10.82-2.42-7.2-7.76-13-13.09-18.4-4.09-4.16-8.26-8.25-12.69-12-8.15-7.05-18.51-12.38-27.4-18.38Z" class="colorfab499 svgShape"/><path fill="#f4b97a" d="M356.61 242.85a.54.54 0 0 1-.52-.36.55.55 0 0 1 .31-.73 65 65 0 0 1 17.26-4.23.56.56 0 1 1 .11 1.12 64.31 64.31 0 0 0-16.95 4.16.52.52 0 0 1-.21.04ZM343.36 240.93a.59.59 0 0 1-.52-.32.58.58 0 0 1 .27-.76 95 95 0 0 1 23.24-7.55h.14l1.51-.3.18 1.12a93 93 0 0 0-24.62 7.76.69.69 0 0 1-.2.05ZM343.54 234a.58.58 0 0 1-.51-.31.57.57 0 0 1 .26-.76 81.31 81.31 0 0 1 9.67-4.17 49.19 49.19 0 0 1 11.87-2.48.56.56 0 1 1 .1 1.12 49 49 0 0 0-11.61 2.43 82.81 82.81 0 0 0-9.53 4.11.54.54 0 0 1-.25.06ZM312.67 323.77c3.71 1.73 7.28 4.11 9.41 7.6a2.78 2.78 0 0 1 .54 2.11c-.2.73-1.23 1.19-1.73.63a5.59 5.59 0 0 1 2.23 3.31 1.77 1.77 0 0 1 0 .94 1.48 1.48 0 0 1-1.53.9 4.22 4.22 0 0 1-1.79-.65 1.77 1.77 0 0 1-.19 2.65 3.19 3.19 0 0 1-2.92.29 18.63 18.63 0 0 1-2.69-1.41c-1.45-.79-4.09-3.83-5.72-4 .4 1-2.05-.24-3.06.21s-.3-16.19 7.45-12.58Z" class="colorf49a7a svgShape"/><path fill="#facb99" d="M267.13 330.89a5.89 5.89 0 0 0 4.28-.47c5.43-2.23 9.82-6.5 15.21-8.82 7.85-3.37 17.1-2.23 24.84 1.38 3.71 1.73 7.28 4.11 9.42 7.6a2.8 2.8 0 0 1 .54 2.12c-.2.72-1.23 1.18-1.73.63a5.53 5.53 0 0 1 2.22 3.3 1.87 1.87 0 0 1 0 .94 1.49 1.49 0 0 1-1.54.9 4.35 4.35 0 0 1-1.78-.64 1.76 1.76 0 0 1-.2 2.64 3.14 3.14 0 0 1-2.91.29 18.73 18.73 0 0 1-2.7-1.41 12.81 12.81 0 0 0-4.67-1.47 2.28 2.28 0 0 1-1.39 2.69 6.34 6.34 0 0 1-3.3.22c-6.49-.75-13.53-2.05-19.2 1.21-2.31 1.33-4.18 3.33-6.44 4.75-4.08 2.56-9.08 3.05-13.88 3.47-12.53 1.1-25.82.57-38.41.65a144.28 144.28 0 0 1-15.14-.43c-9.67-1-19-3.87-28.32-6.76a15.13 15.13 0 0 1-6-2.93 10 10 0 0 1-2.55-4.18c-2.44-7.19 1.56-15.82 8.48-18.95 4.24-1.91 9.13-1.9 13.69-1s8.87 2.75 13.23 4.37c18.12 6.77 38.87 10.01 58.25 9.9Z" class="colorfab499 svgShape"/><path fill="#c1f1c9" d="M372.4 578.7H85.5l52.08-47.52h182.74l52.08 47.52z" class="colorc1e7f1 svgShape"/><path fill="#addeb5" d="M102.33 578.7h250.89v11.74H102.33z" class="coloradd7de svgShape"/><path fill="#74cb83" d="M118.76 590.45h7.44v21.14h-7.44zM331.54 590.45h7.44v21.14h-7.44z" class="color74cbc6 svgShape"/><path fill="#f1d7bb" d="M209.33 525.48c0-3.4.42-7 2.66-9.59a10.5 10.5 0 0 1 5.5-3.13 6.76 6.76 0 0 1 8.25 3.76 14.29 14.29 0 0 1 1.95 8.82 33.88 33.88 0 0 1-1.12 5.06 78.2 78.2 0 0 0-2.44 15.66 165.27 165.27 0 0 1-3.48-22.76 5.93 5.93 0 0 0-.55-2.44 2 2 0 0 0-2.08-1.08c-1 .26-1.41 1.48-1.63 2.52q-1.08 5-2.15 10.05a1.21 1.21 0 0 1-.38.78c-1.27.89-3.67-.1-4.13-1.39-.64-1.74-.4-4.38-.4-6.26Z" class="colorf1e5bb svgShape"/><path fill="#ddbd9b" d="M227.51 546.81c0 14-16.42 25.43-36.67 25.43s-36.67-11.39-36.67-25.43 16.42-25.42 36.67-25.42 36.67 11.38 36.67 25.42Z" class="colorddcd9b svgShape"/><path fill="#f1d7bb" d="M212.78 526.63c0 2.9-9.9 5.25-22.11 5.25s-22.11-2.35-22.11-5.25 9.9-5.24 22.11-5.24 22.11 2.35 22.11 5.24ZM150.13 543.07c1.06.86 2.28 1.52 3.3 2.44 2.31 2.09 3.25 5.23 4.53 8.06a59.16 59.16 0 0 0 4.29 7.55 19.09 19.09 0 0 0 4 4.86 9.53 9.53 0 0 0 13.35-13.42 6.22 6.22 0 0 0-2.26-1.88 13.2 13.2 0 0 0-4-.69 15.87 15.87 0 0 1-12.68-9.62 1.57 1.57 0 0 0-.56-.83 1.48 1.48 0 0 0-.81-.13l-8.46.27c-.78 0-2.26-.21-2.52.76s1.29 2.19 1.82 2.63Z" class="colorf1e5bb svgShape"/><path fill="#e2f8e6" d="M160.61 540.39a.4.4 0 0 1 0 .19c-.31 1-3 1.7-6.15 1.7-2.75 0-5.09-.55-5.89-1.31a.81.81 0 0 1-.3-.58c0-1 2.77-1.88 6.19-1.88s6.15.85 6.15 1.88Z" class="colorf8f4e2 svgShape"/><path fill="#ddbd9b" d="M160.58 540.58c-.31 1-3 1.7-6.15 1.7-2.75 0-5.09-.55-5.89-1.31.31-1 3-1.7 6.15-1.7 2.76 0 5.09.55 5.89 1.31ZM207.11 526.35c0 1-4.3 1.84-10.34 2.16-1.73.09-3.62.15-5.58.15s-3.64 0-5.3-.13c-6.19-.32-10.62-1.17-10.62-2.18 0-1.27 7.12-2.31 15.92-2.31s15.92 1.04 15.92 2.31Z" class="colorddcd9b svgShape"/><path fill="#e2f8e6" d="M196.78 528.39v.12c-1.73.09-3.62.15-5.58.15s-3.64 0-5.3-.13v-.14c0-1.12 2.44-2 5.45-2s5.43.88 5.43 2Z" class="colorf8f4e2 svgShape"/><path fill="#ddbd9b" d="m265.37 536.15 8.66 28.28h27.01l8.66-28.28h-44.33z" class="colorddcd9b svgShape"/><path fill="#e2f8e6" d="M309.7 536.15a3.15 3.15 0 0 1-1.75 2.42c-3.38 2.23-11.25 3.78-20.42 3.78s-17-1.55-20.41-3.78a3.16 3.16 0 0 1-1.76-2.42c0-3.43 9.93-6.21 22.17-6.21s22.17 2.78 22.17 6.21Z" class="colorf8f4e2 svgShape"/><path fill="#f1d7bb" d="M308 538.07a2.08 2.08 0 0 1-.07.5c-3.38 2.23-11.25 3.78-20.42 3.78s-17-1.55-20.41-3.78a1.68 1.68 0 0 1-.07-.5c0-3.46 9.17-6.26 20.48-6.26s20.49 2.8 20.49 6.26Z" class="colorf1e5bb svgShape"/><path fill="#ddbd9b" d="M301 564.43c0 2.12-6.05 3.83-13.51 3.83s-13.5-1.71-13.5-3.83 6.05-3.83 13.5-3.83 13.51 1.71 13.51 3.83Z" class="colorddcd9b svgShape"/><path fill="#3abd51" d="M662.93 517.06h13.01c-.55-139.18 52.35-271.42 60.9-291.88.71-1.69 1.1-2.61 1.15-2.72l-11.89-5.25c-.16.36-16.17 36.91-31.84 91.8-14.47 50.61-31.64 127.84-31.33 208.05Z" class="colora4bd3a svgShape"/><path fill="#53d86a" d="M667.26 517h8.68c-.55-139.18 52.35-271.42 60.9-291.88l-6.41-2.83c-.17.36-16.18 36.91-31.84 91.79-14.16 49.59-30.92 124.61-31.33 202.92Z" class="color789a3d svgShape"/><path fill="#53d86a" d="M722.05 221.53h17.16v3.11h-17.16z" class="color789a3d svgShape" transform="rotate(-156.74 730.619 223.104)"/><path fill="#53d86a" d="M700.43 280.65h17.15v3.11h-17.15z" class="color789a3d svgShape" transform="rotate(-161.56 709.018 282.194)"/><path fill="#53d86a" d="M680.67 351.21h17.16v3.1h-17.16z" class="color789a3d svgShape" transform="rotate(-166.41 689.249 352.766)"/><path fill="#53d86a" d="M666.36 429.42h17.16v3.11h-17.16z" class="color789a3d svgShape" transform="rotate(-171.47 674.94 430.968)"/><path fill="#53d86a" d="M694.56 272.92s11.94-29.23 25.94-25.52c0 0-5.35 23.46-25.94 25.52Z" class="color789a3d svgShape"/><path fill="#53d86a" d="M704 234.62s16.83 4.67 16.52 13.88c-.03 0-13.04-1.07-16.52-13.88Z" class="color789a3d svgShape"/><path fill="#3abd51" d="M737.53 280.14s-24.68-19.7-17.18-32.08c0 0 21 11.75 17.18 32.08Z" class="colora4bd3a svgShape"/><path fill="#3abd51" d="M743.81 243.28S726.78 255 720.5 248c0 0 11.36-11 23.31-4.72Z" class="colora4bd3a svgShape"/><path fill="#53d86a" d="M648.42 471.26s9.27-30.18 23.54-27.75c.04 0-3.22 23.85-23.54 27.75Z" class="color789a3d svgShape"/><path fill="#53d86a" d="M654.35 432.26s17.18 3.14 17.7 12.35c0 0-13.05.1-17.7-12.35Z" class="color789a3d svgShape"/><path fill="#3abd51" d="M691.86 474.59s-26.35-17.4-20-30.41c.01 0 21.99 9.82 20 30.41Z" class="colora4bd3a svgShape"/><path fill="#3abd51" d="M694.81 437.32s-15.91 13.21-22.8 6.76c-.01 0 10.34-11.91 22.8-6.76Z" class="colora4bd3a svgShape"/><path fill="#53d86a" d="M670.28 361.15s11.71-16.22 19.77-11.86c0 0-6.78 13.65-19.77 11.86Z" class="color789a3d svgShape"/><path fill="#53d86a" d="M681.78 339s9.66 5.38 8.1 11c0 0-7.88-2.63-8.1-11Z" class="color789a3d svgShape"/><path fill="#3abd51" d="M695.67 372s-12.27-15.8-5.81-22.31c0-.02 11.19 10.31 5.81 22.31Z" class="colora4bd3a svgShape"/><path fill="#3abd51" d="M705 350.23s-12.23 4.68-15-.59c0 0 8.59-5.04 15 .59Z" class="colora4bd3a svgShape"/><path fill="#53d86a" d="M658.29 518h.12a.93.93 0 0 0 .8-1c-7.94-59.62 5.18-137.87 17.57-193 13.44-59.78 29-106 29.12-106.48a.94.94 0 0 0-.59-1.18.92.92 0 0 0-1.17.59c-.16.46-15.71 46.79-29.17 106.67-12.43 55.28-25.57 133.76-17.6 193.65a.93.93 0 0 0 .92.75Z" class="color789a3d svgShape"/><path fill="#3abd51" d="M698.14 207.91s9.16 11.8 4.33 16.62c0 0-8.34-7.75-4.33-16.62Z" class="colora4bd3a svgShape"/><path fill="#53d86a" d="M692.87 215s11 4.08 9.88 9.55c0-.02-8.75-1.66-9.88-9.55Z" class="color789a3d svgShape"/><path fill="#3abd51" d="M671.2 308.81s9.16 11.81 4.34 16.62c0 0-8.35-7.75-4.34-16.62Z" class="colora4bd3a svgShape"/><path fill="#53d86a" d="M665.94 315.88s11 4.08 9.87 9.55c0 0-8.72-1.63-9.87-9.55Z" class="color789a3d svgShape"/><path fill="#3abd51" d="M690.3 284.92s-9.24 6.19-7 10.73c.03 0 7.75-3.51 7-10.73Z" class="colora4bd3a svgShape"/><path fill="#53d86a" d="M692.36 291.16s-8.71.3-9.23 4.42c0 0 6.56.9 9.23-4.42Z" class="color789a3d svgShape"/><path fill="#3abd51" d="M672.1 373.11s-9.25 6.18-7 10.72c.03 0 7.75-3.51 7-10.72Z" class="colora4bd3a svgShape"/><path fill="#53d86a" d="M674.16 379.35s-8.71.29-9.23 4.42c0 0 6.55.9 9.23-4.42Z" class="color789a3d svgShape"/><path fill="#3abd51" d="M625.72 516.84h-9.83c.42-105.16-39.55-205.08-46-220.54-.53-1.28-.83-2-.86-2.05l9-4c.11.27 12.21 27.89 24 69.36C613 397.87 626 456.23 625.72 516.84Z" class="colora4bd3a svgShape"/><path fill="#53d86a" d="M622.45 516.82h-6.56c.42-105.16-39.55-205.08-46-220.54l4.86-2.14c.12.27 12.21 27.89 24 69.36 10.73 37.44 23.39 94.12 23.7 153.32Z" class="color789a3d svgShape"/><path fill="#53d86a" d="M568.09 293.54h12.96v2.35h-12.96z" class="color789a3d svgShape" transform="rotate(-23.25 574.565 294.722)"/><path fill="#53d86a" d="M584.43 338.21h12.96v2.35h-12.96z" class="color789a3d svgShape" transform="rotate(-18.44 590.74 339.322)"/><path fill="#53d86a" d="M599.35 391.52h12.96v2.35h-12.96z" class="color789a3d svgShape" transform="rotate(-13.59 605.597 392.58)"/><path fill="#53d86a" d="M610.17 450.62h12.96v2.35h-12.96z" class="color789a3d svgShape" transform="rotate(-8.53 616.565 451.706)"/><path fill="#53d86a" d="M601.82 332.37s-9-22.09-19.6-19.29c0 0 4.05 17.73 19.6 19.29Z" class="color789a3d svgShape"/><path fill="#53d86a" d="M594.71 303.42S582 307 582.23 313.92c0 0 9.83-.81 12.48-10.5Z" class="color789a3d svgShape"/><path fill="#3abd51" d="M569.36 337.82s18.65-14.88 13-24.24c-.02 0-15.89 8.88-13 24.24Z" class="colora4bd3a svgShape"/><path fill="#3abd51" d="M564.61 310s12.87 8.86 17.61 3.54c0-.03-8.58-8.29-17.61-3.54Z" class="colora4bd3a svgShape"/><path fill="#53d86a" d="M636.69 482.23s-7-22.8-17.79-21c0 .03 2.44 18.06 17.79 21Z" class="color789a3d svgShape"/><path fill="#53d86a" d="M632.2 452.76s-13 2.38-13.37 9.34c0 0 9.86.07 13.37-9.34Z" class="color789a3d svgShape"/><path fill="#3abd51" d="M603.86 484.75s19.91-13.15 15.11-23c.03.02-16.61 7.44-15.11 23Z" class="colora4bd3a svgShape"/><path fill="#3abd51" d="M601.63 456.59s12 10 17.23 5.1c0 0-7.81-9-17.23-5.1Z" class="colora4bd3a svgShape"/><path fill="#53d86a" d="M620.17 399s-8.85-12.26-14.94-9c0 .07 5.13 10.39 14.94 9Z" class="color789a3d svgShape"/><path fill="#53d86a" d="M611.48 382.27s-7.3 4.06-6.13 8.32c0 0 5.94-1.97 6.13-8.32Z" class="color789a3d svgShape"/><path fill="#3abd51" d="M601 407.22s9.27-11.94 4.38-16.86c-.01 0-8.46 7.83-4.38 16.86Z" class="colora4bd3a svgShape"/><path fill="#3abd51" d="M593.92 390.78s9.24 3.54 11.37-.44c0 0-6.51-3.81-11.37.44Z" class="colora4bd3a svgShape"/><path fill="#53d86a" d="M629.23 517.54h-.09a.7.7 0 0 1-.61-.79c6-45-3.91-104.16-13.28-145.83-10.15-45.17-21.88-80.11-22-80.46a.69.69 0 0 1 .44-.88.7.7 0 0 1 .89.43c.11.35 11.86 35.37 22 80.6C626 412.38 636 471.68 629.92 516.93a.7.7 0 0 1-.69.61Z" class="color789a3d svgShape"/><path fill="#3abd51" d="M599.12 283.25s-6.92 8.91-3.28 12.56c0 0 6.31-5.81 3.28-12.56Z" class="colora4bd3a svgShape"/><path fill="#53d86a" d="M603.1 288.59s-8.29 3.08-7.47 7.22c0 0 6.6-1.24 7.47-7.22Z" class="color789a3d svgShape"/><path fill="#3abd51" d="M619.47 359.49s-6.92 8.91-3.27 12.56c0 0 6.3-5.86 3.27-12.56Z" class="colora4bd3a svgShape"/><path fill="#53d86a" d="M623.45 364.83s-8.29 3.08-7.46 7.22c.01 0 6.59-1.24 7.46-7.22Z" class="color789a3d svgShape"/><path fill="#3abd51" d="M605 341.44s7 4.67 5.27 8.1c.04 0-5.8-2.65-5.27-8.1Z" class="colora4bd3a svgShape"/><path fill="#53d86a" d="M603.48 346.15s6.59.22 7 3.34c-.02 0-4.97.68-7-3.34Z" class="color789a3d svgShape"/><path fill="#3abd51" d="M618.79 408.07s7 4.67 5.28 8.1c0 0-5.84-2.65-5.28-8.1Z" class="colora4bd3a svgShape"/><path fill="#53d86a" d="M617.24 412.78s6.58.23 7 3.34c-.03 0-4.98.68-7-3.34Z" class="color789a3d svgShape"/><path fill="#3abd51" d="M634.54 188.78h10.21v328.05h-10.21z" class="colora4bd3a svgShape"/><path fill="#53d86a" d="M641 188.78h6.66v328.05H641z" class="color789a3d svgShape"/><path fill="#53d86a" d="M631.76 193.84h17.62v2.03h-17.62z" class="color789a3d svgShape" transform="rotate(180 640.57 194.855)"/><path fill="#53d86a" d="M631.76 274.28h17.62v2.03h-17.62z" class="color789a3d svgShape" transform="rotate(180 640.57 275.295)"/><path fill="#53d86a" d="M631.76 354.73h17.62v2.03h-17.62z" class="color789a3d svgShape" transform="rotate(180 640.57 355.74)"/><path fill="#53d86a" d="M631.76 435.17h17.62v2.03h-17.62z" class="color789a3d svgShape" transform="rotate(180 640.57 436.185)"/><path fill="#53d86a" d="M615.94 229.57s11.94-29.23 25.94-25.52c0 0-5.35 23.46-25.94 25.52Z" class="color789a3d svgShape"/><path fill="#53d86a" d="M625.35 191.26s16.83 4.68 16.52 13.89c0 0-13-1.08-16.52-13.89Z" class="color789a3d svgShape"/><path fill="#3abd51" d="M658.91 236.78s-24.68-19.69-17.18-32.08c0 0 21.01 11.75 17.18 32.08Z" class="colora4bd3a svgShape"/><path fill="#3abd51" d="M665.19 199.93s-17 11.73-23.31 4.68c0 0 11.37-10.93 23.31-4.68Z" class="colora4bd3a svgShape"/><path fill="#53d86a" d="M625.15 323.05s7.35-18 16-15.71c-.03 0-3.32 14.45-16 15.71Z" class="color789a3d svgShape"/><path fill="#53d86a" d="M631 299.47s10.35 2.87 10.17 8.55c-.05-.02-8.06-.67-10.17-8.55Z" class="color789a3d svgShape"/><path fill="#3abd51" d="M651.6 327.49s-15.19-12.12-10.6-19.75c0 0 13 7.26 10.6 19.75Z" class="colora4bd3a svgShape"/><path fill="#3abd51" d="M655.47 304.8s-10.47 7.2-14.35 2.89c0 0 7-6.69 14.35-2.89Z" class="colora4bd3a svgShape"/><path fill="#53d86a" d="M626 411.71s7.35-18 16-15.72c-.07.01-3.37 14.45-16 15.72Z" class="color789a3d svgShape"/><path fill="#53d86a" d="M631.75 388.13s10.36 2.87 10.17 8.55c0 0-8-.68-10.17-8.55Z" class="color789a3d svgShape"/><path fill="#3abd51" d="M652.41 416.15S637.22 404 641.84 396.4c0 0 12.93 7.23 10.57 19.75Z" class="colora4bd3a svgShape"/><path fill="#3abd51" d="M656.28 393.46s-10.49 7.22-14.35 2.88c0 0 7-6.73 14.35-2.88Z" class="colora4bd3a svgShape"/><path fill="#fe9526" d="M609.7 515.21h73.71v73.71H609.7z" class="colorf89636 svgShape"/><path fill="#eeb67a" d="M447.8 18.73h5.57V114h-5.57z" class="coloree7e7a svgShape"/><path fill="#eeb67a" d="M455.65 137.31h-10.39v-29.49a3.45 3.45 0 0 1 3.46-3.45h3.48a3.45 3.45 0 0 1 3.45 3.45Z" class="coloree7e7a svgShape"/><path fill="#eeb67a" d="M481.37 194.26c0 2.56-.08 5.1-.24 7.57-.05.7-.11 1.4-.16 2.08-2.38 3.39-15.1 6-30.43 6-17 0-30.81-3.21-30.81-7.16a112.4 112.4 0 0 1-.32-8.48c0-32.93 13.87-59.61 31-59.61s30.96 26.67 30.96 59.6Z" class="coloree7e7a svgShape"/><path fill="#fdebd7" d="M481.37 202.74a2.09 2.09 0 0 1-.4 1.17c-2.38 3.39-15.1 6-30.43 6-17 0-30.81-3.21-30.81-7.16 0-3.34 9.86-6.15 23.18-6.93 2.44-.16 5-.23 7.63-.23 3.26 0 6.41.12 9.36.33 11.26.84 19.71 3.14 21.23 5.92a1.91 1.91 0 0 1 .24.9Z" class="colorfdf2d7 svgShape"/><path fill="#fb982f" d="M459.9 195.91a8.55 8.55 0 0 1-17-.1c2.44-.16 5-.23 7.63-.23 3.27 0 6.47.12 9.37.33Z" class="colorfbae2f svgShape"/><path fill="#fdebd7" d="M442.26 260.8h9.48v9.48h-9.48zM453.59 260.8h9.48v9.48h-9.48zM464.92 260.8h9.48v9.48h-9.48zM476.25 260.8h9.48v9.48h-9.48zM487.58 260.8h9.48v9.48h-9.48zM447.92 271.72h9.48v9.48h-9.48zM459.26 271.72h9.48v9.48h-9.48zM470.59 271.72h9.48v9.48h-9.48zM481.92 271.72h9.48v9.48h-9.48zM498.91 260.8h9.48v9.48h-9.48zM465.5 283.22h9.48v9.48h-9.48zM476.83 283.22h9.48v9.48h-9.48zM471.17 294.13h9.48v9.48h-9.48zM488.16 283.22h9.48v9.48h-9.48z" class="colorfdf2d7 svgShape"/></svg>