<svg xmlns="http://www.w3.org/2000/svg" data-name="Layer 1" viewBox="0 0 716.936 600"><path fill="#bdf4ea" d="M229.0273,523.2467,86.5482,523.154s-51.6829-96.7789,38.3585-218.3855C214.9484,183.162,29.4331,164.2923,184.0423,93.0058S347.9074,280.8223,502.6258,282.3122c154.7179,1.4899,142.7465,155.3917,141.394,241.9801Z"/><path fill="#bdf4ea" d="M335.2027,104.166s41.946,140.3587,151.005,154.5951c109.059,14.2368,132.1294-31.4593,121.6429-77.2977-10.4864-45.8381-169.3299-17.5249-201.5888-68.9085S319.6173,65.8639,335.2027,104.166Z"/><path fill="#19723d" d="M494.3461,448.4832s-26.9304-25.7331,0-49.8524c26.9308-24.1189-2.4314-19.7722,4.909-40.297,7.3403-20.5241,23.242-17.7607,21.0588-42.2124-2.1831-24.4525,27.1787-9.7714,27.1787,15.3965,0,25.1676,28.3132,39.8486,0,65.0158-28.3132,25.1679,33.3262-3.7076,15.6147,32.752C563.1073,429.2857,539.7722,454.2921,494.3461,448.4832Z"/><path fill="#29a529" d="M524.3704,447.8077s-26.9304-25.7336,0-49.8525c26.9308-24.1186-2.4314-19.7718,4.909-40.2967s23.242-17.761,21.0588-42.2131c-2.1831-24.4517,27.1787-9.771,27.1787,15.3965,0,25.1679,28.3136,39.8486,0,65.0158-28.3132,25.1678,33.3262-3.7068,15.6147,32.752C593.1316,428.6097,569.7965,453.6165,524.3704,447.8077Z"/><path fill="#19723d" d="M519.271,403.2938s5.5831,46.5325,73.8606,25.3159c0,0-26.5623,29.0444-68.2775,21.2166C524.8541,449.8263,502.5799,424.5157,519.271,403.2938Z" opacity=".6"/><path fill="#b3e84d" d="M81.0344,389.8419s35.7388-109.6956,330.4038-6.1498c0,0,234.2499,115.9235,226.7102,11.8711,0,0,12.2932,79.1046,5.8714,128.7291L86.5482,523.154S55.7309,467.2024,81.0344,389.8419Z"/><path fill="#76bc33" d="M177.7916,340.1033s-118.9877,52.1783-46.2889,117.132c72.6988,64.9539,125.2459,68.9183,142.6014,67.7503S86.5482,523.154,86.5482,523.154s-33.77-60.2135,0-143.1322C86.5482,380.0218,108.0421,345.3567,177.7916,340.1033Z"/><path fill="#29a529" d="M277.2966,484.9747s-9.4422,4.835-7.9396,19.026c1.5028,14.1906-1.1419-23.8151-18.9764-35.1365-15.1975-9.647-14.7164,5.9538-11.4531,16.7828a69.183,69.183,0,0,0-28.0307-31.243c-24.04-14.3277-17.2788,17.5519-4.5076,40.4266,0,0-22.3754-15.131-11.5634,6.7019,10.8123,21.8333,21.5165,22.4071,21.5165,22.4071l43.3853-.122h41.5431S293.4998,477.6344,277.2966,484.9747Z"/><path fill="#19723d" d="M268.2271,500.0614s-4.4895,23.7449-18.8825,23.7854l42.1151-.0292-13.6212-39.0675S272.163,488.4074,268.2271,500.0614Z"/><path fill="#29a529" d="M450.7145,523.9738H348.8215a9.50018,9.50018,0,0,1-7.4038-3.3425,10.34456,10.34456,0,0,1-2.1324-8.455l12.1556-71.5768c1.0287-6.0578,6.4606-10.803,12.366-10.803H465.699a9.50311,9.50311,0,0,1,7.4046,3.3425,10.34613,10.34613,0,0,1,2.132,8.4553l-12.1554,71.5765C462.0516,519.2286,456.6202,523.9738,450.7145,523.9738Zm-86.9076-88.2356c-2.9888,0-5.9692,2.6819-6.5082,5.8557l-12.1556,71.5769a4.3828,4.3828,0,0,0,.8142,3.6275,3.61019,3.61019,0,0,0,2.8642,1.2337h101.893c2.9887,0,5.9688-2.6815,6.5077-5.8557l12.1555-71.5768a4.37854,4.37854,0,0,0-.8136-3.6268,3.61031,3.61031,0,0,0-2.8651-1.2345Z"/><path fill="#19723d" d="M497.141,515.7081c.8477,4.9904-2.3619,9.0356-7.1679,9.0356H379.4411c-4.8061,0-9.3894-4.0452-10.2367-9.0356L356.018,438.0626c-.8472-4.9905,2.362-9.0357,7.1677-9.0357H473.718c4.8061,0,9.3894,4.0452,10.2371,9.0357Z"/><path fill="#29a529" d="M508.1288,515.9113c.8473,4.9904-2.3623,9.0356-7.1683,9.0356H390.4285c-4.806,0-9.3893-4.0452-10.2367-9.0356l-13.1859-77.6459c-.8481-4.9901,2.3611-9.0353,7.1672-9.0353H484.7054c4.8068,0,9.3894,4.0452,10.2375,9.0353Z"/><path fill="#19723d" d="M503.265,513.2354c.789,4.6464-2.1993,8.4126-6.6734,8.4126H393.6779c-4.4752,0-8.7423-3.7662-9.5317-8.4126L371.869,440.9416c-.789-4.6465,2.1986-8.4126,6.6737-8.4126H481.4565c4.4752,0,8.7419,3.7661,9.5313,8.4126Z"/><rect width="3.844" height="97.245" x="405.338" y="428.466" fill="#29a529" transform="rotate(-10.17 407.26 477.088)"/><rect width="3.845" height="97.245" x="434.58" y="428.466" fill="#29a529" transform="rotate(-10.17 436.502 477.088)"/><rect width="3.845" height="97.245" x="465.257" y="428.466" fill="#29a529" transform="rotate(-10.17 467.18 477.088)"/><rect width="119.118" height="3.845" x="376.004" y="463.366" fill="#29a529"/><rect width="124.534" height="3.845" x="376.68" y="493.309" fill="#29a529"/><path fill="#40b224" d="M344.6408,235.2464s-26.5783-42.179-59.9539-11.6514c0,0-18.9229,16.7921-11.502,47.2877Z"/><path fill="#1d992f" d="M274.1041,240.8419s29.8968-25.2584,57.033-14.9026l-58.8973,44.9434S269.6101,250.3823,274.1041,240.8419Z"/><path fill="#40b224" d="M235.7679,408.2478s-24.3051-62.0912-80.9319-11.1087l29.8648,8.2049S225.4679,422.9034,235.7679,408.2478Z"/><path fill="#1d992f" d="M177.7916,403.4459s19.6823-25.8296,51.8443-6.3068l10.5277,16.9465-55.4628-8.7416Z"/><path fill="#40b224" d="M331.1371,376.3239s18.8941-86.0577,82.7141-39.9177l20.9733,18.4555s-23.8794-3.2159-40.2531,4.1248C394.5714,358.9865,339.2838,377.226,331.1371,376.3239Z"/><path fill="#90ce2e" d="M274.1041,524.9856S309.4276,492.83,286.1737,340.442l-7.8754-43.3395,7.8754-5.5921s39.6584,114.6403,43.8527,233.4752Z"/><path fill="#90ce2e" d="M274.1041,524.9856s19.1529-41.21-17.5496-81.0586l8.9855-4.1947s19.9278,14.1838,25.9197,35.4053C291.4597,475.1376,291.6539,504.3251,274.1041,524.9856Z"/><path fill="#90ce2e" d="M320.4191,432.2361s2.1999-52.2767,37.8542-73.2496c0,0-37.7515,4.1947-46.1406,67.1137l11.2553,25.6005Z"/><path fill="#1d992f" d="M339.1551,354.1421s40.6417-18.8967,67.1067,1.363l-12.3346,3.4814-62.1409,17.3698S334.8563,361.9666,339.1551,354.1421Z"/><path fill="#90ce2e" d="M339.1551,376.6379s50.5771-16.6024,74.6961,21.1486c0,0-2.0975-58.7243-55.5779-38.8C358.2733,358.9865,347.4956,362.2956,339.1551,376.6379Z"/><path fill="#58b232" d="M291.4597,475.1376a118.02368,118.02368,0,0,1,10.6055,49.848h15.3107S311.4858,493.5402,291.4597,475.1376Z"/><path fill="#90ce2e" d="M256.5545,443.927l-26.2161-18.8754,13.1078-4.1947s26.8473,17.0453,42.7275,41.945Z"/><path fill="#90ce2e" d="M243.4462,420.8569s-8.9134-28.3132-41.4214-23.0704c-32.5079,5.2433-39.8484,48.238-39.8484,48.238s44.2316-27.5385,73.7975-16.9153C235.9739,429.1092,259.552,440.204,243.4462,420.8569Z"/><path fill="#40b224" d="M244.9491,277.1674s-24.3053-62.0913-80.9321-11.1088l29.865,8.2049S234.6489,291.8229,244.9491,277.1674Z"/><path fill="#1d992f" d="M186.9728,272.3655s19.6823-25.8297,51.844-6.3069l10.5278,16.9465-55.4626-8.7416Z"/><path fill="#90ce2e" d="M252.6274,289.7765s-8.9136-28.3136-41.4215-23.0704-39.8485,48.2376-39.8485,48.2376,44.2315-27.5385,73.7974-16.915C245.1548,298.0287,268.733,309.1232,252.6274,289.7765Z"/><path fill="#90ce2e" d="M288.7966,358.9865s-17.8348-52.4322-48.633-61.87v-9.4379s43.2067,11.535,51.2961,50.335C291.4597,338.0136,322.0876,372.619,288.7966,358.9865Z"/><path fill="#90ce2e" d="M278.2983,297.1025s-17.998-35.6396,13.1614-61.8561c31.1594-26.2161,53.1811,0,53.1811,0s-46.8494,24.3484-55.5129,56.2644a39.52105,39.52105,0,0,0-1.1014,5.5917C283.8191,331.7219,293.7503,324.3533,278.2983,297.1025Z"/><path fill="#29a529" d="M517.7766,518.7077s-6.0033-75.5356,33.1423-38.8233c0,0-14.4299-35.8707,12.3578-10.0643l19.7974,19.7748s-41.9416-48.4325,15.3788-26.793c0,0,35.212,18.8563,45.5669,61.4904l-126.1076.6933Z"/><circle cx="495.122" cy="200.637" r="29.248" fill="#fff"/><ellipse cx="497.834" cy="200.637" fill="#f2dd44" rx="26.537" ry="29.248"/><path fill="#ef9645" d="M473.9707,370.0521a29.325,29.325,0,1,0-23.8173,33.9504c.5772-.1014,1.1458-.2235,1.7091-.3565l15.0195,15.356-3.6549-20.8384A29.31827,29.31827,0,0,0,473.9707,370.0521Z"/><polygon fill="#fff" points="444.33 360.488 434.371 381.188 444.371 379.434 446.12 389.409 452.459 373.795 443.633 375.228 444.33 360.488"/></svg>