<svg xmlns="http://www.w3.org/2000/svg" viewBox="0 0 4680 3120"><g class="color000000 svgShape" data-name="3"><rect width="4680" height="3120" fill="#fff" class="colorffffff svgShape" data-name="3" opacity="0"/><path d="M2248.44,384.3a70,70,0,0,1,33.84,31.95c7.21,14.13,10.17,33.25,21.18,44.68,8.61,8.93,20.16,13.37,31.51,18.37s23.41,9.67,27.35,21.44c6.06,18.15-8.86,38.29-3.13,56.56,6.09,19.41,30.36,24.69,47.32,35.93A63.34,63.34,0,0,1,2414,693c-11.8,10.68-27.1,16.5-42.05,22-50.76,18.59-102.2,35.9-155.28,46.09s-108.07,13.14-161.16,3c-7.72-1.48-15.56-3.31-22.22-7.49-6.42-4-11.35-10-16.15-15.91-12.1-14.82-24.44-30.08-30.55-48.21s-4.75-40,8.32-53.95c8.1-8.64,21.53-15.56,27-26.89,8.48-17.7-8.28-31-13.88-46.67-6.1-17.07,7.23-30.66,17.47-42.24,11.42-12.9,14.48-24.64,16.56-41.51a128.5,128.5,0,0,1,137.88-112.34Z" class="color000000 svgShape"/><g class="color000000 svgShape" opacity=".5"><path fill="#5e5e5e" d="M2249.66,431.22a114.63,114.63,0,0,1,8.61,7.89c1.3,1.37,2.55,2.8,3.74,4.27a27,27,0,0,1,3.43,4.88c1.69,3.45,3.8,6.68,5.46,10.17a71.71,71.71,0,0,1,4.12,10.91,68.37,68.37,0,0,1,2.6,22.89c-.55,9.58-2.76,19.07-1.29,28.69,2.34,15.3,13.27,27.3,22.08,39.34,4.84,6.61,9.25,13.52,12.09,21.25a67.31,67.31,0,0,1,4.27,26,32.69,32.69,0,0,1-2.55,11.91,31.58,31.58,0,0,1-7.35,9.68c-5.95,5.66-13.1,10.89-14.65,19.51a12.74,12.74,0,0,0,.16,5.53.48.48,0,0,0,.93-.13c.53-8.71,7.75-14.6,13.89-19.86A45.06,45.06,0,0,0,2314,625a30.42,30.42,0,0,0,4.46-12c1.42-8.83.38-18.13-1.95-26.72a77.11,77.11,0,0,0-11-23.4c-8.5-12.37-20.17-23.64-24.39-38.44-2.57-9-1.19-18.15-.38-27.3a76,76,0,0,0-1.56-24.48,71.67,71.67,0,0,0-8.89-21.43,31.37,31.37,0,0,0-3.49-4.61c-1.3-1.43-2.4-3.07-3.67-4.54a70.13,70.13,0,0,0-8.32-8.21,40.41,40.41,0,0,0-4.59-3.3c-.39-.23-.85.34-.49.64Z" class="color5e5e5e svgShape"/><path fill="#5e5e5e" d="M2317.1,561.33a78.38,78.38,0,0,1,8.92,11.29,59.45,59.45,0,0,1,6.33,12.5,43.16,43.16,0,0,1,.73,27.12,47.74,47.74,0,0,1-2.87,7c-1.14,2.32-2.64,4.4-4,6.6-.32.51.34,1.26.86.87a15.28,15.28,0,0,0,2.56-2.46c.78-.94,1.52-1.92,2.21-2.93a29.74,29.74,0,0,0,3.21-6.37,41.88,41.88,0,0,0,2.64-14.14,48.92,48.92,0,0,0-8.6-27.83,52.67,52.67,0,0,0-5.21-6.6,65.78,65.78,0,0,0-6.16-5.64.45.45,0,0,0-.63.64Z" class="color5e5e5e svgShape"/><path fill="#5e5e5e" d="M2276.6,542.22c1.47,3,2.86,6,4.32,8.94s3,5.88,4.59,8.79a145.23,145.23,0,0,1,8.32,17.73c4.4,11.8,6.5,25,2.41,37.15-.13.4-.28.79-.42,1.19l-.21.52s-.2.51-.1.27c-.29.69-.62,1.37-1,2s-.73,1.32-1.14,1.95q-.3.48-.63.93c-.28.39-.27.37-.51.67a21.53,21.53,0,0,1-3.24,3.09c-.26.2.33-.23-.14.1l-.52.36-.9.61a3.85,3.85,0,0,0-1,1,2.43,2.43,0,0,1-.69.54.75.75,0,0,0,.38,1.38c.3,0,.61,0,.9,0a5.56,5.56,0,0,0,1,.11,6,6,0,0,0,2.47-.9,13.78,13.78,0,0,0,3.33-2.66,24.55,24.55,0,0,0,4.62-7.1,44.52,44.52,0,0,0,3.4-19.39c-.5-13.66-5.93-26.35-12.41-38.17-1.85-3.37-3.76-6.7-5.83-9.93s-4.24-6.4-6.18-9.72c-.31-.53-1.09-.06-.82.48Z" class="color5e5e5e svgShape"/><path fill="#5e5e5e" d="M2269.84,573.35a45.17,45.17,0,0,1,0,32.51c-.55,1.42-1,2.85-1.66,4.24s-1.25,2.87-1.85,4.33c-.16.4.41.65.68.4,4.17-4,6.26-9.88,7.35-15.44a42.44,42.44,0,0,0-.31-17.35,39.2,39.2,0,0,0-3.28-9.09c-.25-.52-1.16-.15-.94.4Z" class="color5e5e5e svgShape"/><path fill="#5e5e5e" d="M2272.92,463.36a67.32,67.32,0,0,1,16.37,24.8c3.49,9.36,2.64,19.33,4.1,29.05a34.2,34.2,0,0,0,4.87,13.55,82.9,82.9,0,0,0,9,11.31c6.7,7.16,14.31,13.38,21.72,19.78a95.66,95.66,0,0,1,10.21,9.71,53.84,53.84,0,0,1,7.45,11.09,50.22,50.22,0,0,1,5.28,24.56,53.58,53.58,0,0,1-2.17,12.88,48.86,48.86,0,0,1-5.13,12,63.33,63.33,0,0,1-7.62,9.28c-3,3.2-6,6.33-8.8,9.7a34,34,0,0,0-6.18,10.56,32.79,32.79,0,0,0-1.46,14.15c1.15,10.13,6,19.44,11.71,27.75,1.48,2.16,3,4.26,4.7,6.29,1.33,1.63,4.18-.54,2.94-2.27-5.93-8.28-11.91-16.76-14.57-26.75-2.35-8.84-1.32-18.08,4.18-25.54,5.05-6.85,11.63-12.41,16.68-19.26a45,45,0,0,0,5.67-11.25,58.84,58.84,0,0,0,3.14-13.08c2.23-18-5.12-35.51-18.36-47.59-7.15-6.54-14.81-12.5-21.86-19.15a107.65,107.65,0,0,1-10-10.67,38,38,0,0,1-7.18-12.47c-2.89-9.33-1.83-19.32-4.16-28.77a50.47,50.47,0,0,0-5.92-13.45,72.19,72.19,0,0,0-8.65-11.7,67.79,67.79,0,0,0-5.27-5.18c-.43-.39-1.06.23-.64.63Z" class="color5e5e5e svgShape"/><path fill="#5e5e5e" d="M2083.16,513.24a131.94,131.94,0,0,1,1.38,22,91.81,91.81,0,0,1-2.79,21c-3.16,12.45-9,24.51-18.47,33.39a101.67,101.67,0,0,1-8.62,7c-3.47,2.62-7,5.21-10.4,7.89a108.26,108.26,0,0,0-16.8,15.93c-9.25,11.14-15.87,25.22-16,39.89a50.59,50.59,0,0,0,3.71,19.71c2.58,6.23,6.46,12.22,11.87,16.35A29.85,29.85,0,0,0,2031,699a1.76,1.76,0,0,0,2.27-.45,1.73,1.73,0,0,0-.13-2.31,43.48,43.48,0,0,1-12.18-14.43,46.26,46.26,0,0,1-4.87-18.23c-.76-13.92,5-27.47,13.48-38.49a100.85,100.85,0,0,1,15.67-16c6.34-5.24,13.22-9.86,19.38-15.33,9.72-8.63,16.11-20.66,19.61-33a93.22,93.22,0,0,0,3.32-20.92,77.58,77.58,0,0,0-1.78-21.7c-.41-1.73-.88-3.46-1.39-5.17a.61.61,0,0,0-1.17.33Z" class="color5e5e5e svgShape"/><path fill="#5e5e5e" d="M2153,593.3c-7.08,10.49-11.75,22.19-15.38,34.26-3.72,12.31-5.58,25.06-7.2,37.79-.81,6.34-1.55,12.7-2.34,19-.75,6.07-1.51,12.15-2.75,18.15-2.37,11.43-6.53,23.14-15.78,30.65-4.54,3.69-10.43,6.07-16.32,5.72a10.37,10.37,0,0,1-1.71-.19,18.44,18.44,0,0,1-2.08-.48c-.62-.17-1.22-.38-1.82-.61s-1.24-.53-1.7-.74a19.41,19.41,0,0,1-3.55-2.08,18.92,18.92,0,0,0-1.63-1.06c-.14-.08-.32-.14-.45-.22.35.22,0-.09-.07-.16q-.42-.39-.81-.81a16.07,16.07,0,0,1-2.3-3.25c-.2-.37-.75-.11-.66.28a15.72,15.72,0,0,0,1.48,3.86c.16.3.34.6.52.89l.22.35s.39.6.24.33.16.38.17.39a4,4,0,0,0,.2.35,5.81,5.81,0,0,0,.81,1.15,17.86,17.86,0,0,0,7.31,4.73c6.07,2.13,12.7,1.21,18.44-1.47a35.49,35.49,0,0,0,14.15-12.61,56,56,0,0,0,7.12-16.88,149.62,149.62,0,0,0,3.3-18.56c.85-6.48,1.59-13,2.35-19.46s1.55-12.92,2.51-19.35,2.13-12.85,3.42-19.24c2.54-12.55,6.65-24.83,13.15-35.91.81-1.38,1.65-2.73,2.52-4.07.56-.85-.8-1.63-1.36-.79Z" class="color5e5e5e svgShape"/><path fill="#5e5e5e" d="M2149.21,585a42,42,0,0,0-6.1,5.28,73.4,73.4,0,0,0-5.43,6.13,102.48,102.48,0,0,0-9,13.48,139.35,139.35,0,0,0-12.56,31.28c-3.45,12.38-6,25-9.28,37.39a187.62,187.62,0,0,1-5.7,18.08c-.5,1.31-1,2.44-1.43,3.52s-1.1,2.36-1.71,3.51-1.33,2.36-2.08,3.49c-.34.5-.69,1-1.05,1.48s.23-.28-.18.23l-.25.31-.71.84a25.51,25.51,0,0,1-2.79,2.71l-.31.25c-.51.41.3-.21-.23.17l-.65.47c-.52.35-1.05.69-1.6,1s-.93.48-1.41.7c.43-.2-.24.1-.36.14q-.43.17-.87.3c-.5.16-1,.3-1.53.41l-.74.15-.42.07-.24,0,.11,0a25,25,0,0,1-3.24.1l-.82-.07-.32,0c.44.06.06,0-.05,0-.55-.11-1.11-.21-1.67-.34s-.92-.25-1.38-.41c-.08,0-.81-.31-.44-.16l-.29-.13c-.24-.11-.48-.2-.73-.29l-.35-.14c-.28-.11.36.17-.1,0-.17-.08-.37-.14-.53-.23.24.14-.05-.05-.1-.09-.5-.33-.94-.58-1.36-.88a10.53,10.53,0,0,1-1-.76c-.19-.17-.38-.36-.57-.55l-.21-.23s-.3-.39-.2-.21a.72.72,0,0,0-1.25.73c-.12-.21.07.24.08.28s.08.19.11.29c.11.27.23.54.35.8a12.17,12.17,0,0,0,.77,1.36,11.68,11.68,0,0,0,2.27,2.37,13.3,13.3,0,0,0,6.81,2.61,19.46,19.46,0,0,0,13.35-3.2,32.63,32.63,0,0,0,10.32-12.85,109.81,109.81,0,0,0,6.23-17.15c3.68-12.57,6.15-25.44,9.13-38.18,2.67-11.4,5.73-22.81,10.49-33.53a85.67,85.67,0,0,1,8-14.48,70.22,70.22,0,0,1,11-12.33c1-.9,2-1.78,3-2.68.51-.46-.17-1.35-.74-1Z" class="color5e5e5e svgShape"/><path fill="#5e5e5e" d="M2124.2,464.59a78.46,78.46,0,0,0-12.62,22.69,134.91,134.91,0,0,0-6.68,26,161.12,161.12,0,0,0-1.3,29.78c.34,9.48,1.66,18.91,1,28.41a47,47,0,0,1-8.54,24.35c-4.7,6.52-11.14,11.88-17.71,16.42-3.66,2.53-7.55,4.68-11.3,7.06a79.62,79.62,0,0,0-11.24,8.43,54.65,54.65,0,0,0-14.89,22.45,42.42,42.42,0,0,0-1.1,23.78c1.61,6.77,4.06,14.24,9.52,18.87a17.61,17.61,0,0,0,3.92,2.58c.55.26,1.25-.47.71-.93a26.35,26.35,0,0,1-5.79-7.69,50.06,50.06,0,0,1-4.24-9.63,42,42,0,0,1-.76-22.26c2.18-8.53,7-16.16,13.1-22.46,6.32-6.57,14.44-10.7,22-15.63A79.6,79.6,0,0,0,2096.51,601a48.61,48.61,0,0,0,10.58-22.52c1.6-9.06,1-18.29.25-27.4-.38-4.71-1-9.43-1.14-14.15a150.49,150.49,0,0,1,4.52-42.18,81.15,81.15,0,0,1,10.89-23.55q1.83-2.73,3.9-5.27c.75-.92-.56-2.24-1.31-1.31Z" class="color5e5e5e svgShape"/><path fill="#5e5e5e" d="M2109.77,555.2c.12,1.53.15,3,.19,4.57s.31,3.06.42,4.59q.35,4.53.3,9.08t-.47,9.09a50.82,50.82,0,0,1-1.3,8.78,28,28,0,0,1-3.23,6.9,47.3,47.3,0,0,1-4.59,6.13,85.43,85.43,0,0,1-11.91,11.14c-4.34,3.41-8.95,6.46-13.32,9.84a113.39,113.39,0,0,0-12,10.37,55.06,55.06,0,0,0-9.35,12.43,39.37,39.37,0,0,0-4.12,12.63,60.36,60.36,0,0,0-.44,14.34,39.76,39.76,0,0,0,3,13.13,25,25,0,0,0,1.39,2.61c.17.3.71.11.58-.24a52.87,52.87,0,0,1-2.55-26.59,45,45,0,0,1,3.48-12.52,47.05,47.05,0,0,1,8.73-12.35A97.38,97.38,0,0,1,2076.25,629c4.4-3.35,8.81-6.68,13.13-10.12a92.15,92.15,0,0,0,12.12-11.24c3.34-3.82,6.77-8.15,8.36-13a40.38,40.38,0,0,0,1.54-7.85q.54-4.59.68-9.2c.09-3,.06-6.07-.11-9.09-.08-1.5-.19-3-.33-4.48a27.88,27.88,0,0,0-.57-4.47c-.38-1.44-.74-2.88-1.12-4.31,0-.1-.19-.08-.18,0Z" class="color5e5e5e svgShape"/><path fill="#5e5e5e" d="M2107,633.34c-.7,1.4-1.34,2.83-1.94,4.27s-1.28,2.91-1.78,4.43c-1,3-1.79,6.11-2.66,9.17-1.69,6-3,12.07-4.88,18a71.72,71.72,0,0,1-6.49,14.71,39.23,39.23,0,0,1-4.42,6.13,31.92,31.92,0,0,1-5.71,5.14,21.06,21.06,0,0,1-3.78,2.15c-.31.14.38-.14-.17.07l-.52.2c-.34.12-.7.24-1.05.34-.7.21-1.42.33-2.13.49a12.19,12.19,0,0,1-3.72.32,7.23,7.23,0,0,1-3.55-1.27c-.69-.47-1.26.51-.82,1.06a9.38,9.38,0,0,0,6.78,3.37,15.44,15.44,0,0,0,8-2,34.8,34.8,0,0,0,12.09-11.36,57.39,57.39,0,0,0,7.12-15.23,168.9,168.9,0,0,0,4.41-18.18c.7-3.59,1.48-7.13,2.5-10.64a83.08,83.08,0,0,1,3.62-10.55c.28-.63-.62-1.18-.93-.55Z" class="color5e5e5e svgShape"/></g><path d="M2281.51,416.62c5,10.67,8.27,22.21,14.31,32.4a47.42,47.42,0,0,0,11.2,13.22,64.55,64.55,0,0,0,15.79,8.77c10.83,4.45,22.35,7.46,31.89,14.52A33.07,33.07,0,0,1,2365.3,498c2.42,5.24,2.88,11.09,2.52,16.78-.74,11.6-4.72,23.08-3.36,34.77a31.7,31.7,0,0,0,5.32,14.51,39.06,39.06,0,0,0,10.06,9.76c8.29,5.75,17.91,9.22,27,13.47,4,1.88,8.32,3.81,11.85,6.56a37,37,0,0,1,7.79,8.63A59,59,0,0,1,2436,629a53.07,53.07,0,0,1-5.79,30.78c-1.32,2.48-2.83,4.89-4.3,7.29a.83.83,0,0,0,1.3,1c7.69-7.76,11.11-19.5,11.6-30.19a62.79,62.79,0,0,0-5.91-29.18c-3.37-7.23-8.32-14.43-15.27-18.64-8.79-5.33-18.61-8.67-27.76-13.29-8.59-4.34-17-10.07-20.87-19.27-4.57-10.93-1.39-23.08.28-34.28.87-5.8,1.49-11.69.71-17.53a30.92,30.92,0,0,0-6.33-15.12c-7.1-9.05-18.1-13.8-28.61-17.67-11.54-4.25-23.66-8.3-31.94-17.93a67,67,0,0,1-9.12-14.78c-2.62-5.43-5.07-11-7.74-16.37a61.58,61.58,0,0,0-4.46-7.38.15.15,0,0,0-.25.15Z" class="color000000 svgShape"/><path d="M2045.38,470.15a98.06,98.06,0,0,1-22.16,50c-2.24,2.67-4.67,5.11-7.11,7.59a74.53,74.53,0,0,0-9.45,11.65c-5.3,8.21-8.48,18-6,27.77s9.52,17.4,11.93,27.09a31.17,31.17,0,0,1-.17,15.44,33.15,33.15,0,0,1-7,12.89c-6,7.08-13.83,12.57-18.85,20.5s-6.32,17.87-4.75,27.13c3.28,19.42,18.71,34.27,36.3,41.69,2.15.91,4.29,1.83,6.48,2.65.67.26.93-.79.29-1a88.63,88.63,0,0,1-24.57-15.34A50.59,50.59,0,0,1,1985,674.33c-2.54-9.14-2.31-19.35,2.16-27.86,4.36-8.29,12.12-13.91,18.31-20.71a39.67,39.67,0,0,0,7.6-11.47,33.3,33.3,0,0,0,2.41-14.67,37.63,37.63,0,0,0-4-14c-2.13-4.4-4.74-8.56-6.76-13a30,30,0,0,1-3-14.29,34.74,34.74,0,0,1,4.21-14,62.74,62.74,0,0,1,8.71-12.31c2.58-2.91,5.41-5.57,8-8.5,11.28-12.91,19.84-29.17,22.41-46.23.36-2.38.62-4.78.78-7.18,0-.35-.5-.33-.54,0Z" class="color000000 svgShape"/><polygon fill="#7a8eb0" points="3883.01 1937.89 3814.93 2688.24 876.4 2756.46 796.99 1937.89 3883.01 1937.89" class="color7a8db0 svgShape"/><path fill="#275634" d="M3559.06,1956.63c-15.32-70.35-16.24-141.54-17.13-210.37-.6-45.73-1.21-93-6-139.91-7.18-70-19.78-134.8-37.49-192.57-8.71-28.42-23.94-55.54-38.67-81.76-12.79-22.76-26-46.3-35.14-70.87l7.57-2.82c8.91,24,22,47.24,34.61,69.73,14.94,26.59,30.4,54.1,39.36,83.35,17.85,58.28,30.57,123.59,37.8,194.13,4.83,47.23,5.45,94.7,6.05,140.62.89,68.43,1.81,139.2,16.94,208.75Z" class="color275647 svgShape"/><path fill="#6fc185" d="M3420.25,1151.35c-19.42-21.19-164.61-211.66-177.47-123.62-6.1,41.81,26.08,91,38.85,130.41,12.4,38.26,16.26,78.95,34.39,115.74,21.67,44,60.8,75,88.47,115.13,28.54,41.35,52.79,52.71,103.38,55.24C3539.51,1343.71,3486.41,1223.59,3420.25,1151.35Z" class="color6fc183 svgShape"/><path fill="#34a853" d="M3250,1009.71c13.55,17.16,25.36,36.84,37.1,55.47,23.7,37.61,49.72,74.93,77.75,109.55,27.2,33.6,48.59,68.66,72.06,104.5,21.05,32.15,35.47,66.11,49.59,101.49,6.11,15.34,19.43,36,24,54.35,25.78-98.58-26.09-213.67-90.25-283.72C3402.7,1132.2,3282.43,974.82,3250,1009.71Z" class="color40947e svgShape"/><path fill="#275634" d="M3512.69,1425.76a275.67,275.67,0,0,0-8.81-26.29c-7.76-19.06-17.38-37.16-26.26-55.72-20-41.91-39.95-82.86-67.82-120.35-34.56-46.49-71.47-90.87-103.75-139.22-16.33-24.48-28.2-59.92-53.94-76.28a16.78,16.78,0,0,0-3,2.83c17.6,12.69,27.4,37.15,38.24,55,12.25,20.15,26,39.21,39.63,58.41,27.61,38.81,58.56,75.66,85.36,114.83,24.9,36.4,42.62,75.12,61.66,114.68,11.71,24.35,23.38,48.45,32.43,74,1.21,3.41,2.23,6.9,3.2,10.41C3510.79,1434,3511.83,1429.88,3512.69,1425.76Z" class="color275647 svgShape"/><path fill="#275634" d="M3597.92,1919.39l-8-1.15c2.5-17.49-.52-36-3.44-53.87-1.68-10.33-3.42-21-4.1-31.41-1.2-18.68-1.09-37.81-1-56.31.08-13,.16-26.44-.24-39.51-.93-31.46-1.56-62.83-2.18-94.19-1.23-60.82-2.49-123.7-6-186-6.73-118.65-36.87-247.67-59-334.39l-3.57-13.89c-9-34.79-17.47-67.65-19.85-103.81-.84-12.83-.21-26.51.47-41,1.44-30.78,2.92-62.62-10.45-86.2l7-4c14.52,25.62,13,58.64,11.49,90.57-.65,14.26-1.29,27.72-.47,40.1,2.33,35.41,10.72,67.9,19.6,102.31l3.58,13.92c22.17,87,52.42,216.59,59.19,335.92,3.53,62.47,4.8,125.44,6,186.33.63,31.33,1.26,62.68,2.19,94.11.38,13.21.31,26.73.24,39.79-.1,18.36-.2,37.36,1,55.75.65,10,2.36,20.49,4,30.62C3597.48,1881.55,3600.59,1900.67,3597.92,1919.39Z" class="color275647 svgShape"/><path fill="#34a853" d="M3572.17,1081.57c3.22-59.75,32-64-18.44-250-18.58-68.54-52.53-132.78-79.29-197.15-21.11-50.78-51.84-143-86.68-130.69-49.44,17.45-16.39,264.32,7.75,340.09,8,25.13,19,51.43,25.37,77.72,6.73,28-1.36,59.35,4.18,87.43,9.29,47.17,21.62,96.3,47.46,138.8,16.76,27.57,56.37,50.92,72.68,78.63C3544.13,1181,3568.55,1148.74,3572.17,1081.57Z" class="color40947e svgShape"/><path fill="#2e683d" d="M3474.44,634.44c-19.13-46-46.17-126.08-77-131.51,5.12,18,10.76,36.1,13.55,55.12,4.07,27.71,12.75,52.3,24.25,77.53,25.84,56.71,20.3,117.94,34.77,176.89,12.57,51.26,31.79,103.53,38,156,6.08,51.29,8.59,103,15,154,2.13,17.06,6.13,34.1,9.56,51,2.62,12.89,11.5,35.08,10.93,44.7a6.84,6.84,0,0,1,2.18-5.15c3.25-38.9,23.25-71.07,26.5-131.45,3.22-59.75,32-64-18.44-250C3535.16,763.05,3501.2,698.81,3474.44,634.44Z" class="color2e6857 svgShape"/><path fill="#275634" d="M3519.85,1033c-2.7-60.72-18.49-116.91-34.89-174.92-17.86-63.13-19.38-128.6-33.93-192.18-7.27-31.78-22.29-60.37-31.69-91.44-7.14-23.62-10.34-48-19.36-70.84a20.17,20.17,0,0,0-4.68-.86c9.8,27.94,13,57.64,22.3,85.85,11.12,33.6,25.1,64.38,31.05,99.63,10.88,64.49,15.14,128.75,34.78,191.63,20.53,65.79,25.29,130.48,30.17,198.81,2.91,40.69,4.41,96.27,23.6,136.52a89.74,89.74,0,0,1,8,11.25,124.38,124.38,0,0,1,.51-13.89C3523,1156.5,3522.49,1092.46,3519.85,1033Z" class="color275647 svgShape"/><path fill="#275634" d="M3630.28,1651.67l-8-.92c5.37-47,.26-98.09-4.68-147.46-2.09-20.86-4.24-42.42-5.49-62.89-.94-15.32-2-30.5-3.09-45.59-3.57-50-6.94-97.15-5.12-147,4.56-124.62,14.07-229.61,45.69-337,6.78-23,23.08-81.25,28.09-125.5l8,.91c-5.08,44.88-21.53,103.67-28.36,126.88-31.39,106.54-40.84,210.95-45.37,335-1.81,49.39,1.55,96.37,5.09,146.11,1.09,15.12,2.17,30.32,3.11,45.66,1.24,20.33,3.29,40.85,5.46,62.58C3630.6,1552.28,3635.75,1603.78,3630.28,1651.67Z" class="color275647 svgShape"/><path fill="#6fc185" d="M3834.23,459.29c-10.49-8.62-33.71,2.92-44.32,9.47-86.68,53.49-118.43,166.92-155.3,257.65-27.62,68-39,140.7-32.76,213.44,4.16,48.26,20,103.78,15.39,152.95,6.28-12.93,20.17-25.4,24.18-28.74,26.94-22.48,52.64-51.34,69.88-82.41,41.63-75.06,48.64-160.08,62.13-244.09,10.81-67.3,37.2-124.88,56-189.4C3835,529.19,3852,473.88,3834.23,459.29Z" class="color6fc183 svgShape"/><path fill="#34a853" d="M3829.46,548.16c5.54-19,22.54-74.28,4.77-88.88-3-2.45-7-3.23-11.52-3-22.87,29.53-40.46,66.16-54.95,98.52-19.88,44.4-37.22,90.49-54.92,135.65-27,68.75-54.88,133.76-66.34,207.24-6.14,39.37-5.17,81.12-13.45,119.49-4.36,20.2-11.28,39.83-15.06,60.46-.07,4.8-.28,9.56-.69,14.26.24-.22.52-.44.8-.66,6.59-12.36,19.48-24,23.32-27.19,26.94-22.48,52.64-51.34,69.88-82.41,41.63-75.06,48.64-160.08,62.13-244.09C3784.24,670.26,3810.63,612.68,3829.46,548.16Z" class="color40947e svgShape"/><path fill="#275634" d="M3617.41,1090.27c17.44-49.85,24.18-90.15,27.34-143,3.84-64.42,21.65-120.39,43.81-180.53,39.91-108.35,78-213.32,144.18-308.41a15.86,15.86,0,0,0-7.46-2C3757,535.67,3724,647.16,3689.42,743.13c-19,52.79-41.79,105.62-48,161.81-3,27.36-3.64,55-5.44,82.42-2,31.2-10.33,58.79-17.95,88.23C3618,1080.54,3617.79,1085.43,3617.41,1090.27Z" class="color275647 svgShape"/><path fill="#34a853" d="M3791.42,1075.09c-8.71-7.57-29.22.58-38.65,5.34-77,38.91-120.18,145.43-150.94,224.1-21.92,56-27.22,90-30.65,149.54-2.74,47.45,7.62,90,7,125.43,1.76-3,50.11-45.29,70.14-75.55,39-58.9,64.14-137.73,79.22-205.43,12.07-54.25,37.21-99.73,56.11-151.29C3789.23,1132.08,3806.17,1087.94,3791.42,1075.09Z" class="color40947e svgShape"/><path fill="#2e683d" d="M3578.21,1579.5c1.76-3,50.11-45.29,70.14-75.55,39-58.9,64.14-137.73,79.22-205.43,12.08-54.26,37.21-99.73,56.11-151.29,5.55-15.15,22.49-59.29,7.74-72.14a11.8,11.8,0,0,0-4-2.19c-2.87,3.31-5.66,6.59-8.35,9.7-26.57,30.63-43.93,67-62.63,102.37-16.57,31.34-30.89,63.56-47.59,94.82-15.35,28.75-30.88,55-41.22,85.67-22.55,67-38.74,140.51-49.46,210.66C3578.15,1577.24,3578.23,1578.4,3578.21,1579.5Z" class="color2e6857 svgShape"/><path fill="#275634" d="M3790.77,1074.73a11.85,11.85,0,0,0-3.95-1.94c-26.81,29.3-48.53,64.45-66.46,99.6-23.39,45.86-48.16,91.42-70.77,137.62-19.62,40.09-34.79,82.35-46.21,125.47-11.13,42-13.91,86.67-25.54,128.57.29,5.28.46,10.45.37,15.45a38.78,38.78,0,0,1,3.73-3.87c10.23-30.81,12.22-63.9,18.44-95.94a679.91,679.91,0,0,1,49.37-153.46c19.51-42.52,44.79-81.8,64.37-124.33C3735,1156.63,3760.8,1114.44,3790.77,1074.73Z" class="color275647 svgShape"/><path fill="#fbbc05" d="M3671.3,1965.65H3484.59q-48.72-145.77-61.85-331h310.41C3725.86,1750.65,3706.64,1861.58,3671.3,1965.65Z" class="colorf3ce90 svgShape"/><path fill="#f1776d" d="M3647.08,1634.65C3636,1981.56,3504.26,1937,3470,1917.91c4.59,16.21,9.37,32.2,14.57,47.74h186.7c35.34-104.07,54.56-215,61.85-331Z" class="colorf19a6d svgShape" opacity=".5"/><polygon fill="#3d9153" points="3868.32 2055.54 2473.58 2058.39 2373.29 1929.02 3596.98 1929.02 3868.32 2055.54" class="color3d5891 svgShape"/><polygon fill="#4285f4" points="3719.05 2030.68 2555.89 2033.54 2471.3 1944.83 3563.48 1944.83 3719.05 2030.68" class="color5681bf svgShape"/><path fill="#2e683d" d="M2921.8,1826.35c-45.33,0-249.26-90.65-290.8-11.38,0,0-15.08,37.79-7.52,64.25s154.82,81.17,166.15,81.17,100.08,58.55,200.16,28.34C3050.39,1970.43,2921.8,1826.35,2921.8,1826.35Z" class="color2e6857 svgShape"/><path fill="#2e683d" d="M3079.44,1826.35c45.32,0,249.28-90.65,290.79-11.38,0,0,15.1,37.79,7.56,64.25s-154.84,81.17-166.16,81.17-120.85,54.77-220.92,24.59C2930.12,1966.65,3079.44,1826.35,3079.44,1826.35Z" class="color2e6857 svgShape"/><path fill="#f5aca6" d="M3080.4,1417.51c-14.22,0-34.23-12-40.43-29.2-6.74-27.93-7.69-79.7-7.69-86.47l-32.33-2.45h-.49l-36.55,2.92c0,7.19,0,67.06-13.58,95.78-8.83,11.77-23.77,19.42-35.1,19.42-17,0-68.55,8-81.66,30,0,0,26.92,62.1,32.58,87.58s24.49,173.23,27.35,185c.64,2.75,64.28,14.84,104.82,12.87,40.54,2,104.16-10.12,104.8-12.87,2.85-11.8,37.77-183.61,43.43-209.09s17.71-78.35,17.71-78.35C3154.76,1415.63,3097.42,1417.51,3080.4,1417.51Z" class="colorf5b0a6 svgShape"/><path fill="#34a853" d="M3123.76,1750.69c-.51-26.11,1.82-77.91,16.13-174.32-24.08-40.39-34-150.36-25.48-161.69l-13.47-3.55s-13.43-6.12-39.64,34.94-109.77,37.54-127.46,2.14-29-32.12-33.27-32.83-12.75,3.06-12.75,3.06c7.58,32.11,2.83,139-8.52,157.93s-12.24,25.26-12.24,25.26,31.36,114.64,17.71,165.21c-31.3,70.41-45.1,122.57-41.73,149.71,4.23,34.55,301.59,98.6,331.94-17.6C3185.06,1860.31,3144.08,1809.84,3123.76,1750.69Z" class="color40947e svgShape"/><path fill="#eda8a2" d="M2787.73,1833.9c64.93,16.15,220.73,111.14,250.92,109.87s13.6-13.78,39.77-20.54c18.62-4.84,16.49,9.69,46.68,8.42s61.89-11.1,77.17-8a5.66,5.66,0,0,1,2.95,1.8c14.53,2,36.29,3.74,33.65,15.56-3.13,14.3-25.27,5.81-30,6,14.34,4.11,32.43,7.12,26,12.11-5.49,4.29-18.35,2.9-21.93,2.41,4.6.69,23.27,3.69,17.61,7.26-6.46,4-21.42,1.6-21.42,1.6s18.71,4.54,14.15,7.55-20.5,1.59-20.5,1.59,13.18,2.93,9.46,6c-2.4,1.91-16.82,4-25.64,2.31a12.14,12.14,0,0,1-4.34.94c-22.65,1-94.18,7.77-166.18,3.25s-250.88-29.57-270.89-55.19S2787.73,1833.9,2787.73,1833.9Z" class="coloreda9a2 svgShape"/><path fill="#f5aca6" d="M3234.28,1830.1c-64.17,18.87-258.19,127.22-288.41,127.22s-15.58-4.47-42-10.13c-18.82-4-16.06,10.37-46.29,10.37s-54.77-6.62-70.79-5.43c-1.22.1-8.72,1.72-9.53,2.63-16.4,8-21.17,10.1-17.65,18.39,5.8,13.49,25.19,1,29.89,1-14.15,4.71-30.57,11.49-24,16.2,5.63,4,16.93-.86,20.47-1.51-4.53.86-23.08,4.65-17.3,8,6.64,3.76,21.49.72,21.49.72s-18.55,5.28-13.82,8.13,20.54.69,20.54.69-13,3.49-9.2,6.39c2.44,1.85,17,3.31,25.72,1.21,1.46.51,56.75-8.75,128.91-7.78,68.87.94,329.7-59,348.59-85.44S3234.28,1830.1,3234.28,1830.1Z" class="colorf5b0a6 svgShape"/><path fill="#2e683d" d="M3095.52,1632.78c-11.34,34-17.47,117.53-13.22,127.47s20.79,76,26.44,71.76,39.65-21.27,39.65-21.27-30.81-41-27.87-82.57c2.85-39.68,9-108.6,9-108.6Z" class="color2e6857 svgShape" opacity=".3"/><path fill="#2e683d" d="M3107.79,1471.81c0,54.76,1.4,93.47,1.4,118s-33.5,30.67-62.76,27.86-109.55,2.84-118,7.56-34,21.69.93,15.11,160.53-24.55,169-1,29.3,4.7,31.65-1.44,6.14-59,6.14-59Z" class="color2e6857 svgShape" opacity=".3"/><path fill="#f5aca6" d="M3149.82,1424.11c24.54,0,39.62,52.42,41.76,78.61,1.35,16.82,51.51,157.45,45.82,183.87s-13.21,28.33-18.86,28.33S3008.93,1652,3007,1625.59s16.31-26.91,16.31-26.91L3161.38,1637s-24.8-71-28.55-91.82S3149.82,1424.11,3149.82,1424.11Z" class="colorf5b0a6 svgShape"/><path fill="#f5aca6" d="M3035.89,1642.72c-11.42-1.18-31.79-13.65-32.25-21.18s-9.23-69.45-.17-75.68,12.17-5.94,20.16,8.45c6.42,11.59,7.46,48.5,21.36,59S3035.89,1642.72,3035.89,1642.72Z" class="colorf5b0a6 svgShape"/><path fill="#f5aca6" d="M3025.82,1559.39c-5.61-10.31-16.22-64.46-20.27-67.83s-5.12-1.67-4.09,3.25,7.91,46.89,8.91,52.53S3025.82,1559.39,3025.82,1559.39Z" class="colorf5b0a6 svgShape"/><path fill="#f5aca6" d="M3015,1552.72c-.93-14.84-8.59-56.69-13.55-56.36s1,25.5,1,25.5-3.68-10.28-4.59-4.24c-.84,5.59,2.25,43.84,3.29,48.73S3015,1552.72,3015,1552.72Z" class="colorf5b0a6 svgShape"/><path fill="#f5aca6" d="M2854.52,1430.51c-24.78,6.37-47.43,51.19-47.43,77.63,0,16.86-47.68,157.7-42,184.11s13.22,28.33,18.89,28.33,202.05-76.33,207.24-89.23c9.91-24.55-12.06-27-12.06-27l-138.07,38.35s30.2-64.19,34-85S2854.52,1430.51,2854.52,1430.51Z" class="colorf5b0a6 svgShape"/><path fill="#f5aca6" d="M2968.77,1645.31c11.37-1.64,31.24-14.9,31.38-22.48s6.46-69.74-2.85-75.6-12.4-5.45-19.8,9.29c-5.91,11.79-5.49,48.74-19,59.77S2968.77,1645.31,2968.77,1645.31Z" class="colorf5b0a6 svgShape"/><path fill="#f5aca6" d="M2975.5,1561.64c5.2-10.52,14.43-67.21,18.72-70.08,3.68-2.47,4.71-2.1,3.87,2.82s-6.85,48.95-7.68,54.6S2975.5,1561.64,2975.5,1561.64Z" class="colorf5b0a6 svgShape"/><path fill="#f5aca6" d="M2981.07,1554.56c.35-14.88,12.26-58.67,17.2-58.57s-3.36,23.53-3.36,23.53,4.2-7.78,4.06-2.11-2.7,45.25-3.52,50.18S2981.07,1554.56,2981.07,1554.56Z" class="colorf5b0a6 svgShape"/><path fill="#275634" d="M3232.88,1823.52c18.87-14.17,93-41.57,114.74-27.41s41.5,53.82,26.41,79.3c-11.79-43.88-29.73-59.93-50.51-55.21s-60.92,28.32-60.92,28.32Z" class="color275647 svgShape" opacity=".3"/><path fill="#454545" d="M2682.93,1791.4c29.29.95,104.8,35.9,114.25,43.43,0,0-27.38,19.84-31.16,29.25-51.9-46.22-102-68.91-125.57-53.8C2672.58,1787.63,2682.93,1791.4,2682.93,1791.4Z" class="color454545 svgShape"/><path d="M2926.68,1235.72a34.68,34.68,0,0,0-27.35,21.56c-3.67,9.58-3.55,21.64-11.73,27.83-7.81,5.91-18.85,3.11-28.59,4.23-17.14,2-31.16,18.69-30.33,35.92s16.15,32.48,33.38,33.43c3.74.2,7.8-.1,10.89,2,2.62,1.8,3.9,5,5.32,7.8,6.21,12.45,16.7,21.66,30.48,24.51,11.9,2.46,27.88,1.52,38.7-4.1,20-10.42,46.49-10.74,67.69-4.16,10.62,3.3,20.58,8.41,31.11,12,12.15,4.1,29,7.35,46.59.81,12-4.48,15.7-7.54,21.47-19,5.29-10.5,5-23.11,1.76-34.4s-9.29-21.55-15.29-31.66c-3.77-6.35-7.7-12.85-13.6-17.3-7.68-5.79-17.77-7.39-25.9-12.53a34.42,34.42,0,0,1-13.17-15.46c-1.43-3.33-2.33-6.89-4-10.1s-4.39-6.16-7.93-6.93Z" class="color000000 svgShape"/><path d="M3038.35,1304.9c-11.64.76-20.93-10.17-24.54-21.26s-3.64-23.18-7.83-34.07a47.2,47.2,0,0,0-75.78-18c-13.85,12.57-18.94,31.88-23.37,50.05-23.79-28.38-12.33-72.21,34.21-89.27,2.17-.79,4.59.86,6.87.48,2.69-.44,5-2.13,7.24-3.63a66.7,66.7,0,0,1,51-9.29c25,5.68,53.91,31.77,61.09,56.54,2,7,3.28,14.9,9,19.29,3.77,2.88,8.7,3.57,13.19,5.09,16.7,5.65,27.32,25.19,23,42.28-1.29,5.07-3.67,10.51-1.49,15.26,1.43,3.09,4.48,5,7.28,7,8.56,6,16.48,14,18.65,24.19,4.06,19.12-13.43,36.3-31.43,43.92-8.53,3.61-17.86,6.09-27,4.74-14.46-2.12-26.15-13.62-32.47-26.8s-8.16-28-9.92-42.49Z" class="color000000 svgShape"/><path fill="#212121" d="M2961.1,1217.82a37.4,37.4,0,0,1,17.83,8.32,53.86,53.86,0,0,1,12.84,16.16,92,92,0,0,1,7.55,20.39c1.8,7,3.36,14.17,8.31,19.67a25.37,25.37,0,0,0,17.1,8.31,10.35,10.35,0,0,0,2.42-.17c.83-.16.86-1.59,0-1.72-1.55-.24-3.12-.32-4.66-.63a27.57,27.57,0,0,1-4.62-1.38,23.79,23.79,0,0,1-7.72-5c-5.19-5.1-6.82-12.17-8.59-19a93.73,93.73,0,0,0-7.7-20.42,52.31,52.31,0,0,0-12.9-16.13,40.3,40.3,0,0,0-17.47-8.61c-.77-.15-1.54-.28-2.31-.38-.34,0-.43.55-.08.61Z" class="color212121 svgShape"/><path fill="#212121" d="M2959.46,1217.65c-4.91-.2-9.43,2.08-13.31,4.88a129.29,129.29,0,0,0-12,9.92c-7.1,6.54-13.62,13.65-20.28,20.64-1.93,2-3.89,4.06-5.86,6.07-1,1-2.08,2.08-3.11,3.13s-2.11,2.35-3.1,3.57c-.52.63.17,1.82,1,1.25,4.19-3.08,7.71-6.95,11.27-10.71,3.26-3.44,6.46-6.93,9.71-10.38a232.46,232.46,0,0,1,21.46-20.41c4.07-3.36,8.78-6.87,14.27-7.08a.44.44,0,0,0,0-.88Z" class="color212121 svgShape"/><path d="M3056.12,1218.94a48.19,48.19,0,0,0,25.76,33.35c6.09,3,12.6,5,18.77,7.87,5.69,2.62,11.25,6,14.47,11.61,3.62,6.22,3.45,13.67,3,20.62-.46,7.13-1.42,14.49.35,21.52a24.34,24.34,0,0,0,5,9.71c2.57,3.11,5.72,5.68,8.39,8.71a31,31,0,0,1,7.53,19.93,29.74,29.74,0,0,1-6.91,19.77,34.18,34.18,0,0,1-17.77,10.92,29,29,0,0,1-5.16.73,1,1,0,0,0,0,1.92,33.83,33.83,0,0,0,10.84-1.78,32,32,0,0,0,9.51-5.39,32.44,32.44,0,0,0,11.48-18.44,33.89,33.89,0,0,0-9.42-31.45c-2.83-2.87-6-5.52-8.21-8.93-4-6.14-3.9-13.66-3.48-20.68.43-7.29,1.43-14.79-.36-22-1.67-6.7-6-12-11.78-15.62s-12.26-5.81-18.54-8.27a75.33,75.33,0,0,1-9.41-4.3,47.83,47.83,0,0,1-8.88-6.47,49.22,49.22,0,0,1-12.59-18.34,51.1,51.1,0,0,1-1.69-5.26.45.45,0,0,0-.87.24Z" class="color000000 svgShape"/><path d="M2901.81,1224.88a40.94,40.94,0,0,0-11.85,16.44,42.48,42.48,0,0,0-2.63,9.78c-.52,3.68-.6,7.4-1,11.1a24.26,24.26,0,0,1-2.91,9.74,19.24,19.24,0,0,1-5.68,5.89c-4.95,3.38-10.9,5-16.75,6-6.29,1.12-12.68,1.69-18.81,3.6s-11.95,5.25-15.49,10.8-4.37,12.3-3.28,18.63a32.21,32.21,0,0,0,9.2,17,49.59,49.59,0,0,0,16.83,10.78c7.36,3,15.15,4.48,23,5.57a51.84,51.84,0,0,0,6,.59,1.25,1.25,0,0,0,.33-2.45c-3.74-1-7.64-1.47-11.44-2.22s-7.62-1.58-11.34-2.69a52.57,52.57,0,0,1-17.84-8.91c-4.87-3.9-9-9-10.84-14.9a24.68,24.68,0,0,1,.6-17.29c5.43-12.09,19.95-13.57,31.54-15.39,5.88-.93,11.82-2.32,17.11-5.13a24.78,24.78,0,0,0,6.9-5.3,21.06,21.06,0,0,0,4.53-8.57c1.82-6.86,1-14.1,2.61-21a43.89,43.89,0,0,1,8.89-17.7c1-1.24,2.09-2.44,3.23-3.58.55-.54-.25-1.29-.82-.83Z" class="color000000 svgShape"/><path d="M2859.84,1352.11c2.87,6.15,5.93,12.2,9,18.26,2.66,5.3,5.59,10.57,9.63,15a42.47,42.47,0,0,0,15.09,10c5.94,2.49,12.4,4.17,18.88,3.87a28.21,28.21,0,0,0,9.36-2.08,22.82,22.82,0,0,0,7.86-5.58,1,1,0,0,0-1.42-1.43,20.54,20.54,0,0,1-3.15,2.36,26.13,26.13,0,0,1-3.6,1.67,25.63,25.63,0,0,1-7.74,1.87,40.58,40.58,0,0,1-17.81-3,42.54,42.54,0,0,1-14.46-8.66c-4.12-4-7-8.92-9.78-13.88-3.56-6.37-7-12.83-10.62-19.14-.46-.79-1.58-.1-1.21.7Z" class="color000000 svgShape"/><path fill="#525252" d="M3061.56,1238.55c.63,6.74,1.3,13.54,3.11,20.08a40.35,40.35,0,0,0,9.13,16.93c4,4.36,8.79,7.88,12.95,12.08a32.82,32.82,0,0,1,5.21,6.58,22.73,22.73,0,0,1,2.82,8.53c.83,6.45-.23,13,.3,19.45a25.81,25.81,0,0,0,2.34,9.3c1.51,3.07,3.94,5.48,6.23,8a19.92,19.92,0,0,1,5,8.56,29.71,29.71,0,0,1,.67,9.86,41.53,41.53,0,0,1-4.89,16.33,44.7,44.7,0,0,1-25.61,21.59c-1.39.43-2.71.94-4.06,1.5a.93.93,0,0,0,.25,1.81,14.64,14.64,0,0,0,4.55-.64,44.08,44.08,0,0,0,4.16-1.53,45.32,45.32,0,0,0,7.73-4.24,48.89,48.89,0,0,0,12.65-12.64,46,46,0,0,0,7.08-16.1c1.4-6.31,1.7-13.45-.83-19.51-1.39-3.32-3.78-5.89-6.2-8.49a21.67,21.67,0,0,1-5.25-8.13c-2-6.25-1-13-1.08-19.44a37.72,37.72,0,0,0-1.18-9.87,25.22,25.22,0,0,0-4-8c-3.56-4.82-8.3-8.52-12.75-12.47a60.71,60.71,0,0,1-6.38-6.35,37.77,37.77,0,0,1-5.21-8.47c-2.88-6.25-4.23-13.11-5.29-19.87-.26-1.65-.5-3.31-.74-5-.06-.42-.79-.33-.75.1Z" class="color525252 svgShape" opacity=".5"/><path fill="#525252" d="M3070,1286.22a39.17,39.17,0,0,1,12.88,21.63,39.6,39.6,0,0,1,.74,12.66c-.55,5-2.63,9.89-2.52,15s2.72,9.22,5.08,13.46a34.57,34.57,0,0,1,4,10.72,37,37,0,0,1-2.62,21.22,38.33,38.33,0,0,1-13.84,16.48c-.77.52-1.55,1-2.35,1.47s-.27,2,.68,1.62a25.4,25.4,0,0,0,5.12-2.66,34.59,34.59,0,0,0,4.47-3.72,37.29,37.29,0,0,0,6.74-9.13,40.42,40.42,0,0,0,4.64-22.23,34.85,34.85,0,0,0-2.86-11.17c-1.9-4.26-5-8-6.31-12.48-1.55-5.24.45-10.46,1.35-15.63a39.49,39.49,0,0,0,0-13.15,40.39,40.39,0,0,0-12.13-22.67c-.78-.73-1.59-1.42-2.43-2.08-.45-.35-1.09.26-.64.64Z" class="color525252 svgShape" opacity=".5"/><path fill="#525252" d="M2991.17,1211.77a38.2,38.2,0,0,1,30,23.59c2.89,7.47,3,15.59,4.71,23.34a37.19,37.19,0,0,0,4,10.91,30.67,30.67,0,0,0,6.6,7.93,32.21,32.21,0,0,0,19,7.74,8.25,8.25,0,0,0,2.71-.25,1.2,1.2,0,0,0,0-2.29c-.41-.07-.82-.18-1.23-.23s-1,0-1.48-.06c-.76,0-1.57-.11-2.28-.21a29.63,29.63,0,0,1-5-1.17,30.33,30.33,0,0,1-8.79-4.62,28.68,28.68,0,0,1-6.75-7.19,33.1,33.1,0,0,1-4.26-10.34c-1.91-7.72-2.14-15.84-5-23.32a39.86,39.86,0,0,0-29.6-24.59q-1.24-.21-2.49-.36c-.63-.07-.78,1-.15,1.12Z" class="color525252 svgShape" opacity=".5"/><path fill="#525252" d="M3017.52,1269.47c2.58,5,5.49,9.88,9.59,13.72a21.76,21.76,0,0,0,14.6,6.23,15.2,15.2,0,0,0,4.45-.58,11.19,11.19,0,0,0,4-2.12c.93-.75-.26-2-1.22-1.57a17.15,17.15,0,0,1-6.68,1.85,18.73,18.73,0,0,1-7.11-1.16c-4.83-1.73-8.69-5.43-11.71-9.47a74.3,74.3,0,0,1-4.84-7.54c-.41-.71-1.47-.08-1.1.64Z" class="color525252 svgShape"/><path fill="#525252" d="M2898.44,1285.88c-2.93,6-8.92,9.55-15,11.73-7.19,2.58-14.89,3.35-22,6.12a45.79,45.79,0,0,0-18.06,13.12c-4.52,5.33-8,12.12-7.42,19.3a21.67,21.67,0,0,0,3.11,9.43,21,21,0,0,0,3,3.87,15.22,15.22,0,0,0,3.93,3.08,11.27,11.27,0,0,0,2.43.77,1.08,1.08,0,0,0,.82-2c-.64-.46-1.16-1-1.79-1.49s-1.24-.88-1.75-1.31a20.44,20.44,0,0,1-3-3.16,19,19,0,0,1-3.6-8.26c-1.11-6.37,1.85-12.9,5.82-17.86a43.57,43.57,0,0,1,16.76-13c6.94-2.91,14.51-4,21.54-6.65,5.82-2.23,11.62-5.75,14.83-11.27a17.75,17.75,0,0,0,1-2.09c.18-.42-.43-.8-.64-.37Z" class="color525252 svgShape" opacity=".5"/><path fill="#525252" d="M2877,1310.71c-8.55,4.19-17.08,9.33-22.42,17.46a29.11,29.11,0,0,0-4.77,13.08,21.27,21.27,0,0,0,2.58,12.33c2.24,4,5.92,7.65,10.61,8.44a1,1,0,0,0,1.17-.57,1,1,0,0,0-.41-1.23,18.62,18.62,0,0,1-11.2-17.75c.18-8.86,5.74-16.63,12.26-22.17a84.17,84.17,0,0,1,12.76-8.61c.64-.37.08-1.3-.58-1Z" class="color525252 svgShape" opacity=".5"/><path fill="#525252" d="M2910.58,1343.53c-3.76,3.73-6.56,8.31-9.21,12.86s-5.15,9.52-5.85,14.89c-1,7.87,2.95,15.62,9.28,20.18a22.51,22.51,0,0,0,6.16,3.08c2.27.73,5,1.29,7.33.61a1,1,0,0,0,0-1.91,30.46,30.46,0,0,0-3-.56,29.23,29.23,0,0,1-2.92-.64,18.9,18.9,0,0,1-5-2.2,20.19,20.19,0,0,1-7.14-7.62,18.57,18.57,0,0,1-2.27-9.72c.25-4.84,2.36-9.39,4.52-13.64,1.28-2.54,2.6-5.08,4-7.56a42.39,42.39,0,0,1,4.8-7.08c.4-.47-.24-1.13-.69-.69Z" class="color525252 svgShape" opacity=".5"/><path fill="#525252" d="M2953.9,1215.69c-12-2.1-24.19,3.16-32.79,11.4a59.33,59.33,0,0,0-10.6,13.81,50,50,0,0,0-5.89,16.52,38,38,0,0,0-.35,9.82,20.06,20.06,0,0,0,3.05,9.33.86.86,0,0,0,1.56-.66c-.58-2.64-1.23-5.28-1.59-8a34.83,34.83,0,0,1-.06-8.1,46.41,46.41,0,0,1,4.74-15.68c4.87-9.86,12.69-18.84,22.69-23.7a36.45,36.45,0,0,1,19.08-3.56c.69.07.85-1.09.16-1.21Z" class="color525252 svgShape" opacity=".5"/><path fill="#525252" d="M2906.28,1228.59c-4.19,5.51-6,12.35-6.73,19.13-.74,7-.09,14.19,3.15,20.49a22,22,0,0,0,6.9,8c.78.55,1.69-.66,1-1.31a30.05,30.05,0,0,1-8.49-15.58,45.86,45.86,0,0,1,.75-20.38,30.81,30.81,0,0,1,4.25-9.89c.36-.53-.47-1-.84-.49Z" class="color525252 svgShape" opacity=".5"/><path fill="#f5aca6" d="M3037.78,1393.57s-1.79,23.84-47.94,26.64c-27.89,1.7-34.49-12.5-34.49-12.5l3.35-61,68.67-22.78Z" class="colorf5b0a6 svgShape"/><path fill="#f5aca6" d="M3041.56,1302.61c-8.12,19.94-30.35,40.46-61.58,48.36-14.4,3.64-27.86,2.58-36-3.62-10.14-7.74-15.45-18.83-17.56-31.41a100.58,100.58,0,0,1-.35-26.46c2.73-24.87,12.6-50.75,20.52-67.2C2997,1172.34,3051.79,1277.55,3041.56,1302.61Z" class="colorf5b0a6 svgShape"/><path fill="#f1928a" d="M3009.52,1339.29c-1.15,2.69-16.78,53-53.54,49.62l1.68-36.27,1,.17a62.75,62.75,0,0,0,35-3.5C3003.88,1345.1,3008.81,1340,3009.52,1339.29Z" class="colorf18a8b svgShape"/><path fill="#f5aca6" d="M3025.89,1298.73c4.9-12.38,17.7-8.08,20.81-4.88,2.24,2.31,2.75,5.81,2.58,9a28.42,28.42,0,0,1-10.94,20.76,16.33,16.33,0,0,1-7.79,3.53c-8.05,1-12.14-5.68-11.19-12.36Z" class="colorf5b0a6 svgShape"/><path fill="#dd8a83" d="M2953.74,1319a1.55,1.55,0,0,1-1.18-.55c-2.43-2.88-10.25-12.61-8.71-16.75s10.73-3.36,15.68-2.7c4.59-9.75,5.48-26.56,5.49-26.74a1.51,1.51,0,0,1,1.61-1.46,1.54,1.54,0,0,1,1.46,1.62c0,.76-1,18.81-6.32,29a1.53,1.53,0,0,1-1.59.81c-6.94-1-13-.54-13.45.57-.55,1.48,3.27,7.88,8.18,13.7a1.53,1.53,0,0,1-1.17,2.53Z" class="colordd8387 svgShape"/><path fill="#151515" d="M2981.69,1290.63c-.9,2.61.18,5.36,2.42,6.12s4.76-.73,5.66-3.35-.18-5.35-2.41-6.12S2982.59,1288,2981.69,1290.63Z" class="color151515 svgShape"/><path fill="#151515" d="M2939.51,1282.78c-.9,2.62.18,5.36,2.41,6.12s4.77-.73,5.67-3.34-.18-5.36-2.41-6.13S2940.41,1280.16,2939.51,1282.78Z" class="color151515 svgShape"/><path fill="#dd8a83" d="M2962.47,1332a20.88,20.88,0,0,1-13.33-5.06,1.54,1.54,0,1,1,1.94-2.39c11,8.88,20.79,1.67,21.2,1.36a1.54,1.54,0,0,1,1.87,2.45A21.09,21.09,0,0,1,2962.47,1332Z" class="colordd8387 svgShape"/><path fill="#f1928a" d="M2977.66,1310.89c-1.5,7.81,5.08,15.65,14.7,17.49s18.63-3,20.13-10.81-5.08-15.65-14.69-17.5S2979.16,1303.07,2977.66,1310.89Z" class="colorf18a8b svgShape" opacity=".6"/><path fill="#f1928a" d="M2936.53,1305.66c-1,4.95-4.89,8.71-10.07,10.28a100.58,100.58,0,0,1-.35-26.46C2933.3,1292.46,2937.81,1299.09,2936.53,1305.66Z" class="colorf18a8b svgShape" opacity=".6"/><path d="M3004.56,1280.54a1.55,1.55,0,0,1-1.43-1c-2.43-6-6.65-9.3-12.54-9.8a21.05,21.05,0,0,0-8.33,1,1.54,1.54,0,1,1-1.1-2.88c.18-.06,17.91-6.59,24.83,10.47a1.56,1.56,0,0,1-.85,2A1.7,1.7,0,0,1,3004.56,1280.54Z" class="color000000 svgShape"/><path d="M2934.24,1268.87a1.53,1.53,0,0,1-1.14-2.57c12.31-13.69,26.75-1.51,26.9-1.38a1.54,1.54,0,0,1-2,2.33c-.51-.44-12.33-10.32-22.61,1.11A1.51,1.51,0,0,1,2934.24,1268.87Z" class="color000000 svgShape"/><path d="M3022.42,1300.24c-8.16-4.1-32.86-32.53-35.46-57.42-21.89-11.13-64.93,8.61-73.91,35.86-20.14-52.33,17.77-81.22,36-90a71.67,71.67,0,0,1,44.33-6c7.19,1.42,13.76,4.28,21,5.66,8.1,1.54,16,4,22.44,9.36a50.82,50.82,0,0,1,17.6,34.07,111.58,111.58,0,0,1,.21,13.93c-.2,7.38-.4,14.81-1.86,22C3048.12,1290.49,3057.79,1318,3022.42,1300.24Z" class="color000000 svgShape"/><path fill="#525252" d="M2977.5,1225.33a69.6,69.6,0,0,0-37.95,9.22,62.16,62.16,0,0,0-25.29,27.39c-3,6.36-5,13.31-4.84,20.37a1.16,1.16,0,0,0,2.27.31,76.32,76.32,0,0,1,4.56-17.39,58.1,58.1,0,0,1,9.18-15.08,65.66,65.66,0,0,1,30.82-20.18,81.32,81.32,0,0,1,21.25-3.8.42.42,0,0,0,0-.84Z" class="color525252 svgShape" opacity=".5"/><path fill="#525252" d="M2926.81,1214.12a52.23,52.23,0,0,0-9.68,9.63,78.71,78.71,0,0,0-8.83,13.78,69.37,69.37,0,0,0-5.8,15.76,41.11,41.11,0,0,0-.67,15.66,26.76,26.76,0,0,0,2.23,7.08,18.76,18.76,0,0,0,4.33,6,8.36,8.36,0,0,0,1.67,1.17c.85.43,2-.49,1.4-1.39-.69-1.06-1.54-2-2.31-3a1,1,0,0,1-.13-.17c-.1-.13-.2-.26-.29-.4s-.35-.49-.51-.75c-.32-.48-.63-1-.92-1.47s-.56-1-.81-1.52l-.34-.75c0-.06-.16-.37-.07-.17a4.22,4.22,0,0,1-.18-.45,25.25,25.25,0,0,1-1.05-3.37c-.13-.57-.25-1.15-.35-1.72-.05-.28-.09-.56-.13-.84s0,0,0,0a1.5,1.5,0,0,1,0-.22l-.06-.49a35.08,35.08,0,0,1-.19-3.69,40.62,40.62,0,0,1,.69-7.39,66.66,66.66,0,0,1,4.76-15.23,89.94,89.94,0,0,1,7.76-14.06,61.65,61.65,0,0,1,8.81-10.58c.36-.33.71-.65,1.08-1s-.09-.71-.39-.5Z" class="color525252 svgShape" opacity=".5"/><path fill="#525252" d="M2998.86,1247.62a103.47,103.47,0,0,0,7.73,25.42,70.68,70.68,0,0,0,15.08,21.81c3.42,3.26,7.42,6.52,11.93,8.09,1,.36,1.53-1.13.7-1.68-1.73-1.15-3.52-2.22-5.25-3.39a49.46,49.46,0,0,1-4.85-3.8,60.28,60.28,0,0,1-8.42-9.35,98.56,98.56,0,0,1-12.34-23.36,115.48,115.48,0,0,1-4.23-13.83c-.05-.24-.39-.14-.35.09Z" class="color525252 svgShape" opacity=".5"/><path fill="#525252" d="M3018.16,1270.06a104.62,104.62,0,0,0,11.17,27.81c.69,1.19,1.42,2.34,2.19,3.47a19.15,19.15,0,0,0,2.89,3.33c.64.59,2,0,1.59-.92a25.12,25.12,0,0,0-1.62-3.44c-.63-1-1.23-2.1-1.86-3.14q-1.89-3.2-3.57-6.51a110.05,110.05,0,0,1-5.58-13.31q-1.38-4-2.44-8.06a1.44,1.44,0,0,0-2.77.77Z" class="color525252 svgShape" opacity=".5"/><path fill="#525252" d="M3018.48,1219.55A100.31,100.31,0,0,0,3016,1259a112.54,112.54,0,0,0,2.07,11.08c.44,1.86,3.35,1.07,2.87-.79a112.41,112.41,0,0,1-3.06-38.45,99.27,99.27,0,0,1,1.59-11c.13-.67-.85-1-1-.29Z" class="color525252 svgShape" opacity=".5"/><rect width="997.39" height="1003.88" x="915.59" y="566.93" fill="#99b1da" class="color99b1da svgShape"/><rect width="912.3" height="917.97" x="961.47" y="607.03" fill="#d1dced" class="colord1dbed svgShape"/><rect width="28.61" height="915.52" x="1432.26" y="608.67" fill="#2f7141" class="color2f4171 svgShape" opacity=".3"/><polygon fill="#fff" points="1066.3 651.81 1072.77 1466.28 1720.58 1466.28 1727.05 651.81 1066.3 651.81" class="colorffffff svgShape" opacity=".5"/><rect width="37.82" height="915.52" x="963.21" y="608.67" fill="#2f7141" class="color2f4171 svgShape" opacity=".3"/><rect width="45.78" height="957.01" x="1387.36" y="590.08" fill="#99b1da" class="color99b1da svgShape"/><polygon fill="#2f7141" points="3687.58 2634.37 833.87 2634.37 995.1 2408.66 3256.31 2408.66 3687.58 2634.37" class="color2f4171 svgShape"/><polygon fill="#3d9153" points="3458.69 2590.04 995.08 2590.04 1104.48 2436.89 3193.67 2436.89 3458.69 2590.04" class="color3d5891 svgShape"/><path fill="#f5aca6" d="M2132.66,719.83c14.88-14.24,35.22-25,40.64-71.68-5.83-30.17-10.76-87.39-13.45-94.6L2245,534.11c35.26,102.06,78.43,111.11,124.23,124.8,23.86-4.51-3.69,167.76-17.72,172.35C2141.59,899.62,2113,731.61,2132.66,719.83Z" class="colorf5b0a6 svgShape"/><path fill="#f5aca6" d="M2752.59,2412.4c7.92-6.34,49.49-72.48,66.39-118.67-.22-5.8-.66-12.14-1.48-19.46-8.58-76.92-123.85-253.08-24.76-270.4,47.26-8.19,63,57.07,99.6,214.65,8.69,37.64,34.12,38.21,42.73,59.9,9.25,14.26,6.76,25.2-6.07,39.66-19.11,21.46-43,33.45-54.95,81.19s-17.53,44.37-33.42,54.13c-10.34,6.35-12,10.37-26.27,10.37s-1.19-11.57-1.19-11.57-18.72,12.35-33.86,11.57c-7.81-.42-8-2.68-5.43-5.3a36.77,36.77,0,0,1-12.11,2.11c-9.39,0-2.08-5.41,6.15-10.15-7.72,3.45-17.25,6.57-24.47,5.4-9.4-1.61,3.53-13,13.59-20.72-2.21,1.37-4.74,2.9-8,4.8-16.72,9.52-24.24,8.54-29.45-3.23C2716.37,2429.53,2740.67,2421.94,2752.59,2412.4Z" class="colorf5b0a6 svgShape"/><path fill="#2c58a2" d="M2344.48,1223.1c33.44,47.76,232.53,485.77,251.67,538.34s47.77,71.66,71.68,105.08,129,372.68,129,372.68,88.37-4.76,93.15-47.75-33.45-341.65-131.38-477.83c-62.14-301-105.13-415.67-172-516S2344.48,1223.1,2344.48,1223.1Z" class="color2c4da2 svgShape"/><path fill="#f5aca6" d="M2267.59,2426c3,3.38,5.14,4.8,7.08,5.2-3,2-3.85,4.49.33,7.48,3.61,2.61,8.7,2.43,13.86,1.29-5.18,3.26-8.27,7-3.8,10.42,10.67,8.12,28.1,0,49.32,0s38.15,0,74.19-21.24,55.14-10.59,72.12-19,16.95-38.21,0-70c-.41-.69-.93-1.21-1.36-1.88-6.75-18.78-13.19-39.27-11-59.54,17.3-160.82,26.9-193.06-20.43-200.84-99.29-16.23-54.76,179.75-71.92,255.17-2.26,10-4.05,17.51-5.53,23.54-27.74,14.89-63.62,28.81-72.13,37.34-9.83,9.82-40.83,7.8-26.67,16.12-2.1,1.32-3.74,3.11-3.51,5.41.27,3.38,3.33,4.27,7,4.11C2269.81,2421.17,2265.32,2423.42,2267.59,2426Zm22.56.21a46.76,46.76,0,0,1,6.41-1.06C2295.06,2425.33,2292.76,2425.66,2290.15,2426.17Z" class="colorf5b0a6 svgShape"/><path fill="#2c58a2" d="M2327.17,1133c-92.68,155.15-16.43,496.81.9,635.11,6.19,49.42,10.58,412.47,29.34,469.53,75.66,31.08,130.35-.38,130.35-.38s39.09-294.3-11.07-406.58c-1.84-4.1-8.38-363.55-11.17-515.22-2.95-160.66-2.08-115.74,0-184.74C2467.17,1079.44,2327.17,1133,2327.17,1133Z" class="color2c4da2 svgShape"/><path fill="#2a9346" d="M2333.33,1850.62c-9.46-75.67-78-277.14-84.4-474.64-6.15-110.56,3.19-113.84-8.73-209.41,0,0-16.42,11.49,9.53,14.32,21.5,81.25,36.2,89.7,33.68,176.2-5.79,197.28,62.44,348.68,67.45,399.57,8,81.24,37.32,68.53,34.7,86.3-5.18,35.18.21,346.37,12.57,408.34a195.77,195.77,0,0,1-42.63-11.72C2336.7,2182.52,2339.5,1900,2333.33,1850.62Z" class="color2a4a93 svgShape"/><path fill="#eda8a2" d="M2111.15,735.37c-53.06,97.2-60.82,262.3-84.23,321.89-7.39,18.89,17.5,11.69,17.5,11.69l52.77-7.42s75.62-143.08,73.15-174.68S2111.15,735.37,2111.15,735.37Z" class="coloreda9a2 svgShape"/><path fill="#f1776d" d="M2112.37,715.05c-9.94-16.65-39.92,32.93-52.56,100.34-8.32,44.6-21.11,141.75-21.11,141.75l97.19,16-2-84.33S2122.77,732.51,2112.37,715.05Z" class="colorf19a6d svgShape"/><path fill="#ea4335" d="M2172.72,892.47l-59.16-148.74c-18.52,26.93-47.34,185.81-46.19,215,49.88,15.49,84.45,23.9,84.45,23.9Z" class="coloref7c59 svgShape" opacity=".3"/><path fill="#b4b4b4" d="M2239.19,481.51c11.06-58.36,38.17-.6,36.49,19.92-2,25.22-5.21,27.05-5.21,27.05Z" class="colorb4b4b4 svgShape"/><path fill="#eda8a2" d="M2074.65,1010.12s-35.56,9.33-187.16,96.9c0,0-38.82.26-49.27,5.69-10.53,5.27-31,13.37-31,13.37s1.84,9.63,29.68-.17c0,0-22.39,10.24-37.87,19.44-15.89,9.43-25.4,11.45-21.49,16.4,2.2,2.77,22.21-3.43,32.64-8.93,10.6-5.22,18-8,18-8s-13.08,7.34-23.32,12.3c-8.32,4-29.53,9.17-29.06,15.17.5,8,37.41-4.61,37.41-4.61l22-7.45s-5.72,2.38-21,8.63c-6.55,2.76-29.8,7.79-27.09,14,2.55,6,25.11-1.62,29.62-2.63,6.73-1.55,27.94-8.08,27.94-8.08,5.28-2-7.62,4.79-23.81,11-5.32,2-18.53,4.66-21.5,6.93-3.37,2.62,2.55,5.63.27,4.38,7.32,4,42.42-4.83,50.68-9.18,16.73-8.8,48.71-26.91,54.38-32.88s189-56.82,195.2-95.17Z" class="coloreda9a2 svgShape"/><path fill="#fbbc05" d="M2338.13,645c-23.87,33.45-36.64,66.89-62.11,117.85-30.23,60.42-108.32,63.7-132.21,6.38s5.58-80.46,5.58-80.46l-43,27.46s-.8,78.46,8.78,115.1,9.55,94,30.26,113.06,43.79,40.64,51.73,93.18,14.35,250.81,28.7,284.27c35-9.54,94.75,47.81,185.5-9.52s188-121.06,202.28-111.52c-48.55-117.85-140.47-163.44-138.56-242,4.78-195.91-44.61-293.08-44.61-293.08Z" class="colorf3ce90 svgShape"/><path fill="#f5aca6" d="M2021.23,1200.61c-4-4.09,30.53-37.35,37-41.94,7.62-5.3,35.24-27.25,22.88-29.22-10-1.6-21,2.58-28-.38s-.92-9.54,5.46-10.45c17.47-2.51,30.36-14.33,40.43-14.42s18.17-3.93,28-5.76c7.85-1.37,127.73-88.94,144.15-103.87,20.54-41.76,81.23-193.51,109.89-258,0,0,80-2.39,75.28,78.81s-125.31,245.92-139.79,247.26c-41.8,43-144.48,78.84-150.35,85.09-16.45,17-55.22,48.78-55.22,48.78s-34.69,32.57-38.45,30.2c-7.68-4.67,24.71-27.63,21.7-34.59-4-8.73-51.51,49.28-52.43,27.94-.17-3,10-8.71,18.53-16.61,9.23-8.43,17.7-16.38,17.7-16.38-8.59-1.46-38.11,35.3-49.88,27.54-5.55-3.69,40.39-40.61,38.54-43.74C2064.42,1167,2028.8,1208.24,2021.23,1200.61Z" class="colorf5b0a6 svgShape"/><path fill="#f1776d" d="M2468.22,704c16.21,35.27,15.06,89.73-5.37,143s-37.07,92.39-37.07,92.39-124.63-18.75-134.5-38.59c27.23-98.63,41.82-170.85,60-198.22s47.21-41.35,69.69-40.32S2468.22,704,2468.22,704Z" class="colorf19a6d svgShape"/><path fill="#ea4335" d="M2408.18,883.86c15.93,51,25.49,98.72,19.12,119.46s-51,30.28-31.88,35.06,39.85-9.58,51-9.58-25.49,27.1-19.12,38.23,9.55-23.89,35,1.59c87.39,87.3,39.51,193.44,44.61,176.76,74.85-27.07,106.7-44.58,106.7-44.58s-65.29-114.66-124.22-189.51c-37.13-47.19,3.17-186.31-22.32-216.6S2408.18,883.86,2408.18,883.86Z" class="coloref7c59 svgShape" opacity=".3"/><path fill="#f5aca6" d="M1852.92,1165.34c-20.8,13.15-174.59,140.59-225.12,252.06-8.42,18.58-19.11,25.5-19.11,41.42s32.66,179.14,48.59,252.41,44,107,55,124.25c16.72,26.28,46.62,145.73,46.62,145.73l70.08-181.55-47.36-41.83s-19.16-55.36-19.16-77.64-48.6-156.87-69.29-222.16c50.51-51,170.82-228.54,183.58-257.23S1852.92,1165.34,1852.92,1165.34Z" class="colorf5b0a6 svgShape"/><path fill="#f5aca6" d="M1865.11,1209.61c20.71-11.15,38.23-21.07,38.86-31.44s12.73-95.68.25-104.24-16.77-8.19-27.79,11.65c-8.83,15.92-18.45,78.5-37.62,93S1865.11,1209.61,1865.11,1209.61Z" class="colorf5b0a6 svgShape"/><path fill="#f5aca6" d="M1873.44,1092.51c7.71-14.15,22.3-88.79,27.91-93.39s7-2.31,5.63,4.47-10.89,64.61-12.28,72.35S1873.44,1092.51,1873.44,1092.51Z" class="colorf5b0a6 svgShape"/><path fill="#f5aca6" d="M1888.32,1083.36c1.27-20.42,11.85-78,18.64-77.65s-1.39,35.12-1.39,35.12,5.07-14.14,6.29-5.86c1.14,7.74-3.09,60.4-4.48,67.13S1888.32,1083.36,1888.32,1083.36Z" class="colorf5b0a6 svgShape"/><path fill="#f5aca6" d="M1952,1210.93c-15.66-2.28-43-20.58-43.24-31s-8.87-96.05,3.94-104.1,17.09-7.51,27.29,12.76c8.16,16.25,7.58,67.17,26.12,82.36S1952,1210.93,1952,1210.93Z" class="colorf5b0a6 svgShape"/><path fill="#f5aca6" d="M1942.74,1095.66c-7.17-14.5-19.88-92.6-25.79-96.54-5.09-3.41-6.46-2.9-5.33,3.88s9.43,67.4,10.58,75.21S1942.74,1095.66,1942.74,1095.66Z" class="colorf5b0a6 svgShape"/><path fill="#f5aca6" d="M1935,1085.92c-.45-20.52-16.87-80.83-23.68-80.72s4.67,32.42,4.67,32.42-5.81-10.69-5.62-2.91,3.75,62.36,4.87,69.15S1935,1085.92,1935,1085.92Z" class="colorf5b0a6 svgShape"/><path fill="#f5aca6" d="M1959.88,1165c20.8,13.15,158.48,165.58,219,255.54,11.39,17,19.11,25.52,19.11,41.44s-30.26,195.09-46.14,268.36-44,102.23-55,119.44c-16.72,26.3-39,131.41-39,131.41l-70.08-181.55,47.36-41.83s11.61-69.68,11.61-92,31.84-144.94,52.53-210.25c-38.23-54.13-152.87-231.7-165.63-260.38S1959.88,1165,1959.88,1165Z" class="colorf5b0a6 svgShape"/><path fill="#34a853" d="M2000,2264.56c62.37,0,343.34-124.86,400.54-15.63,0,0,20.81,52,10.42,88.46s-213.32,111.81-228.9,111.81-137.88,80.63-275.74,39C1822.87,2463,2000,2264.56,2000,2264.56Z" class="color40947e svgShape"/><path fill="#34a853" d="M1782.84,2264.56c-62.39,0-343.36-124.86-400.57-15.63,0,0-20.78,52-10.39,88.46s213.28,111.81,228.88,111.81,166.45,75.42,304.32,33.83C1988.52,2457.8,1782.84,2264.56,1782.84,2264.56Z" class="color40947e svgShape"/><path fill="#f5aca6" d="M1781.54,1701.4c19.57,0,47.12-16.54,55.68-40.25,9.27-38.46,10.58-109.76,10.58-119.09l44.56-3.38h.63l50.4,4c0,9.92,0,92.37,18.69,131.9,12.14,16.22,32.74,26.79,48.35,26.79,23.41,0,39.69-30,57.75.28,0,0-37.61,129.74-45.39,164.84s21.47,235.4,17.58,251.66c-.92,3.79-88.58,20.41-144.43,17.71-55.85,2.7-156.54-30.25-157.44-34-3.93-16.29-32.26-224.55-37-285.48-2.81-35.86-5.94-117-5.94-117C1707.24,1675.88,1758.11,1701.4,1781.54,1701.4Z" class="colorf5b0a6 svgShape"/><path fill="#6fc185" d="M1721.8,2160.33c.67-36-2.51-107.32-22.23-240.11,33.16-55.63,46.81-207.15,35.08-222.75l18.58-4.87s18.52-8.46,54.61,48.14,151.18,51.71,175.58,2.94,39.94-44.24,45.81-45.22,17.57,4.19,17.57,4.19c-10.4,44.26-3.94,191.52,11.73,217.57s16.86,34.79,16.86,34.79-43.15,157.89-24.41,227.57c43.12,97,62.11,168.83,57.49,206.25-5.83,47.57-415.42,135.79-457.28-24.25C1637.35,2311.34,1693.77,2241.79,1721.8,2160.33Z" class="color6fc183 svgShape"/><path fill="#eda8a2" d="M2184.65,2335.4c-89.4,22.26-304,153.11-345.58,151.41s-18.79-19-54.82-28.36c-25.66-6.65-22.69,13.38-64.27,11.62s-85.29-15.35-106.34-11a8.38,8.38,0,0,0-4.07,2.48c-20,2.73-50,5.17-46.38,21.45,4.36,19.69,34.84,8,41.37,8.24-19.8,5.67-44.71,9.82-35.88,16.69,7.52,5.91,25.26,4,30.17,3.34-6.31.93-32,5-24.22,10,8.87,5.56,29.52,2.19,29.52,2.19s-25.81,6.27-19.47,10.43,28.2,2.15,28.2,2.15-18.14,4-13,8.26c3.31,2.61,23.16,5.5,35.34,3.16a17.44,17.44,0,0,0,6,1.3c31.16,1.32,129.72,10.69,228.91,4.47s345.57-40.73,373.13-76S2184.65,2335.4,2184.65,2335.4Z" class="coloreda9a2 svgShape"/><path fill="#f5aca6" d="M1569.53,2330.18c88.44,26,355.66,175.25,397.29,175.25s21.5-6.16,57.85-14c25.92-5.53,22.13,14.32,63.78,14.32s75.41-9.12,97.53-7.5c1.64.17,12,2.4,13.1,3.64,22.62,11,29.13,13.93,24.28,25.3-7.94,18.6-34.63,1.43-41.15,1.43,19.49,6.49,42.14,15.81,33,22.32-7.76,5.56-23.31-1.19-28.18-2.09,6.26,1.19,31.78,6.4,23.8,11-9.14,5.19-29.57,1-29.57,1s25.55,7.31,19,11.19-28.26,1-28.26,1,17.94,4.77,12.64,8.72c-3.36,2.55-23.34,4.58-35.43,1.7-1.95.69-78.15-12.07-177.51-10.74-94.93,1.33-454.23-81.28-480.25-117.67S1569.53,2330.18,1569.53,2330.18Z" class="colorf5b0a6 svgShape"/><path fill="#34a853" d="M1760.7,1997.89c15.59,46.87,24,161.93,18.21,175.6s-28.65,104.71-36.42,98.87-54.64-29.3-54.64-29.3,42.49-56.53,38.42-113.77c-4-54.63-12.4-149.6-12.4-149.6Z" class="color40947e svgShape" opacity=".3"/><path fill="#34a853" d="M1743.79,1776.18c0,75.42-2,128.76-2,162.6s46.19,42.2,86.47,38.29,150.92,3.94,162.61,10.42,46.78,29.91-1.31,20.83-221.12-33.81-232.78-1.26-40.35,6.45-43.6-2-8.47-81.28-8.47-81.28Z" class="color40947e svgShape" opacity=".3"/><path fill="#2e683d" d="M1571.51,2260.67c-26-19.52-128.11-57.28-158.06-37.76s-57.2,74.15-36.41,109.25c16.26-60.48,41-82.58,69.56-76s83.93,39,83.93,39Z" class="color2e6857 svgShape" opacity=".3"/><path fill="#2e683d" d="M2329,2216.4c-40.34,1.33-144.39,49.46-157.37,59.83,0,0,37.67,27.36,42.9,40.33,71.53-63.71,140.44-94.92,172.94-74.15C2343.33,2211.23,2329,2216.4,2329,2216.4Z" class="color2e6857 svgShape" opacity=".3"/><path d="M1780.54,1431.14c-1.43,1.91-2.92,3.78-4.35,5.69-1.29,1.7-2.41,3.55-3.59,5.33-2.5,3.75-5.13,7.46-7.49,11.3-4.67,7.61-9.15,15.36-13.28,23.28a120.52,120.52,0,0,0-14.37,41.51c-1.14,6.45-2.13,12.94-3.54,19.34a121.65,121.65,0,0,1-6.74,21.48,209.43,209.43,0,0,1-11.31,21.68c-3.2,5.59-6.49,11.15-10.12,16.49a147.52,147.52,0,0,1-26.22,28.79c-1.52,1.31-3.06,2.59-4.62,3.86a2.14,2.14,0,0,0,0,3,94.47,94.47,0,0,0,20.83,17.06,177,177,0,0,0,27.24,13.69,220.81,220.81,0,0,0,59.76,15.5,103.83,103.83,0,0,0,15,.62,58.82,58.82,0,0,0,7.18-.73c1.19-.2,2.14-.38,3.15-.62s2.15-.76,3.18-.94c2.07-.38,1.2-3.55-.88-3.17a17.1,17.1,0,0,1-2.38,0c-1,0-2,0-2.94.07-2,.05-4,0-6,.07-4.34,0-8.68,0-13-.35a188.67,188.67,0,0,1-28.58-4.27c-19.73-4.44-39.12-11.62-56.53-22-8.37-5-16.45-10.74-23-17.95v3c10.48-8.88,20.2-18.52,28.16-29.75,3.59-5.09,6.83-10.41,9.92-15.82,3.83-6.71,7.68-13.47,11.07-20.41a121.9,121.9,0,0,0,8.31-22.23c1.73-6.55,2.9-13.23,4-19.91,1.08-6.49,2.16-13,3.82-19.37a113.63,113.63,0,0,1,8.08-21.29c3.91-8,8.22-15.88,12.75-23.58,2.29-3.88,4.52-7.81,6.85-11.66s5-7.58,7.05-11.55c1-2,2.13-3.88,3.23-5.81.23-.39-.33-.68-.58-.34Z" class="color000000 svgShape"/><path d="M2131,1556.24s-19.46,57.1-108.25,94.55q-8.17,3.45-17.16,6.66a383.43,383.43,0,0,1-49.06,13.77c-45.1,9.61-83.4,12.78-115.64,11.93a320.24,320.24,0,0,1-56-6.16c-66.58-13.67-92.44-44.81-92.44-44.81,61.29-76.53,30.32-86.27,56.8-167.28,27.45-83.94,108.23-117.38,208-87.32,71.81,21.64,52.85,89.88,110.54,138.86C2113.44,1555.22,2131,1556.24,2131,1556.24Z" class="color000000 svgShape"/><path fill="#4c4c4c" d="M2005.6,1657.45a383.43,383.43,0,0,1-49.06,13.77c-45.1,9.61-83.4,12.78-115.64,11.93a320.24,320.24,0,0,1-56-6.16c6.19-14.65,13.5-28.37,19.8-37.09,45.88-63.47,24.38-171,103-194.4s65.34,40.29,69.22,87.21C1979.75,1566.76,1991.26,1628.24,2005.6,1657.45Z" class="color4c4c4c svgShape" opacity=".3"/><path fill="#757575" d="M2046.86,1533.3c7.43,11.8,15.46,23.46,25.67,33,1.61,1.52,3.28,3,5,4.37.95.8,1.92,1.59,2.9,2.36s2.09,1.79,3.19,2.62c4.29,3.24,8.7,6.34,13.28,9.16a66.69,66.69,0,0,0,7,3.77,26.88,26.88,0,0,0,6.13,2.2,1.88,1.88,0,0,0,2.25-1.27,1.85,1.85,0,0,0-1.28-2.25,17.58,17.58,0,0,1-2.28-.67l-.66-.25-.34-.14s-.41-.17-.11,0-.1,0-.13-.06l-.35-.15-.72-.33a68.22,68.22,0,0,1-6-3.25c-4.55-2.72-9-5.61-13.27-8.71-1.05-.76-2.09-1.55-3.19-2.26-.53-.34-1-.72-1.53-1.1l-.7-.53-.38-.29-.15-.12c-1.71-1.32-3.39-2.67-5-4.07a116.4,116.4,0,0,1-13.86-14.31c-5-6-9.55-12.25-14.26-18.42-.52-.67-1.65-.07-1.17.69Z" class="color757575 svgShape" opacity=".5"/><path fill="#757575" d="M1994.55,1568c1,14.27,2.61,28.73,7.36,42.31.69,2,1.45,3.91,2.25,5.84.49,1.21,1,2.41,1.52,3.61.21.47.3.75.55,1.43s.61,1.44.94,2.15c2.21,4.77,4.6,9.47,7.26,14a63.87,63.87,0,0,0,4.32,6.47,27,27,0,0,0,4.27,4.73,1.89,1.89,0,0,0,2.58,0,1.85,1.85,0,0,0,0-2.58,18,18,0,0,1-1.7-1.68c-.29-.32-.57-.66-.84-1l-.4-.49c-.28-.35.25.33,0,0l-.32-.43c-1.33-1.78-2.53-3.66-3.68-5.57q-4-6.64-7.43-13.61c-1.12-2.27-2.3-4.51-3.34-6.82s-1.6-3.61-2.44-5.75a115,115,0,0,1-5.56-19.18c-1.61-7.82-2.71-15.72-4-23.6-.12-.75-1.38-.58-1.33.18Z" class="color757575 svgShape" opacity=".5"/><path fill="#757575" d="M2061.76,1584.44c2.42,4.74,4.73,9.6,7.87,13.93a46.24,46.24,0,0,0,9.54,9.2c1.1.85,2.21,1.67,3.32,2.49l1.91,1.39c.78.56,1.6,1.37,2.61,1.38a2,2,0,0,0,1.19-.32,1.14,1.14,0,0,0,.44-1c0-1.25-1-1.87-1.92-2.5-1.26-.89-2.53-1.77-3.78-2.68-1.06-.76-2.11-1.53-3.15-2.33l-.17-.12h0l-.31-.25-.68-.54-1.26-1a43.54,43.54,0,0,1-4.34-4.25c-.67-.77-1.35-1.51-2-2.3-.77-.94-1.22-1.53-1.93-2.49-1.69-2.28-3.39-4.55-5-6.87l-1.51-2.16a.47.47,0,0,0-.81.48Z" class="color757575 svgShape" opacity=".5"/><path fill="#757575" d="M2048.06,1606.19c.47,1.82,1,3.62,1.61,5.4a28.22,28.22,0,0,0,2.37,5.15,45,45,0,0,0,6.91,9.17,40.6,40.6,0,0,0,4.93,4.43l.77-2.87c-.33,0-.88-.23-1.36-.29l.53.14a1.84,1.84,0,0,1-.51-.53c-.37-.57-1.51-.42-1.41.38a7.92,7.92,0,0,0,.45,1.62,3.16,3.16,0,0,0,1.53,1.55,1.54,1.54,0,0,0,1.55-2.66,52.28,52.28,0,0,1-4.18-3.23,44,44,0,0,1-7.06-8.17c-1-1.51-1.86-3.12-2.81-4.67a28.1,28.1,0,0,1-2.62-5.61.36.36,0,0,0-.7.19Z" class="color757575 svgShape" opacity=".5"/><path d="M1926.67,1374.38c2.41-1.06,4.9-1.91,7.4-2.76a65,65,0,0,1,7.63-2,67.11,67.11,0,0,1,15.43-1.24,68.22,68.22,0,0,1,15.28,2.45,64.81,64.81,0,0,1,14.32,5.69,59.39,59.39,0,0,1,22.25,21.07,62.85,62.85,0,0,1,6.37,13.94,67.3,67.3,0,0,1,3,15,63,63,0,0,1,.15,7.89c-.06,1.3-.17,2.6-.31,3.9s-.27,2.16-.52,3.56c-.45,2.59-.94,5.17-1.63,7.7s-1.52,5-2.19,7.45a37.48,37.48,0,0,1-1.24,3.56c-.41,1,1.17,1.58,1.71.72a48.68,48.68,0,0,0,3.8-6.94,45.94,45.94,0,0,0,2.41-8,63.76,63.76,0,0,0,1.31-16.25,70.18,70.18,0,0,0-8.38-31,62.36,62.36,0,0,0-22-23.23,67.8,67.8,0,0,0-14.66-6.74,59.3,59.3,0,0,0-7.76-2c-2.68-.46-5.4-.75-8.11-1a67,67,0,0,0-16.07.65,54.24,54.24,0,0,0-15.25,4.67c-1.2.59-2.37,1.23-3.52,1.9-.62.36-.07,1.22.56.94Z" class="color000000 svgShape"/><path fill="#757575" d="M1717.66,1652.44a16.37,16.37,0,0,0,2.06-1.65c.66-.69,1.29-1.43,1.92-2.15q1.66-1.87,3.27-3.79,3.18-3.8,6.11-7.78a116.24,116.24,0,0,0,9.27-14.81c5.41-10.35,8.83-21.47,11.19-32.87,1.4-6.72,2.51-13.5,3.53-20.29,1-6.48,1.86-12.94,2.26-19.49.87-13.89.66-27.83,1.59-41.73a205.3,205.3,0,0,1,6.63-41.44c.42-1.51.89-3,1.43-4.47.28-.78-.94-1.27-1.34-.56a63.93,63.93,0,0,0-4.26,8.87,74.63,74.63,0,0,0-3,9.8,158.09,158.09,0,0,0-2.9,21.46c-1.06,14.11-1,28.27-1.64,42.4A277,277,0,0,1,1749,1583c-2.12,11.44-4.88,23-9.6,33.63-4.92,11.12-11.95,21.07-19.88,30.23-.57.66-1.16,1.3-1.72,2a17.56,17.56,0,0,0-1.49,2.22c-.51.82.56,2,1.39,1.39Z" class="color757575 svgShape" opacity=".5"/><path fill="#757575" d="M1748.05,1661.51a58,58,0,0,0,5.8-6.7c1.59-2,3.18-3.92,4.7-5.94a117.43,117.43,0,0,0,6.78-9.78c4.17-6.9,6.74-14.49,8.74-22.26a151.8,151.8,0,0,0,3.69-17.23,109.65,109.65,0,0,0,.82-18.91c-.48-13-2.67-25.89-4.21-38.81s-3-26.09-1.6-39.18c.17-1.65.35-3.3.59-4.94.09-.67-.86-1-1.06-.29-3.57,12.6-3.38,25.87-2.39,38.81.49,6.56,1.53,13.09,2.38,19.61s1.65,12.79,2.2,19.22a129.25,129.25,0,0,1,.41,18.77,113.28,113.28,0,0,1-2.86,17.93c-1.81,8.15-4,16.26-7.85,23.52a89.39,89.39,0,0,1-6,9.55c-2.86,4-5.79,8-8.69,12l-1.24,1.7a16.17,16.17,0,0,0-1.22,2.14.68.68,0,0,0,1.06.83Z" class="color757575 svgShape" opacity=".5"/><path fill="#757575" d="M1783.11,1677.06a38,38,0,0,0,6.38-7.21,41.47,41.47,0,0,0,3.89-7.66c2-5.17,2.88-10.64,3.71-16.09.45-3,.89-6.08,1.42-9.1.63-3.59,1.47-7.12,2.09-10.7a73.59,73.59,0,0,0,1.07-18.38c-.23-2.92-.71-5.83-1.19-8.72-.26-1.61-.5-3.23-.86-4.82-.39-1.79-.79-3.57-1.08-5.38-.16-1-.32-2-.47-2.93-.1-.6-1.15-.47-1.08.15.21,1.9.48,3.8.62,5.71.12,1.69.24,3.37.45,5,.35,2.92.7,5.85.92,8.8a76.89,76.89,0,0,1-.49,17.22c-.54,3.6-1.37,7.12-2.07,10.68-.61,3.11-1.11,6.23-1.6,9.36a108.49,108.49,0,0,1-3.27,16.17,38.51,38.51,0,0,1-3.08,7.28,42.47,42.47,0,0,1-2.3,3.67c-.88,1.25-1.69,2.54-2.65,3.74-.53.67-1.07,1.31-1.63,1.95a.86.86,0,0,0,1.22,1.21Z" class="color757575 svgShape" opacity=".5"/><path d="M2030,1475.05a278.17,278.17,0,0,0,20.66,20.55c7.23,6.49,14.77,12.65,22.55,18.48q2.82,2.1,5.68,4.16c2,1.39,3.81,2.88,5.79,4.24q5.73,3.94,11.61,7.66,11,6.94,22.61,12.86c6.86,3.49,13.89,6.7,21,9.52a12.33,12.33,0,0,0,2.43.66,1.34,1.34,0,0,0,1.57-.77,1.32,1.32,0,0,0-.54-1.66,17.06,17.06,0,0,0-2.56-1.2c-.84-.3-1.67-.61-2.5-.93s-1.65-.63-2.47-1l-2.31-.94q-5.36-2.27-10.57-4.81c-7.71-3.74-15.22-7.86-22.6-12.2q-5.9-3.48-11.65-7.18c-3.95-2.54-7.92-5-11.76-7.76q-11.87-8.38-23-17.75a285.11,285.11,0,0,1-21.2-19.78c-.82-.85-1.63-1.7-2.43-2.56-.23-.25-.59.12-.37.37Z" class="color000000 svgShape"/><path d="M2141.83,1551.64a155.21,155.21,0,0,1-19.48,33.48,131.09,131.09,0,0,1-10.68,12.83,101.67,101.67,0,0,1-9.05,8.18,203.15,203.15,0,0,1-24.73,17,236.63,236.63,0,0,1-30,15c-5.16,2.12-10.41,4.05-15.74,5.71-2.56.79-5.14,1.53-7.73,2.19-1.26.32-2.53.63-3.81.91s-2.46.69-3.68,1-2.39.69-3.57,1.13a.81.81,0,0,0,.21,1.58c5.34.25,10.6-1.23,15.73-2.69,5.35-1.53,10.62-3.35,15.8-5.37a236.23,236.23,0,0,0,31-14.83,211.61,211.61,0,0,0,26.22-17.44,99.31,99.31,0,0,0,19.56-20.1,162.66,162.66,0,0,0,20.05-33.81c.62-1.42,1.21-2.84,1.77-4.28a1,1,0,0,0-1.86-.52Z" class="color000000 svgShape"/><path fill="#f5aca6" d="M1830.45,1682.73s21.24,24.85,64.81,23.08c56.46-2.34,59.73-34.27,59.73-34.27l-4-67.13-91.73-48Z" class="colorf5b0a6 svgShape"/><path fill="#f5aca6" d="M1844.14,1523.07c6.87,30,33.54,64.12,75.82,82.48,19.5,8.46,38.74,10.06,51.61,3.16,16.11-8.59,26.16-23,32-40.31,3.82-11.46,5.86-24.21,6.58-37.29,1.88-35.74-6.1-74.57-13.5-99.62C1937,1349.35,1835.46,1485.32,1844.14,1523.07Z" class="colorf5b0a6 svgShape"/><path fill="#f1928a" d="M1880.93,1582.24c1,4.07,20.54,71.46,73.22,75.2l-3.05-44.4-1.48,0c-17.09.2-34.12-4-48.66-13C1887.55,1591.75,1881.77,1583.42,1880.93,1582.24Z" class="colorf18a8b svgShape"/><path fill="#f5aca6" d="M1879.15,1530.05c-4.07-18.61-23.13-15.48-28.26-11.68-3.7,2.74-5.22,7.56-5.72,12.14a40.63,40.63,0,0,0,10.66,31.84,23.4,23.4,0,0,0,10.19,6.78c11.13,3.25,18.45-5.23,18.64-14.88Z" class="colorf5b0a6 svgShape"/><path fill="#dd8a83" d="M1964.74,1566.45a2.2,2.2,0,0,1-1.43-3.87c8.27-7.08,15.14-15.24,14.7-17.45-.32-1.67-8.81-3.78-18.85-3.91a2.23,2.23,0,0,1-2.07-1.51c-5.18-15.57-2.37-41.29-2.25-42.38a2.2,2.2,0,1,1,4.37.49c0,.25-2.63,24.2,1.61,39,7.13.21,20.33,1.43,21.51,7.42,1.23,6.21-12.06,18.14-16.16,21.66A2.19,2.19,0,0,1,1964.74,1566.45Z" class="colordd8387 svgShape"/><path d="M1931.44,1519.94c.66,3.9-1.49,7.52-4.82,8.09s-6.57-2.13-7.23-6,1.49-7.52,4.82-8.09S1930.77,1516,1931.44,1519.94Z" class="color000000 svgShape"/><path d="M1992.81,1518.57c.67,3.9-1.49,7.52-4.81,8.09s-6.57-2.13-7.24-6,1.49-7.53,4.82-8.1S1992.15,1514.67,1992.81,1518.57Z" class="color000000 svgShape"/><path fill="#dd8a83" d="M1953.46,1583.1a29.89,29.89,0,0,1-20-8.18,2.2,2.2,0,0,1,3.2-3c.53.56,12.73,13,30.26,3a2.2,2.2,0,1,1,2.18,3.82A31.19,31.19,0,0,1,1953.46,1583.1Z" class="colordd8387 svgShape"/><path fill="#f1928a" d="M1932.46,1549.47c.32,11.39-10.78,20.94-24.79,21.33s-25.62-8.52-25.94-19.91,10.78-20.94,24.79-21.33S1932.14,1538.09,1932.46,1549.47Z" class="colorf18a8b svgShape" opacity=".6"/><path fill="#f1928a" d="M1991.76,1551.57c.21,7.21,4.89,13.42,11.86,16.83,3.82-11.46,5.86-24.21,6.58-37.29C1999.35,1533.67,1991.47,1542,1991.76,1551.57Z" class="colorf18a8b svgShape" opacity=".6"/><path d="M1901.82,1500.45a2.26,2.26,0,0,1-1.14-.32,2.21,2.21,0,0,1-.74-3c13.7-22.51,37.23-9.2,37.47-9.06a2.2,2.2,0,1,1-2.21,3.81c-.83-.49-20.06-11.25-31.5,7.54A2.19,2.19,0,0,1,1901.82,1500.45Z" class="color000000 svgShape"/><path d="M2003.82,1500.17a2.21,2.21,0,0,1-1.85-1c-11.9-18.52-30.87-7.27-31.68-6.78a2.2,2.2,0,0,1-2.29-3.76c.23-.14,23.43-14,37.67,8.16a2.2,2.2,0,0,1-.66,3A2.17,2.17,0,0,1,2003.82,1500.17Z" class="color000000 svgShape"/><path fill="#f1928a" d="M1877.74,1535.91c.7,15.87-7.79,29.13-19,29.62s-20.78-12-21.48-27.84,7.79-29.12,19-29.61S1877,1520.05,1877.74,1535.91Z" class="colorf18a8b svgShape"/><path fill="#f5aca6" d="M1877.74,1535.91a36.32,36.32,0,0,0-5.48-18c-10.8,2.7-18.6,16.35-17.9,32.45a42.84,42.84,0,0,0,3.36,15c.36,0,.7.12,1.06.11C1870,1565,1878.44,1551.78,1877.74,1535.91Z" class="colorf5b0a6 svgShape"/><path d="M1937.46,1432.2c23.7,8.57,43.51,20.72,57.35,35.18,21-19.23,22.94-56.4-.9-75.9-13.89-11.35-33.05-22.3-50.7-16.41-12,4-13.75,12.42-26.63,11s-25.59-3.64-38,2.39c-7.34,3.57-13.38,9.5-18.74,15.84-18.53,21.92-30.48,51.53-26.13,80.38,1.92,12.71,6.84,24.67,11.71,36.48C1902.52,1489.7,1927.33,1448.25,1937.46,1432.2Z" class="color000000 svgShape"/><path d="M1936.14,1427.47a42.11,42.11,0,0,1-3.25,15.26,83.52,83.52,0,0,1-8,14,274.26,274.26,0,0,1-18.36,23.89,176,176,0,0,1-21.1,21,120.27,120.27,0,0,1-24.54,15.9c-2.25,1.08-4.31,2-6.46,2.84a51.33,51.33,0,0,1-7.06,2.26c-.59.14-1.18.26-1.78.37l-.89.16-.49.07c-.36.06,0,0-.17,0a27.68,27.68,0,0,1-3.64.22,32.22,32.22,0,0,1-3.54-.25c-.32,0,.27,0-.05,0l-.47-.07-1.06-.12c-.68,0-1.07-.09-1.8-.16a9.41,9.41,0,0,1-3-1c-.68-.33-1.46.52-.85,1.1a33.15,33.15,0,0,0,2.89,2.27,9.33,9.33,0,0,0,3.4,1.71,21.68,21.68,0,0,0,7.66.33,52.39,52.39,0,0,0,15-4.46,117.33,117.33,0,0,0,25.88-16,176,176,0,0,0,21.94-21.22,275.05,275.05,0,0,0,18.94-24.35c6.15-8.81,12.4-18.93,11.93-30.09a18.89,18.89,0,0,0-.6-3.82.26.26,0,0,0-.51.07Z" class="color000000 svgShape"/><path fill="#757575" d="M1935.32,1386.09c7.48-5,17-6.46,25.78-4.66a41.48,41.48,0,0,1,12.33,5,50.27,50.27,0,0,1,10.62,8.19,54.5,54.5,0,0,1,12.45,19.4,61.4,61.4,0,0,1,3.89,22.88,55.91,55.91,0,0,1-5.2,22.57c-.42.89-.8,1.76-1.16,2.67s.88,1.15,1.33.56a26.2,26.2,0,0,0,2.87-5.38,55.12,55.12,0,0,0,2.1-5.72,57.43,57.43,0,0,0,2.27-11.92,60.57,60.57,0,0,0-2.78-24.06,57.92,57.92,0,0,0-12.16-21,52.4,52.4,0,0,0-10.53-8.77,43.4,43.4,0,0,0-12.74-5.43c-9-2.23-18.61-1.61-26.8,2.93a32.51,32.51,0,0,0-2.85,1.8c-.61.43,0,1.43.58,1Z" class="color757575 svgShape" opacity=".5"/><path fill="#757575" d="M1934.92,1415.13q-.72,1.75-1.56,3.48c-.54,1.1-.93,2.29-1.43,3.42a71.17,71.17,0,0,1-3.33,6.58,86.77,86.77,0,0,1-8.54,12.21,125.94,125.94,0,0,1-10.35,11c-1.85,1.75-3.81,3.36-5.71,5.06s-3.87,3.41-5.84,5.06c-3.86,3.24-7.89,6.3-11.88,9.37a96.15,96.15,0,0,1-11.28,7.36c-7.25,4.11-14.93,7.53-21.83,12.25a45.51,45.51,0,0,0-9,7.76,37.43,37.43,0,0,0-6.51,10.89c-.19.49-.4,1-.55,1.51a8.61,8.61,0,0,0-.26,1.89.93.93,0,0,0,1.72.47,12.11,12.11,0,0,0,.87-1.63c.2-.53.39-1.06.6-1.59.39-1,.82-1.91,1.3-2.83a34.26,34.26,0,0,1,3.27-5.21,41.07,41.07,0,0,1,8.23-8c6.7-4.92,14.34-8.36,21.6-12.34a108.79,108.79,0,0,0,11.45-7.12c4-2.93,7.84-6.24,11.64-9.47,1.94-1.65,3.88-3.28,5.81-5,1-.83,1.92-1.67,2.86-2.52s1.82-1.77,2.72-2.67c3.58-3.57,7.13-7.11,10.41-11a94.49,94.49,0,0,0,8.79-12,72.32,72.32,0,0,0,3.55-6.46c.54-1.11,1-2.24,1.53-3.37a23.93,23.93,0,0,0,1.3-3.45c.29-1.21.58-2.42.82-3.65a.22.22,0,0,0-.43-.11Z" class="color757575 svgShape" opacity=".5"/><path fill="#757575" d="M1914.49,1404.21c-.46,1-1,2.08-1.44,3.13s-.77,2.11-1.19,3.14a56.61,56.61,0,0,1-2.51,5.42,46,46,0,0,1-5.88,8.61,57.37,57.37,0,0,1-7.26,6.85c-2.82,2.28-5.83,4.27-8.74,6.42-3.46,2.56-7,5.07-10.4,7.67s-7.07,5.34-10.74,7.82c-5.66,3.83-11.67,7.3-16.71,12a38.8,38.8,0,0,0-6.41,7.59,50.5,50.5,0,0,0-5,10.74c-.19.54-.37,1.08-.55,1.63a6.67,6.67,0,0,0-.22,1.84.93.93,0,0,0,1.72.46,7.88,7.88,0,0,0,.87-1.65c.18-.54.37-1.09.56-1.63.37-1,.75-2,1.18-3a46.57,46.57,0,0,1,2.52-5.11,35.79,35.79,0,0,1,5.83-7.79,42.28,42.28,0,0,1,3.45-3.11c1.16-1,2.33-1.81,3.65-2.74,2.88-2,5.86-3.91,8.8-5.86,3.59-2.39,7.17-4.84,10.53-7.55s6.86-5.55,10.43-8.16c1.59-1.16,3.24-2.27,4.74-3.53s2.79-2.24,4.17-3.37a69.29,69.29,0,0,0,7.39-6.83,47,47,0,0,0,6.1-8.28,50.13,50.13,0,0,0,2.56-5.07,44.88,44.88,0,0,0,2.3-5.93c.31-1.12.47-2.31.67-3.46,0-.22-.3-.41-.41-.17Z" class="color757575 svgShape" opacity=".5"/><path fill="#757575" d="M1935.21,1414.35a8.83,8.83,0,0,0,.49,1.76c.26.55.59,1.09.9,1.61a36.46,36.46,0,0,0,2,3,40.85,40.85,0,0,0,4.89,5.46,51.92,51.92,0,0,0,5.73,4.85,75.2,75.2,0,0,0,6.4,4,143.72,143.72,0,0,0,13.58,6.55c5.35,2.31,10.85,4.38,15.64,7.78a25.43,25.43,0,0,1,6.09,6,23,23,0,0,1,2.14,3.69,41.78,41.78,0,0,1,1.32,4.06,1.23,1.23,0,0,0,2.41-.33,10.92,10.92,0,0,0-.78-3.93,20.33,20.33,0,0,0-1.76-3.75,26.63,26.63,0,0,0-5.25-6.15c-4.52-3.92-10-6.39-15.47-8.68-4.72-2-9.48-3.89-14.06-6.17a89.65,89.65,0,0,1-12.89-7.86,34.83,34.83,0,0,1-5.89-5.62,32.11,32.11,0,0,1-2.46-3.24c-.37-.56-.73-1.14-1.07-1.72a15.55,15.55,0,0,0-1.33-1.7c-.27-.34-.75,0-.67.39Z" class="color757575 svgShape" opacity=".5"/><path fill="#757575" d="M1941.9,1406.57c1.18.24,2.36.48,3.5.83s2.21.56,3.32.84a60.89,60.89,0,0,1,6.72,2.12,62.94,62.94,0,0,1,12.46,6.46,65.39,65.39,0,0,1,19.37,20.06c1.67,2.74,3.14,5.58,4.71,8.36s2.35,6.11,3.63,9.09c.17.39.68.08.63-.26a41.87,41.87,0,0,0-2.59-8.52c-.52-1.4-.85-2.84-1.47-4.21s-1.26-2.7-2-4a59.25,59.25,0,0,0-8.64-12.1,62.28,62.28,0,0,0-23.93-15.81,63.44,63.44,0,0,0-7.63-2.35,24.87,24.87,0,0,0-4-.76c-1.35-.09-2.7-.2-4-.25-.29,0-.36.46-.07.51Z" class="color757575 svgShape" opacity=".5"/><path fill="#4285f4" d="M1838.79,1555.48c-35.29-138.36,1.52-161.74,93.7-183.64,0,0-62-17.41-109.36,36.15C1770.82,1467.09,1838.79,1555.48,1838.79,1555.48Z" class="color5681bf svgShape"/><path fill="#4285f4" d="M1869.42,1378.82s-9.76-9.54-5.85-31.15c2.77-15.38,17-21.56,17-21.56s7.41,12.49,3.77,30.09C1881,1372.27,1869.42,1378.82,1869.42,1378.82Z" class="color5681bf svgShape"/><path fill="#4285f4" d="M1868.69,1378.79s-.75-16-22.82-29.53c-15.7-9.59-32.25-1.93-32.25-1.93s5.19,16.3,23.51,26.87C1853.87,1383.85,1868.69,1378.79,1868.69,1378.79Z" class="color5681bf svgShape"/><path fill="#275634" d="M1192.19,1764.59a4.58,4.58,0,0,1-4.58-4.58V1460.43a4.58,4.58,0,1,1,9.16,0V1760A4.58,4.58,0,0,1,1192.19,1764.59Z" class="color275647 svgShape"/><path fill="#f1776d" d="M1320.09,1753.3l-4.85,18-.93,3.46-4.37,16.22-.93,3.46-43.45,161.07-.93,3.46-4.38,16.22-.93,3.46-5.74,21.27c-41.6,5.16-82.32,5.75-122.78,0l-5.74-21.27-.93-3.46-4.37-16.22-.94-3.46-43.45-161.07-.93-3.46-4.37-16.22-.93-3.46-4.85-18Z" class="colorf19a6d svgShape"/><polygon fill="#fbbc05" points="1315.24 1771.25 1314.31 1774.71 1070.07 1774.71 1069.14 1771.25 1315.24 1771.25" class="colorf3ce90 svgShape"/><polygon fill="#fbbc05" points="1309.94 1790.93 1309.01 1794.39 1075.37 1794.39 1074.44 1790.93 1309.94 1790.93" class="colorf3ce90 svgShape"/><polygon fill="#fbbc05" points="1265.56 1955.46 1264.63 1958.92 1119.76 1958.92 1118.82 1955.46 1265.56 1955.46" class="colorf3ce90 svgShape"/><polygon fill="#fbbc05" points="1260.25 1975.14 1259.32 1978.6 1125.06 1978.6 1124.13 1975.14 1260.25 1975.14" class="colorf3ce90 svgShape"/><path fill="#34a853" d="M1208.58,1525.85a13.18,13.18,0,0,1-13.89-5.17,12.82,12.82,0,0,1-2.18-4.89,12.12,12.12,0,0,1-.31-2.84,13.23,13.23,0,0,1,3-8.46c17.53-21.22,106.25-123.85,147.84-80.92C1393.35,1475.4,1257.07,1514.05,1208.58,1525.85Z" class="color40947e svgShape"/><path fill="#275634" d="M1287.05,1466l-92.36,54.65a12.82,12.82,0,0,1-2.18-4.89l91.82-54.35a2.67,2.67,0,0,1,2.72,4.59Z" class="color275647 svgShape"/><path fill="#6fc185" d="M1192.2,1563.72a12.7,12.7,0,0,1-.3,2.85,13.43,13.43,0,0,1-2.19,4.88,13.21,13.21,0,0,1-13.91,5.17c-48.47-11.79-184.75-50.42-134.49-102.28,41.56-42.9,130.28,59.71,147.84,80.92A13.29,13.29,0,0,1,1192.2,1563.72Z" class="color6fc183 svgShape"/><path fill="#275634" d="M1191.9,1566.57a13.43,13.43,0,0,1-2.19,4.88l-92.39-54.65a2.67,2.67,0,0,1,2.73-4.58Z" class="color275647 svgShape"/><path fill="#2e683d" d="M1202.3,1459.67a13.33,13.33,0,0,1-4,8.06,14.34,14.34,0,0,1-2.26,1.74,13,13,0,0,1-5.07,1.79,13.25,13.25,0,0,1-13.32-6.51c-24.91-43.21-90.91-168.54-18.71-167.92C1218.68,1297.34,1205.57,1432.35,1202.3,1459.67Z" class="color2e6857 svgShape"/><path fill="#275634" d="M1196,1469.47a13,13,0,0,1-5.07,1.79l-24.13-104.58a2.66,2.66,0,1,1,5.19-1.18Z" class="color275647 svgShape"/><path fill="#2e683d" d="M1208.58,1634.82a13.16,13.16,0,0,1-13.89-5.17,12.75,12.75,0,0,1-2.18-4.89,12,12,0,0,1-.31-2.84,13.29,13.29,0,0,1,3-8.46c17.53-21.21,106.25-123.82,147.84-80.92C1393.35,1584.4,1257.07,1623,1208.58,1634.82Z" class="color2e6857 svgShape"/><path fill="#275634" d="M1287.05,1575l-92.36,54.63a12.75,12.75,0,0,1-2.18-4.89l91.82-54.34a2.67,2.67,0,1,1,2.72,4.6Z" class="color275647 svgShape"/><path fill="#34a853" d="M1192.2,1672.69a12.7,12.7,0,0,1-.3,2.85,13.5,13.5,0,0,1-2.19,4.91,13.23,13.23,0,0,1-13.91,5.14c-48.47-11.77-184.75-50.42-134.49-102.27,41.56-42.91,130.28,59.7,147.84,80.92A13.3,13.3,0,0,1,1192.2,1672.69Z" class="color40947e svgShape"/><path fill="#275634" d="M1191.9,1675.54a13.5,13.5,0,0,1-2.19,4.91l-92.39-54.65a2.68,2.68,0,0,1,2.73-4.61Z" class="color275647 svgShape"/><path fill="#6fc185" d="M1208.58,1737.47a13.16,13.16,0,0,1-13.89-5.17,12.71,12.71,0,0,1-2.18-4.88,12.15,12.15,0,0,1-.31-2.85,13.2,13.2,0,0,1,3-8.45c17.53-21.22,106.25-123.85,147.84-80.92C1393.35,1687,1257.07,1725.68,1208.58,1737.47Z" class="color6fc183 svgShape"/><path fill="#275634" d="M1287.05,1677.65l-92.36,54.65a12.71,12.71,0,0,1-2.18-4.88l91.82-54.35a2.66,2.66,0,1,1,2.72,4.58Z" class="color275647 svgShape"/><path fill="#f5aca6" d="M2289.55,670.12s-13.38,22-56.47,25c-55.85,3.84-58.63-7.65-58.63-7.65l-7.28-86.14,85.11-57.23Z" class="colorf5b0a6 svgShape"/><path fill="#f5aca6" d="M2263.55,509.57c-3.5,30.31-26.06,66.79-65.69,89.46-18.29,10.45-37.06,14.12-50.49,8.73-16.79-6.72-28.26-19.84-35.93-36.22-5-10.87-8.4-23.19-10.55-36-5.73-35-2.09-74.1,2.47-99.57C2153.19,348.6,2268,471.45,2263.55,509.57Z" class="colorf5b0a6 svgShape"/><path fill="#f1928a" d="M2233.75,571.84c-.54,4.11-10.18,70.24-61.65,79.65l-4.1-41.7,1.46-.14c16.85-1.65,33.17-7.61,46.5-18.11C2228.26,581.92,2233.05,573.08,2233.75,571.84Z" class="colorf18a8b svgShape"/><path fill="#f5aca6" d="M2240.68,510.22c2-18.77,21.09-17.76,26.56-14.57,3.94,2.3,6,6.88,7,11.33a40.25,40.25,0,0,1-7,32.52,23.31,23.31,0,0,1-9.29,7.78c-10.61,4.41-18.75-3.14-20-12.63Z" class="colorf5b0a6 svgShape"/><path fill="#dd8a83" d="M2149.27,565.42A2.23,2.23,0,0,1,2148,565c-4.42-3-18.8-13.32-18.27-19.57.18-2.11,2.56-7.18,20.38-9.65,2.57-15.07-2.61-38.36-2.66-38.6a2.18,2.18,0,1,1,4.25-1c.24,1.06,5.8,26.08,2.39,42a2.19,2.19,0,0,1-1.87,1.7c-9.87,1.23-18,4.23-18.14,5.9-.19,2.23,7.46,9.52,16.38,15.59a2.19,2.19,0,0,1-1.23,4Zm2.72-27.64h0Z" class="colordd8387 svgShape"/><path fill="#151515" d="M2177.24,516c-.23,3.92,2.29,7.25,5.63,7.45s6.23-2.82,6.46-6.73-2.28-7.25-5.62-7.45S2177.47,512.06,2177.24,516Z" class="color151515 svgShape"/><path fill="#151515" d="M2116.65,521.3c-.23,3.91,2.29,7.25,5.63,7.45s6.23-2.82,6.46-6.73-2.28-7.25-5.62-7.45S2116.89,517.39,2116.65,521.3Z" class="color151515 svgShape"/><path fill="#dd8a83" d="M2159.42,580.73a32,32,0,0,1-12.83-2.83,2.18,2.18,0,0,1,1.74-4c7.76,3.36,15.09,3.33,21.77-.1a24.51,24.51,0,0,0,7.7-6.1,2.18,2.18,0,0,1,3.48,2.63C2181.18,570.47,2173.21,580.73,2159.42,580.73Z" class="colordd8387 svgShape"/><path fill="#f1928a" d="M2179.44,545.17c.93,11.25,12.9,19.44,26.73,18.3s24.31-11.17,23.38-22.42-12.89-19.44-26.73-18.3S2178.52,533.92,2179.44,545.17Z" class="colorf18a8b svgShape" opacity=".6"/><path fill="#f1928a" d="M2121.28,553.68c.58,7.13-3.36,13.75-9.84,17.86-5-10.87-8.4-23.19-10.55-36C2111.86,536.88,2120.53,544.22,2121.28,553.68Z" class="colorf18a8b svgShape" opacity=".6"/><path d="M2204.05,493.58a2.16,2.16,0,0,1-1.73-.85c-13.31-17.27-31.09-4.56-31.84-4a2.18,2.18,0,0,1-2.59-3.51c.22-.16,21.94-15.82,37.88,4.85a2.19,2.19,0,0,1-1.72,3.52Z" class="color000000 svgShape"/><path d="M2103.58,504.39a2.22,2.22,0,0,1-1-.22,2.18,2.18,0,0,1-1-2.93c11.61-23.38,36-12.24,36.21-12.13a2.18,2.18,0,0,1-1.86,3.95h0c-.84-.39-20.75-9.4-30.45,10.12A2.17,2.17,0,0,1,2103.58,504.39Z" class="color000000 svgShape"/><path d="M2236.52,513.61c-12.71-2.49-57.25-31.93-70.27-64.92-34.12-6.88-85.4,36.45-87.29,77.07-47.41-63.8-6.63-117.67,14.9-136.51,16.13-14.11,36.83-23.34,58.27-25,10.36-.8,20.42.61,30.78-.25,11.65-1,23.38-.66,34.2,4.25,17.1,7.75,30.26,22.39,37,39.82a159.56,159.56,0,0,1,5.58,18.95c2.54,10.15,5.09,20.37,5.84,30.81C2267.9,490.51,2291.57,524.41,2236.52,513.61Z" class="color000000 svgShape"/><path fill="#5e5e5e" d="M2146.69,428.43a108.33,108.33,0,0,0-12.58,3.91,95.69,95.69,0,0,0-12.15,5.42,101.67,101.67,0,0,0-21.4,15.63,87.66,87.66,0,0,0-25.94,47.51,81.44,81.44,0,0,0-1.42,13.93,54.62,54.62,0,0,0,1.34,14c.28,1.1.59,2.19.92,3.28a1.55,1.55,0,0,0,1.71,1.11,1.53,1.53,0,0,0,1.35-1.52c-.27-2.24-.46-4.49-.63-6.74s-.34-4.46-.39-6.69,0-4.48.14-6.71c.07-1.14.14-2.27.25-3.4q.08-.83.18-1.65c0-.24,0-.48.08-.72s0-.27,0-.41c.09-.67-.06.43,0-.25a86.76,86.76,0,0,1,2.93-13.13c.67-2.18,1.43-4.34,2.27-6.46.47-1.17.67-1.66,1.16-2.76s1-2.08,1.46-3.11A86.93,86.93,0,0,1,2093,468c.61-.86,1.22-1.72,1.86-2.57l.47-.63.24-.32c-.16.21.05-.05.07-.08l1-1.32q2.05-2.54,4.29-4.93a97.86,97.86,0,0,1,19.74-16.21A116.66,116.66,0,0,1,2144,430.52c1-.35,2-.68,3-1a.57.57,0,0,0-.3-1.09Z" class="color5e5e5e svgShape" opacity=".5"/><path fill="#5e5e5e" d="M2073.22,432.38a74.57,74.57,0,0,0-9.58,16.95,111.61,111.61,0,0,0-6.74,22A99.3,99.3,0,0,0,2055,495a57.64,57.64,0,0,0,5,21.68,37.72,37.72,0,0,0,5.68,8.76,26.7,26.7,0,0,0,8.19,6.57q.74.36,1.47.66c-.45-.18.47.16.62.19l.63.14c1.24.27,2.46-1.34,1.34-2.3-1.38-1.18-2.92-2.14-4.38-3.22-.18-.12-.34-.25-.51-.38l-.22-.17-1-.81c-.62-.55-1.24-1.11-1.83-1.69s-1.16-1.18-1.7-1.8c-.28-.31-.54-.63-.8-1-.12-.14-.23-.29-.35-.44s.29.39,0,0l-.22-.3a36,36,0,0,1-2.69-4.19c-.41-.74-.79-1.49-1.15-2.25-.17-.37-.34-.73-.5-1.1l-.12-.3c.18.43.08.19,0,.1l-.29-.71a48.68,48.68,0,0,1-1.65-4.95c-.48-1.72-.87-3.47-1.18-5.23l-.21-1.21c0-.23-.07-.45-.1-.68s0-.18,0-.27-.08-.6,0-.3,0-.15,0-.17a2.36,2.36,0,0,1,0-.28c0-.22-.06-.45-.08-.68-.06-.49-.11-1-.15-1.46a87.27,87.27,0,0,1-.33-11.32c.06-1.94.19-3.87.36-5.81.09-1,.2-1.94.31-2.91.06-.48.12-1,.19-1.45-.05.33,0-.29,0-.38,0-.27.08-.53.11-.8a128,128,0,0,1,5.31-22.27,87.64,87.64,0,0,1,8-17.71c.36-.59.74-1.17,1.12-1.75.27-.4-.37-.9-.67-.52Z" class="color5e5e5e svgShape" opacity=".5"/><path fill="#5e5e5e" d="M2184.33,450.71a147.64,147.64,0,0,0,20.21,31.66c8.11,9.58,17.69,18.07,28.79,24a74.78,74.78,0,0,0,9.49,4.27,36.6,36.6,0,0,0,10,2.32c1.44.1,1.62-2,.33-2.44-2.83-.9-5.69-1.68-8.5-2.63a64.9,64.9,0,0,1-8.07-3.34,85.09,85.09,0,0,1-15.14-9.63,139,139,0,0,1-25.63-27.17,159.38,159.38,0,0,1-11-17.31c-.16-.29-.57,0-.43.25Z" class="color5e5e5e svgShape" opacity=".5"/><path fill="#5e5e5e" d="M2219.28,473.94a148,148,0,0,0,25.84,33.72c1.39,1.36,2.82,2.65,4.3,3.9a28.11,28.11,0,0,0,2.59,2c.83.54,1.71,1,2.58,1.46a1.29,1.29,0,0,0,1.56-2,37.72,37.72,0,0,0-3.58-4l-3.71-3.58c-2.48-2.37-4.88-4.84-7.19-7.38A149.45,149.45,0,0,1,2229,482q-3.36-4.86-6.33-10a1.94,1.94,0,0,0-3.36,2Z" class="color5e5e5e svgShape" opacity=".5"/><path fill="#5e5e5e" d="M2200.48,404.92a138.57,138.57,0,0,0,3.09,27.91,146.64,146.64,0,0,0,8.66,26.89,151.77,151.77,0,0,0,7,14.26,2,2,0,0,0,2.74.72,2,2,0,0,0,.72-2.75,151.79,151.79,0,0,1-11.63-24.85,167.66,167.66,0,0,1-7.18-26.71,141.25,141.25,0,0,1-2-15.47.72.72,0,0,0-1.44,0Z" class="color5e5e5e svgShape" opacity=".5"/><path fill="#3d9153" d="M3082.07,817.1c0,118.5-96.07,214.57-214.58,214.57S2652.92,935.6,2652.92,817.1,2749,602.52,2867.49,602.52,3082.07,698.59,3082.07,817.1Z" class="color3d5891 svgShape"/><circle cx="2867.49" cy="817.1" r="194.16" fill="#d1dced" class="colord1dbed svgShape" transform="rotate(-45 2867.496 817.104)"/><path fill="#4285f4" d="M2882.63,817.1A15.14,15.14,0,1,1,2867.49,802,15.14,15.14,0,0,1,2882.63,817.1Z" class="color5681bf svgShape"/><path fill="#4285f4" d="M2876.21,641.37a8.72,8.72,0,1,1-8.72-8.72A8.71,8.71,0,0,1,2876.21,641.37Z" class="color5681bf svgShape"/><path fill="#4285f4" d="M3043.22,825.82a8.72,8.72,0,1,1,8.72-8.72A8.72,8.72,0,0,1,3043.22,825.82Z" class="color5681bf svgShape"/><path fill="#4285f4" d="M2858.77,992.82a8.72,8.72,0,1,1,8.72,8.72A8.73,8.73,0,0,1,2858.77,992.82Z" class="color5681bf svgShape"/><path fill="#4285f4" d="M2691.77,808.38a8.72,8.72,0,1,1-8.72,8.72A8.72,8.72,0,0,1,2691.77,808.38Z" class="color5681bf svgShape"/><path fill="#4285f4" d="M2865.71,814.64c19.11-17.35,39.74-32.7,60.79-47.53s42.76-28.79,65.83-40.58C2964.71,753.72,2933.78,777,2902,799c-10.65,7.2-21.44,14.22-32.72,20.56l-3.56-4.91Z" class="color5681bf svgShape"/><path fill="#4285f4" d="M2866,819.76c-16.66-5.85-32.17-14-47.43-22.69-15.24-8.91-30-18.41-43.32-30.22,25.51,7.35,49.09,19.37,71.83,32.76a217,217,0,0,1,21.82,14.82l-2.9,5.33Z" class="color5681bf svgShape"/></g></svg>